<?xml version="1.0" encoding="UTF-8"?>
<svg width="256px" height="25px" viewBox="0 0 256 25" version="1.1" xmlns="http://www.w3.org/2000/svg" xmlns:xlink="http://www.w3.org/1999/xlink">
    <!-- Generator: Sketch 55.2 (78181) - https://sketchapp.com -->
    <title>Logo/Products/Boost</title>
    <desc>Created with Sketch.</desc>
    <defs>
        <polygon id="path-1" points="0.0368659499 0.0438271605 111.292159 0.0438271605 111.292159 23.9919753 0.0368659499 23.9919753"></polygon>
    </defs>
    <g id="Page-1" stroke="none" stroke-width="1" fill="none" fill-rule="evenodd">
        <g id="Landing_Page_2" transform="translate(-1209.000000, -3548.000000)">
            <g id="From-The-Makers-of" transform="translate(0.000000, 3025.000000)">
                <g id="Logo/Products/Boost" transform="translate(1209.000000, 523.000000)">
                    <g stroke-width="1" fill-rule="evenodd">
                        <path d="M110.903451,0.925925926 L110.902527,25" id="Fill-1" fill="#8B8E8D"></path>
                        <g id="Group-5" transform="translate(0.000000, 0.925926)">
                            <mask id="mask-2" fill="white">
                                <use xlink:href="#path-1"></use>
                            </mask>
                            <g id="Clip-3"></g>
                            <path d="M110.67834,0.0438271605 L110.677726,23.9919753" id="Stroke-2" stroke="#8B8E8D" stroke-width="0.569" mask="url(#mask-2)"></path>
                            <path d="M10.7163172,2.7382716 C10.7163172,1.31604938 9.73998397,0.999382716 8.53692514,0.999382716 L3.44327972,0.999382716 C2.2365343,0.999382716 1.26204435,1.31604938 1.26204435,2.7382716 L1.26204435,5.80864198 C1.26204435,7.23148148 2.2365343,7.54506173 3.44327972,7.54506173 L8.53692514,7.54506173 C9.73998397,7.54506173 10.7163172,7.23148148 10.7163172,5.80864198 L10.7163172,2.7382716 Z M0,3.15740741 C0,1.09074074 0.800605546,0.0962962963 3.3124056,0.0962962963 L8.6628838,0.0962962963 C11.1783705,0.0962962963 11.974675,1.09074074 11.974675,3.15740741 L11.974675,5.39135802 C11.974675,7.45740741 11.1783705,8.45185185 8.6628838,8.45185185 L3.3124056,8.45185185 C0.800605546,8.45185185 0,7.45740741 0,5.39135802 L0,3.15740741 L0,3.15740741 Z" id="Fill-4" fill="#8B8E8D" mask="url(#mask-2)"></path>
                        </g>
                        <path d="M21.082277,5.36585898 C21.082277,4.17725387 20.6740319,3.61536782 19.1308896,3.61536782 L16.9503227,3.61536782 C15.506186,3.61536782 14.9579885,4.3219821 14.9579885,5.37633704 L14.9579885,6.53481773 C14.9579885,7.99847195 15.9303209,8.23684785 17.0896638,8.23684785 L19.0416624,8.23684785 C20.3177341,8.23684785 21.082277,7.97489631 21.082277,6.55970312 L21.082277,5.36585898 Z M13.8628159,2.87077057 L14.8840399,2.87077057 L14.8840399,3.8419559 L14.9090969,3.8419559 C15.2275037,3.09932329 16.1228317,2.77777778 17.0896638,2.77777778 L19.1712252,2.77777778 C20.7259793,2.77777778 22.1805054,3.24339664 22.1805054,5.35407116 L22.1805054,6.42807247 C22.1805054,8.40580659 21.2472863,9.07705741 18.9921596,9.07705741 L16.8989865,9.07705741 C15.7402547,9.07705741 15.2140585,8.80135342 14.9824343,8.16677581 L14.9579885,8.16677581 L14.9579885,11.1111111 L13.8628159,11.1111111 L13.8628159,2.87077057 L13.8628159,2.87077057 Z" id="Fill-6" fill="#8B8E8D"></path>
                        <path d="M31.2295755,6.5550242 C31.2295755,5.81747929 30.4276304,5.72218179 28.7079315,5.72218179 L26.9901004,5.72218179 C25.5487162,5.72218179 25.1452531,5.89429486 25.1452531,6.56830809 L25.1452531,6.73580067 C25.1452531,7.33761883 25.4055117,7.59232306 26.9377996,7.59232306 L28.4215225,7.59232306 C30.4506677,7.59232306 31.2295755,7.47623338 31.2295755,6.80048746 L31.2295755,6.5550242 Z M31.2295755,7.70899031 L31.205293,7.70899031 C30.9026957,8.19356366 30.5546466,8.33333333 28.8368155,8.33333333 L26.1595144,8.33333333 C24.4709469,8.33333333 24.0288809,7.72978249 24.0288809,6.71443093 L24.0288809,6.35749847 C24.0288809,5.13133728 25.0941976,4.98521445 27.0461369,4.98521445 L28.8368155,4.98521445 C30.294388,4.98521445 30.8130372,5.1076573 31.205293,5.62572917 L31.2295755,5.62572917 L31.2295755,4.61326541 C31.2295755,3.64238602 30.4774407,3.5164778 28.7596096,3.5164778 L27.1227202,3.5164778 C25.7162032,3.5164778 25.4478504,3.79255178 25.4478504,4.23438565 L25.4478504,4.42382553 L24.3258745,4.42382553 L24.3258745,4.16103545 C24.3258745,3.17802728 25.0941976,2.77777778 27.097815,2.77777778 L28.8654564,2.77777778 C30.9469023,2.77777778 32.3465704,3.03074933 32.3465704,4.63579028 L32.3465704,8.24612168 L31.2295755,8.24612168 L31.2295755,7.70899031 L31.2295755,7.70899031 Z" id="Fill-7" fill="#8B8E8D"></path>
                        <polygon id="Fill-8" fill="#8B8E8D" points="34.1949458 9.25925926 35.1191336 9.25925926 35.1191336 0.925925926 34.1949458 0.925925926"></polygon>
                        <path d="M44.189561,4.61326541 C44.189561,4.06573795 43.6951508,3.5164778 41.9067285,3.5164778 L40.3020315,3.5164778 C38.5697645,3.5164778 38.1650805,3.74865717 38.0619258,4.97366324 L44.189561,4.97366324 L44.189561,4.61326541 Z M36.967509,4.95171593 C36.967509,2.99840593 38.5960109,2.77777778 40.1506565,2.77777778 L41.9067285,2.77777778 C43.8703307,2.77777778 45.2851986,3.18842338 45.2851986,5.1076573 L45.2851986,5.7117857 L38.0619258,5.7117857 L38.0619258,6.05023622 C38.0619258,7.27466473 38.7742428,7.59232306 40.688404,7.59232306 L42.1893358,7.59232306 C43.5663599,7.59232306 44.1285227,7.44388999 44.189561,6.62202123 L45.2851986,6.62202123 L45.2851986,6.72482702 C45.2851986,7.96196186 44.0491729,8.33333333 42.0117144,8.33333333 L40.0224761,8.33333333 C38.5960109,8.33333333 36.967509,8.1109725 36.967509,6.12474154 L36.967509,4.95171593 L36.967509,4.95171593 Z" id="Fill-9" fill="#8B8E8D"></path>
                        <path d="M46.2093863,6.38810918 L47.2463775,6.38810918 L47.2463775,6.65263194 C47.2463775,7.31624909 47.6765921,7.59232306 48.8174069,7.59232306 L51.20659,7.59232306 C52.8814428,7.59232306 53.4098856,7.54034261 53.4098856,6.73580067 L53.4098856,6.69594899 C53.4098856,6.17787712 53.2327018,5.89429486 51.894809,5.89429486 L48.4530922,5.89429486 C46.8833063,5.89429486 46.2976673,5.47845121 46.2976673,4.45616892 L46.2976673,4.13966571 C46.2976673,3.26119601 46.9131477,2.77777778 49.6598069,2.77777778 L51.3744483,2.77777778 C53.8929445,2.77777778 54.2454469,3.36631204 54.2454469,4.12695937 L54.2454469,4.41169676 L53.2065905,4.41169676 L53.2065905,4.35798362 C53.2065905,3.53669243 52.5295621,3.5164778 51.3141436,3.5164778 L49.359527,3.5164778 C47.7679817,3.5164778 47.4154792,3.64238602 47.4154792,4.25344515 L47.4154792,4.45616892 C47.4154792,4.90031304 47.5976366,5.15328459 48.7664277,5.15328459 L51.71203,5.15328459 C53.3856394,5.15328459 54.5270758,5.29132157 54.5270758,6.74908457 L54.5270758,6.76987675 C54.5270758,8.28135288 52.8136778,8.33333333 51.4521605,8.33333333 L49.3999373,8.33333333 C47.7536826,8.33333333 46.2093863,8.33333333 46.2093863,6.71443093 L46.2093863,6.38810918" id="Fill-10" fill="#8B8E8D"></path>
                        <path d="M56.3754513,4.95171593 C56.3754513,2.99840593 58.0843756,2.77777778 59.7447616,2.77777778 L61.6383834,2.77777778 C63.7463299,2.77777778 64.5771533,3.46160955 64.5771533,4.60286932 L64.5771533,4.75187996 L63.5200282,4.75187996 L63.5200282,4.6236615 C63.5200282,3.72728743 62.7862813,3.5164778 61.6528819,3.5164778 L59.5733019,3.5164778 C58.5054606,3.5164778 57.5056989,3.64238602 57.5056989,4.98521445 L57.5056989,6.11319033 C57.5056989,7.31624909 58.425404,7.59232306 59.7970821,7.59232306 L61.7052023,7.59232306 C62.7585452,7.59232306 63.6391676,7.33761883 63.6391676,6.4597267 L63.6391676,6.28357071 L64.6931408,6.28357071 L64.6931408,6.4406672 C64.6931408,7.80197757 63.8516012,8.33333333 61.7461761,8.33333333 L59.1944515,8.33333333 C58.1789306,8.33333333 56.3754513,8.1109725 56.3754513,6.15592981 L56.3754513,4.95171593" id="Fill-11" fill="#8B8E8D"></path>
                        <path d="M72.8371343,4.61326541 C72.8371343,4.06573795 72.3418667,3.5164778 70.5559757,3.5164778 L68.9548952,3.5164778 C67.2208488,3.5164778 66.8189013,3.74865717 66.7103328,4.97366324 L72.8371343,4.97366324 L72.8371343,4.61326541 Z M65.6173285,4.95171593 C65.6173285,2.99840593 67.2464661,2.77777778 68.7993617,2.77777778 L70.5559757,2.77777778 C72.5169182,2.77777778 73.9350181,3.18842338 73.9350181,5.1076573 L73.9350181,5.7117857 L66.7103328,5.7117857 L66.7103328,6.05023622 C66.7103328,7.27466473 67.4257871,7.59232306 69.3342751,7.59232306 L70.8402057,7.59232306 C72.2150001,7.59232306 72.773091,7.44388999 72.8371343,6.62202123 L73.9350181,6.62202123 L73.9350181,6.72482702 C73.9350181,7.96196186 72.698069,8.33333333 70.6614946,8.33333333 L68.6755448,8.33333333 C67.2464661,8.33333333 65.6173285,8.1109725 65.6173285,6.12474154 L65.6173285,4.95171593 L65.6173285,4.95171593 Z" id="Fill-12" fill="#8B8E8D"></path>
                        <path d="M75.7833935,2.86109938 L76.8411563,2.86109938 L76.8411563,3.80873586 L76.8645918,3.80873586 C77.2902305,2.9585035 78.1769778,2.77777778 79.5938733,2.77777778 L81.2983282,2.77777778 C83.4296887,2.77777778 84.101083,3.64443975 84.101083,4.63197672 L84.101083,8.33333333 L82.9635129,8.33333333 L82.9635129,4.85964418 C82.9635129,4.05752711 82.6892547,3.52825893 80.4793538,3.52825893 L80.1886273,3.52825893 C77.5302857,3.52825893 76.9222304,3.93371826 76.9222304,5.22344271 L76.9222304,8.33333333 L75.7833935,8.33333333 L75.7833935,2.86109938" id="Fill-13" fill="#8B8E8D"></path>
                        <path d="M85.0252708,4.95171593 C85.0252708,2.99840593 86.7313018,2.77777778 88.3950919,2.77777778 L90.2890008,2.77777778 C92.3941145,2.77777778 93.2250638,3.46160955 93.2250638,4.60286932 L93.2250638,4.75187996 L92.1715613,4.75187996 L92.1715613,4.6236615 C92.1715613,3.72728743 91.4332899,3.5164778 90.3009795,3.5164778 L88.226128,3.5164778 C87.1568639,3.5164778 86.1569506,3.64238602 86.1569506,4.98521445 L86.1569506,6.11319033 C86.1569506,7.31624909 87.0749038,7.59232306 88.4480508,7.59232306 L90.3570907,7.59232306 C91.4068105,7.59232306 92.2907187,7.33761883 92.2907187,6.4597267 L92.2907187,6.28357071 L93.3429603,6.28357071 L93.3429603,6.4406672 C93.3429603,7.80197757 92.4987712,8.33333333 90.3917661,8.33333333 L87.8446983,8.33333333 C86.8309149,8.33333333 85.0252708,8.1109725 85.0252708,6.15592981 L85.0252708,4.95171593" id="Fill-14" fill="#8B8E8D"></path>
                        <path d="M101.489361,4.61326541 C101.489361,4.06573795 100.993192,3.5164778 99.2080838,3.5164778 L97.6017915,3.5164778 C95.8722198,3.5164778 95.4657644,3.74865717 95.3595733,4.97366324 L101.489361,4.97366324 L101.489361,4.61326541 Z M94.267148,4.95171593 C94.267148,2.99840593 95.8960213,2.77777778 97.4504387,2.77777778 L99.2080838,2.77777778 C101.167736,2.77777778 102.584838,3.18842338 102.584838,5.1076573 L102.584838,5.7117857 L95.3595733,5.7117857 L95.3595733,6.05023622 C95.3595733,7.27466473 96.0742269,7.59232306 97.9887175,7.59232306 L99.4888188,7.59232306 C100.86442,7.59232306 101.427721,7.44388999 101.489361,6.62202123 L102.584838,6.62202123 L102.584838,6.72482702 C102.584838,7.96196186 101.347773,8.33333333 99.3100029,8.33333333 L97.3228874,8.33333333 C95.8960213,8.33333333 94.267148,8.1109725 94.267148,6.12474154 L94.267148,4.95171593 L94.267148,4.95171593 Z" id="Fill-15" fill="#8B8E8D"></path>
                        <path d="M8.31768953,20.8317015 C8.31768953,23.1364716 6.45542305,25 4.15949591,25 C1.86291763,25 0,23.1364716 0,20.8317015 C0,18.5295423 1.86291763,16.6666667 4.15949591,16.6666667 C6.45542305,16.6666667 8.31768953,18.5295423 8.31768953,20.8317015" id="Fill-17" fill="#AB3225"></path>
                        <path d="M48.0577617,20.8317015 C48.0577617,23.1364716 46.1962146,25 43.898917,25 C41.6016193,25 39.7400722,23.1364716 39.7400722,20.8317015 C39.7400722,18.5295423 41.6016193,16.6666667 43.898917,16.6666667 C46.1962146,16.6666667 48.0577617,18.5295423 48.0577617,20.8317015" id="Fill-18" fill="#BF5C41"></path>
                        <path d="M67.465704,20.8317015 C67.465704,23.1364716 65.6061798,25 63.3075108,25 C61.0094933,25 59.1480144,23.1364716 59.1480144,20.8317015 C59.1480144,18.5295423 61.0094933,16.6666667 63.3075108,16.6666667 C65.6061798,16.6666667 67.465704,18.5295423 67.465704,20.8317015" id="Fill-19" fill="#C76D51"></path>
                        <path d="M86.8736462,20.8317015 C86.8736462,23.1364716 85.0088424,25 82.7141501,25 C80.4188065,25 78.5559567,23.1364716 78.5559567,20.8317015 C78.5559567,18.5295423 80.4188065,16.6666667 82.7141501,16.6666667 C85.0088424,16.6666667 86.8736462,18.5295423 86.8736462,20.8317015" id="Fill-20" fill="#CE7F62"></path>
                        <path d="M106.281588,20.8317015 C106.281588,23.1364716 104.418087,25 102.121441,25 C99.8260974,25 97.9638989,23.1364716 97.9638989,20.8317015 C97.9638989,18.5295423 99.8260974,16.6666667 102.121441,16.6666667 C104.418087,16.6666667 106.281588,18.5295423 106.281588,20.8317015" id="Fill-21" fill="#D79477"></path>
                        <path d="M28.6472785,20.9828294 C28.5632697,23.2808379 26.636927,25.0764424 24.3400335,24.9974933 C22.0476987,24.9146292 20.2509511,22.9846153 20.3349599,20.6853019 C20.4176663,18.3872934 22.3440091,16.587774 24.6376463,16.6693331 C26.9332373,16.7528496 28.7267288,18.6809061 28.6472785,20.9828294" id="Fill-22" fill="#B74C34"></path>
                        <g id="Group-28" transform="translate(115.523466, 0.000000)" fill="#AB3225">
                            <path d="M14.6246477,20.583125 C17.5155952,20.583125 19.6990977,19.9975 19.6990977,17.20375 C19.6990977,14.734375 17.7077483,13.955 14.6246477,13.955 L4.70064722,13.955 L4.70064722,20.583125 L14.6246477,20.583125 Z M14.494898,10.1225 C17.4816131,10.1225 18.7988818,9.374375 18.7988818,7.393125 C18.7988818,5.378125 17.4816131,4.630625 14.494898,4.630625 L4.70064722,4.630625 L4.70064722,10.1225 L14.494898,10.1225 Z M0.140871131,0.798125 L14.207595,0.798125 C19.6990977,0.798125 23.3598936,2.3575 23.3598936,6.840625 C23.3598936,9.828125 21.9141109,10.93375 20.662335,11.745625 C22.2990351,12.460625 24.2588738,14.474375 24.2588738,17.56 C24.2588738,22.01125 20.7587205,24.415 15.0738289,24.415 L0.140871131,24.415 L0.140871131,0.798125 L0.140871131,0.798125 Z" id="Fill-23"></path>
                            <path d="M49.6298881,12.525625 C49.6298881,6.840625 45.6156787,4.17625 40.2854364,4.17625 C34.9533405,4.17625 30.9391311,6.840625 30.9391311,12.525625 C30.9391311,19.2175 35.9171956,21.036875 40.2854364,21.036875 C44.6512058,21.036875 49.6298881,19.2175 49.6298881,12.525625 Z M40.2854364,0.213125 C50.5609969,0.213125 54.1902821,6.320625 54.1902821,12.785625 C54.1902821,17.690625 51.332081,25 40.2854364,25 C29.238174,25 26.3787372,17.690625 26.3787372,12.785625 C26.3787372,6.320625 30.0080224,0.213125 40.2854364,0.213125 L40.2854364,0.213125 Z" id="Fill-25"></path>
                            <path d="M79.1423901,12.525625 C79.1423901,6.840625 75.1281807,4.17625 69.7979384,4.17625 C64.4658425,4.17625 60.452251,6.840625 60.452251,12.525625 C60.452251,19.2175 65.4290798,21.036875 69.7979384,21.036875 C74.1643256,21.036875 79.1423901,19.2175 79.1423901,12.525625 Z M69.7979384,0.213125 C80.0741167,0.213125 83.7027841,6.320625 83.7027841,12.785625 C83.7027841,17.690625 80.844583,25 69.7979384,25 C58.7494403,25 55.8912392,17.690625 55.8912392,12.785625 C55.8912392,6.320625 59.5211423,0.213125 69.7979384,0.213125 L69.7979384,0.213125 Z" id="Fill-26"></path>
                            <path d="M105.0911,7.978125 C104.352762,5.865625 102.457798,4.046875 96.9020384,4.046875 C93.8195556,4.046875 90.7030907,4.825625 90.7030907,7.003125 C90.7030907,8.009375 91.2826395,9.08125 95.9388011,9.666875 L101.46305,10.511875 C106.696907,11.323125 109.780625,13.37 109.780625,17.333125 C109.780625,22.92 104.512169,25 98.2829462,25 C88.2625602,25 85.8232653,19.9975 85.2776986,18.210625 L89.6762143,16.813125 C90.5103197,18.535 92.2452589,21.036875 98.4108423,21.036875 C102.136513,21.036875 105.220232,19.801875 105.220232,17.755625 C105.220232,16.228125 103.485292,15.221875 100.145164,14.800625 L94.5585112,14.019375 C89.1627761,13.2725 86.1439325,10.90125 86.1439325,7.294375 C86.1439325,0.213125 95.2325919,0.213125 97.0299345,0.213125 C107.083067,0.213125 108.816153,4.924375 109.393848,6.5475 L105.0911,7.978125" id="Fill-27"></path>
                        </g>
                        <polyline id="Fill-29" fill="#AB3225" points="236.665807 4.96513596 226.425993 4.96513596 226.425993 0.925925926 251.379061 0.925925926 251.379061 4.96513596 241.139247 4.96513596 241.139247 25 236.665807 25 236.665807 4.96513596"></polyline>
                    </g>
                    <path d="M104.904549,3.84722222 L104.904549,2.42592593 L105.144838,2.42592593 L105.385126,3.00462963 L105.528375,3.40277778 L105.546859,3.40277778 L105.690108,3.00462963 L105.921155,2.42592593 L106.161444,2.42592593 L106.161444,3.84722222 L105.985848,3.84722222 L105.985848,3.10185185 L106.008953,2.64814815 L105.990469,2.64814815 L105.611552,3.625 L105.45444,3.625 L105.075523,2.64814815 L105.05704,2.64814815 L105.080144,3.10185185 L105.080144,3.84722222 L104.904549,3.84722222 Z M103.989603,3.84722222 L103.989603,2.58796296 L103.495162,2.58796296 L103.495162,2.42592593 L104.66426,2.42592593 L104.66426,2.58796296 L104.165199,2.58796296 L104.165199,3.84722222 L103.989603,3.84722222 Z" id="™" fill="#8B8E8D" fill-rule="nonzero"></path>
                    <path d="M254.112347,2.93518519 L254.112347,1.5 L254.458917,1.5 L254.67148,2.01851852 L254.796245,2.38425926 L254.814729,2.38425926 L254.939495,2.01851852 L255.147437,1.5 L255.489386,1.5 L255.489386,2.93518519 L255.225993,2.93518519 L255.225993,2.30092593 L255.253718,1.81481481 L255.235235,1.81481481 L254.907148,2.71296296 L254.699206,2.71296296 L254.366498,1.81481481 L254.348014,1.81481481 L254.380361,2.30092593 L254.380361,2.93518519 L254.112347,2.93518519 Z M253.151191,2.93518519 L253.151191,1.75 L252.693718,1.75 L252.693718,1.5 L253.890542,1.5 L253.890542,1.75 L253.428448,1.75 L253.428448,2.93518519 L253.151191,2.93518519 Z" id="™" fill="#AB3225" fill-rule="nonzero"></path>
                </g>
            </g>
        </g>
    </g>
</svg>