<?xml version="1.0" encoding="UTF-8"?>
<svg width="256px" height="52px" viewBox="0 0 256 52" version="1.1" xmlns="http://www.w3.org/2000/svg" xmlns:xlink="http://www.w3.org/1999/xlink">
    <!-- Generator: Sketch 55.2 (78181) - https://sketchapp.com -->
    <title>Logo/Products/Enamelast</title>
    <desc>Created with Sketch.</desc>
    <g id="Page-1" stroke="none" stroke-width="1" fill="none" fill-rule="evenodd">
        <g id="Landing_Page_2" transform="translate(-1040.000000, -3334.000000)">
            <g id="From-The-Makers-of" transform="translate(0.000000, 3025.000000)">
                <g id="Logo/Products/Enamelast" transform="translate(1040.000000, 309.000000)">
                    <g id="Enamelast" stroke-width="1" fill-rule="evenodd">
                        <path d="M76.4458082,21.0137778 C76.2716347,19.2249778 74.355726,16.7104889 71.0113607,16.744 C67.6330959,16.744 65.7861553,19.1544889 65.6119817,21.0137778 L76.4458082,21.0137778 Z M65.5418447,24.4584889 C65.7510868,27.4883556 68.468895,29.1766222 71.0814977,29.1419556 C73.3106849,29.1419556 74.8081096,28.1424 75.6789772,26.5939556 L80.3816621,26.5939556 C79.476895,28.6936 78.1174064,30.2778667 76.5159452,31.3456 C74.9133151,32.448 73.0324749,32.9992 71.0464292,32.9992 C65.1595982,32.9992 60.9443653,28.2810667 60.9443653,23.0117333 C60.9443653,17.6407111 65.1946667,12.9225778 70.9762922,12.9225778 C73.8332055,12.9225778 76.3417717,13.9891556 78.1174064,15.8137778 C80.4517991,18.1907556 81.3226667,21.1524444 80.9392511,24.4584889 L65.5418447,24.4584889 L65.5418447,24.4584889 Z" id="Fill-1" fill="#8A8D8B"></path>
                        <path d="M84.4180457,13.5072889 L88.7034155,13.5072889 C88.7034155,14.3335111 88.7034155,15.1262222 88.668347,16.0217778 C89.5041461,14.5403556 91.2108128,12.8879111 94.6253151,12.9225778 C100.860493,12.9572444 102.044639,17.6742222 102.044639,21.0137778 L102.044639,32.4133333 L97.4822283,32.4133333 L97.4822283,22.1508444 C97.4822283,19.3266667 96.5412237,17.1588444 93.3359635,17.1588444 C90.0968037,17.1923556 88.9816256,19.3266667 88.9816256,21.9786667 L88.9816256,32.4133333 L84.4180457,32.4133333 L84.4180457,13.5072889" id="Fill-2" fill="#8A8D8B"></path>
                        <path d="M110.051945,23.0464 C110.051945,25.3887111 111.758612,28.7976 115.869808,28.7976 C118.412274,28.7976 120.085041,27.4883556 120.955909,25.7665778 C121.408292,24.9403556 121.617534,24.0459556 121.687671,23.1157333 C121.721571,22.2190222 121.548566,21.2899556 121.163982,20.4637333 C120.363251,18.6726222 118.586447,17.1230222 115.83474,17.1230222 C112.142027,17.1230222 110.051945,20.0847111 110.051945,23.0117333 L110.051945,23.0464 Z M126.216183,32.4133333 L121.652603,32.4133333 L121.652603,29.692 C120.433388,31.8968 117.889753,32.9992 115.208183,32.9992 C109.077041,32.9992 105.488365,28.2810667 105.488365,22.9424 C105.488365,16.9855111 109.842703,12.9225778 115.208183,12.9225778 C118.691653,12.9225778 120.816804,14.7472 121.652603,16.2621333 L121.652603,13.5072889 L126.216183,13.5072889 L126.216183,32.4133333 L126.216183,32.4133333 Z" id="Fill-3" fill="#8A8D8B"></path>
                        <path d="M130.738849,13.5072889 L135.02305,13.5072889 L135.02305,15.8842667 C135.442703,15.0233778 137.288475,12.9225778 140.597772,12.9225778 C142.165333,12.9225778 143.907068,13.3697778 145.300457,14.8512 C145.718941,15.2984 146.206393,16.0911111 146.450703,16.5729778 C146.797881,15.9871111 147.216365,15.3677333 147.842922,14.7818667 C149.027068,13.6794667 150.699836,12.9225778 152.719781,12.9225778 C154.322411,12.9225778 156.343525,13.3351111 157.805881,14.8165333 C159.547616,16.6064889 159.897132,18.1572444 159.897132,22.048 L159.897132,32.4133333 L155.332384,32.4133333 L155.332384,22.2190222 C155.332384,21.0137778 155.228347,19.7068444 154.565553,18.7072889 C154.0781,17.7782222 153.173333,17.1588444 151.570703,17.1588444 C149.968073,17.1588444 148.852895,17.8464 148.262575,18.8794667 C147.668749,19.9125333 147.598612,20.9120889 147.598612,22.048 L147.598612,32.4133333 L143.036201,32.4133333 L143.036201,22.048 C143.036201,20.9456 142.932164,19.8778667 142.443543,18.9141333 C141.885954,17.9157333 140.946119,17.1923556 139.30842,17.1588444 C137.636822,17.1588444 136.591781,17.9492444 136.034192,18.9141333 C135.476603,19.9125333 135.302429,21.0831111 135.302429,22.1855111 L135.302429,32.4133333 L130.738849,32.4133333 L130.738849,13.5072889" id="Fill-4" fill="#8A8D8B"></path>
                        <path d="M178.595653,21.0137778 C178.420311,19.2249778 176.505571,16.7104889 173.160037,16.744 C169.781772,16.744 167.936,19.1544889 167.760658,21.0137778 L178.595653,21.0137778 Z M167.691689,24.4584889 C167.899763,27.4883556 170.61874,29.1766222 173.230174,29.1419556 C175.459361,29.1419556 176.957954,28.1424 177.828822,26.5939556 L182.531507,26.5939556 C181.62674,28.6936 180.266082,30.2778667 178.664621,31.3456 C177.061991,32.448 175.18232,32.9992 173.196274,32.9992 C167.308274,32.9992 163.093041,28.2810667 163.093041,23.0117333 C163.093041,17.6407111 167.344511,12.9225778 173.126137,12.9225778 C175.981881,12.9225778 178.490447,13.9891556 180.266082,15.8137778 C182.601644,18.1907556 183.472511,21.1524444 183.089096,24.4584889 L167.691689,24.4584889 L167.691689,24.4584889 Z" id="Fill-5" fill="#8A8D8B"></path>
                        <polygon id="Fill-6" fill="#289FCD" points="186.56789 32.4133333 191.13147 32.4133333 191.13147 6.92986667 186.56789 6.92986667"></polygon>
                        <path d="M199.176183,23.0464 C199.176183,25.3887111 200.884018,28.7976 204.994046,28.7976 C207.53768,28.7976 209.20811,27.4883556 210.078977,25.7665778 C210.53253,24.9403556 210.742941,24.0459556 210.81074,23.1157333 C210.846977,22.2190222 210.672804,21.2899556 210.289388,20.4637333 C209.487489,18.6726222 207.711854,17.1230222 204.958977,17.1230222 C201.266265,17.1230222 199.176183,20.0847111 199.176183,23.0117333 L199.176183,23.0464 Z M215.339251,32.4133333 L210.77684,32.4133333 L210.77684,29.692 C209.557626,31.8968 207.013991,32.9992 204.33242,32.9992 C198.20011,32.9992 194.612603,28.2810667 194.612603,22.9424 C194.612603,16.9855111 198.966941,12.9225778 204.33242,12.9225778 C207.81589,12.9225778 209.939872,14.7472 210.77684,16.2621333 L210.77684,13.5072889 L215.339251,13.5072889 L215.339251,32.4133333 L215.339251,32.4133333 Z" id="Fill-7" fill="#289FCD"></path>
                        <path d="M228.154447,18.6044444 C228.119379,17.6048889 227.598027,16.5729778 225.820055,16.5729778 C224.287562,16.5729778 223.556968,17.5367111 223.556968,18.4657778 C223.590868,19.6710222 224.984256,20.3262222 226.794959,20.8427556 C229.861114,21.6689778 233.170411,22.5645333 233.205479,26.6274667 C233.274447,30.5193778 229.96632,32.9992 225.95916,32.9992 C222.99821,32.9992 218.992219,31.4831111 218.645041,26.9024889 L223.207452,26.9024889 C223.381626,28.9351111 225.159598,29.3476444 226.030466,29.3476444 C227.458922,29.3476444 228.676968,28.4185778 228.6419,27.144 C228.6419,25.5262222 227.214612,25.0778667 223.694904,23.8726222 C221.11737,23.0810667 219.027288,21.6689778 218.992219,18.9476444 C218.992219,15.2302222 222.162411,12.9225778 225.855123,12.9225778 C228.433826,12.9225778 232.265644,14.0584889 232.649059,18.6044444 L228.154447,18.6044444" id="Fill-8" fill="#289FCD"></path>
                        <polyline id="Fill-9" fill="#289FCD" points="237.869589 16.9855111 234.699397 16.9855111 234.699397 13.5072889 237.869589 13.5072889 237.869589 6.92986667 242.432 6.92986667 242.432 13.5072889 245.707397 13.5072889 245.707397 16.9855111 242.432 16.9855111 242.432 32.4133333 237.869589 32.4133333 237.869589 16.9855111"></polyline>
                        <polyline id="Fill-11" fill="#34498B" points="64.5985023 38.3864 69.1585753 38.3864 69.1585753 39.2611556 65.5932785 39.2611556 65.5932785 42.38 69.1351963 42.38 69.1351963 43.2663111 65.5932785 43.2663111 65.5932785 47.2587556 64.5985023 47.2587556 64.5985023 38.3864"></polyline>
                        <polyline id="Fill-12" fill="#34498B" points="75.3762192 38.3864 76.3826849 38.3864 76.3826849 46.384 79.803032 46.384 79.803032 47.2587556 75.3762192 47.2587556 75.3762192 38.3864"></polyline>
                        <path d="M86.5887854,38.3864 L86.5887854,44.0104889 C86.5887854,44.6818667 86.5887854,45.1972444 87.0131142,45.7969778 C87.3287306,46.2407111 87.9225571,46.54 88.5771689,46.54 C89.2200913,46.54 89.8150868,46.2511111 90.1178447,45.8085333 C90.5421735,45.2215111 90.5421735,44.7061333 90.5421735,44.0104889 L90.5421735,38.3864 L91.5369498,38.3864 L91.5369498,44.0104889 C91.5486393,45.0400889 91.415379,46.0592889 90.5187945,46.7433778 C90.0208219,47.1628444 89.3533516,47.4147556 88.5771689,47.4147556 C87.947105,47.4147556 87.1592329,47.2356444 86.6004749,46.7433778 C85.6547945,45.9888 85.5823196,44.9811556 85.5823196,44.0104889 L85.5823196,38.3864 L86.5887854,38.3864" id="Fill-13" fill="#34498B"></path>
                        <path d="M98.7610594,42.8225778 C98.7610594,44.9083556 100.349662,46.54 102.449096,46.54 C104.57074,46.54 106.123105,44.8482667 106.123105,42.8225778 C106.123105,40.7968889 104.57074,39.1063111 102.436237,39.1063111 C100.326283,39.1063111 98.7610594,40.7599111 98.7610594,42.8110222 L98.7610594,42.8225778 Z M97.7545936,42.8468444 C97.7545936,40.1128 99.9019543,38.2304 102.436237,38.2304 C105.068712,38.2304 107.117881,40.2214222 107.117881,42.8225778 C107.117881,45.4237333 105.080402,47.4147556 102.436237,47.4147556 C99.7803836,47.4147556 97.7545936,45.3890667 97.7545936,42.8595556 L97.7545936,42.8468444 L97.7545936,42.8468444 Z" id="Fill-14" fill="#34498B"></path>
                        <path d="M113.275909,38.3864 L115.617315,38.3864 C117.023562,38.3864 117.679342,38.5539556 118.139909,38.8416889 C118.868164,39.2738667 119.364968,40.2214222 119.364968,41.2290667 C119.376658,41.8276444 119.20716,42.4632 118.830758,42.9670222 C118.297717,43.6869333 117.654795,43.8544889 116.829516,43.9376889 L119.06221,47.2587556 L117.970411,47.2587556 L115.434959,43.3864889 L115.726027,43.3864889 C116.35726,43.3864889 117.230466,43.3737778 117.71558,42.9300444 C118.187836,42.4759111 118.39474,41.9362667 118.39474,41.2995556 C118.39474,40.6408889 118.067434,39.9452444 117.508676,39.5858667 C117.060968,39.2981333 116.50221,39.2611556 115.68979,39.2611556 L114.283543,39.2611556 L114.283543,47.2587556 L113.275909,47.2587556 L113.275909,38.3864" id="Fill-15" fill="#34498B"></path>
                        <polygon id="Fill-16" fill="#34498B" points="125.33947 47.2599111 126.334247 47.2599111 126.334247 38.3864 125.33947 38.3864"></polygon>
                        <path d="M133.992037,46.384 L135.774685,46.384 C138.078685,46.384 139.280365,44.9811556 139.280365,42.8468444 C139.280365,41.8149333 139.000986,40.9043556 138.40716,40.2572444 C137.836712,39.6575111 136.999744,39.2611556 135.774685,39.2611556 L133.992037,39.2611556 L133.992037,46.384 Z M132.99726,38.3864 L135.677662,38.3864 C136.951817,38.3864 138.310137,38.6625778 139.206721,39.7176 C139.934977,40.5091556 140.286831,41.5526222 140.286831,42.8110222 C140.286831,45.4838222 138.746155,47.2587556 135.725589,47.2587556 L132.99726,47.2587556 L132.99726,38.3864 L132.99726,38.3864 Z" id="Fill-17" fill="#34498B"></path>
                        <polyline id="Fill-18" fill="#34498B" points="146.527854 38.3864 151.500566 38.3864 151.500566 39.2611556 147.52263 39.2611556 147.52263 42.3430222 151.477187 42.3430222 151.477187 43.2177778 147.52263 43.2177778 147.52263 46.384 151.500566 46.384 151.500566 47.2587556 146.527854 47.2587556 146.527854 38.3864"></polyline>
                        <polyline id="Fill-19" fill="#34498B" points="164.586959 38.3864 165.641352 38.3864 168.612822 45.9760889 171.595982 38.3864 172.652712 38.3864 169.086247 47.2587556 168.128877 47.2587556 164.586959 38.3864"></polyline>
                        <path d="M180.71379,39.5015111 L178.931142,43.9492444 L182.506959,43.9492444 L180.71379,39.5015111 Z M177.596201,47.2587556 L176.516091,47.2587556 L180.263744,38.3864 L181.235142,38.3864 L184.946557,47.2587556 L183.854758,47.2587556 L182.810886,44.7650667 L178.626046,44.7650667 L177.596201,47.2587556 L177.596201,47.2587556 Z" id="Fill-20" fill="#34498B"></path>
                        <path d="M190.715324,38.3864 L193.056731,38.3864 C194.462977,38.3864 195.117589,38.5539556 195.579324,38.8416889 C196.306411,39.2738667 196.803215,40.2214222 196.803215,41.2290667 C196.817242,41.8276444 196.646575,42.4632 196.270174,42.9670222 C195.735963,43.6869333 195.093041,43.8544889 194.268932,43.9376889 L196.500457,47.2587556 L195.409826,47.2587556 L192.874374,43.3864889 L193.165443,43.3864889 C193.796676,43.3864889 194.669881,43.3737778 195.154995,42.9300444 C195.627251,42.4759111 195.832986,41.9362667 195.832986,41.2995556 C195.832986,40.6408889 195.506849,39.9452444 194.948091,39.5858667 C194.499215,39.2981333 193.941626,39.2611556 193.129205,39.2611556 L191.72179,39.2611556 L191.72179,47.2587556 L190.715324,47.2587556 L190.715324,38.3864" id="Fill-21" fill="#34498B"></path>
                        <polyline id="Fill-22" fill="#34498B" points="209.060822 45.7969778 209.049132 38.3864 210.02053 38.3864 210.02053 47.2587556 209.049132 47.2587556 203.724566 39.7892444 203.747945 47.2587556 202.778886 47.2587556 202.778886 38.3864 203.795872 38.3864 209.060822 45.7969778"></polyline>
                        <polygon id="Fill-23" fill="#34498B" points="216.674192 47.2599111 217.668968 47.2599111 217.668968 38.3864 216.674192 38.3864"></polygon>
                        <path d="M224.90126,44.7893333 C225.047379,46.2638222 226.139178,46.5758222 226.696767,46.5758222 C227.629589,46.5758222 228.491105,45.8674667 228.491105,44.8852444 C228.491105,43.6384 227.412164,43.3622222 226.368292,43.0259556 C225.641205,42.8110222 224.077151,42.3545778 224.077151,40.6767111 C224.052603,39.1063111 225.373516,38.2304 226.744694,38.2304 C227.861041,38.2304 229.146886,38.8416889 229.291836,40.5207111 L228.297059,40.5207111 C228.189516,39.9452444 227.897279,39.0693333 226.708457,39.0693333 C225.810703,39.0693333 225.071927,39.6690667 225.071927,40.5935111 C225.059068,41.6716444 225.945132,41.9362667 227.303452,42.3904 C228.150941,42.7151111 229.485881,43.1819556 229.485881,44.8136 C229.485881,46.2638222 228.383562,47.4147556 226.708457,47.4147556 C225.204018,47.4147556 223.95558,46.4799111 223.894795,44.7893333 L224.90126,44.7893333" id="Fill-24" fill="#34498B"></path>
                        <polyline id="Fill-25" fill="#34498B" points="235.690667 47.2587556 235.690667 38.3864 236.684274 38.3864 236.684274 42.3314667 241.014064 42.3314667 241.014064 38.3864 242.021699 38.3864 242.021699 47.2587556 241.014064 47.2587556 241.014064 43.2073778 236.684274 43.2073778 236.684274 47.2587556 235.690667 47.2587556"></polyline>
                        <path d="M24.9231781,15.4312889 C19.0924566,15.7028444 15.8977169,19.9448889 15.5879452,23.2486222 L19.3694977,23.2486222 C22.1492603,21.4991111 24.1890776,18.7119111 24.9231781,15.4312889" id="Fill-26" fill="#408CBE"></path>
                        <path d="M24.4450776,8.43324444 C22.6729498,3.66542222 18.0520913,0.258844444 12.6153059,0.258844444 C5.6483653,0.258844444 0,5.84133333 0,12.7284444 C0,17.7204444 2.97497717,22.0168 7.26151598,24.0078222 C8.57307763,15.7132444 15.38221,8.90586667 24.4450776,8.43324444" id="Fill-28" fill="#408CBE"></path>
                        <path d="M43.7187215,24.2909333 C48.3501005,22.4455111 51.6219909,17.9677333 51.6219909,12.7284444 C51.6219909,5.84133333 45.9747945,0.258844444 39.0078539,0.258844444 C33.559379,0.258844444 28.9303379,3.68044444 27.1652237,8.46328889 C31.6960731,8.84346667 35.6623196,10.7154667 38.563653,13.6979556 C41.5620091,16.7497778 43.218411,20.3377778 43.7187215,24.2909333" id="Fill-29" fill="#289FCD"></path>
                        <path d="M26.7046575,15.4578667 C27.4446027,18.7257778 29.4797443,21.5037333 32.2524932,23.2486222 L35.490484,23.2486222 C35.1924018,20.1806222 32.1063744,15.9570667 26.7046575,15.4578667" id="Fill-30" fill="#289FCD"></path>
                        <path d="M7.08266667,28.3342222 C2.89315068,30.3633778 0,34.6077333 0,39.5304 C0,46.4186667 5.6483653,52 12.6153059,52 C17.5225571,52 21.7658447,49.2243556 23.8512511,45.1799111 C14.4610776,44.3594667 7.75481279,36.9107556 7.08266667,28.3342222" id="Fill-31" fill="#5E9EC8"></path>
                        <path d="M20.1936073,29.5776 L15.4593607,29.5776 C15.8299178,34.9555556 20.5057169,38.0235556 25.1511233,38.1668444 C24.7642009,34.6574222 22.900895,31.5963556 20.1936073,29.5776" id="Fill-33" fill="#5E9EC8"></path>
                        <path d="M43.8554886,28.0152889 C43.8286027,28.5329778 43.8087306,29.0506667 43.7467763,29.5776 L31.4295525,29.5776 C28.7304475,31.5894222 26.8706484,34.6389333 26.4767123,38.1321778 C30.1027945,37.8929778 32.5973333,36.1423111 34.0830685,33.4972444 L42.7227763,33.4972444 C41.0593607,37.3568 38.563653,40.2688 35.6190685,42.2297778 C33.2683105,43.8464 30.5890776,44.8055111 27.7473607,45.1313778 C29.8245845,49.2024 34.0807306,52 39.0078539,52 C45.9747945,52 51.6219909,46.4186667 51.6219909,39.5304 C51.6219909,34.3419556 48.4155616,29.8953778 43.8554886,28.0152889" id="Fill-34" fill="#34498B"></path>
                    </g>
                    <path d="M251.628563,12.5197091 L251.628563,8.70952727 L252.553007,8.70952727 L253.12,10.0861091 L253.4528,11.0570909 L253.502104,11.0570909 L253.834904,10.0861091 L254.38957,8.70952727 L255.301689,8.70952727 L255.301689,12.5197091 L254.599111,12.5197091 L254.599111,10.8358545 L254.673067,9.54530909 L254.623763,9.54530909 L253.748622,11.9297455 L253.193956,11.9297455 L252.306489,9.54530909 L252.257185,9.54530909 L252.343467,10.8358545 L252.343467,12.5197091 L251.628563,12.5197091 Z M249.06477,12.5197091 L249.06477,9.37323636 L247.844504,9.37323636 L247.844504,8.70952727 L251.036919,8.70952727 L251.036919,9.37323636 L249.804326,9.37323636 L249.804326,12.5197091 L249.06477,12.5197091 Z" id="™" fill="#676866" fill-rule="nonzero"></path>
                </g>
            </g>
        </g>
    </g>
</svg>