<?xml version="1.0" encoding="UTF-8"?>
<svg width="256px" height="115px" viewBox="0 0 256 115" version="1.1" xmlns="http://www.w3.org/2000/svg" xmlns:xlink="http://www.w3.org/1999/xlink">
    <!-- Generator: Sketch 55.2 (78181) - https://sketchapp.com -->
    <title>Logo/Products/Go</title>
    <desc>Created with Sketch.</desc>
    <g id="Page-1" stroke="none" stroke-width="1" fill="none" fill-rule="evenodd">
        <g id="Landing_Page_2" transform="translate(-1396.000000, -3316.000000)">
            <g id="From-The-Makers-of" transform="translate(0.000000, 3025.000000)">
                <g id="Logo/Products/Go" transform="translate(1396.000000, 291.000000)">
                    <g stroke-width="1" fill-rule="evenodd">
                        <path d="M150.917344,61.9476889 C150.917344,71.5167111 143.184414,79.2743556 133.649304,79.2743556 C124.134044,79.2743556 116.40773,71.5167111 116.40773,61.9476889 C116.40773,52.3771333 124.134044,44.6184667 133.649304,44.6184667 C143.184414,44.6184667 150.917344,52.3771333 150.917344,61.9476889" id="Fill-1" fill="#9ACFAD"></path>
                        <g id="Group-5" transform="translate(0.000000, 44.466667)">
                            <path d="M90.9599046,18.0958889 C90.6194195,27.6618444 82.621837,35.121 73.0943618,34.7913333 C63.5745209,34.454 56.1220199,26.4264889 56.4614871,16.8554222 C56.8146958,7.29866667 64.806171,-0.180933333 74.3178688,0.169177778 C83.844835,0.503955556 91.2983539,8.51971111 90.9599046,18.0958889" id="Fill-2" fill="#78C197"></path>
                            <path d="M34.5075785,18.0958889 C34.1681113,27.6618444 26.1700199,35.121 16.6430537,34.7913333 C7.12270378,34.454 -0.328779324,26.4264889 0.0111968191,16.8554222 C0.36389662,7.29866667 8.35486282,-0.180933333 17.8680875,0.169177778 C27.3940358,0.503955556 34.8465368,8.51971111 34.5075785,18.0958889" id="Fill-4" fill="#42B17F"></path>
                        </g>
                        <path d="M3.81557058,12.6132 C3.81557058,17.1600444 3.94077137,19.2694 9.13405964,19.3752 L14.5100596,19.4574889 L16.4527078,19.4574889 C18.1424095,19.4574889 19.8606123,19.4237556 21.551841,19.2694 C24.8676262,18.9238889 25.2997217,16.8768889 25.2997217,13.9334 C25.3414553,12.4782667 25.3567237,11.0599333 25.3567237,9.62882222 C25.3567237,7.728 25.2997217,5.10191111 24.4950775,3.90386667 C24.1388151,3.41268889 23.5560716,3.05031111 22.9875785,2.89851111 C21.8969066,2.58008889 20.6489702,2.55146667 19.4880636,2.55146667 L14.5787674,2.51006667 L9.71527634,2.62302222 C5.21619085,2.67464444 4.02729225,3.18575556 3.90463618,7.92324444 L3.81557058,11.0599333 L3.81557058,12.6132 Z M1.62404771,4.84175556 C2.46838966,1.13057778 5.25385288,0.452844444 8.60475547,0.364422222 C11.6762465,0.286222222 14.7579165,0.286222222 17.8192286,0.286222222 C26.4957455,0.286222222 28.0032445,1.61 28.0032445,10.1501556 C28.0032445,12.0422889 28.0032445,13.9334 27.7767634,15.8117333 C27.325837,19.8244667 25.400493,21.2090667 21.409336,21.5346444 C19.6748469,21.6864444 17.9556262,21.6864444 16.2257177,21.6864444 L11.5602068,21.6864444 C10.1041113,21.6864444 8.62205964,21.6568 7.16291054,21.4988667 C5.37243738,21.2734667 3.46999602,20.8134667 2.43327237,19.1676889 C1.18228231,17.1268222 1.18228231,13.5301333 1.18228231,11.1590889 C1.18228231,9.06404444 1.18228231,6.89795556 1.62404771,4.84175556 L1.62404771,4.84175556 Z" id="Fill-6" fill="#797B79"></path>
                        <path d="M42.7255348,19.7386 C47.6495905,19.7386 49.4604215,19.4574889 49.4604215,14.1741333 C49.4604215,8.55395556 47.8546958,8.45377778 42.694998,8.45377778 L41.9514274,8.45377778 C40.6368191,8.45377778 38.978163,8.49211111 37.9170099,8.7492 C35.0949026,9.37428889 35.0109264,11.6661111 35.0109264,14.145 C35.0109264,20.1060889 37.7897734,19.6154222 42.7255348,19.7386 M34.9712286,6.69708889 L34.9712286,9.06404444 C36.067499,6.76353333 38.1353479,6.50593333 40.4169543,6.50593333 L42.7255348,6.50593333 C48.868008,6.50593333 51.8153161,7.12591111 51.8153161,14.0540222 C51.8153161,18.8605111 50.7689225,21.3792667 45.4529781,21.6246 C44.5429821,21.6864444 43.6452008,21.6864444 42.7672684,21.6864444 L39.6092565,21.6568 C37.5027276,21.6568 35.7158171,21.2090667 34.9712286,19.0164 L34.9712286,27.8427778 L32.77767,27.8427778 L32.77767,6.69708889 L34.9712286,6.69708889" id="Fill-7" fill="#797B79"></path>
                        <path d="M61.5702903,19.6777778 L64.1343618,19.7386 C65.6993718,19.7386 68.2262903,19.7386 69.735825,19.3312444 C70.8580517,19.0164 71.5252803,18.2599556 71.5252803,17.0665111 C71.5252803,16.1884222 71.1227038,15.3788222 70.295666,14.9980444 C69.3902505,14.5937556 67.6740835,14.4946 66.162004,14.4946 C65.4138529,14.4946 64.7374632,14.5268 64.2341153,14.5268 C62.7937972,14.5268 60.6664016,14.5268 59.325837,15.0220667 C58.3221948,15.4079556 58.1277773,16.3197778 58.1277773,17.2811778 C58.1277773,19.4574889 59.7869423,19.6481333 61.5702903,19.6777778 M71.5252803,21.4707556 L71.5252803,19.7386 C70.7328509,21.1022444 69.6136779,21.4707556 68.1428231,21.5995556 C66.7900437,21.6864444 65.4428628,21.6864444 64.1022982,21.6864444 L62.1962942,21.6864444 C59.0352286,21.6864444 55.7810258,21.3394 55.7810258,17.2811778 C55.7810258,14.1061556 56.7780517,13.0159556 59.9406441,12.7251333 C61.3504254,12.5789556 62.7937972,12.5789556 64.1857654,12.5789556 C65.574171,12.5789556 66.958505,12.6132 68.3199364,12.7118444 C69.86866,12.8299111 70.6091769,13.1151111 71.5252803,14.3351333 L71.5252803,12.7680667 C71.5252803,11.4795556 71.4662425,9.88182222 70.3297654,9.12537778 C69.3551332,8.45377778 66.6694235,8.42873333 65.1074672,8.42873333 C63.7022664,8.42873333 62.255841,8.42873333 60.8496223,8.61171111 C59.2566203,8.83608889 58.8072207,9.62882222 58.8072207,11.1299556 L56.4375666,11.1299556 C56.4375666,7.85475556 57.8249543,6.94651111 60.8750696,6.67664444 C62.0018767,6.53813333 63.1724533,6.47271111 64.2946799,6.47271111 C66.389503,6.47271111 68.6018926,6.47271111 70.6458211,7.02368889 C73.3305129,7.728 73.7106958,9.81077778 73.7106958,12.2615556 L73.7106958,21.4707556 L71.5252803,21.4707556" id="Fill-8" fill="#797B79"></path>
                        <polygon id="Fill-9" fill="#797B79" points="78.7197455 21.4702444 80.9097416 21.4702444 80.9097416 0.320466667 78.7197455 0.320466667"></polygon>
                        <path d="M100.998871,9.55828889 C99.8924215,8.51255556 97.6143777,8.42873333 95.9190775,8.42873333 L94.2024016,8.42873333 C92.416,8.42873333 89.9761113,8.49313333 88.7541312,9.52864444 C87.8873956,10.2850889 87.7952763,11.5030667 87.7235149,12.5789556 L101.953654,12.5789556 C101.922099,11.5030667 101.875276,10.3433556 100.998871,9.55828889 M87.6639682,14.4654667 C87.7235149,16.8774 87.9963101,18.8962889 90.7609066,19.4574889 C92.0979085,19.7386 93.5784334,19.7386 94.9653121,19.7386 L96.1450497,19.7386 C97.6143777,19.7386 99.3722783,19.6777778 100.455825,19.2111333 C101.4386,18.7700444 101.799952,18.0769778 101.904286,17.0465778 L104.220501,17.0465778 C104.177241,21.4988667 99.3305447,21.6864444 95.858004,21.6864444 C89.7618449,21.6864444 85.4739722,21.6864444 85.4739722,14.1061556 C85.4739722,7.92324444 87.5677773,6.44664444 93.5204135,6.44664444 C94.0486998,6.44664444 94.5479761,6.47271111 95.0090815,6.47271111 C100.799873,6.73388889 104.248493,6.76353333 104.248493,13.7141333 C104.248493,13.9553778 104.220501,14.2119556 104.220501,14.4654667 L87.6639682,14.4654667" id="Fill-10" fill="#797B79"></path>
                        <path d="M124.059738,10.8212444 C123.896366,9.06404444 123.417447,8.76862222 121.64326,8.55497778 C120.201924,8.42873333 118.728016,8.42873333 117.323324,8.42873333 C115.935936,8.42873333 114.572978,8.45377778 113.220708,8.64442222 C111.909153,8.83608889 110.783873,9.20357778 110.783873,10.6541111 C110.783873,12.5789556 111.909153,12.8641556 113.566282,12.8641556 L117.358441,12.9556444 L121.445789,12.9556444 C124.648588,12.9556444 126.803467,13.616 126.803467,17.2285333 C126.803467,21.5995556 123.833256,21.3792667 120.482863,21.6246 C119.105145,21.6568 117.763054,21.6864444 116.382282,21.6864444 C114.789789,21.6864444 112.844087,21.6568 111.438887,21.3792667 C108.940978,20.8426 108.241177,19.5249556 108.241177,17.1268222 C108.241177,16.9096 108.27833,16.6852222 108.27833,16.4772 L110.503443,16.4772 C110.527364,16.5978222 110.527364,16.7189556 110.527364,16.8324222 C110.527364,18.9238889 111.373233,19.4237556 113.354561,19.6154222 C114.634052,19.6777778 115.91965,19.7386 117.202704,19.7386 C118.89037,19.7386 120.572437,19.7386 122.23262,19.5586889 C123.618481,19.3752 124.45926,18.9842 124.45926,17.5658667 C124.45926,15.3353778 123.330417,14.8682222 121.232032,14.8682222 L117.27192,14.8329556 L113.471618,14.8329556 C110.576732,14.8329556 108.427451,14.3075333 108.427451,10.9050667 C108.427451,7.83482222 110.419467,6.86575556 113.165233,6.67664444 C114.542441,6.57748889 115.935936,6.47271111 117.323324,6.47271111 C118.89037,6.47271111 120.482863,6.47271111 122.052962,6.6424 C125.04862,6.86575556 126.114354,7.83482222 126.25126,10.8212444 L124.059738,10.8212444" id="Fill-11" fill="#797B79"></path>
                        <path d="M149.261742,16.1884222 C149.174203,20.7153333 146.372453,21.4988667 142.387913,21.6246 C141.573598,21.6568 140.748596,21.6568 139.947006,21.6568 C134.246298,21.6568 130.746783,20.8426 130.746783,14.2119556 C130.746783,12.6648222 130.778338,10.5350222 131.584,9.20357778 C133.092008,6.7942 136.070362,6.44664444 138.662934,6.44664444 C139.133201,6.44664444 139.56835,6.47271111 139.976016,6.47271111 C144.128,6.57748889 149.047475,6.22482222 149.047475,11.8542 L146.763833,11.8542 C146.730243,10.6541111 146.454394,9.65642222 145.329113,9.06404444 C144.206887,8.45377778 141.79041,8.42873333 140.347038,8.42873333 L139.976016,8.42873333 C138.53926,8.42873333 136.437821,8.42873333 135.096748,8.96488889 C134.315006,9.30426667 133.684421,9.94264444 133.4386,10.7829111 C133.092008,11.8818 133.092008,13.1151111 133.092008,14.2395556 C133.092008,16.6652889 133.281336,18.9545556 136.187419,19.3961556 C137.700008,19.6481333 139.194274,19.7130444 140.69363,19.7130444 C141.945638,19.7130444 143.259229,19.6777778 144.470012,19.3961556 C146.235547,18.9842 146.918044,17.9216 146.990823,16.1884222 L149.261742,16.1884222" id="Fill-12" fill="#797B79"></path>
                        <path d="M168.731483,9.55828889 C167.63165,8.51255556 165.341901,8.42873333 163.664414,8.42873333 L161.932469,8.42873333 C160.158791,8.42873333 157.713304,8.49313333 156.500994,9.52864444 C155.621535,10.2850889 155.521781,11.5030667 155.465288,12.5789556 L169.697972,12.5789556 C169.665909,11.5030667 169.601781,10.3433556 168.731483,9.55828889 M155.399634,14.4654667 C155.465288,16.8774 155.740119,18.8962889 158.497082,19.4574889 C159.84528,19.7386 161.312573,19.7386 162.679093,19.7386 L163.886314,19.7386 C165.341901,19.7386 167.094203,19.6777778 168.199634,19.2111333 C169.170195,18.7700444 169.540708,18.0769778 169.627229,17.0465778 L171.955149,17.0465778 C171.928175,21.4988667 167.074354,21.6864444 163.607412,21.6864444 C157.49802,21.6864444 153.21829,21.6864444 153.21829,14.1061556 C153.21829,7.92324444 155.30497,6.44664444 161.237757,6.44664444 C161.784366,6.44664444 162.282115,6.47271111 162.757471,6.47271111 C168.538592,6.73388889 171.981105,6.76353333 171.981105,13.7141333 C171.981105,13.9553778 171.955149,14.2119556 171.955149,14.4654667 L155.399634,14.4654667" id="Fill-13" fill="#797B79"></path>
                        <path d="M178.780119,6.69708889 L178.780119,9.74893333 C179.835165,6.57748889 182.840493,6.47271111 185.690592,6.47271111 L185.974076,6.47271111 C188.191555,6.47271111 190.790744,6.50593333 192.594958,7.95748889 C194.099404,9.15655556 194.18796,10.8212444 194.18796,12.5789556 L194.18796,21.4707556 L192.008143,21.4707556 L192.008143,12.8033333 C192.008143,8.7492 189.384016,8.42873333 185.974076,8.42873333 C182.457765,8.42873333 178.780119,8.51255556 178.780119,13.1447556 L178.780119,21.4707556 L176.572819,21.4707556 L176.572819,6.69708889 L178.780119,6.69708889" id="Fill-14" fill="#797B79"></path>
                        <path d="M217.310918,16.1884222 C217.224907,20.7153333 214.403817,21.4988667 210.438616,21.6246 C209.625829,21.6568 208.803881,21.6568 207.994656,21.6568 C202.300056,21.6568 198.788835,20.8426 198.788835,14.2119556 C198.788835,12.6648222 198.830569,10.5350222 199.641829,9.20357778 C201.144239,6.7942 204.106306,6.44766667 206.70804,6.44766667 C207.179324,6.44766667 207.620581,6.47424444 208.029773,6.47424444 C212.179722,6.57748889 217.096143,6.22482222 217.096143,11.8542 L214.814537,11.8542 C214.777893,10.6561556 214.506624,9.65642222 213.374219,9.06404444 C212.248938,8.45377778 209.836024,8.42873333 208.405376,8.42873333 L208.029773,8.42873333 C206.586911,8.42873333 204.484962,8.42873333 203.141344,8.96488889 C202.362656,9.30426667 201.733089,9.94264444 201.487777,10.7829111 C201.144239,11.8818 201.144239,13.1151111 201.144239,14.2395556 C201.144239,16.6652889 201.325423,18.9555778 204.246266,19.3961556 C205.733917,19.6481333 207.241924,19.7130444 208.743316,19.7130444 C209.988708,19.7130444 211.321129,19.6777778 212.52835,19.3961556 C214.280143,18.9842 214.970783,17.9216 215.036437,16.1884222 L217.310918,16.1884222" id="Fill-15" fill="#797B79"></path>
                        <path d="M236.782187,9.55828889 C235.685917,8.51255556 233.396676,8.42873333 231.702903,8.42873333 L229.988262,8.42873333 C228.207968,8.42873333 225.760445,8.49313333 224.540501,9.52864444 C223.674783,10.2850889 223.585718,11.5030667 223.514465,12.5789556 L237.735952,12.5789556 C237.716612,11.5030667 237.662155,10.3433556 236.782187,9.55828889 M223.447284,14.4654667 C223.514465,16.8774 223.786243,18.8962889 226.552366,19.4574889 C227.892421,19.7386 229.364803,19.7386 230.734378,19.7386 L231.925821,19.7386 C233.396676,19.7386 235.147451,19.6777778 236.243213,19.2111333 C237.22497,18.7700444 237.588358,18.078 237.679459,17.0465778 L239.99771,17.0465778 C239.965646,21.4988667 235.112334,21.6864444 231.634704,21.6864444 C225.54567,21.6864444 221.263905,21.6864444 221.263905,14.1061556 C221.263905,7.92375556 223.354656,6.44868889 229.302203,6.44868889 C229.830489,6.44868889 230.328239,6.47424444 230.793924,6.47424444 C236.583189,6.73388889 240.034863,6.76353333 240.034863,13.7141333 C240.034863,13.9564 239.99771,14.2119556 239.99771,14.4654667 L223.447284,14.4654667" id="Fill-16" fill="#797B79"></path>
                        <g id="Group-20" transform="translate(164.898608, 39.140129)" fill="#42B17F">
                            <path d="M30.2985924,44.9713826 C30.0680398,44.9713826 29.2608509,45.3189381 28.1080875,46.1295603 C20.1507117,51.3413603 2.85213519,62.6910937 2.50605169,71.7249826 C2.50605169,72.8831603 3.08268787,73.8092937 4.92812724,73.5777603 C11.0395547,72.651627 22.6873002,58.5219603 28.3386402,49.0250048 C29.7219563,46.8241603 30.5291451,45.5504714 30.5291451,45.2029159 C30.5291451,45.0874048 30.4141233,44.9713826 30.2985924,44.9713826 Z M62.5897097,19.4924937 C58.5532565,24.2407159 49.0970338,32.4639826 41.3697018,37.4437381 C40.7930656,37.7912937 39.8708549,38.9489603 39.2942187,40.2231603 C31.7984573,57.710827 13.6921829,77.283827 3.54379324,75.7780937 C2.04494632,75.5465603 0.89116501,74.3883826 0.545081511,72.651627 C0.430059642,72.1880492 0.314528827,71.6094714 0.314528827,71.0303826 C0.314528827,63.3862048 12.6544414,52.3835159 26.9548151,43.234627 C28.7997455,42.0759381 30.5291451,41.0337826 32.2595626,39.7600937 C36.0649543,34.3167603 38.0254155,27.4837159 38.0254155,23.8931603 C38.0254155,22.5034492 37.7948628,21.692827 37.1026958,21.692827 C36.8721431,21.692827 36.5265686,21.8088492 36.1804851,22.1564048 C27.9925567,29.4525159 19.5740755,39.1804937 14.7299245,39.1804937 C14.0382664,39.1804937 13.4616302,39.0649826 13.0005249,38.717427 C10.6939801,37.2122048 7.92582107,34.8953381 7.92582107,31.0737603 C7.92582107,29.8000714 8.27190457,28.1783159 9.07960239,26.4410492 C14.2688191,14.8597826 32.8361988,0.0355158861 40.3319602,0.0355158861 C41.1391491,0.0355158861 41.8313161,0.151538108 42.2929304,0.499093664 C45.0600716,2.23636033 46.5594274,6.52151589 46.7904891,10.2275826 C46.7904891,10.6906492 46.0983221,11.0382048 45.5216859,11.0382048 C44.9450497,11.0382048 44.4834354,10.8066714 44.3684135,10.2275826 C43.7917773,7.911227 42.4079523,6.86907144 40.4474911,6.86907144 C33.2973042,6.86907144 19.4580358,19.3764714 13.9232445,30.3791603 C13.3466083,31.5373381 13.1160557,32.3479603 13.1160557,33.0425603 C13.1160557,34.085227 13.6921829,34.6638048 14.7299245,34.6638048 C15.3065606,34.6638048 15.8831968,34.5488048 16.4603419,34.3167603 C23.8410815,31.3052937 37.9098847,15.786427 42.2929304,15.786427 C44.02233,15.786427 44.8295189,18.3343159 44.8295189,20.8822048 C44.8295189,23.8931603 43.9073082,27.8307603 42.5234831,31.5373381 C42.2929304,32.2324492 42.0623777,33.0425603 42.0623777,33.5061381 C42.0623777,33.7376714 42.1773996,33.7376714 42.5234831,33.5061381 C49.2120557,28.7579159 56.2467117,23.4300937 61.7825209,17.755227 C62.0130736,17.5236937 62.2436262,17.4081826 62.4741789,17.4081826 C62.9352843,17.4081826 63.2813678,17.6397159 63.2813678,18.1027826 C63.2813678,18.4503381 63.0508151,18.9134048 62.5897097,19.4924937 L62.5897097,19.4924937 Z" id="Fill-19"></path>
                        </g>
                        <path d="M249.39693,51.6840667 C248.589742,49.2516889 247.090895,47.978 243.516056,47.3989111 C234.866513,53.1892889 221.71992,67.8980444 222.872684,74.3830222 C223.218767,76.3523333 224.487062,77.2784667 226.448032,77.2784667 C227.831348,77.2784667 229.792318,76.6998889 231.983332,75.7732444 C241.785638,71.4880889 249.858545,62.3386889 249.858545,54.6950222 C249.858545,53.6528667 249.743014,52.6102 249.39693,51.6840667 Z M225.755865,80.6374889 C224.140978,80.6374889 222.642131,80.2899333 221.488859,79.4793111 C218.605678,77.51 217.336875,74.8460889 217.336875,71.7196222 C217.336875,61.1805111 231.637249,46.2407333 241.670616,39.0601333 C242.592827,38.3655333 243.169463,38.1334889 243.746608,38.1334889 C244.323245,38.1334889 244.78435,38.3655333 245.360986,38.9441111 C247.090895,40.7974 247.898083,41.7240444 247.898083,42.5346667 C247.898083,43.3452889 247.321447,43.9243778 246.398728,44.9665333 C248.935825,46.2407333 251.24237,48.4410667 252.626195,50.8734444 C253.433384,52.2626444 253.894489,53.7683778 253.894489,55.3901333 C253.894489,66.2762889 236.135316,80.6374889 225.755865,80.6374889 L225.755865,80.6374889 Z" id="Fill-21" fill="#42B17F"></path>
                    </g>
                    <path d="M252.702341,40.8116942 L252.702341,37.6021488 L253.244681,37.6021488 L253.787022,38.9089669 L254.110341,39.8080579 L254.152059,39.8080579 L254.475378,38.9089669 L254.996859,37.6021488 L255.5392,37.6021488 L255.5392,40.8116942 L255.142874,40.8116942 L255.142874,39.1285124 L255.195022,38.1039669 L255.153304,38.1039669 L254.298074,40.309876 L253.943467,40.309876 L253.088237,38.1039669 L253.046519,38.1039669 L253.098667,39.1285124 L253.098667,40.8116942 L252.702341,40.8116942 Z M250.637274,40.8116942 L250.637274,37.9680579 L249.521304,37.9680579 L249.521304,37.6021488 L252.16,37.6021488 L252.16,37.9680579 L251.0336,37.9680579 L251.0336,40.8116942 L250.637274,40.8116942 Z" id="™" fill="#797B79" fill-rule="nonzero"></path>
                </g>
            </g>
        </g>
    </g>
</svg>