<?xml version="1.0" encoding="UTF-8"?>
<svg width="256px" height="124px" viewBox="0 0 256 124" version="1.1" xmlns="http://www.w3.org/2000/svg" xmlns:xlink="http://www.w3.org/1999/xlink">
    <!-- Generator: Sketch 55.2 (78181) - https://sketchapp.com -->
    <title>Logo/Products/Jiffy</title>
    <desc>Created with Sketch.</desc>
    <g id="Page-1" stroke="none" stroke-width="1" fill="none" fill-rule="evenodd">
        <g id="Landing_Page_2" transform="translate(-853.000000, -3503.000000)">
            <g id="From-The-Makers-of" transform="translate(0.000000, 3025.000000)">
                <g id="Logo/Products/Jiffy" transform="translate(853.000000, 478.000000)">
                    <g stroke-width="1" fill-rule="evenodd">
                        <polyline id="Fill-1" fill="#707271" points="66.4972549 32.5575405 83.6776993 32.5575405 75.8897778 88.3055946 58.7093333 88.3055946 66.4972549 32.5575405"></polyline>
                        <path d="M52.4113987,61.1194324 C50.3500131,76.1468919 44.3934118,90.3708649 22.4016732,90.3708649 C9.57406536,90.3708649 1.09762092,84.4054595 0.296156863,71.4432703 L17.2482092,67.4283514 C17.1335948,71.3284865 20.3402876,74.5415946 24.2346667,74.5415946 C32.5956601,74.5415946 33.9710327,65.2491351 34.8871111,59.1697838 L42.2174118,7.0922973 L60.0855425,7.0922973 L52.4113987,61.1194324" id="Fill-2" fill="#707271"></path>
                        <path d="M78.8981961,5.02702703 C84.0616993,5.02702703 87.7184837,9.22878378 86.9655425,14.3990811 C86.2126013,19.5693784 81.4791111,23.7702973 76.317281,23.7702973 C71.1546144,23.7702973 67.4969935,19.5693784 68.2499346,14.3990811 C69.0028758,9.22878378 73.7355294,5.02702703 78.8981961,5.02702703" id="Fill-3" fill="#707271"></path>
                        <path d="M98.452915,46.3223784 L87.1127843,46.3223784 L89.0603922,32.5575405 L100.399686,32.5575405 L101.774222,22.6928378 C103.492601,10.5332973 108.07383,0.209459459 126.744261,0.209459459 C130.179346,0.209459459 133.616105,0.439027027 136.708183,1.24167568 L133.844497,15.81 C132.013176,15.1221351 130.409412,14.663 128.34719,14.663 C122.849882,14.663 119.871582,16.3830811 118.840889,23.7250541 L117.580967,32.5575405 L130.293961,32.5575405 L128.34719,46.3223784 L115.633359,46.3223784 L109.792209,88.3055946 L92.6109281,88.3055946 L98.452915,46.3223784" id="Fill-4" fill="#707271"></path>
                        <path d="M145.181281,46.3223784 L133.841987,46.3223784 L135.789595,32.5575405 L147.128889,32.5575405 L148.503425,22.6928378 C150.221804,10.5332973 154.803033,0.209459459 173.472627,0.209459459 C176.909386,0.209459459 180.344471,0.439027027 183.438222,1.24167568 L180.574536,15.81 C178.741542,15.1221351 177.137778,14.663 175.076392,14.663 C169.578248,14.663 166.600784,16.3830811 165.570092,23.7250541 L164.309333,32.5575405 L177.024,32.5575405 L175.076392,46.3223784 L162.362562,46.3223784 L156.521412,88.3055946 L139.340131,88.3055946 L145.181281,46.3223784" id="Fill-5" fill="#707271"></path>
                        <g id="Group-12" transform="translate(0.000000, 31.837838)">
                            <polyline id="Fill-7" fill="#707271" points="219.94834 45.2021892 243.454327 0.719702703 225.816261 0.719702703 211.449307 31.1055676 219.94834 45.2021892"></polyline>
                            <path d="M255.27885,63.3572973 L229.980026,59.6674595 L238.861386,36.4945405 C238.998588,36.202973 238.896523,35.8519189 238.621281,35.6826757 C238.343529,35.5100811 237.986301,35.5745946 237.78468,35.8292973 L223.935582,55.9223243 L211.323817,34.9068378 C211.139765,34.6404054 210.783373,34.5557838 210.499765,34.7099459 C210.21281,34.8632703 210.088993,35.2059459 210.210301,35.5075676 L217.673621,59.2929459 L192.196601,61.4487027 C191.873673,61.4755135 191.622693,61.7427838 191.610721,62.0661892 C191.601778,62.3904324 191.838536,62.6694324 192.157281,62.7171892 L217.458614,66.4087027 L208.576418,89.5824595 C208.436706,89.8757027 208.542118,90.2250811 208.818196,90.396 C209.092601,90.5652432 209.45234,90.5032432 209.651451,90.2493784 L223.507242,70.1588649 L236.122353,91.165973 C236.307242,91.4332432 236.661961,91.517027 236.945569,91.3637027 C237.231686,91.2112162 237.35634,90.8668649 237.236706,90.5652432 L229.76502,66.7798649 L255.242039,64.6249459 C255.562458,64.5981351 255.813438,64.3308649 255.82306,64.0074595 C255.834353,63.6832162 255.599268,63.4042162 255.27885,63.3572973" id="Fill-9" fill="#CF5E2C"></path>
                            <path d="M190.248157,67.4057297 C188.475399,68.8065946 186.166379,69.5447297 182.518797,69.5447297 C179.655948,69.5447297 177.250719,68.9708108 174.730876,67.8238108 L170.492654,81.933 C174.387033,83.3095676 178.625255,83.9974324 182.978092,83.9974324 C198.373229,83.9974324 202.434928,78.1183243 208.098719,67.6009459 L190.248157,67.4057297" id="Fill-10" fill="#707271"></path>
                            <path d="M191.862797,64.6861081 C190.54766,64.4892162 189.584732,63.3371892 189.624052,61.9983243 C189.669229,60.6661622 190.703268,59.5761351 192.029281,59.4638649 L195.945412,59.1329189 L0.581437908,61.8307568 C0.260183007,61.8575676 0.00920261438,62.124 -0.00036243255,62.4474054 C-0.010875817,62.7708108 0.22420915,63.0498108 0.544627451,63.0975676 L195.54217,65.2231622 L191.862797,64.6861081" id="Fill-11" fill="#CF5E2C"></path>
                        </g>
                        <polyline id="Fill-13" fill="#707271" points="213.902222 88.4823784 214.437647 87.4694324 208.117961 69.4006216 204.320627 53.8821892 199.013229 32.5575405 180.458248 32.5575405 196.936784 88.7161351 213.902222 88.4823784"></polyline>
                    </g>
                    <path d="M243.44083,86.9135878 L243.44083,80.4580153 L245.005274,80.4580153 L245.9648,82.7903511 L246.528,84.4354809 L246.611437,84.4354809 L247.174637,82.7903511 L248.113304,80.4580153 L249.656889,80.4580153 L249.656889,86.9135878 L248.467911,86.9135878 L248.467911,84.0606412 L248.593067,81.8740763 L248.50963,81.8740763 L247.028622,85.9140153 L246.089956,85.9140153 L244.588089,81.8740763 L244.504652,81.8740763 L244.650667,84.0606412 L244.650667,86.9135878 L243.44083,86.9135878 Z M239.102104,86.9135878 L239.102104,81.5825344 L237.037037,81.5825344 L237.037037,80.4580153 L242.439585,80.4580153 L242.439585,81.5825344 L240.353659,81.5825344 L240.353659,86.9135878 L239.102104,86.9135878 Z" id="™" fill="#707271" fill-rule="nonzero"></path>
                </g>
            </g>
        </g>
    </g>
</svg>