<?xml version="1.0" encoding="UTF-8"?>
<svg width="256px" height="74px" viewBox="0 0 256 74" version="1.1" xmlns="http://www.w3.org/2000/svg" xmlns:xlink="http://www.w3.org/1999/xlink">
    <!-- Generator: Sketch 55.2 (78181) - https://sketchapp.com -->
    <title>Logo/Products/Opalescence</title>
    <desc>Created with Sketch.</desc>
    <defs>
        <polygon id="path-1" points="0.0634710744 0.597285714 254.286281 0.597285714 254.286281 1.65442857 0.0634710744 1.65442857"></polygon>
    </defs>
    <g id="Page-1" stroke="none" stroke-width="1" fill="none" fill-rule="evenodd">
        <g id="Landing_Page_2" transform="translate(-684.000000, -3316.000000)">
            <g id="From-The-Makers-of" transform="translate(0.000000, 3025.000000)">
                <g id="Logo/Products/Opalescence" transform="translate(684.000000, 291.000000)">
                    <g stroke-width="1" fill-rule="evenodd">
                        <path d="M17.3603967,65.9826286 C17.3603967,70.4120571 13.7679339,73.9978857 9.33871074,73.9978857 C4.91054545,73.9978857 1.31596694,70.4120571 1.31596694,65.9826286 C1.31596694,61.5542571 4.91054545,57.9673714 9.33871074,57.9673714 C13.7679339,57.9673714 17.3603967,61.5542571 17.3603967,65.9826286" id="Fill-1" fill="#0092C6"></path>
                        <path d="M96.6558678,65.9826286 C96.6558678,70.4120571 93.0665785,73.9978857 88.6341818,73.9978857 C84.2049587,73.9978857 80.6156694,70.4120571 80.6156694,65.9826286 C80.6156694,61.5542571 84.2049587,57.9673714 88.6341818,57.9673714 C93.0665785,57.9673714 96.6558678,61.5542571 96.6558678,65.9826286" id="Fill-2" fill="#50A6D0"></path>
                        <path d="M136.302017,65.9826286 C136.302017,70.4120571 132.712727,73.9978857 128.280331,73.9978857 C123.853223,73.9978857 120.26076,70.4120571 120.26076,65.9826286 C120.26076,61.5542571 123.853223,57.9673714 128.280331,57.9673714 C132.712727,57.9673714 136.302017,61.5542571 136.302017,65.9826286" id="Fill-3" fill="#67AFD4"></path>
                        <path d="M175.951339,65.9826286 C175.951339,70.4120571 172.355702,73.9978857 167.927537,73.9978857 C163.50043,73.9978857 159.909025,70.4120571 159.909025,65.9826286 C159.909025,61.5542571 163.50043,57.9673714 167.927537,57.9673714 C172.355702,57.9673714 175.951339,61.5542571 175.951339,65.9826286" id="Fill-4" fill="#7EB8D9"></path>
                        <path d="M215.599603,65.9826286 C215.599603,70.4120571 212.003967,73.9978857 207.574744,73.9978857 C203.147636,73.9978857 199.557289,70.4120571 199.557289,65.9826286 C199.557289,61.5542571 203.147636,57.9673714 207.574744,57.9673714 C212.003967,57.9673714 215.599603,61.5542571 215.599603,65.9826286" id="Fill-5" fill="#95C3DE"></path>
                        <g id="Group-10" transform="translate(1.057851, 0.000000)">
                            <path d="M254.185785,65.9826286 C254.185785,70.4120571 250.592264,73.9978857 246.167273,73.9978857 C241.73276,73.9978857 238.144529,70.4120571 238.144529,65.9826286 C238.144529,61.5542571 241.73276,57.9673714 246.167273,57.9673714 C250.592264,57.9673714 254.185785,61.5542571 254.185785,65.9826286" id="Fill-6" fill="#ADCFE3"></path>
                            <path d="M55.9476364,66.2691143 C55.7900165,70.6911429 52.0727273,74.148 47.6424463,73.9947143 C43.2174545,73.8361429 39.7540496,70.1224 39.9137851,65.6972 C40.0735207,61.2741143 43.7897521,57.8151429 48.213686,57.9737143 C52.6418512,58.1301714 56.1052562,61.8428571 55.9476364,66.2691143" id="Fill-8" fill="#2D9DCC"></path>
                            <path d="M26.3859835,7.14522857 C26.3859835,3.6852 24.0005289,2.91665714 21.0512397,2.91665714 L8.59398347,2.91665714 C5.64469421,2.91665714 3.26029752,3.6852 3.26029752,7.14522857 L3.26029752,14.6160571 C3.26029752,18.0782 5.64469421,18.8456857 8.59398347,18.8456857 L21.0512397,18.8456857 C24.0005289,18.8456857 26.3859835,18.0782 26.3859835,14.6160571 L26.3859835,7.14522857 Z M0.184066116,8.1622 C0.184066116,3.13654286 2.1305124,0.719914286 8.2808595,0.719914286 L21.3654215,0.719914286 C27.5157686,0.719914286 29.461157,3.13654286 29.461157,8.1622 L29.461157,13.6001429 C29.461157,18.6247429 27.5157686,21.0445429 21.3654215,21.0445429 L8.2808595,21.0445429 C2.1305124,21.0445429 0.184066116,18.6247429 0.184066116,13.6001429 L0.184066116,8.1622 L0.184066116,8.1622 Z" id="Fill-9" fill="#8B8E8D"></path>
                        </g>
                        <path d="M52.8608264,12.5292571 C52.8608264,9.81134286 51.8569256,8.52057143 48.0602975,8.52057143 L42.694876,8.52057143 C39.1489587,8.52057143 37.7991405,10.1401143 37.7991405,12.5567429 L37.7991405,15.2196857 C37.7991405,18.5729429 40.184595,19.1194857 43.0407934,19.1194857 L47.8413223,19.1194857 C50.9789091,19.1194857 52.8608264,18.5169143 52.8608264,15.2757143 L52.8608264,12.5292571 Z M35.1016198,6.81645714 L37.610843,6.81645714 L37.610843,9.04068571 L37.6732562,9.04068571 C38.4592397,7.33868571 40.6553388,6.59868571 43.0407934,6.59868571 L48.1544463,6.59868571 C51.9828099,6.59868571 55.559405,7.66745714 55.559405,12.5007143 L55.559405,14.9733714 C55.559405,19.5053429 53.269157,21.0445429 47.7143802,21.0445429 L42.5689917,21.0445429 C39.7138512,21.0445429 38.4264463,20.4113143 37.8615537,18.9556286 L37.7991405,18.9556286 L37.7991405,25.7128857 L35.1016198,25.7128857 L35.1016198,6.81645714 L35.1016198,6.81645714 Z" id="Fill-11" fill="#8B8E8D"></path>
                        <path d="M76.0806612,16.4290571 C76.0806612,14.5071714 74.1363306,14.2587429 69.9937851,14.2587429 L65.8522975,14.2587429 C62.3687934,14.2587429 61.3966281,14.6995714 61.3966281,16.4576 L61.3966281,16.8963143 C61.3966281,18.4608857 62.0239339,19.1194857 65.7264132,19.1194857 L69.3040661,19.1194857 C74.1987438,19.1194857 76.0806612,18.8182 76.0806612,17.0612286 L76.0806612,16.4290571 Z M76.0806612,19.4228857 L76.0193058,19.4228857 C75.2967934,20.6861714 74.4494545,21.0445429 70.3079669,21.0445429 L63.8444959,21.0445429 C59.7643636,21.0445429 58.6980496,19.4778571 58.6980496,16.8402857 L58.6980496,15.9068286 C58.6980496,12.7227143 61.2707438,12.3368571 65.9781818,12.3368571 L70.3079669,12.3368571 C73.8221488,12.3368571 75.0778182,12.6666857 76.0193058,14.0124286 L76.0806612,14.0124286 L76.0806612,11.3759143 C76.0806612,8.84934286 74.261157,8.52057143 70.1196694,8.52057143 L66.1654215,8.52057143 C62.7760661,8.52057143 62.1170248,9.23308571 62.1170248,10.3864286 L62.1170248,10.8811714 L59.4184463,10.8811714 L59.4184463,10.1950857 C59.4184463,7.63997143 61.2707438,6.59868571 66.1030083,6.59868571 L70.3703802,6.59868571 C75.3909421,6.59868571 78.7802975,7.25622857 78.7802975,11.4319429 L78.7802975,20.8246571 L76.0806612,20.8246571 L76.0806612,19.4228857 L76.0806612,19.4228857 Z" id="Fill-12" fill="#8B8E8D"></path>
                        <polygon id="Fill-13" fill="#8B8E8D" points="83.5490909 20.8246571 86.2487273 20.8246571 86.2487273 0.938742857 83.5490909 0.938742857"></polygon>
                        <path d="M108.40119,11.3759143 C108.40119,9.94771429 107.177256,8.52057143 102.785058,8.52057143 L98.8308099,8.52057143 C94.563438,8.52057143 93.5595372,9.12314286 93.3088264,12.3083143 L108.40119,12.3083143 L108.40119,11.3759143 Z M90.6102479,12.2554571 C90.6102479,7.17271429 94.6269091,6.59868571 98.4542149,6.59868571 L102.785058,6.59868571 C107.617322,6.59868571 111.099769,7.66745714 111.099769,12.6666857 L111.099769,14.2323143 L93.3088264,14.2323143 L93.3088264,15.1108 C93.3088264,18.2959714 95.0659174,19.1194857 99.7722975,19.1194857 L103.475835,19.1194857 C106.864132,19.1194857 108.244628,18.7378571 108.40119,16.5950286 L111.099769,16.5950286 L111.099769,16.8677714 C111.099769,20.0804286 108.056331,21.0445429 103.035769,21.0445429 L98.1410909,21.0445429 C94.6269091,21.0445429 90.6102479,20.4673429 90.6102479,15.3042571 L90.6102479,12.2554571 L90.6102479,12.2554571 Z" id="Fill-14" fill="#8B8E8D"></path>
                        <path d="M114.36324,15.9892857 L116.874579,15.9892857 L116.874579,16.6753714 C116.874579,18.4069714 117.909157,19.1194857 120.671207,19.1194857 L126.444959,19.1194857 C130.492298,19.1194857 131.778645,18.9831143 131.778645,16.8963143 L131.778645,16.7874286 C131.778645,15.4406286 131.339636,14.6995714 128.107901,14.6995714 L119.792132,14.6995714 C115.995504,14.6995714 114.583273,13.6276286 114.583273,10.9646857 L114.583273,10.1401143 C114.583273,7.86091429 116.057917,6.59868571 122.711802,6.59868571 L126.853289,6.59868571 C132.940165,6.59868571 133.786446,8.13471429 133.786446,10.1126286 L133.786446,10.8526286 L131.276165,10.8526286 L131.276165,10.7162571 C131.276165,8.57554286 129.644959,8.52057143 126.695669,8.52057143 L121.989289,8.52057143 C118.12919,8.52057143 117.281851,8.84934286 117.281851,10.4424571 L117.281851,10.9646857 C117.281851,12.1169714 117.72086,12.7766286 120.545322,12.7766286 L127.667835,12.7766286 C131.716231,12.7766286 134.478281,13.1328857 134.478281,16.9238 L134.478281,16.9787714 C134.478281,20.9060571 130.335736,21.0445429 127.040529,21.0445429 L122.083438,21.0445429 C118.097455,21.0445429 114.36324,21.0445429 114.36324,16.8402857 L114.36324,15.9892857" id="Fill-15" fill="#8B8E8D"></path>
                        <path d="M137.866579,12.2554571 C137.866579,7.17271429 141.946711,6.59868571 145.898843,6.59868571 L150.419041,6.59868571 C155.438545,6.59868571 157.415669,8.38208571 157.415669,11.3473714 L157.415669,11.7332286 L154.905388,11.7332286 L154.905388,11.4034 C154.905388,9.06711429 153.148298,8.52057143 150.449719,8.52057143 L145.492628,8.52057143 C142.948496,8.52057143 140.564099,8.84934286 140.564099,12.3368571 L140.564099,15.2757143 C140.564099,18.4069714 142.762314,19.1194857 146.024727,19.1194857 L150.573488,19.1194857 C153.085884,19.1194857 155.186777,18.4608857 155.186777,16.1827429 L155.186777,15.7144286 L157.699174,15.7144286 L157.699174,16.1277714 C157.699174,19.6713143 155.689256,21.0445429 150.668694,21.0445429 L144.58076,21.0445429 C142.164628,21.0445429 137.866579,20.4673429 137.866579,15.3846 L137.866579,12.2554571" id="Fill-16" fill="#8B8E8D"></path>
                        <path d="M178.534612,11.3759143 C178.534612,9.94771429 177.30962,8.52057143 172.916364,8.52057143 L168.963174,8.52057143 C164.694744,8.52057143 163.691901,9.12314286 163.440132,12.3083143 L178.534612,12.3083143 L178.534612,11.3759143 Z M160.742612,12.2554571 C160.742612,7.17271429 164.759273,6.59868571 168.587636,6.59868571 L172.916364,6.59868571 C177.748628,6.59868571 181.23319,7.66745714 181.23319,12.6666857 L181.23319,14.2323143 L163.440132,14.2323143 L163.440132,15.1108 C163.440132,18.2959714 165.198281,19.1194857 169.903603,19.1194857 L173.608198,19.1194857 C176.996496,19.1194857 178.37805,18.7378571 178.534612,16.5950286 L181.23319,16.5950286 L181.23319,16.8677714 C181.23319,20.0804286 178.188694,21.0445429 173.167074,21.0445429 L168.273455,21.0445429 C164.759273,21.0445429 160.742612,20.4673429 160.742612,15.3042571 L160.742612,12.2554571 L160.742612,12.2554571 Z" id="Fill-17" fill="#8B8E8D"></path>
                        <path d="M185.092231,6.81645714 L187.602512,6.81645714 L187.602512,9.23308571 L187.665983,9.23308571 C188.669884,7.06488571 190.771835,6.59868571 194.130512,6.59868571 L198.177851,6.59868571 C203.230149,6.59868571 204.828562,8.82185714 204.828562,11.3473714 L204.828562,20.8246571 L202.131041,20.8246571 L202.131041,11.9266857 C202.131041,9.86525714 201.473058,8.52057143 196.232463,8.52057143 L195.541686,8.52057143 C189.234777,8.52057143 187.79081,9.56185714 187.79081,12.8590857 L187.79081,20.8246571 L185.092231,20.8246571 L185.092231,6.81645714" id="Fill-18" fill="#8B8E8D"></path>
                        <path d="M208.816661,12.2554571 C208.816661,7.17271429 212.894678,6.59868571 216.849983,6.59868571 L221.367008,6.59868571 C226.386512,6.59868571 228.364694,8.38208571 228.364694,11.3473714 L228.364694,11.7332286 L225.854413,11.7332286 L225.854413,11.4034 C225.854413,9.06711429 224.096264,8.52057143 221.398744,8.52057143 L216.439537,8.52057143 C213.899636,8.52057143 211.51524,8.84934286 211.51524,12.3368571 L211.51524,15.2757143 C211.51524,18.4069714 213.710281,19.1194857 216.973752,19.1194857 L221.524628,19.1194857 C224.034909,19.1194857 226.13686,18.4608857 226.13686,16.1827429 L226.13686,15.7144286 L228.64714,15.7144286 L228.64714,16.1277714 C228.64714,19.6713143 226.639339,21.0445429 221.617719,21.0445429 L215.531901,21.0445429 C213.114711,21.0445429 208.816661,20.4673429 208.816661,15.3846 L208.816661,12.2554571" id="Fill-19" fill="#8B8E8D"></path>
                        <path d="M249.482579,11.3759143 C249.482579,9.94771429 248.257587,8.52057143 243.865388,8.52057143 L239.91114,8.52057143 C235.642711,8.52057143 234.639868,9.12314286 234.389157,12.3083143 L249.482579,12.3083143 L249.482579,11.3759143 Z M231.690579,12.2554571 C231.690579,7.17271429 235.70724,6.59868571 239.535603,6.59868571 L243.865388,6.59868571 C248.696595,6.59868571 252.181157,7.66745714 252.181157,12.6666857 L252.181157,14.2323143 L234.389157,14.2323143 L234.389157,15.1108 C234.389157,18.2959714 236.146248,19.1194857 240.85157,19.1194857 L244.555107,19.1194857 C247.943405,19.1194857 249.326017,18.7378571 249.482579,16.5950286 L252.181157,16.5950286 L252.181157,16.8677714 C252.181157,20.0804286 249.136661,21.0445429 244.115041,21.0445429 L239.221421,21.0445429 C235.70724,21.0445429 231.690579,20.4673429 231.690579,15.3042571 L231.690579,12.2554571 L231.690579,12.2554571 Z" id="Fill-20" fill="#8B8E8D"></path>
                        <polyline id="Fill-21" fill="#8B8E8D" points="2.76733884 37.1606857 2.02895868 37.1606857 2.02895868 31.8517143 1.19219835 31.8517143 1.19219835 31.3220857 2.02895868 31.3220857 2.02895868 29.2363429 2.76733884 29.2363429 2.76733884 31.3220857 4.09705785 31.3220857 4.09705785 31.8517143 2.76733884 31.8517143 2.76733884 37.1606857"></polyline>
                        <path d="M9.6433719,34.2556571 C9.6433719,35.5802571 11.0048264,36.7558 12.7936529,36.7558 C14.6480661,36.7558 16.0920331,35.6690571 16.0920331,34.2556571 C16.0920331,32.8126571 14.6649917,31.7259143 12.7936529,31.7259143 C10.9889587,31.7259143 9.6433719,32.9014571 9.6433719,34.2556571 Z M16.8304132,34.2408571 C16.8304132,35.9724571 15.0743802,37.2875429 12.8433719,37.2875429 C10.6610248,37.2875429 8.90499174,35.9090286 8.90499174,34.2556571 C8.90499174,32.5726857 10.6440992,31.1941714 12.8433719,31.1941714 C15.0743802,31.1941714 16.8304132,32.5092571 16.8304132,34.2408571 L16.8304132,34.2408571 Z" id="Fill-22" fill="#8B8E8D"></path>
                        <path d="M22.8855537,34.2556571 C22.8855537,35.5802571 24.2470083,36.7558 26.0358347,36.7558 C27.8902479,36.7558 29.3342149,35.6690571 29.3342149,34.2556571 C29.3342149,32.8126571 27.9071736,31.7259143 26.0358347,31.7259143 C24.2311405,31.7259143 22.8855537,32.9014571 22.8855537,34.2556571 Z M30.0736529,34.2408571 C30.0736529,35.9724571 28.3176198,37.2875429 26.0855537,37.2875429 C23.9032066,37.2875429 22.1471736,35.9090286 22.1471736,34.2556571 C22.1471736,32.5726857 23.886281,31.1941714 26.0855537,31.1941714 C28.3176198,31.1941714 30.0736529,32.5092571 30.0736529,34.2408571 L30.0736529,34.2408571 Z" id="Fill-23" fill="#8B8E8D"></path>
                        <polyline id="Fill-24" fill="#8B8E8D" points="36.9475702 37.1606857 36.2091901 37.1606857 36.2091901 31.8517143 35.3724298 31.8517143 35.3724298 31.3220857 36.2091901 31.3220857 36.2091901 29.2363429 36.9475702 29.2363429 36.9475702 31.3220857 38.2762314 31.3220857 38.2762314 31.8517143 36.9475702 31.8517143 36.9475702 37.1606857"></polyline>
                        <path d="M44.5619835,28.3261429 L44.5619835,32.2322857 L44.5947769,32.2322857 C45.0380165,31.5863714 45.8589091,31.1941714 46.8427107,31.1941714 C48.7955041,31.1941714 49.337124,32.1308 49.337124,33.6351143 L49.337124,37.1606857 L48.5987438,37.1606857 L48.5987438,33.6351143 C48.5987438,32.5853714 48.4347769,31.7259143 46.777124,31.7259143 C44.8740496,31.7259143 44.5619835,33.0917429 44.5619835,34.2799714 L44.5619835,37.1606857 L43.8236033,37.1606857 L43.8236033,28.3261429 L44.5619835,28.3261429" id="Fill-25" fill="#8B8E8D"></path>
                        <polyline id="Fill-26" fill="#8B8E8D" points="67.7310413 36.112 70.4052893 31.0038857 73.0975207 36.112 75.7231074 31.3220857 76.4773554 31.3220857 73.0478017 37.4767714 70.3724959 32.4342 67.7151736 37.4767714 64.3014876 31.3220857 65.0567934 31.3220857 67.7310413 36.112"></polyline>
                        <path d="M82.8276364,28.3261429 L82.8276364,32.2322857 L82.8604298,32.2322857 C83.3036694,31.5863714 84.124562,31.1941714 85.1083636,31.1941714 C87.061157,31.1941714 87.6027769,32.1308 87.6027769,33.6351143 L87.6027769,37.1606857 L86.8643967,37.1606857 L86.8643967,33.6351143 C86.8643967,32.5853714 86.7004298,31.7259143 85.0438347,31.7259143 C83.1397025,31.7259143 82.8276364,33.0917429 82.8276364,34.2799714 L82.8276364,37.1606857 L82.0892562,37.1606857 L82.0892562,28.3261429 L82.8276364,28.3261429" id="Fill-27" fill="#8B8E8D"></path>
                        <path d="M94.6755702,37.1606857 L95.4139504,37.1606857 L95.4139504,31.3220857 L94.6755702,31.3220857 L94.6755702,37.1606857 Z M95.7260165,29.3748286 C95.7260165,29.6655429 95.430876,29.8949429 95.0521653,29.8949429 C94.6755702,29.8949429 94.3804298,29.6655429 94.3804298,29.3748286 C94.3804298,29.0978571 94.6755702,28.8568286 95.0521653,28.8568286 C95.430876,28.8568286 95.7260165,29.0978571 95.7260165,29.3748286 L95.7260165,29.3748286 Z" id="Fill-28" fill="#8B8E8D"></path>
                        <polyline id="Fill-29" fill="#8B8E8D" points="103.322446 37.1606857 102.584066 37.1606857 102.584066 31.8517143 101.748364 31.8517143 101.748364 31.3220857 102.584066 31.3220857 102.584066 29.2363429 103.322446 29.2363429 103.322446 31.3220857 104.652165 31.3220857 104.652165 31.8517143 103.322446 31.8517143 103.322446 37.1606857"></polyline>
                        <path d="M116.039934,33.7609143 C115.860099,32.6868571 114.711273,31.7259143 113.152,31.7259143 C111.609653,31.7259143 110.329653,32.6625429 110.198479,33.7609143 L116.039934,33.7609143 Z M110.198479,34.2926571 C110.150876,35.7694857 111.478479,36.7558 113.234512,36.7558 C114.416132,36.7558 115.368198,36.2124286 115.909818,35.4290857 L116.532893,35.7081714 C115.843174,36.7188 114.629818,37.2875429 113.136132,37.2875429 C110.888198,37.2875429 109.460099,35.8847143 109.460099,34.2281714 C109.460099,32.597 110.920992,31.1941714 113.136132,31.1941714 C115.433785,31.1941714 116.796298,32.6107429 116.778314,34.2926571 L110.198479,34.2926571 L110.198479,34.2926571 Z" id="Fill-30" fill="#8B8E8D"></path>
                        <path d="M123.571835,32.2322857 L123.604628,32.2322857 C124.047868,31.5863714 124.86876,31.1941714 125.852562,31.1941714 C127.805355,31.1941714 128.348033,32.1308 128.348033,33.6351143 L128.348033,37.1606857 L127.608595,37.1606857 L127.608595,33.6351143 C127.608595,32.5853714 127.444628,31.7259143 125.788033,31.7259143 C123.883901,31.7259143 123.571835,33.0917429 123.571835,34.2799714 L123.571835,37.1606857 L122.833455,37.1606857 L122.833455,31.3220857 L123.571835,31.3220857 L123.571835,32.2322857" id="Fill-31" fill="#8B8E8D"></path>
                        <path d="M135.418711,37.1606857 L136.157091,37.1606857 L136.157091,31.3220857 L135.418711,31.3220857 L135.418711,37.1606857 Z M136.469157,29.3748286 C136.469157,29.6655429 136.174017,29.8949429 135.797421,29.8949429 C135.418711,29.8949429 135.124628,29.6655429 135.124628,29.3748286 C135.124628,29.0978571 135.418711,28.8568286 135.797421,28.8568286 C136.174017,28.8568286 136.469157,29.0978571 136.469157,29.3748286 L136.469157,29.3748286 Z" id="Fill-32" fill="#8B8E8D"></path>
                        <path d="M143.98519,32.2322857 L144.016926,32.2322857 C144.460165,31.5863714 145.28,31.1941714 146.26486,31.1941714 C148.218711,31.1941714 148.760331,32.1308 148.760331,33.6351143 L148.760331,37.1606857 L148.02195,37.1606857 L148.02195,33.6351143 C148.02195,32.5853714 147.856926,31.7259143 146.200331,31.7259143 C144.297256,31.7259143 143.98519,33.0917429 143.98519,34.2799714 L143.98519,37.1606857 L143.24681,37.1606857 L143.24681,31.3220857 L143.98519,31.3220857 L143.98519,32.2322857" id="Fill-33" fill="#8B8E8D"></path>
                        <path d="M155.668099,34.2038571 C155.668099,35.5422 156.817983,36.7558 158.654413,36.7558 C160.591339,36.7558 161.639669,35.5422 161.639669,34.1393714 C161.639669,32.7872857 160.44324,31.7259143 158.605752,31.7259143 C156.866645,31.7259143 155.668099,32.9395143 155.668099,34.2038571 Z M162.330446,36.8826571 C162.330446,37.7791143 162.296595,38.5888857 161.57514,39.3595429 C160.870612,40.1058857 159.754579,40.4843429 158.556033,40.4843429 C156.570446,40.4843429 154.928661,39.5878857 154.814413,37.9820857 L155.553851,37.9820857 C155.635306,39.1946286 156.963967,39.9526 158.490446,39.9526 C159.441455,39.9526 160.360727,39.701 160.918215,39.0815143 C161.509554,38.4112857 161.592066,37.6543714 161.592066,36.8699714 L161.592066,36.149 L161.559273,36.149 C160.885421,36.8456571 159.754579,37.2875429 158.605752,37.2875429 C156.406479,37.2875429 154.928661,35.8593429 154.928661,34.2281714 C154.928661,32.5473143 156.487934,31.1941714 158.704132,31.1941714 C159.934413,31.1941714 160.852628,31.5990571 161.559273,32.3327143 L161.592066,32.3327143 L161.592066,31.3220857 L162.330446,31.3220857 L162.330446,36.8826571 L162.330446,36.8826571 Z" id="Fill-34" fill="#8B8E8D"></path>
                        <path d="M181.660562,32.3824 C181.414083,31.9775143 180.922182,31.7259143 180.329785,31.7259143 C179.690843,31.7259143 179.033917,32.1308 179.033917,32.6350571 C179.033917,34.0389429 182.726876,33.3560286 182.726876,35.4682 C182.726876,36.5412 181.643636,37.2875429 180.281124,37.2875429 C179.01805,37.2875429 177.984529,36.6934286 177.672463,35.7451714 L178.393917,35.5675714 C178.67319,36.2642286 179.281455,36.7558 180.281124,36.7558 C181.23319,36.7558 181.987438,36.1733143 181.987438,35.4417714 C181.987438,34.7208 181.264926,34.4945714 180.510678,34.2926571 C179.478215,34.0008857 178.295537,33.6604857 178.295537,32.6752286 C178.295537,31.7882857 179.263471,31.1941714 180.364694,31.1941714 C181.13481,31.1941714 181.97157,31.5863714 182.300562,32.1308 L181.660562,32.3824" id="Fill-35" fill="#8B8E8D"></path>
                        <polyline id="Fill-36" fill="#8B8E8D" points="187.517884 31.3220857 188.290116 31.3220857 191.521851 36.6046286 194.425653 31.3220857 195.180959 31.3220857 190.095868 40.5731429 189.340562 40.5731429 191.162182 37.2621714 187.517884 31.3220857"></polyline>
                        <path d="M203.895537,32.3824 C203.648,31.9775143 203.156099,31.7259143 202.56476,31.7259143 C201.92476,31.7259143 201.268893,32.1308 201.268893,32.6350571 C201.268893,34.0389429 204.960793,33.3560286 204.960793,35.4682 C204.960793,36.5412 203.878612,37.2875429 202.517157,37.2875429 C201.254083,37.2875429 200.219504,36.6934286 199.907438,35.7451714 L200.62995,35.5675714 C200.907107,36.2642286 201.51643,36.7558 202.517157,36.7558 C203.467107,36.7558 204.222413,36.1733143 204.222413,35.4417714 C204.222413,34.7208 203.500959,34.4945714 202.745653,34.2926571 C201.712132,34.0008857 200.53157,33.6604857 200.53157,32.6752286 C200.53157,31.7882857 201.499504,31.1941714 202.599669,31.1941714 C203.369785,31.1941714 204.207603,31.5863714 204.535537,32.1308 L203.895537,32.3824" id="Fill-37" fill="#8B8E8D"></path>
                        <polyline id="Fill-38" fill="#8B8E8D" points="211.951074 37.1606857 211.212694 37.1606857 211.212694 31.8517143 210.375934 31.8517143 210.375934 31.3220857 211.212694 31.3220857 211.212694 29.2363429 211.951074 29.2363429 211.951074 31.3220857 213.279736 31.3220857 213.279736 31.8517143 211.951074 31.8517143 211.951074 37.1606857"></polyline>
                        <path d="M224.668562,33.7609143 C224.488727,32.6868571 223.339901,31.7259143 221.780628,31.7259143 C220.239339,31.7259143 218.958281,32.6625429 218.827107,33.7609143 L224.668562,33.7609143 Z M218.827107,34.2926571 C218.777388,35.7694857 220.107107,36.7558 221.86314,36.7558 C223.04476,36.7558 223.995769,36.2124286 224.536331,35.4290857 L225.160463,35.7081714 C224.471802,36.7188 223.257388,37.2875429 221.763702,37.2875429 C219.516826,37.2875429 218.088727,35.8847143 218.088727,34.2281714 C218.088727,32.597 219.54962,31.1941714 221.763702,31.1941714 C224.062413,31.1941714 225.423868,32.6107429 225.406942,34.2926571 L218.827107,34.2926571 L218.827107,34.2926571 Z" id="Fill-39" fill="#8B8E8D"></path>
                        <path d="M232.199405,32.0546857 L232.232198,32.0546857 C232.578116,31.5113143 233.332364,31.1941714 234.137388,31.1941714 C235.105322,31.1941714 235.875438,31.5747429 236.268959,32.2566 C236.680463,31.5620571 237.517223,31.1941714 238.485157,31.1941714 C240.439008,31.1941714 240.832529,32.2196 240.832529,33.4955714 L240.832529,37.1606857 L240.092033,37.1606857 L240.092033,33.4205143 C240.092033,32.5219429 239.912198,31.7259143 238.467174,31.7259143 C236.893091,31.7259143 236.516496,32.7872857 236.516496,33.7979143 L236.516496,37.1606857 L235.777058,37.1606857 L235.777058,33.5579429 C235.777058,32.6477429 235.56443,31.7259143 234.087669,31.7259143 C232.495603,31.7259143 232.199405,33.0008286 232.199405,33.9501429 L232.199405,37.1606857 L231.462083,37.1606857 L231.462083,31.3220857 L232.199405,31.3220857 L232.199405,32.0546857" id="Fill-40" fill="#8B8E8D"></path>
                        <path d="M250.808066,32.3824 C250.561587,31.9775143 250.069686,31.7259143 249.478347,31.7259143 C248.838347,31.7259143 248.181421,32.1308 248.181421,32.6350571 C248.181421,34.0389429 251.87438,33.3560286 251.87438,35.4682 C251.87438,36.5412 250.792198,37.2875429 249.429686,37.2875429 C248.165554,37.2875429 247.133091,36.6934286 246.819967,35.7451714 L247.541421,35.5675714 C247.820694,36.2642286 248.428959,36.7558 249.429686,36.7558 C250.380694,36.7558 251.134942,36.1733143 251.134942,35.4417714 C251.134942,34.7208 250.41243,34.4945714 249.658182,34.2926571 C248.625719,34.0008857 247.444099,33.6604857 247.444099,32.6752286 C247.444099,31.7882857 248.412033,31.1941714 249.512198,31.1941714 C250.282314,31.1941714 251.119074,31.5863714 251.448066,32.1308 L250.808066,32.3824" id="Fill-41" fill="#8B8E8D"></path>
                        <g id="Group-44" transform="translate(0.000000, 24.314286)">
                            <mask id="mask-2" fill="white">
                                <use xlink:href="#path-1"></use>
                            </mask>
                            <g id="Clip-43"></g>
                            <path d="M41.6751074,0.597285714 L254.286281,0.597285714 M0,0.655428571 L30.8300165,0.655428571" id="Stroke-42" stroke="#8B8E8D" stroke-width="0.35" mask="url(#mask-2)"></path>
                        </g>
                    </g>
                    <path d="M251.907793,6.37538462 L251.907793,2.84615385 L252.761126,2.84615385 L253.284504,4.12123077 L253.591704,5.02061538 L253.637215,5.02061538 L253.944415,4.12123077 L254.456415,2.84615385 L255.29837,2.84615385 L255.29837,6.37538462 L254.649837,6.37538462 L254.649837,4.81569231 L254.718104,3.62030769 L254.672593,3.62030769 L253.86477,5.82892308 L253.35277,5.82892308 L252.53357,3.62030769 L252.488059,3.62030769 L252.567704,4.81569231 L252.567704,6.37538462 L251.907793,6.37538462 Z M249.541215,6.37538462 L249.541215,3.46092308 L248.414815,3.46092308 L248.414815,2.84615385 L251.361659,2.84615385 L251.361659,3.46092308 L250.223881,3.46092308 L250.223881,6.37538462 L249.541215,6.37538462 Z" id="™" fill="#8B8E8D" fill-rule="nonzero"></path>
                </g>
            </g>
        </g>
    </g>
</svg>