<?xml version="1.0" encoding="UTF-8"?>
<svg width="254px" height="95px" viewBox="0 0 254 95" version="1.1" xmlns="http://www.w3.org/2000/svg" xmlns:xlink="http://www.w3.org/1999/xlink">
    <!-- Generator: Sketch 55.2 (78181) - https://sketchapp.com -->
    <title>Logo/Products/Valo</title>
    <desc>Created with Sketch.</desc>
    <defs>
        <radialGradient cx="50.0122236%" cy="49.9882473%" fx="50.0122236%" fy="49.9882473%" r="50.259258%" gradientTransform="translate(0.500122,0.499882),scale(0.989351,1.000000),translate(-0.500122,-0.499882)" id="radialGradient-1">
            <stop stop-color="#00A1E4" offset="0%"></stop>
            <stop stop-color="#00A1E4" offset="69.04%"></stop>
            <stop stop-color="#00A1E4" stop-opacity="0" offset="97.33%"></stop>
            <stop stop-color="#00A1E4" stop-opacity="0" offset="100%"></stop>
        </radialGradient>
    </defs>
    <g id="Page-1" stroke="none" stroke-width="1" fill="none" fill-rule="evenodd">
        <g id="Landing_Page_2" transform="translate(-328.000000, -3305.000000)">
            <g id="From-The-Makers-of" transform="translate(0.000000, 3025.000000)">
                <g id="Logo/Products/Valo" transform="translate(328.000000, 278.000000)">
                    <g stroke-width="1" fill-rule="evenodd" id="Group">
                        <g fill-rule="nonzero">
                            <path d="M156.584049,0.29281489 L256,0.29281489 L256,98.6500505 L156.584049,98.6500505 L156.584049,0.29281489 Z M206.331288,74.6892223 C220.361354,74.6892223 231.734969,63.310902 231.734969,49.2750325 C231.734969,35.239163 220.361354,23.8608426 206.331288,23.8608426 C192.301223,23.8608426 180.927607,35.239163 180.927607,49.2750325 C180.927607,63.310902 192.301223,74.6892223 206.331288,74.6892223 Z" id="Combined-Shape" fill="url(#radialGradient-1)"></path>
                            <path d="M73.6588957,17.1832347 C72.0883436,16.2405136 69.8110429,16.3190737 68.6331288,18.3616361 L37.3006135,70.6826576 L7.06748466,18.8329967 C6.4392638,17.6545953 5.26134969,17.0261146 4.08343558,17.0261146 C2.66993865,17.0261146 1.33496933,17.8117155 0.706748466,18.9901169 C0.0785276074,20.0899582 0.0785276074,21.3469196 0.785276074,22.525321 L34.1595092,79.7956283 C34.7877301,80.8954696 35.9656442,81.6025105 37.3006135,81.6025105 C37.3006135,81.6025105 37.3006135,81.6025105 37.3006135,81.6025105 C38.6355828,81.6025105 39.8134969,80.9740297 40.5202454,79.7956283 L75.0723926,22.1325206 C76.1717791,20.1685183 75.2294479,18.1259559 73.6588957,17.1832347 Z" id="Shape" fill="#0B0000"></path>
                            <path d="M130.512883,75.6319434 L97.2171779,18.4401962 C96.5889571,17.3403549 95.4110429,16.6333141 94.0760736,16.6333141 C92.6625767,16.554754 91.5631902,17.2617948 90.8564417,18.4401962 L56.3042945,76.103304 C55.1263804,78.0673063 56.0687117,80.1098687 57.5607362,81.0525898 C58.1889571,81.4453903 58.8957055,81.6025105 59.602454,81.6025105 C60.7018405,81.6025105 61.8797546,81.0525898 62.5865031,79.8741884 L93.9190184,27.5531669 L124.152147,79.4028279 C125.330061,81.4453903 127.528834,81.5239504 129.099387,80.6597894 C130.748466,79.7170682 131.690798,77.6745058 130.512883,75.6319434 Z" id="Shape" fill="#0B0000"></path>
                            <path d="M237.310429,40.5155822 C233.619632,27.0032463 220.819632,17.418915 206.292025,17.1832347 C192.549693,17.3403549 180.534969,25.903405 175.744785,38.9443803 C171.111656,51.5139951 175.744785,66.754653 186.660123,75.1605829 C192.31411,79.481388 199.303067,81.6810706 206.213497,81.6810706 C212.652761,81.6810706 219.013497,79.7956283 224.510429,76.103304 C235.97546,68.3258549 241.079755,54.027918 237.310429,40.5155822 Z M231.263804,48.6858318 C231.813497,61.8839273 221.369325,73.4322609 207.941104,74.374982 L207.941104,74.374982 C194.748466,75.3177031 182.81227,65.1834512 181.477301,51.8282355 C180.142331,38.5515799 189.879755,26.3747655 203.15092,24.6464435 C204.250307,24.4893233 205.349693,24.4893233 206.292025,24.4893233 C219.720245,24.7250036 230.635583,35.3306161 231.263804,48.6858318 Z" id="Shape" fill="#0B0000"></path>
                            <path d="M98.002454,52.9280768 L89.6785276,52.9280768 C88.1079755,52.9280768 86.7730061,54.1850382 86.7730061,55.8348002 C86.7730061,57.406002 88.0294479,58.7415236 89.6785276,58.7415236 L98.002454,58.7415236 C99.5730061,58.7415236 100.907975,57.406002 100.907975,55.8348002 C100.907975,54.2635983 99.5730061,52.9280768 98.002454,52.9280768 Z" id="Shape" fill="#0B0000"></path>
                            <path d="M170.247853,73.8250613 L146.218405,73.8250613 L146.218405,20.2470783 C146.218405,15.6120329 138.915337,15.5334728 138.915337,20.2470783 L138.915337,77.5173857 C138.915337,79.5599481 140.564417,81.1311499 142.606135,81.1311499 L170.247853,81.1311499 C171.347239,81.1311499 172.289571,80.7383494 172.917791,79.9527485 C173.467485,79.3242678 173.781595,78.3815467 173.781595,77.4388256 C173.860123,75.7105035 172.603681,73.8250613 170.247853,73.8250613 Z" id="Shape" fill="#0B0000"></path>
                        </g>
                    </g>
                    <path d="M239.290785,26.0922115 L239.290785,22.8461538 L240.073007,22.8461538 L240.55277,24.0189231 L240.83437,24.8461538 L240.876089,24.8461538 L241.157689,24.0189231 L241.627022,22.8461538 L242.398815,22.8461538 L242.398815,26.0922115 L241.804326,26.0922115 L241.804326,24.6576635 L241.866904,23.5581923 L241.825185,23.5581923 L241.084681,25.5895962 L240.615348,25.5895962 L239.864415,23.5581923 L239.822696,23.5581923 L239.895704,24.6576635 L239.895704,26.0922115 L239.290785,26.0922115 Z M237.121422,26.0922115 L237.121422,23.4115962 L236.088889,23.4115962 L236.088889,22.8461538 L238.790163,22.8461538 L238.790163,23.4115962 L237.7472,23.4115962 L237.7472,26.0922115 L237.121422,26.0922115 Z" id="™" fill="#0B0000" fill-rule="nonzero"></path>
                </g>
            </g>
        </g>
    </g>
</svg>