<?xml version="1.0" encoding="UTF-8"?>
<svg width="750px" height="220px" viewBox="0 0 750 220" version="1.1" xmlns="http://www.w3.org/2000/svg" xmlns:xlink="http://www.w3.org/1999/xlink">
    <!-- Generator: Sketch 55.2 (78181) - https://sketchapp.com -->
    <title>Quote_Box</title>
    <desc>Created with Sketch.</desc>
    <g id="Page-1" stroke="none" stroke-width="1" fill="none" fill-rule="evenodd">
        <g id="Landing_Page_2" transform="translate(-92.000000, -1207.000000)">
            <g id="See-What-Others" transform="translate(92.000000, 1206.000000)">
                <g id="Quote_Box">
                    <path d="M137.852495,180.254097 L129.522549,221 L93.4261136,180.254097 L35,180.254097 C15.6700338,180.254097 2.36723813e-15,164.584064 0,145.254097 L0,36 C-2.36723813e-15,16.6700338 15.6700338,1 35,1 L715,1 C734.329966,1 750,16.6700338 750,36 L750,145.254097 C750,164.584064 734.329966,180.254097 715,180.254097 L137.852495,180.254097 Z" id="Combined-Shape" fill="#E35205" opacity="0.05"></path>
                    <path d="M54.0386418,104 C46.8078364,104 41.2040463,101.225152 37.2271034,95.6753731 C33.2501604,90.1255941 31.2617188,82.0423416 31.2617188,71.4253731 C31.2617188,56.9476888 34.5155324,44.4005506 41.0232572,33.7835821 C47.5309821,23.1666136 57.0513997,14.2388422 69.5847957,7 L78.2617188,21.1156716 C69.1026986,27.1480401 62.2335365,33.6025776 57.6540264,40.4794776 C53.0745164,47.3563777 50.7847957,55.8618896 50.7847957,65.9962687 C51.5078762,65.7549739 52.5924807,65.6343284 54.0386418,65.6343284 C58.8591788,65.6343284 63.2578527,67.2027206 67.2347957,70.3395522 C71.2117386,73.4763838 73.2001803,78.0609151 73.2001803,84.0932836 C73.2001803,90.3669468 71.3925061,95.253092 67.7771034,98.7518657 C64.1617007,102.250639 59.5822593,104 54.0386418,104 Z M101.038642,104 C93.8078364,104 88.2040463,101.225152 84.2271034,95.6753731 C80.2501604,90.1255941 78.2617188,82.0423416 78.2617188,71.4253731 C78.2617188,56.9476888 81.5155324,44.4005506 88.0232572,33.7835821 C94.5309821,23.1666136 104.0514,14.2388422 116.584796,7 L125.261719,21.1156716 C116.102699,27.1480401 109.233537,33.6025776 104.654026,40.4794776 C100.074516,47.3563777 97.7847957,55.8618896 97.7847957,65.9962687 C98.5078762,65.7549739 99.5924808,65.6343284 101.038642,65.6343284 C105.859179,65.6343284 110.257853,67.2027206 114.234796,70.3395522 C118.211739,73.4763838 120.20018,78.0609151 120.20018,84.0932836 C120.20018,90.3669468 118.392506,95.253092 114.777103,98.7518657 C111.161701,102.250639 106.582259,104 101.038642,104 Z" id="“" fill="#FFFFFF" fill-rule="nonzero" transform="translate(78.261719, 55.500000) rotate(8.000000) translate(-78.261719, -55.500000) "></path>
                </g>
            </g>
        </g>
    </g>
</svg>