<?xml version="1.0" encoding="UTF-8"?>
<svg width="1920px" height="95px" viewBox="0 0 1920 95" version="1.1" xmlns="http://www.w3.org/2000/svg" xmlns:xlink="http://www.w3.org/1999/xlink">
    <!-- Generator: Sketch 55.2 (78181) - https://sketchapp.com -->
    <title>Image_Mountans_light_Gray_DSO_Accounts_Learn_More_Bootom_2019</title>
    <desc>Created with Sketch.</desc>
    <defs>
        <rect id="path-1" x="0" y="0" width="1921" height="95"></rect>
        <linearGradient x1="3.061617e-15%" y1="50%" x2="100%" y2="50%" id="linearGradient-3">
            <stop stop-color="#F6F6F6" offset="0%"></stop>
            <stop stop-color="#E8E8E8" offset="32.1109694%"></stop>
            <stop stop-color="#E8E8E8" offset="68.139974%"></stop>
            <stop stop-color="#F6F6F6" offset="100%"></stop>
        </linearGradient>
    </defs>
    <g id="Page-1" stroke="none" stroke-width="1" fill="none" fill-rule="evenodd">
        <g id="Image_Mountans_light_Gray_DSO_Accounts_Learn_More_Bootom_2019" transform="translate(-1.000000, 0.000000)">
            <mask id="mask-2" fill="white">
                <use xlink:href="#path-1"></use>
            </mask>
            <g id="Mask"></g>
            <g id="Footer/Mountain_Piece/1920" mask="url(#mask-2)" fill="url(#linearGradient-3)">
                <g transform="translate(1.000000, 0.000000)">
                    <path d="M1920,5.15407955 L1920,582 L9.09494702e-13,582 L9.09494702e-13,2.4890666 C2.0746169,1.97600415 4.76198722,1.54483736 7.16564188,2.29984108 C10.7854327,3.40869303 51.5903475,20.2468152 52.7420991,20.9449812 C53.8938507,21.6431473 54.7987984,22.5466563 56.15622,22.5466563 C57.5136415,22.5466563 61.8738441,22.5877249 62.9844618,22.7930678 C64.0950794,22.9984108 66.6042526,24.6000858 68.2084781,25.5035948 C69.8127035,26.4071038 77.3402231,27.0642013 83.715991,24.8054288 C90.091759,22.5055877 116.294108,15.9346132 117.65153,15.9346132 C119.008952,15.9346132 120.613177,17.2898767 120.613177,17.2898767 C120.613177,17.2898767 121.723795,15.2364471 123.574824,15.2364471 C125.425853,15.2364471 148.543154,21.4378043 148.995628,22.1359704 C149.448102,22.7930678 208.269703,20.2878838 210.532072,20.2878838 C212.835575,20.2878838 219.211343,20.4932268 222.17299,20.0414723 C225.134637,19.5486492 263.882853,9.11722713 268.201921,8.87081559 C272.52099,8.62440404 281.858405,7.26914055 286.876751,8.17264955 C291.895097,9.07615854 296.46097,10.2260791 301.479316,9.77432458 C306.497663,9.28150149 311.721679,9.52791304 311.721679,9.52791304 C319.153219,10.5956964 323.938473,11.3623101 326.07744,11.8277541 C329.285891,12.5259202 411.553865,41.3971394 411.553865,41.3971394 C411.553865,41.3971394 453.016923,37.9884464 458.03527,39.1383669 C463.053616,40.2882875 498.634514,52.1160416 500.197606,53.0195506 C501.760697,53.9230596 505.668426,56.4282436 507.478321,56.4282436 C509.288217,56.4282436 524.79573,52.3213845 524.79573,52.3213845 C524.79573,52.3213845 572.922494,73.4306401 592.954746,71.8700337 C612.986997,70.2683587 624.134308,68.4613407 631.661827,70.9665247 C639.189347,73.4717087 643.055941,76.4286473 643.055941,76.4286473 C643.055941,76.4286473 750.374513,41.3560708 752.883686,42.2595798 C755.392859,43.1630888 754.693581,46.1200273 755.392859,46.3664389 C756.092137,46.6128504 763.372852,40.6989734 768.391199,40.4525618 C773.409545,40.2061503 810.101061,45.4218613 815.571881,42.7113343 C821.042702,40.0008073 832.436816,32.9370097 832.436816,32.9370097 L834.246711,35.4421938 L839.265058,33.1834213 L842.473509,34.9904393 L896.482433,21.8074217 C896.482433,21.8074217 908.534691,15.4417901 917.213962,13.6347721 C925.8521,11.7866855 960.93939,13.1830176 960.93939,13.1830176 C960.93939,13.1830176 967.315158,9.28150149 970.071135,8.62440404 C972.827112,7.96730659 991.707612,0 991.707612,0 C991.707612,0 998.782658,5.01036806 1004.25348,5.91387706 C1009.7243,6.81738605 1024.77934,6.36563156 1029.55088,7.72089505 C1034.36397,9.07615854 1046.86829,13.3883606 1050.98169,15.8935446 C1055.09509,18.3987286 1078.78826,24.0661941 1081.29744,24.5179486 C1083.80661,24.9697031 1091.5398,28.1730532 1093.5965,30.2264827 C1095.6532,32.2799123 1156.9017,60.9457886 1160.11015,60.699377 C1163.3186,60.4940341 1189.97343,62.9992181 1195.89672,61.3975431 C1201.82002,59.795868 1213.6666,57.5370955 1215.02403,58.4406045 C1216.38145,59.3441135 1218.43815,62.3010521 1218.43815,62.3010521 C1218.43815,62.3010521 1234.39813,63.4509726 1242.5838,60.0422796 C1250.81059,56.6335866 1274.0513,47.0646049 1274.0513,47.0646049 C1274.0513,47.0646049 1430.19591,17.0023965 1432.00581,16.0988875 C1433.8157,15.15431 1447.9662,10.636765 1449.32321,9.93859895 C1450.68064,9.2404329 1455.24651,4.92823088 1455.24651,4.92823088 C1455.24651,4.92823088 1460.47052,6.28349437 1462.52722,7.43341491 C1464.58392,8.58333545 1470.30155,12.443783 1472.56392,12.443783 C1474.82629,12.443783 1477.33546,11.0885195 1478.93968,12.6901945 C1480.50278,14.2918696 1487.37215,21.8074217 1487.37215,21.8074217 C1487.37215,21.8074217 1495.59895,17.9469741 1496.5039,18.3987286 C1497.40884,18.8504831 1499.21874,20.2057466 1500.82296,20.0004037 C1502.42719,19.7950607 1524.76295,7.96730659 1527.9714,7.72089505 C1531.13871,7.4744835 1533.19541,7.72089505 1535.25211,7.02272901 C1537.30881,6.32456297 1541.21654,4.06579048 1543.93138,4.51754498 C1546.68736,4.96929947 1562.19487,14.045458 1562.19487,14.045458 L1588.39722,3.32655585 C1588.39722,3.32655585 1596.17155,5.83173988 1600.03814,6.98166042 C1603.90474,8.09051236 1653.14212,15.6060645 1654.49954,15.15431 C1655.85696,14.7025555 1659.06541,13.5526349 1659.06541,13.5526349 L1664.53623,16.961328 C1664.53623,16.961328 1669.1021,19.2201004 1673.2155,21.7252845 C1677.3289,24.2304685 1699.45899,40.8221791 1701.72136,41.9720997 C1704.02445,43.1220202 1710.15382,41.9720997 1711.30516,42.8756087 C1712.45691,43.7791177 1712.00444,47.4342222 1712.90939,47.4342222 C1713.81434,47.4342222 1720.39577,52.8963448 1734.54587,51.0893268 C1748.65523,49.2823088 1762.55811,41.7667567 1762.55811,41.7667567 L1767.12439,42.9166773 C1767.12439,42.9166773 1771.44346,39.7543958 1773.95264,39.0562297 C1776.46181,38.3580637 1781.93263,40.1650817 1784.195,38.8098182 C1786.4985,37.4545547 1830.47073,18.35766 1832.52743,17.2077395 C1834.54259,16.057819 1836.39362,13.347292 1840.26021,15.6060645 C1844.12722,17.9059055 1849.80371,21.7663531 1862.34957,16.3042305 C1874.89544,10.8421079 1877.61028,8.33692391 1881.72368,10.3903534 C1885.79595,12.443783 1888.09945,14.7025555 1889.90934,14.7025555 C1891.76037,14.7025555 1895.62656,11.0474509 1896.53192,11.0474509 C1897.43686,11.0474509 1899.94604,14.4561439 1901.09779,14.4561439 C1902.06086,14.4561439 1915.59237,7.44968258 1920,5.15407955 Z"></path>
                </g>
            </g>
        </g>
    </g>
</svg>