<?xml version="1.0" encoding="UTF-8"?>
<svg width="1920px" height="288px" viewBox="0 0 1920 288" version="1.1" xmlns="http://www.w3.org/2000/svg" xmlns:xlink="http://www.w3.org/1999/xlink">
    <!-- Generator: Sketch 55.2 (78181) - https://sketchapp.com -->
    <title>Image_Arches_White_DSO_Accounts_Hero_Bottom_2019</title>
    <desc>Created with Sketch.</desc>
    <g id="Page-1" stroke="none" stroke-width="1" fill="none" fill-rule="evenodd">
        <g id="Landing_Page_2-Copy" transform="translate(0.000000, -812.000000)" fill="#FFFFFF">
            <g id="Hero" transform="translate(0.000000, 145.000000)">
                <path d="M346.921413,756.188044 C346.921413,755.733799 346.921413,754.314282 348.061393,753.462571 C349.201374,752.610861 357.751226,739.721647 358.606212,739.437744 C359.461197,739.15384 361.399164,738.586034 361.684159,738.018227 C361.969154,737.45042 369.949016,725.242574 369.835018,724.106961 C369.72102,722.971347 369.72102,719.450945 371.259994,719.280603 C372.798967,719.110261 374.39494,719.110261 374.679935,718.599235 C374.96493,718.14499 377.757882,716.100885 378.270873,714.908491 C378.384871,714.681368 377.757882,714 381.234822,714 C385.167754,714 393.033619,714.170342 393.375613,714.227123 C393.831605,714.340684 395.655574,715.362736 395.769572,716.100885 C395.88357,716.839034 395.028585,721.892514 396.624557,723.028128 C398.22053,724.163741 411.045309,725.980723 411.045309,727.002775 C411.045309,728.024828 410.589317,728.876538 412.299287,730.579958 C414.009258,732.283378 419.253168,740.062331 420.108153,740.914041 C420.963138,741.765752 422.673109,741.027603 422.958104,742.219997 C423.243099,743.469172 423.243099,751.418467 423.528094,751.872712 C423.813089,752.326958 424.782073,753.746475 424.554077,754.541404 C424.32608,755.336334 423.585093,758.913516 423.984086,759.822007 C424.383079,760.787279 425.409062,762.661041 425.865054,763.342409 C426.321046,764.023778 427.119032,765.613637 427.689023,765.613637 C428.259013,765.613637 429,765.159391 429,765.783979 C429,766.465347 428.715005,768.736574 428.145015,769.474723 C427.575025,770.212871 426.834037,771.064582 426.321046,771.632388 C425.865054,772.200195 425.010069,773.619712 424.896071,775.493475 C424.782073,777.367237 420.450147,806.155041 420.165152,806.666067 C419.880157,807.120312 419.424165,809.050855 418.854175,809.618662 C418.284184,810.186469 417.885191,810.356811 417.885191,811.889889 L417.885191,815.012827 C417.885191,815.580633 418.056188,816.829808 418.626179,817.113712 C419.196169,817.397615 419.766159,817.85186 420.336149,817.85186 C420.906139,817.85186 419.652161,817.965422 419.082171,818.306106 C418.512181,818.703571 417.94219,818.760351 417.771193,819.895965 C417.600196,821.031578 416.973207,832.103811 415.776228,832.671618 C414.522249,833.239424 409.22134,835.680993 403.806434,835.964897 C398.391527,836.2488 383.172789,834.829283 372.62797,831.024978 C362.083152,827.220672 355.699262,824.4952 355.129272,824.324858 C354.559281,824.154516 353.989291,823.64349 353.989291,823.64349 C353.989291,823.64349 355.129272,821.656166 354.844276,820.066307 C354.559281,818.476448 351.595332,811.435644 351.595332,811.435644 L353.305303,811.435644 C353.989291,811.435644 354.730278,811.662767 355.927258,810.356811 C356.839242,809.391539 358.948206,789.120837 358.378216,788.212346 C357.808225,787.303856 349.258373,773.846835 348.346388,773.165467 C347.434404,772.484099 342.475489,758.288929 343.045479,757.891464 C343.61547,757.494 346.921413,756.642289 346.921413,756.188044 Z M0,955 L0,798.049303 C123.783356,805.124057 278.789011,815.712437 279.059958,814.668971 C279.401784,813.246889 281.908513,812.450523 283.218849,811.938574 C284.130387,811.597274 288.517162,811.255975 288.517162,811.255975 C288.517162,811.255975 289.200816,809.492593 289.713556,809.151294 C290.852978,808.298045 294.499129,807.387912 294.499129,807.387912 C294.499129,807.387912 294.385187,805.681414 294.499129,803.974916 C294.613071,802.325301 298.885905,799.936204 303.044796,800.04997 C307.716427,800.163737 311.020752,801.130753 311.020752,801.130753 C311.020752,801.130753 310.564983,787.649417 311.020752,782.928106 C311.305607,779.799526 312.729885,768.991705 313.299596,767.00079 C313.869307,765.009876 316.433007,760.174798 317.57243,759.037132 C318.256083,758.29765 319.281563,758.29765 320.591898,757.501284 C320.876754,757.330634 323.21257,757.216867 323.21257,757.216867 L323.269541,756.875568 C323.269541,756.875568 321.16161,756.875568 320.534927,756.704918 C319.851274,756.534268 320.022187,756.363618 320.022187,755.225953 C319.965216,752.666206 320.079158,749.08256 320.079158,747.831128 C320.022187,745.726447 320.990696,745.669563 320.990696,744.816314 C320.990696,743.963065 321.503436,736.56824 322.244061,735.714991 C322.984685,734.861742 320.819783,732.074462 320.705841,730.879913 C320.591898,730.140431 326.004154,714.099348 326.004154,713.246099 C326.004154,712.39285 340.417846,686.795378 345.716159,687.079795 C346.627697,687.136678 344.975535,683.951215 346.684668,683.666798 C348.393801,683.382382 349.704137,681.675884 350.558704,680.253802 C351.41327,678.83172 352.267837,673.370926 352.267837,672.403911 C352.267837,670.697413 354.147884,673.143393 354.261826,670.014813 C354.261826,668.478965 364.345713,667 378.474549,667 C387.589927,667 432.768019,679.34367 434.306239,680.538218 C435.844459,681.732767 438.351188,685.543946 438.408159,687.250444 C438.636043,693.678254 438.749986,694.929686 437.382679,695.498519 C436.699026,695.726052 436.869939,696.636184 436.869939,696.636184 C436.869939,696.636184 436.812968,697.660083 437.667535,697.660083 C439.034841,697.660083 439.832437,702.324511 440.687003,702.267628 C442.737964,702.096978 447.637479,709.833103 447.808393,710.288169 C447.922335,710.686352 447.922335,711.937784 447.865364,713.189216 C447.808393,715.635197 448.20719,715.009481 448.947815,715.35078 C450.713919,716.204029 450.486035,725.987952 450.486035,725.987952 C450.486035,725.987952 455.328579,725.987952 457.037713,727.69445 C458.746846,729.400948 468.716791,737.649022 469.286502,739.639937 C469.856213,741.630851 469.856213,745.043848 470.995635,745.61268 C472.135058,746.181513 473.673278,749.992692 476.407891,753.860754 C477.547313,755.567253 478.230967,757.046218 478.173995,759.264665 C478.173995,760.91428 477.718227,761.08493 479.028562,762.848311 C480.680724,765.123642 488.827593,786.682402 490.137929,788.900849 C491.790091,791.574363 492.587687,793.451511 493.157398,796.92139 C493.954994,802.040885 495.550185,802.609718 496.176867,805.340115 C496.974463,808.468694 498.113885,816.489236 498.341769,817.626901 C498.569654,818.764566 498.170856,820.755481 496.746578,821.893146 C495.892011,822.575746 493.328311,822.917045 493.328311,822.917045 L493.157398,823.542761 C492.872542,823.258345 494.695618,825.419909 496.34778,826.500691 C499.481191,828.605372 508.767483,855.795576 508.824454,858.070907 C509.052338,864.441833 509.280223,864.783133 511.729981,865.238199 C514.065796,865.693265 521.756896,866.546514 524.605452,868.253012 C527.454008,869.95951 533.151119,872.519257 534.290541,874.225755 C535.429963,875.932254 541.981641,883.327079 541.981641,883.327079 C541.981641,883.327079 628.634703,913.532096 913.604208,913.532096 C1221.70398,913.532096 1385.49593,883.952795 1390.62333,882.815129 C1391.36396,870.187043 1390.16756,870.812759 1394.38343,870.016393 C1394.55434,868.139246 1394.21251,869.390677 1394.38343,865.750148 C1394.49737,864.498716 1411.24687,840.323326 1414.20937,838.161762 C1415.86153,836.967213 1418.25432,833.326684 1418.19735,830.880703 C1418.42523,829.913688 1426.23028,824.680427 1427.88244,824.56666 C1430.95888,824.339127 1430.84494,824.794193 1430.78797,822.291329 C1430.67402,820.527948 1430.61705,820.527948 1432.95287,820.584831 C1433.63652,820.584831 1435.51657,820.698598 1437.05479,821.26743 C1438.0233,821.60873 1437.73844,821.551847 1438.08027,823.428995 C1438.25118,824.282244 1444.23315,825.931859 1444.518,827.240174 C1444.74589,828.207189 1447.65142,845.670354 1448.33507,850.448548 C1448.61992,852.382579 1448.44901,855.681809 1448.39204,858.241556 C1448.33507,862.394035 1455.00069,869.561327 1455.1716,870.983409 C1455.45646,873.656923 1455.45646,873.372506 1463.37544,873.031207 C1522.56843,867.968596 1588.65492,843.736322 1595.49145,841.290342 C1599.08063,839.982026 1597.94121,841.688525 1597.94121,833.326684 C1597.94121,830.82382 1598.11212,831.051353 1599.82126,830.368754 C1601.13159,829.856804 1602.8977,819.560932 1607.96813,819.276516 C1624.71763,818.537033 1624.66066,820.015998 1624.54672,809.549477 C1624.43278,801.301402 1624.20489,801.472052 1624.71763,798.855422 C1624.94552,797.60399 1629.50321,785.829153 1634.11787,785.658503 C1651.608,785.08967 1657.87482,785.374087 1666.1926,786.966818 C1674.56736,788.55955 1673.14308,788.900849 1673.42793,790.948647 C1673.54188,792.029429 1673.54188,792.086312 1678.72625,793.508394 C1680.72024,794.077227 1679.92264,795.328659 1679.97961,795.897492 C1679.97961,795.954375 1686.30341,796.864507 1686.30341,800.846336 C1686.30341,812.166107 1685.56278,809.720126 1728.00626,806.30713 C1740.13363,805.311528 1825.52576,802.699382 1920,800.018142 L1920,955 L0,955 Z" id="Image_Arches_White_DSO_Accounts_Hero_Bottom_2019"></path>
            </g>
        </g>
    </g>
</svg>