<?xml version="1.0" encoding="UTF-8"?>
<svg width="601px" height="163px" viewBox="0 0 601 163" version="1.1" xmlns="http://www.w3.org/2000/svg" xmlns:xlink="http://www.w3.org/1999/xlink">
    <!-- Generator: Sketch 55.2 (78181) - https://sketchapp.com -->
    <title>logo_grey</title>
    <desc>Created with Sketch.</desc>
    <defs>
        <polygon id="path-1" points="0 163 601 163 601 0 0 0"></polygon>
        <polygon id="path-3" points="0 163 601 163 601 0 0 0"></polygon>
        <polygon id="path-5" points="0 163 601 163 601 0 0 0"></polygon>
        <polygon id="path-7" points="0 163 601 163 601 0 0 0"></polygon>
        <polygon id="path-9" points="0 163 601 163 601 0 0 0"></polygon>
        <polygon id="path-11" points="0 163 601 163 601 0 0 0"></polygon>
        <polygon id="path-13" points="0 163 601 163 601 0 0 0"></polygon>
        <polygon id="path-15" points="0 163 601 163 601 0 0 0"></polygon>
        <polygon id="path-17" points="0 163 601 163 601 0 0 0"></polygon>
        <polygon id="path-19" points="0 163 601 163 601 0 0 0"></polygon>
        <polygon id="path-21" points="0 163 601 163 601 0 0 0"></polygon>
        <polygon id="path-23" points="0 163 601 163 601 0 0 0"></polygon>
        <polygon id="path-25" points="0 163 601 163 601 0 0 0"></polygon>
        <polygon id="path-27" points="0 163 601 163 601 0 0 0"></polygon>
        <polygon id="path-29" points="0 163 601 163 601 0 0 0"></polygon>
        <polygon id="path-31" points="0 163 601 163 601 0 0 0"></polygon>
        <polygon id="path-33" points="0 163 601 163 601 0 0 0"></polygon>
        <polygon id="path-35" points="0 163 601 163 601 0 0 0"></polygon>
        <polygon id="path-37" points="0 163 601 163 601 0 0 0"></polygon>
        <polygon id="path-39" points="0 163 601 163 601 0 0 0"></polygon>
    </defs>
    <g id="Page-1" stroke="none" stroke-width="1" fill="none" fill-rule="evenodd">
        <g id="Landing_Page_2" transform="translate(-1193.000000, -1272.000000)">
            <g id="Group-3" transform="translate(1193.000000, 1272.000000)">
                <g id="logo_grey">
                    <path d="M235.482061,130.836217 C240.825723,130.836217 244.313981,127.163193 244.313981,122.069013 L244.313981,122 C244.313981,116.908376 240.825723,113.158671 235.482061,113.158671 L230.470972,113.158671 L230.470972,130.836217 L235.482061,130.836217 Z M226,109 L235.482061,109 C243.4788,109 249,114.610499 249,121.925875 L249,122 C249,129.31282 243.4788,135 235.482061,135 L226,135 L226,109 Z" id="Fill-1" fill="#808285" fill-rule="nonzero"></path>
                    <polygon id="Fill-3" fill="#808285" fill-rule="nonzero" points="255 109 274.81085 109 274.81085 113.084546 259.694601 113.084546 259.694601 119.842705 273.095363 119.842705 273.095363 123.927251 259.694601 123.927251 259.694601 130.910342 275 130.910342 275 135 255 135"></polygon>
                    <polygon id="Fill-5" fill="#808285" fill-rule="nonzero" points="280 109 284.294337 109 298.438401 126.976603 298.438401 109 303 109 303 135 299.115636 135 284.561597 116.504522 284.561597 135 280 135"></polygon>
                    <polygon id="Fill-7" fill="#808285" fill-rule="nonzero" points="313.814394 113.232796 306 113.232796 306 109 326 109 326 113.232796 318.178337 113.232796 318.178337 135 313.814394 135"></polygon>
                    <path d="M346.234467,124.748731 L341.925238,114.418782 L337.650324,124.748731 L346.234467,124.748731 Z M339.971622,109 L344.033281,109 L355,135 L350.369663,135 L347.83756,128.76396 L336.052136,128.76396 L333.485716,135 L329,135 L339.971622,109 Z" id="Fill-9" fill="#808285" fill-rule="nonzero"></path>
                    <polygon id="Fill-11" fill="#808285" fill-rule="nonzero" points="361 109 365.257744 109 365.257744 130.836217 378 130.836217 378 135 361 135"></polygon>
                    <path d="M395,130.952795 L397.732697,127.775155 C400.203809,129.869565 402.67238,131.059627 405.88762,131.059627 C408.691429,131.059627 410.461589,129.797516 410.461589,127.886956 L410.461589,127.812422 C410.461589,126.003727 409.430477,125.032298 404.627937,123.951553 C399.132063,122.649689 396.031111,121.059627 396.031111,116.401242 L396.031111,116.326708 C396.031111,111.998758 399.721269,109 404.851429,109 C408.620317,109 411.601906,110.120497 414.225397,112.17764 L411.78984,115.536646 C409.458411,113.842236 407.142223,112.935404 404.782857,112.935404 C402.123809,112.935404 400.569523,114.269565 400.569523,115.934162 L400.569523,116.006211 C400.569523,117.954037 401.755554,118.821118 406.695237,119.976397 C412.163174,121.275776 415,123.193789 415,127.37764 L415,127.44969 C415,132.180124 411.200634,135 405.773334,135 C401.826666,135 398.100951,133.660869 395,130.952795" id="Fill-13" fill="#808285" fill-rule="nonzero"></path>
                    <polygon id="Fill-15" fill="#808285" fill-rule="nonzero" points="421 109 440.810849 109 440.810849 113.084546 425.6946 113.084546 425.6946 119.842705 439.092737 119.842705 439.092737 123.927251 425.6946 123.927251 425.6946 130.910342 441 130.910342 441 135 421 135"></polygon>
                    <path d="M455.730506,121.884978 C459.138801,121.884978 461.310625,120.177546 461.310625,117.542273 L461.310625,117.465592 C461.310625,114.682068 459.218746,113.158671 455.6932,113.158671 L448.762021,113.158671 L448.762021,121.884978 L455.730506,121.884978 Z M444,109 L456.079597,109 C459.487892,109 462.158034,109.963626 463.900822,111.602045 C465.334492,113.007865 466.149926,114.940228 466.149926,117.207432 L466.149926,117.281557 C466.149926,121.55525 463.474454,124.116398 459.679758,125.154149 L467,135 L461.387905,135 L454.725872,125.93374 L454.648592,125.93374 L448.762021,125.93374 L448.762021,135 L444,135 L444,109 Z" id="Fill-17" fill="#808285" fill-rule="nonzero"></path>
                    <polygon id="Fill-19" fill="#808285" fill-rule="nonzero" points="469 109 474.122194 109 482.073915 128.837563 489.99192 109 495 109 484.034613 135 479.967979 135"></polygon>
                    <g id="Fill-21-Clipped">
                        <mask id="mask-2" fill="white">
                            <use xlink:href="#path-1"></use>
                        </mask>
                        <g id="path-1"></g>
                        <polygon id="Fill-21" fill="#808285" fill-rule="nonzero" mask="url(#mask-2)" points="500.833333 134.403509 506.557143 134.403509 506.557143 108.666667 500.833333 108.666667"></polygon>
                    </g>
                    <g id="Fill-23-Clipped">
                        <mask id="mask-4" fill="white">
                            <use xlink:href="#path-3"></use>
                        </mask>
                        <g id="path-1"></g>
                        <path d="M512.280952,121.602372 L512.280952,121.536311 C512.280952,114.4629 517.608978,108.666667 525.192301,108.666667 C529.813696,108.666667 532.603278,110.261915 534.998918,112.537347 L532.169943,115.776778 C530.165779,113.922179 528.021274,112.681702 525.157832,112.681702 C520.364088,112.681702 516.8925,116.589083 516.8925,121.46291 L516.8925,121.536311 C516.8925,126.405245 520.364088,130.386027 525.157832,130.386027 C528.233018,130.386027 530.202712,129.143103 532.35214,127.151489 L535.17619,129.994555 C532.563884,132.698158 529.707826,134.403509 525.015029,134.403509 C517.714848,134.403509 512.280952,128.751631 512.280952,121.602372" id="Fill-23" fill="#808285" fill-rule="nonzero" mask="url(#mask-4)"></path>
                    </g>
                    <g id="Fill-24-Clipped">
                        <mask id="mask-6" fill="white">
                            <use xlink:href="#path-5"></use>
                        </mask>
                        <g id="path-1"></g>
                        <polygon id="Fill-24" fill="#808285" fill-rule="nonzero" mask="url(#mask-6)" points="540.9 108.666667 560.743918 108.666667 560.743918 112.709871 545.606451 112.709871 545.606451 119.399628 559.023393 119.399628 559.023393 123.442832 545.606451 123.442832 545.606451 130.355244 560.933333 130.355244 560.933333 134.403509 540.9 134.403509"></polygon>
                    </g>
                    <g id="Fill-25-Clipped">
                        <mask id="mask-8" fill="white">
                            <use xlink:href="#path-7"></use>
                        </mask>
                        <g id="path-1"></g>
                        <path d="M563.795238,130.397267 L566.53249,127.25179 C569.00772,129.325002 571.485494,130.503018 574.701004,130.503018 C577.514574,130.503018 579.287682,129.253681 579.287682,127.36246 L579.287682,127.28868 C579.287682,125.498291 578.249766,124.536695 573.449396,123.466888 C567.939276,122.178201 564.828068,120.604233 564.828068,115.992998 L564.828068,115.919218 C564.828068,111.635073 568.524375,108.666667 573.668174,108.666667 C577.438256,108.666667 580.429899,109.775822 583.052678,111.812144 L580.613061,115.137152 C578.287924,113.459892 575.957698,112.562238 573.5944,112.562238 C570.93092,112.562238 569.374043,113.882896 569.374043,115.530644 L569.374043,115.601965 C569.374043,117.530076 570.562052,118.388381 575.515056,119.531967 C580.987018,120.818194 583.828571,122.716794 583.828571,126.858298 L583.828571,126.929618 C583.828571,131.612174 580.022873,134.403509 574.591614,134.403509 C570.633282,134.403509 566.901358,133.077932 563.795238,130.397267" id="Fill-25" fill="#808285" fill-rule="nonzero" mask="url(#mask-8)"></path>
                    </g>
                    <g id="Fill-26-Clipped">
                        <mask id="mask-10" fill="white">
                            <use xlink:href="#path-9"></use>
                        </mask>
                        <g id="path-1"></g>
                        <path d="M249.962088,61.3109767 C258.310942,61.3109767 263.522454,56.6381894 263.522454,50.0778843 L263.522454,49.8988311 C263.522454,42.5303006 258.224,38.6657387 249.962088,38.6657387 L237.132028,38.6657387 L237.132028,61.3109767 L249.962088,61.3109767 Z M229.42654,91.5087719 L227.474086,91.5087719 C226.71397,91.5087719 226.090476,90.8920337 226.090476,90.1285714 L226.090476,83.9015039 L226.090476,83.6204902 L226.102896,35.112033 L226.102896,29.9816655 C226.102896,29.2157165 226.723906,28.5964912 227.484022,28.5964912 L233.912714,28.5964912 L250.86131,28.5964912 C265.494781,28.5964912 274.742857,36.9547875 274.742857,49.6302517 L274.742857,49.8093047 C274.742857,63.9171934 263.433029,71.2882107 249.60687,71.2882107 L237.132028,71.2882107 L237.132028,84.7942823 L237.132028,84.9932301 L237.132028,90.1285714 C237.132028,90.8920337 236.513502,91.5087719 235.745934,91.5087719 L229.528386,91.5087719 L229.42654,91.5087719 Z" id="Fill-26" fill="#808285" fill-rule="nonzero" mask="url(#mask-10)"></path>
                    </g>
                    <g id="Fill-27-Clipped">
                        <mask id="mask-12" fill="white">
                            <use xlink:href="#path-11"></use>
                        </mask>
                        <g id="path-1"></g>
                        <path d="M400.206418,82.0490666 L395.103888,76.8508571 C394.576385,76.3003698 393.683879,76.2325014 393.131374,76.7528252 L392.961374,76.8986164 C387.973844,81.3628426 383.171313,84.105225 375.95377,84.105225 C363.848697,84.105225 355.083644,73.93252 355.083644,61.4849698 L355.083644,61.3065014 C355.083644,48.8564375 363.848697,38.8647145 375.95377,38.8647145 C382.676313,38.8647145 387.838843,41.6146378 392.593872,45.7973365 L392.661372,45.8551503 C393.263878,46.3427965 394.098881,46.2497919 394.616385,45.6666271 L399.938919,39.4830702 C400.426421,38.8848239 400.333919,38.0050494 399.738917,37.5174032 L399.723915,37.4972938 C393.906381,32.2211614 387.023838,28.5964912 376.046272,28.5964912 C356.891155,28.5964912 343.428571,43.406864 343.428571,61.4849698 L343.428571,61.6684654 C343.428571,79.9275536 357.163657,94.3684211 375.59127,94.3684211 C386.788838,94.3684211 393.858879,90.4697639 400.17142,84.2032569 L400.328919,84.0323294 C400.831424,83.4617327 400.758923,82.5643631 400.206418,82.0490666" id="Fill-27" fill="#808285" fill-rule="nonzero" mask="url(#mask-12)"></path>
                    </g>
                    <g id="Fill-28-Clipped">
                        <mask id="mask-14" fill="white">
                            <use xlink:href="#path-13"></use>
                        </mask>
                        <g id="path-1"></g>
                        <path d="M586.230268,82.0490666 L581.123184,76.8508571 C580.595727,76.3003698 579.708299,76.2325014 579.150845,76.7528252 L578.980857,76.8986164 C573.993762,81.3628426 569.191654,84.105225 561.97974,84.105225 C549.870723,84.105225 541.101435,73.93252 541.101435,61.4849698 L541.101435,61.3065014 C541.101435,48.8564375 549.870723,38.8647145 561.97974,38.8647145 C568.696694,38.8647145 573.853774,41.6146378 578.613388,45.7973365 L578.685883,45.8551503 C579.283334,46.3427965 580.118266,46.2497919 580.635725,45.6666271 L585.957791,39.4830702 C586.440251,38.8848239 586.35276,38.0050494 585.757807,37.5174032 L585.747808,37.4972938 C579.928282,32.2211614 573.038841,28.5964912 562.067231,28.5964912 C542.918788,28.5964912 529.452381,43.406864 529.452381,61.4849698 L529.452381,61.6684654 C529.452381,79.9275536 543.186264,94.3684211 561.617268,94.3684211 C572.808859,94.3684211 579.878284,90.4697639 586.190272,84.2032569 L586.35276,84.0323294 C586.855219,83.4617327 586.782724,82.5643631 586.230268,82.0490666" id="Fill-28" fill="#808285" fill-rule="nonzero" mask="url(#mask-14)"></path>
                    </g>
                    <g id="Fill-29-Clipped">
                        <mask id="mask-16" fill="white">
                            <use xlink:href="#path-15"></use>
                        </mask>
                        <g id="path-1"></g>
                        <path d="M423.561905,30.1434942 L423.556756,30.1434942 L423.556756,29.9793426 C423.556756,29.2157897 422.918345,28.5964912 422.128056,28.5964912 L420.107282,28.5964912 L419.99659,28.5964912 L413.555856,28.5964912 C412.762994,28.5964912 412.119434,29.2157897 412.119434,29.9793426 L412.119434,30.1434942 L412.114286,30.1434942 L412.114286,89.1832933 L412.119434,89.1832933 L412.119434,90.1308946 C412.119434,90.8919605 412.762994,91.5087719 413.550707,91.5087719 L415.57663,91.5087719 L415.682174,91.5087719 L422.128056,91.5087719 C422.918345,91.5087719 423.556756,90.8919605 423.556756,90.1308946 L423.556756,89.1832933 L423.561905,89.1832933 L423.561905,30.1434942 Z" id="Fill-29" fill="#808285" fill-rule="nonzero" mask="url(#mask-16)"></path>
                    </g>
                    <g id="Fill-30-Clipped">
                        <mask id="mask-18" fill="white">
                            <use xlink:href="#path-17"></use>
                        </mask>
                        <g id="path-1"></g>
                        <path d="M515.142857,30.1434942 L515.137709,30.1434942 L515.137709,29.9793426 C515.137709,29.2157897 514.494149,28.5964912 513.70386,28.5964912 L511.683086,28.5964912 L511.572393,28.5964912 L505.126511,28.5964912 C504.338797,28.5964912 503.695238,29.2157897 503.695238,29.9793426 L503.695238,30.1434942 L503.695238,89.1832933 L503.695238,90.1308946 C503.695238,90.8919605 504.338797,91.5087719 505.126511,91.5087719 L507.152433,91.5087719 L507.257978,91.5087719 L513.70386,91.5087719 C514.494149,91.5087719 515.137709,90.8919605 515.137709,90.1308946 L515.137709,89.1832933 L515.142857,89.1832933 L515.142857,30.1434942 Z" id="Fill-30" fill="#808285" fill-rule="nonzero" mask="url(#mask-18)"></path>
                    </g>
                    <g id="Fill-31-Clipped">
                        <mask id="mask-20" fill="white">
                            <use xlink:href="#path-19"></use>
                        </mask>
                        <g id="path-1"></g>
                        <path d="M442.099921,28.5964912 C441.34611,28.5964912 440.738196,29.215643 440.738196,29.9790149 L440.738196,30.1431273 L440.733333,30.1431273 L440.733333,90.128735 C440.733333,90.8921066 441.341248,91.5087719 442.092626,91.5087719 L444.001477,91.5087719 L444.101174,91.5087719 L450.192467,91.5087719 C450.936553,91.5087719 451.546897,90.8921066 451.546897,90.128735 L451.546897,65.8923016 L481.205781,65.8923016 C481.959595,65.8923016 482.56751,65.2731498 482.56751,64.5097779 L482.56751,57.2067714 C482.56751,56.4433998 481.959595,55.824248 481.205781,55.824248 L451.546897,55.8267345 L451.546897,38.6645448 L485.169379,38.669518 C485.918328,38.669518 486.52381,38.045393 486.52381,37.2869944 L486.52381,29.9839878 C486.52381,29.2181295 485.918328,28.5989777 485.169379,28.5989777 L442.099921,28.5964912 Z" id="Fill-31" fill="#808285" fill-rule="nonzero" mask="url(#mask-20)"></path>
                    </g>
                    <g id="Fill-32-Clipped">
                        <mask id="mask-22" fill="white">
                            <use xlink:href="#path-21"></use>
                        </mask>
                        <g id="path-1"></g>
                        <path d="M322.623697,76.4162416 L292.329823,76.4162416 L286.397303,90.0377747 C286.042367,90.8448486 285.013049,91.5087719 284.110495,91.5087719 L275.868351,91.5087719 C274.965797,91.5087719 274.504379,90.8152312 274.866921,90.0081573 L301.895376,29.8182088 C302.199608,29.146881 303.061597,28.5964912 303.814569,28.5964912 L311.521773,28.5964912 C312.274746,28.5964912 313.139273,29.146881 313.44097,29.8182088 L340.441536,90.042711 C340.801543,90.8497849 340.357871,91.5087719 339.455318,91.5087719 L330.840489,91.5087719 C329.940469,91.5087719 328.911153,90.8448486 328.563821,90.0328384 L322.623697,76.4162416 Z M318.374593,66.6918641 L308.012966,42.9288416 C307.716342,42.2575141 307.227036,42.2575141 306.930411,42.9288416 L296.573856,66.6869278 L318.374593,66.6918641 Z" id="Fill-32" fill="#808285" fill-rule="nonzero" mask="url(#mask-22)"></path>
                    </g>
                    <g id="Fill-33-Clipped">
                        <mask id="mask-24" fill="white">
                            <use xlink:href="#path-23"></use>
                        </mask>
                        <g id="path-1"></g>
                        <path d="M594.213019,115.529728 C594.953416,115.529728 595.364749,115.161936 595.364749,114.633083 C595.364749,114.060961 594.953416,113.73163 594.213019,113.73163 L592.85562,113.73163 L592.85562,115.529728 L594.213019,115.529728 Z M590.716693,111.935936 L594.336418,111.935936 C596.187412,111.935936 597.501256,112.709983 597.501256,114.467216 C597.501256,115.649922 596.886676,116.469643 595.940613,116.835032 L597.748055,119.448044 L595.282481,119.448044 L593.760551,117.202825 L592.85562,117.202825 L592.85562,119.448044 L590.716693,119.448044 L590.716693,111.935936 Z M600.174916,115.815789 L600.174916,115.774924 C600.174916,112.303729 597.460121,109.445522 593.845238,109.445522 C590.264228,109.445522 587.508303,112.344595 587.508303,115.815789 L587.508303,115.856655 C587.508303,119.32785 590.225515,122.190865 593.845238,122.190865 C597.41899,122.190865 600.174916,119.286984 600.174916,115.815789 L600.174916,115.815789 Z M586.690476,115.856655 L586.690476,115.815789 C586.690476,111.935936 589.852895,108.666667 593.845238,108.666667 C597.871454,108.666667 601,111.890262 601,115.774924 L601,115.815789 C601,119.693239 597.830323,122.964912 593.845238,122.964912 C589.814182,122.964912 586.690476,119.734105 586.690476,115.856655 L586.690476,115.856655 Z" id="Fill-33" fill="#808285" fill-rule="nonzero" mask="url(#mask-24)"></path>
                    </g>
                    <g id="Fill-34-Clipped">
                        <mask id="mask-26" fill="white">
                            <use xlink:href="#path-25"></use>
                        </mask>
                        <g id="path-1"></g>
                        <path d="M80.1549828,37.4822123 C80.459316,37.4822123 80.7540642,37.7484354 80.8618987,38.2557663 C81.0056783,39.4186089 81.9258671,44.9414838 82.5896492,48.6409813 C83.2270716,52.2601092 89.1699576,52.7297671 89.9918972,48.178858 C90.1117134,47.4680925 90.2435113,46.5915651 90.4184432,45.5618341 L94.0536681,14.8632895 C94.6455604,10.1717341 94.8228886,5.90965193 92.6542145,3.81000509 C89.421572,0.710765615 83.7782263,0.0125576964 80.1501902,0 C76.4910017,0.0125576964 70.8692231,0.710765615 67.6102211,3.80498201 C65.4463397,5.9021173 65.6236677,10.1717341 66.2059745,14.8632895 L69.8699556,45.5618341 C70.0353021,46.5915651 70.1694963,47.4680925 70.2725383,48.1713234 C71.0777034,52.7247441 77.0301749,52.2601092 77.6699937,48.6409813 C78.319398,44.9465068 79.234794,39.4186089 79.4121222,38.2607893 C79.476823,37.8137354 79.6829067,37.4822123 80.1549828,37.4822123" id="Fill-34" fill="#808285" fill-rule="nonzero" mask="url(#mask-26)"></path>
                    </g>
                    <g id="Fill-35-Clipped">
                        <mask id="mask-28" fill="white">
                            <use xlink:href="#path-27"></use>
                        </mask>
                        <g id="path-1"></g>
                        <path d="M125.649005,81.6024069 C125.649005,81.9624476 125.34671,82.3093479 124.858,82.382933 C123.671491,82.5747794 118.157123,83.6023405 114.461564,84.3066535 C110.851655,85.042503 110.403251,91.6152152 114.975466,92.4666983 C115.670745,92.5849597 116.559996,92.7347578 117.582762,92.8950678 L148.290915,96.8450024 C152.989087,97.4363101 157.269083,97.6386686 159.362477,95.2103655 C162.453446,91.6704042 163.128571,85.4761285 163.128571,81.4815172 C163.118495,77.4579978 162.362757,71.2558381 159.259193,67.7369011 C157.155722,65.3322502 152.890841,65.5714012 148.212823,66.183733 L117.504669,70.3412825 C116.486942,70.5042205 115.580056,70.6513903 114.884777,70.7880481 C110.355387,71.6842078 110.834021,78.2201274 114.461564,78.9323248 C118.149565,79.6208694 123.679048,80.6168943 124.858,80.8192528 C125.303885,80.913862 125.649005,81.1030804 125.649005,81.6024069" id="Fill-35" fill="#808285" fill-rule="nonzero" mask="url(#mask-28)"></path>
                    </g>
                    <g id="Fill-36-Clipped">
                        <mask id="mask-30" fill="white">
                            <use xlink:href="#path-29"></use>
                        </mask>
                        <g id="path-1"></g>
                        <path d="M37.4948892,81.6143259 C37.5074816,81.9691123 37.7568093,82.3265267 38.2630207,82.40274 C39.4416616,82.5867036 44.9671712,83.6090141 48.6491653,84.3290989 C52.2782718,85.0596964 52.7240398,91.6324432 48.1429542,92.4786745 C47.4528951,92.5969368 46.5865436,92.7441075 45.5489363,92.8991622 L14.8413072,96.8491178 C10.1443722,97.4378003 5.8579468,97.6322759 3.78525111,95.2092159 C0.695096011,91.6639797 0.012592319,85.4696717 0,81.4881796 C0.012592319,77.4567547 0.750502213,71.2624464 3.86332347,67.7303505 C5.97379616,65.325687 10.2551846,65.5727235 14.9395273,66.1903145 L45.6270088,70.3610261 C46.6595789,70.5187089 47.5360043,70.6632516 48.2336187,70.7946539 C52.7844829,71.7039585 52.2883457,78.2399128 48.6617577,78.9521135 C44.9747266,79.6354061 39.4416616,80.6288079 38.2705759,80.8337958 C37.8046601,80.9257773 37.4948892,81.1228809 37.4948892,81.6143259" id="Fill-36" fill="#808285" fill-rule="nonzero" mask="url(#mask-30)"></path>
                    </g>
                    <g id="Fill-37-Clipped">
                        <mask id="mask-32" fill="white">
                            <use xlink:href="#path-31"></use>
                        </mask>
                        <g id="path-1"></g>
                        <path d="M50.2178526,50.1598359 C50.4590319,49.9118402 50.8685344,49.8767701 51.2730123,50.1898962 C52.2452668,50.8762683 56.8050647,54.117749 59.9027129,56.2019156 C62.9375534,58.2885872 67.6958221,54.187889 65.052898,50.3827818 C64.6509323,49.804125 64.130889,49.0952077 63.5229159,48.2660498 L44.5727472,23.8697757 C41.6911556,20.1899188 38.8145891,17.0010434 35.7144287,17.1638689 C31.1119218,17.3918247 26.474243,21.0491365 23.7433887,23.7420203 C21.0401696,26.4900142 17.3873066,31.1342991 17.1762747,35.6909089 C17.0305621,38.812149 20.1910172,41.6753736 23.9292979,44.5686579 L48.3361508,63.4964993 C49.157668,64.0876811 49.8560835,64.6162378 50.4590319,65.0070192 C54.2576075,67.6347728 58.3727309,62.8902874 56.2674359,59.8592275 C54.1445545,56.7630374 50.9112432,52.1913975 50.2178526,51.2470095 C49.9465257,50.8762683 49.8862308,50.472962 50.2178526,50.1598359" id="Fill-37" fill="#808285" fill-rule="nonzero" mask="url(#mask-32)"></path>
                    </g>
                    <g id="Fill-38-Clipped">
                        <mask id="mask-34" fill="white">
                            <use xlink:href="#path-33"></use>
                        </mask>
                        <g id="path-1"></g>
                        <path d="M111.817644,50.190972 C110.875927,50.8621937 106.292908,54.1030918 103.219145,56.2019116 C100.175518,58.2756856 95.449357,54.1757241 98.0660729,50.3763093 C98.4502934,49.7977565 98.9876996,49.0964802 99.5954205,48.2524442 L118.555311,23.8730753 C121.455797,20.1813566 124.313593,17.0080815 127.422512,17.1633641 C131.992976,17.3987926 136.628732,21.0529429 139.348409,23.7428383 C142.03544,26.5003568 145.726968,31.1438075 145.95298,35.7046078 C146.088587,38.8202782 142.891774,41.682988 139.185178,44.5732482 L114.775889,63.487671 C113.944667,64.083756 113.233985,64.6072085 112.641332,65.0104424 C108.844331,67.6327147 104.751004,62.8815681 106.825291,59.8510526 C108.977427,56.755419 112.196842,52.1921139 112.872366,51.2478955 C113.153626,50.8621937 113.233985,50.4714824 112.877389,50.1534037 C112.641332,49.9054523 112.239533,49.8703885 111.817644,50.190972 Z" id="Fill-38" fill="#049CD8" fill-rule="nonzero" mask="url(#mask-34)"></path>
                    </g>
                    <g id="Fill-39-Clipped">
                        <mask id="mask-36" fill="white">
                            <use xlink:href="#path-35"></use>
                        </mask>
                        <g id="path-1"></g>
                        <path d="M80.1617732,125.524646 C80.4709293,125.519624 80.7657061,125.260982 80.8687584,124.753744 C81.0173451,123.553448 81.9400203,118.044139 82.6014709,114.350341 C83.2461453,110.736897 89.1824232,110.274858 90.0044432,114.824935 C90.1266677,115.533059 90.2584785,116.391849 90.4238411,117.421391 L94.059422,148.124363 C94.6369927,152.812549 94.831114,157.086407 92.6574347,159.195714 C89.4172863,162.284342 83.7805782,162.987445 80.1497904,163 C76.4854508,162.987445 70.865519,162.284342 67.6085944,159.195714 C65.4516909,157.086407 65.6242432,152.799994 66.1994174,148.111808 L69.885326,117.416369 C70.048292,116.386826 70.1753097,115.533059 70.2831548,114.819913 C71.0955886,110.282392 77.0486425,110.736897 77.6885237,114.342807 C78.3308018,118.044139 79.2462874,123.566003 79.423633,124.753744 C79.4883401,125.198205 79.6944442,125.532179 80.1617732,125.524646" id="Fill-39" fill="#808285" fill-rule="nonzero" mask="url(#mask-36)"></path>
                    </g>
                    <g id="Fill-40-Clipped">
                        <mask id="mask-38" fill="white">
                            <use xlink:href="#path-37"></use>
                        </mask>
                        <g id="path-1"></g>
                        <path d="M50.2149011,112.846406 C50.4686193,113.086907 50.8730611,113.12198 51.2875513,112.803817 C52.2471589,112.107366 56.8065506,108.878139 59.9039226,106.771251 C62.9384929,104.704446 67.6913137,108.800478 65.0561611,112.598389 C64.6466949,113.18962 64.1342345,113.898597 63.5162672,114.752877 L44.5753229,139.113622 C41.6864518,142.801303 38.8101414,145.97792 35.7002091,145.837628 C31.1106726,145.614664 26.4683827,141.926982 23.7352597,139.253914 C21.0347935,136.51571 17.3797438,131.86853 17.1762669,127.278969 C17.0305673,124.172498 20.1957649,121.296507 23.9362246,118.433043 L48.3383911,99.5211485 C49.1648594,98.90737 49.8581884,98.3887895 50.461083,97.9904598 C54.2618322,95.3700014 58.3791012,100.102359 56.2689696,103.158726 C54.1513017,106.207577 50.9207905,110.777095 50.2199252,111.751625 C49.9511345,112.137429 49.8833088,112.540769 50.2149011,112.846406" id="Fill-40" fill="#808285" fill-rule="nonzero" mask="url(#mask-38)"></path>
                    </g>
                    <g id="Fill-41-Clipped">
                        <mask id="mask-40" fill="white">
                            <use xlink:href="#path-39"></use>
                        </mask>
                        <g id="path-1"></g>
                        <path d="M112.872539,112.848296 C112.643998,113.083771 112.239658,113.123852 111.817737,112.798195 C110.878462,112.109306 106.287564,108.880296 103.221106,106.761023 C100.174739,104.699367 95.4507353,108.790114 98.0651359,112.600296 C98.4518963,113.191488 98.9818086,113.907933 99.6021322,114.749629 L118.545864,139.11375 C121.451591,142.8087 124.3096,145.982598 127.418753,145.837306 C131.984536,145.621871 136.62064,141.941952 139.345543,139.266558 C142.027753,136.523528 145.729603,131.889185 145.953121,127.294922 C146.086227,124.176134 142.896708,121.315367 139.189834,118.447084 L114.783738,99.5239326 C113.952454,98.9101953 113.239208,98.39165 112.649021,97.9958519 C108.851736,95.365549 104.758102,100.092579 106.825011,103.156256 C108.984842,106.204902 112.191941,110.779124 112.877562,111.748579 C113.156331,112.134357 113.234185,112.54268 112.872539,112.848296" id="Fill-41" fill="#808285" fill-rule="nonzero" mask="url(#mask-40)"></path>
                    </g>
                </g>
            </g>
        </g>
    </g>
</svg>