<?xml version="1.0" encoding="UTF-8"?>
<svg width="551px" height="270px" viewBox="0 0 551 270" version="1.1" xmlns="http://www.w3.org/2000/svg" xmlns:xlink="http://www.w3.org/1999/xlink">
    <!-- Generator: Sketch 55.2 (78181) - https://sketchapp.com -->
    <title>Heartland_Dental_logo</title>
    <desc>Created with Sketch.</desc>
    <defs>
        <polygon id="path-1" points="0.984685714 0.924659967 62.9013333 0.924659967 62.9013333 60.1726875 0.984685714 60.1726875"></polygon>
        <polygon id="path-3" points="0.92145 0.1132 8.18745 0.1132 8.18745 10 0.92145 10"></polygon>
        <polygon id="path-5" points="0.89505 0.1132 8.16105 0.1132 8.16105 10 0.89505 10"></polygon>
        <polygon id="path-7" points="0 269 551 269 551 0 0 0"></polygon>
    </defs>
    <g id="Page-1" stroke="none" stroke-width="1" fill="none" fill-rule="evenodd">
        <g id="Landing_Page_2" transform="translate(-298.000000, -1566.000000)">
            <g id="Group-2" transform="translate(111.000000, 1566.000000)">
                <g id="Heartland_Dental_logo" transform="translate(187.000000, 0.000000)">
                    <path d="M255.545377,112 C266.901839,112.115104 278.258301,112.228673 289.614764,112.343776 C290.059431,112.352985 290.505615,112.363728 290.950282,112.372936 C303.250713,113.626799 315.59212,114.555303 327.839434,116.208192 C345.688338,118.617697 363.28228,122.477508 380.546895,127.675593 C390.584532,130.698984 400.482547,134.205811 410.438232,137.510055 C411.330602,137.806255 412.188065,138.217559 413,138.819168 C357.298246,123.452053 300.62824,117.162786 242.952043,119.741109 C276.092636,121.651831 308.139015,128.55652 338.995569,141 C272.538335,122.221211 205.593942,119.566152 138,134.320914 C138.984945,133.935701 139.968372,133.541279 140.956353,133.166808 C141.979239,132.780059 143.000607,132.393311 144.031081,132.035722 C164.201967,125.049693 184.858496,120.117115 205.911127,116.769898 C221.621684,114.272915 237.429369,112.879392 253.296242,112.038368 C254.045954,112.02609 254.795666,112.013812 255.545377,112" id="Fill-1" fill="#C8AB69"></path>
                    <path d="M290.799212,112 C290.353363,111.990906 289.905992,111.980297 289.460143,111.969688 C293.306924,106.548408 296.928498,100.949803 301.052222,95.7437369 C308.579922,86.2424771 316.574774,77.1064754 324.046172,67.5612633 C329.209197,60.9623663 333.264446,53.6647803 335.340004,45.419948 C338.867234,31.4052487 332.384921,16.3220555 320.068528,10.4809556 C309.754651,5.58710202 300.244216,7.75288609 291.415489,14.3093465 C290.105331,15.2838735 288.93821,16.4523966 287.717831,17.5405932 C287.459147,17.7724792 287.24307,18.0513485 286.909825,18.4150911 C294.772292,20.4717524 301.411336,24.2425507 306.621533,30.3079586 C306.98369,30.7277781 307.085642,31.3703901 307.307806,31.908426 L307.303241,31.8750829 C303.448852,29.0727493 298.987317,27.7269017 294.414699,26.7842021 C280.08818,23.8318247 266.029474,24.6305428 252.401401,30.1973202 C249.974338,31.1900344 247.69792,32.5495223 245,33.9150727 C247.720745,30.1079001 250.735173,27.113086 254.247186,24.6108401 C260.107136,20.4353781 266.64575,18.0892383 273.818901,17.4299549 C274.378875,17.3769091 275.069713,16.9874014 275.407524,16.5372699 C284.730794,4.05483631 297.518905,-0.84962643 312.683865,0.118838246 C327.558185,1.06911579 337.281654,9.17299783 342.81901,22.758784 C348.508533,36.7174063 346.250375,49.7348446 338.556813,62.2112159 C332.803381,71.5381824 325.281768,79.3631951 317.361477,86.8335588 C309.145983,94.5812762 300.855927,102.253214 292.611521,109.973651 C291.95416,110.590497 291.401793,111.322529 290.799212,112" id="Fill-3" fill="#122343"></path>
                    <path d="M254.819346,111.962092 C254.067668,111.975739 253.315989,111.987869 252.564311,112 C248.171404,104.271326 242.588594,97.400889 237.022521,90.5122558 C229.586382,81.3112374 222.049816,72.1860348 214.864743,62.792444 C210.770074,57.439841 207.258183,51.4852597 206.450205,44.6982198 C204.940762,32.0233165 206.891474,20.1459966 217.471272,11.4392979 C224.25616,5.85469822 232.477453,4.58553994 241.009156,5.10715338 C247.609928,5.510494 253.913984,7.23909667 259.948715,9.93511031 C260.278906,10.0837095 260.595402,10.262635 260.910376,10.4430769 C260.995587,10.4915991 261.047322,10.5977413 260.937766,10.467338 C257.734763,10.467338 254.355253,10.3930384 250.983351,10.4840175 C244.766027,10.6523288 238.652172,11.3816778 232.777211,13.6455408 C221.492904,17.9928249 217.477359,28.2931739 218.435977,37.8111028 C219.234826,45.7444793 222.758889,52.6315962 226.890078,59.2184822 C231.845982,67.120016 237.154902,74.8031999 242.15189,82.6804726 C247.58406,91.2416048 252.27216,100.169686 254.481547,110.181935 C254.610885,110.770266 254.708268,111.367695 254.819346,111.962092" id="Fill-5" fill="#122343"></path>
                    <path d="M149,236 L149,240 C113.601727,239.362069 78.3016185,238.727586 43,238.089655 C43.0015102,238.015517 43.0030205,237.941379 43.0045307,237.867241 C78.2895367,237.244828 113.573032,236.624138 149,236" id="Fill-7" fill="#122343"></path>
                    <path d="M403,240 L403,236 C438.334848,236.62069 473.665152,237.237931 508.993941,237.858621 C508.995456,237.937931 508.998485,238.017241 509,238.096552 C473.73331,238.731034 438.465106,239.363793 403,240" id="Fill-9" fill="#122343"></path>
                    <path d="M306.763204,32.215 C306.877204,32.071 306.987204,31.927 307.101204,31.785 C307.147204,31.839 307.195204,31.891 307.241204,31.947 C307.081204,32.015 306.921204,32.083 306.759204,32.161 C306.757204,32.171 306.763204,32.215 306.763204,32.215" id="Fill-11" fill="#122343"></path>
                    <path d="M54.1494499,169.931641 C54.4208682,169.931641 54.6892707,169.839993 54.6892707,169.38481 L54.6892707,167.467846 C54.6892707,153.228854 54.6892707,150.674939 54.5098331,147.752905 C54.3303954,144.649105 53.6096292,143.188852 50.6360914,142.550373 C49.9153251,142.368605 48.3833199,142.276957 47.5720809,142.276957 C47.2116977,142.276957 46.8513146,142.093662 46.8513146,141.728599 C46.8513146,141.181768 47.3021705,141 48.2928471,141 C52.3490422,141 58.0231916,141.271888 58.4740475,141.271888 C58.9249034,141.271888 64.6020686,141 67.3041881,141 C68.2963726,141 68.7472285,141.181768 68.7472285,141.728599 C68.7472285,142.093662 68.3853375,142.276957 68.0249543,142.276957 C67.3946608,142.276957 66.8533322,142.368605 65.7721828,142.550373 C63.3399737,143.007084 62.6192074,144.558984 62.4382619,147.752905 C62.2588243,150.674939 62.2588243,153.228854 62.2588243,167.467846 L62.2588243,183.530627 C62.2588243,192.293671 62.2588243,199.503287 62.7096802,203.337215 C62.9795905,205.984305 63.5209192,207.991389 66.2230387,208.356452 C67.4851336,208.539747 69.4664869,208.723043 70.2777259,208.723043 C70.8190545,208.723043 71,208.996458 71,209.269874 C71,209.726584 70.5491441,210 69.5569596,210 C64.6020686,210 58.9249034,209.726584 58.4740475,209.726584 C58.0231916,209.726584 52.3490422,210 49.6454148,210 C48.6532303,210 48.2038823,209.816705 48.2038823,209.269874 C48.2038823,208.996458 48.3833199,208.723043 48.9231406,208.723043 C49.7343796,208.723043 50.8170369,208.539747 51.626768,208.356452 C53.4286837,207.991389 53.8795396,205.984305 54.2399227,203.337215 C54.6892707,199.503287 54.6892707,192.293671 54.6892707,183.530627 L54.6892707,173.948863 C54.6892707,173.5838 54.4208682,173.400505 54.1494499,173.400505 L15.9473304,173.400505 C15.6759122,173.400505 15.4060018,173.492152 15.4060018,173.948863 L15.4060018,183.530627 C15.4060018,192.293671 15.4060018,199.503287 15.8553498,203.337215 C16.126768,205.984305 16.6680967,207.991389 19.3717241,208.356452 C20.6323111,208.539747 22.6151722,208.723043 23.4249034,208.723043 C23.966232,208.723043 24.1471775,208.996458 24.1471775,209.269874 C24.1471775,209.726584 23.6963216,210 22.7041371,210 C17.7492461,210 12.0720809,209.726584 11.6227329,209.726584 C11.171877,209.726584 5.4947118,210 2.7910844,210 C1.80191564,210 1.35105976,209.816705 1.35105976,209.269874 C1.35105976,208.996458 1.53049739,208.723043 2.07182602,208.723043 C2.88306503,208.723043 3.96421442,208.539747 4.77394555,208.356452 C6.57586119,207.991389 7.02671707,205.984305 7.3871002,203.337215 C7.83795608,199.503287 7.83795608,192.293671 7.83795608,183.530627 L7.83795608,167.467846 C7.83795608,153.228854 7.83795608,150.674939 7.65701058,147.752905 C7.47757295,144.649105 6.75529881,143.188852 3.78477679,142.550373 C3.06250265,142.368605 1.53049739,142.276957 0.719258378,142.276957 C0.35887525,142.276957 0,142.093662 0,141.728599 C0,141.181768 0.450855881,141 1.44002464,141 C5.4947118,141 11.171877,141.271888 11.6227329,141.271888 C12.0720809,141.271888 17.7492461,141 20.4513656,141 C21.4435501,141 21.8928981,141.181768 21.8928981,141.728599 C21.8928981,142.093662 21.5340229,142.276957 21.1721318,142.276957 C20.5418383,142.276957 20.0020176,142.368605 18.9208682,142.550373 C16.4871512,143.007084 15.7678928,144.558984 15.5869473,147.752905 C15.4060018,150.674939 15.4060018,153.228854 15.4060018,167.467846 L15.4060018,169.38481 C15.4060018,169.839993 15.6759122,169.931641 15.9473304,169.931641 L54.1494499,169.931641 Z" id="Fill-13" fill="#000000"></path>
                    <path d="M91.9997887,173.838612 C91.9997887,161.967326 91.9997887,159.790848 91.8187466,157.344396 C91.6377044,154.806941 91.0017749,153.537455 88.3637324,152.994473 C87.8190846,152.90347 86.9093099,152.813985 86.1820986,152.813985 C85.5461691,152.813985 85,152.540977 85,152.267969 C85,151.724987 85.4548874,151.544499 86.3646621,151.544499 C88.1811689,151.544499 90.6366479,151.724987 95.7271267,151.81599 C96.1820141,151.81599 112.363225,151.81599 114.181253,151.724987 C115.999282,151.633985 117.000338,151.544499 117.726028,151.271491 C118.273718,151.091003 118.363479,151 118.727084,151 C118.908127,151 119.09069,151.182005 119.09069,151.633985 C119.09069,152.178483 118.546042,153.447969 118.363479,155.713933 C118.273718,157.253393 118.180915,158.703368 118.091155,160.424833 C118.091155,161.240823 117.908591,161.785321 117.453704,161.785321 C117.000338,161.785321 116.817775,161.421311 116.817775,160.788843 C116.728014,159.428355 116.454169,158.521362 116.181845,157.887378 C115.637197,156.07491 114.817183,155.440925 110.272873,155.167918 C109.090775,155.078432 100.090394,154.987429 99.9093522,154.987429 C99.6370283,154.987429 99.4544648,155.167918 99.4544648,155.713933 L99.4544648,176.285064 C99.4544648,176.829563 99.5457465,177.192057 100.000634,177.192057 C101.092972,177.192057 110.362634,177.101054 112.273465,176.920566 C114.362296,176.829563 115.726958,176.558072 116.454169,175.561594 C116.817775,175.017095 117.090098,174.83509 117.453704,174.83509 C117.637789,174.83509 117.818831,174.926093 117.818831,175.379589 C117.818831,175.831568 117.453704,177.55455 117.182902,180.183008 C116.909056,182.720463 116.909056,184.532931 116.817775,185.711414 C116.728014,186.436401 116.545451,186.707892 116.181845,186.707892 C115.726958,186.707892 115.637197,186.16491 115.637197,185.529409 C115.637197,184.986427 115.545916,184.079434 115.363352,183.354447 C114.999746,182.175964 114.455099,180.907995 111.000085,180.634987 C108.909732,180.454499 101.544817,180.272494 100.090394,180.272494 C99.5457465,180.272494 99.4544648,180.545501 99.4544648,180.907995 L99.4544648,187.522365 C99.4544648,190.332828 99.3647044,198.309203 99.4544648,199.848663 C99.6370283,203.202108 100.090394,204.923573 101.999704,205.739563 C103.364366,206.373548 105.546,206.555553 108.637409,206.555553 C110.362634,206.555553 113.271479,206.646555 115.545916,206.012571 C118.273718,205.196581 118.908127,203.382596 119.636859,200.030668 C119.817901,199.123676 120.091747,198.762699 120.453831,198.762699 C121,198.762699 121,199.577172 121,200.121671 C121,200.755656 120.272789,206.466067 119.998943,208.005527 C119.636859,209.819512 118.999408,210 115.999282,210 C110.000549,210 107.453789,209.819512 104.27262,209.819512 C101.092972,209.726992 96.9092254,209.546504 93.5470143,209.546504 C91.4566623,209.546504 89.7283945,209.819512 87.5452394,209.819512 C86.7282678,209.819512 86.2733804,209.637506 86.2733804,209.18401 C86.2733804,208.821517 86.636986,208.550026 87.090352,208.550026 C87.6380425,208.550026 88.273972,208.459023 88.9099015,208.277018 C90.5468875,207.916041 91.6377044,206.736041 91.8187466,201.118149 C91.9100283,198.036195 91.9997887,194.321774 91.9997887,187.432879 L91.9997887,173.838612 Z" id="Fill-15" fill="#000000"></path>
                    <path d="M162.696509,184.86783 C163.057966,184.86783 163.057966,184.597997 162.968736,184.328164 L155.828829,164.422315 C155.37663,163.160582 155.2874,163.160582 154.835201,164.422315 L148.056751,184.328164 C147.875267,184.688444 148.056751,184.86783 148.236723,184.86783 L162.696509,184.86783 Z M147.33535,188.021411 C146.883151,188.021411 146.610924,188.291244 146.430952,188.740463 L142.453414,200.001099 C141.55204,202.523059 140.918357,204.954572 140.918357,206.395692 C140.918357,208.016199 141.911985,208.738266 143.899241,208.738266 L144.531413,208.738266 C145.345069,208.738266 145.617296,209.009607 145.617296,209.368379 C145.617296,209.819106 144.894382,210 144.262211,210 C142.273442,210 138.115932,209.728659 137.122304,209.728659 C136.217905,209.728659 132.24188,210 128.44734,210 C127.452199,210 127,209.819106 127,209.368379 C127,209.009607 127.362969,208.738266 128.084371,208.738266 C128.53657,208.738266 129.350226,208.738266 129.893167,208.647819 C133.77845,208.287539 135.316532,205.314852 136.851589,201.532666 L154.924431,154.061627 C155.919572,151.450727 156.190286,151 156.822457,151 C157.274657,151 157.634601,151.36028 158.631254,153.88224 C159.894084,156.854927 172.185129,188.291244 176.97481,199.550372 C179.957207,206.667033 182.578147,207.836812 183.84249,208.287539 C185.017603,208.738266 186.283458,208.738266 186.917142,208.738266 C187.549313,208.738266 188,208.917652 188,209.368379 C188,209.819106 187.638543,210 186.644915,210 C185.740517,210 178.963579,210 172.909555,209.819106 C171.191501,209.728659 170.650072,209.63972 170.650072,209.188993 C170.650072,208.917652 170.919274,208.647819 171.282243,208.55888 C171.6437,208.377986 172.185129,207.927259 171.6437,206.575079 L164.503793,188.472138 C164.322309,188.200797 164.142336,188.021411 163.782392,188.021411 L147.33535,188.021411 Z" id="Fill-17" fill="#000000"></path>
                    <path d="M205.958026,180.593165 C205.958026,181.044533 206.049036,181.495901 206.411563,181.677052 C207.588636,182.308061 211.215417,182.848494 214.478155,182.848494 C216.381798,182.848494 218.647967,182.759428 220.550093,181.495901 C223.2698,179.782515 225.082432,175.81229 225.082432,170.039614 C225.082432,160.207647 219.826557,154.795763 211.758448,154.795763 C209.493796,154.795763 207.588636,154.975404 206.501057,155.24713 C206.231058,155.337706 205.958026,155.606413 205.958026,156.057781 L205.958026,180.593165 Z M198.979013,174.18948 C198.979013,162.281825 198.979013,160.118581 198.798508,157.682101 C198.616486,155.24713 197.980928,153.893027 195.173244,153.352594 C194.628696,153.263528 193.723138,153.171443 192.998085,153.171443 C192.362526,153.171443 192,152.991801 192,152.631009 C192,152.270217 192.273032,152 193.087579,152 C196.985876,152 202.513266,152.270217 202.695288,152.270217 C203.511351,152.270217 209.674301,152 212.211986,152 C217.288872,152 222.816263,152.449858 227.077086,155.426772 C228.798707,156.6903 232.514982,160.298222 232.514982,166.431691 C232.514982,171.392207 230.068308,177.706827 222.907273,183.479503 C229.52376,191.598084 234.961656,198.273496 239.585006,203.054371 C243.935323,207.474454 246.653512,208.196039 249.192714,208.556831 C249.826756,208.647406 251.730399,208.737982 252.000398,208.737982 C252.726968,208.737982 253,209.008199 253,209.368991 C253,209.818849 252.635957,210 251.367873,210 L245.022902,210 C240.762079,210 238.768942,209.729783 236.774288,208.917623 C232.968519,207.293303 230.250329,203.235522 225.535969,197.191119 C222.001716,192.861612 218.376452,187.990162 216.835335,186.097134 C216.472809,185.734833 216.290787,185.555191 215.747756,185.555191 L206.411563,185.466125 C206.049036,185.466125 205.958026,185.555191 205.958026,185.915983 L205.958026,187.178002 C205.958026,194.395357 205.958026,200.980193 206.411563,204.227324 C206.683078,206.392077 206.954594,208.196039 209.947333,208.556831 C210.854408,208.647406 211.849459,208.737982 212.574512,208.737982 C213.389059,208.737982 213.754619,209.008199 213.754619,209.278415 C213.754619,209.729783 213.389059,210 212.483501,210 C207.770658,210 202.695288,209.729783 202.332761,209.729783 C200.881139,209.729783 196.893348,210 194.446674,210 C193.5396,210 193.17859,209.818849 193.17859,209.278415 C193.17859,209.008199 193.723138,208.737982 194.266169,208.737982 C194.900211,208.737982 195.534253,208.737982 196.259306,208.556831 C197.800423,208.286614 198.344971,207.293303 198.616486,205.128549 C199.070024,201.882929 198.979013,194.484423 198.979013,187.719945 L198.979013,174.18948 Z" id="Fill-19" fill="#000000"></path>
                    <path d="M273.857354,187.78356 C273.857354,194.710393 273.948466,201.095362 274.311398,204.423312 C274.583217,206.580234 274.765442,207.840068 277.032623,208.380428 C278.122936,208.649855 279.84648,208.740165 280.572342,208.740165 C281.296686,208.740165 281.661136,209.011098 281.661136,209.279019 C281.661136,209.729068 281.389317,210 280.48123,210 C275.852717,210 270.49986,209.729068 270.136929,209.729068 C269.775516,209.729068 264.42114,210 262.061328,210 C261.063646,210 260.700715,209.819379 260.700715,209.36933 C260.700715,209.099903 260.972534,208.740165 261.698396,208.740165 C262.425778,208.740165 262.967897,208.740165 263.695278,208.649855 C265.417303,208.380428 265.690641,207.301214 266.053572,204.244196 C266.418022,201.005051 266.418022,194.528267 266.418022,187.78356 L266.418022,155.675085 C263.42194,155.675085 258.61424,155.675085 254.983408,155.765396 C249.176508,155.855707 247.907007,156.755804 246.635988,158.643298 C245.819013,159.903133 245.457601,160.980841 245.275376,161.430889 C245.003557,162.061559 244.821332,162.15187 244.458401,162.15187 C244.095469,162.15187 244.004357,161.790627 244.004357,161.342084 C243.913245,160.801725 245.275376,154.866804 245.819013,152.438951 C246.092351,151.358233 246.365688,151 246.635988,151 C247.270739,151 248.995801,151.808281 250.628233,151.988902 C253.803502,152.347135 256.345539,152.438951 256.435133,152.438951 L286.197018,152.438951 C288.739056,152.438951 291.4618,152.256824 292.7313,151.988902 C293.911206,151.71797 294.183025,151.62766 294.453325,151.62766 C294.819294,151.62766 295,152.077708 295,152.438951 C295,154.95561 294.819294,160.892035 294.819294,161.611511 C294.819294,162.419792 294.453325,162.690724 294.183025,162.690724 C293.728981,162.690724 293.548275,162.330986 293.548275,161.611511 C293.548275,161.342084 293.548275,161.251773 293.457162,160.351676 C293.094231,156.755804 291.915843,155.855707 282.74993,155.765396 C279.301323,155.765396 276.488986,155.675085 273.857354,155.675085 L273.857354,187.78356 Z" id="Fill-21" fill="#000000"></path>
                    <path d="M318.683166,187.789315 C318.683166,198.129421 319.048671,203.345372 320.610514,204.784048 C322.078677,206.043642 323.913881,206.582393 330.245718,206.582393 C334.283166,206.582393 337.955109,206.582393 339.973066,204.06471 C340.891435,202.716328 341.533373,200.917983 341.716125,199.568096 C341.808269,198.850263 341.992558,198.48909 342.451742,198.48909 C342.817247,198.48909 343,198.758465 343,199.65839 C343,200.55681 342.451742,205.683973 341.898878,207.751693 C341.349084,209.550038 341.439693,210 337.03674,210 C330.795511,210 323.913881,209.550038 314.737862,209.550038 C311.709392,209.550038 309.874188,209.820918 306.661429,209.820918 C305.74306,209.820918 305.194802,209.640331 305.194802,209.100075 C305.194802,208.8307 305.469699,208.561324 306.202245,208.561324 C306.937862,208.561324 307.671943,208.561324 308.406025,208.382242 C309.964796,208.111362 310.516125,206.313017 310.791022,204.155004 C311.342351,200.737397 311.158063,194.532731 311.158063,187.608728 L311.158063,174.120391 C311.158063,162.249812 311.158063,160.272385 310.973774,157.844996 C310.791022,155.327314 310.423981,153.709556 307.303367,153.348382 C306.753574,153.259594 305.74306,153.259594 305.010514,153.259594 C304.367041,153.259594 304,152.988713 304,152.629044 C304,152.179082 304.459185,152 305.377555,152 C309.23225,152 314.737862,152.269375 314.920614,152.269375 C316.206025,152.269375 321.802245,152 324.373066,152 C325.291435,152 325.564796,152.269375 325.564796,152.629044 C325.564796,152.988713 325.107147,153.259594 324.555818,153.259594 C323.913881,153.259594 322.997047,153.348382 322.078677,153.438676 C319.507856,153.798345 318.959598,155.23702 318.77531,157.844996 C318.591022,160.272385 318.683166,162.249812 318.683166,174.120391 L318.683166,187.789315 Z" id="Fill-23" fill="#000000"></path>
                    <path d="M383.696509,184.86783 C384.057966,184.86783 384.057966,184.597997 383.968736,184.328164 L376.828829,164.422315 C376.37663,163.160582 376.2874,163.160582 375.835201,164.422315 L369.056751,184.328164 C368.875267,184.688444 369.056751,184.86783 369.236723,184.86783 L383.696509,184.86783 Z M368.33535,188.021411 C367.883151,188.021411 367.610924,188.291244 367.430952,188.740463 L363.453414,200.001099 C362.55204,202.523059 361.918357,204.954572 361.918357,206.395692 C361.918357,208.016199 362.911985,208.738266 364.899241,208.738266 L365.531413,208.738266 C366.345069,208.738266 366.617296,209.009607 366.617296,209.368379 C366.617296,209.819106 365.894382,210 365.262211,210 C363.273442,210 359.115932,209.728659 358.122304,209.728659 C357.217905,209.728659 353.24188,210 349.44734,210 C348.452199,210 348,209.819106 348,209.368379 C348,209.009607 348.362969,208.738266 349.084371,208.738266 C349.53657,208.738266 350.350226,208.738266 350.893167,208.647819 C354.77845,208.287539 356.316532,205.314852 357.851589,201.532666 L375.924431,154.061627 C376.919572,151.450727 377.190286,151 377.822457,151 C378.274657,151 378.634601,151.36028 379.631254,153.88224 C380.894084,156.854927 393.185129,188.291244 397.97481,199.550372 C400.957207,206.667033 403.578147,207.836812 404.84249,208.287539 C406.017603,208.738266 407.283458,208.738266 407.917142,208.738266 C408.549313,208.738266 409,208.917652 409,209.368379 C409,209.819106 408.638543,210 407.644915,210 C406.740517,210 399.963579,210 393.909555,209.819106 C392.191501,209.728659 391.650072,209.63972 391.650072,209.188993 C391.650072,208.917652 391.919274,208.647819 392.282243,208.55888 C392.6437,208.377986 393.185129,207.927259 392.6437,206.575079 L385.503793,188.472138 C385.322309,188.200797 385.142336,188.021411 384.782392,188.021411 L368.33535,188.021411 Z" id="Fill-25" fill="#000000"></path>
                    <path d="M417.537374,154.720283 C417.537374,151.906904 417.810841,151 418.535527,151 C419.172097,151 420.715665,152.813809 421.350715,153.450313 C422.166558,154.358736 434.787047,167.246804 447.495653,180.227536 C454.575402,187.125782 463.652978,196.475859 466.013907,198.654252 L465.015754,160.892397 C464.924598,155.991772 464.380703,154.358736 461.928618,153.722232 C460.38505,153.450313 459.023794,153.359167 458.388743,153.359167 C457.480226,153.359167 457.299434,152.996101 457.299434,152.633035 C457.299434,152.178824 458.02564,152.089197 458.934158,152.089197 C462.835616,152.089197 466.648958,152.361116 467.466319,152.361116 C468.374836,152.361116 471.188505,152.089197 474.729899,152.089197 C475.728053,152.089197 476,152.178824 476,152.633035 C476,152.996101 475.728053,153.26802 475.182638,153.359167 C474.638743,153.450313 473.912537,153.450313 472.912865,153.631086 C470.825402,154.085298 470.190352,154.993721 470.190352,160.439704 L470.00804,206.006709 C470.00804,210.545788 469.827249,211 469.192198,211 C468.557148,211 467.64863,210.363496 463.201758,206.189002 C462.835616,206.006709 450.219685,193.480188 442.319535,185.766185 C432.878857,175.960377 423.801281,166.522192 421.531507,164.161506 L422.711972,199.652303 C422.892764,205.915563 423.438178,208.276249 425.707952,208.820088 C427.160364,209.184672 428.703931,209.184672 429.430137,209.184672 C430.156343,209.184672 430.519447,209.456592 430.519447,209.819657 C430.519447,210.27235 430.065188,210.454642 429.067034,210.454642 C424.162865,210.454642 420.896457,210.182723 420.261406,210.182723 C419.626356,210.182723 416.267273,210.454642 412.362776,210.454642 C411.546933,210.454642 411,210.363496 411,209.819657 C411,209.456592 411.364622,209.184672 412.27162,209.184672 C412.90819,209.184672 413.904824,209.184672 415.086808,208.820088 C417.083115,208.185103 417.537374,205.73479 417.537374,199.108464 C417.537374,155.810998 417.628529,169.789782 417.537374,154.720283" id="Fill-27" fill="#000000"></path>
                    <g id="Group-31" transform="translate(488.000000, 151.000000)">
                        <mask id="mask-2" fill="white">
                            <use xlink:href="#path-1"></use>
                        </mask>
                        <g id="Clip-30"></g>
                        <path d="M15.7351619,31.1031375 C15.7351619,39.3045875 15.8281143,46.4126125 15.8281143,47.7790125 C15.918019,50.6033125 16.0993524,53.0631375 16.7378286,53.8835875 C17.7374476,55.4329875 20.6524952,57.3468625 30.1214476,57.3468625 C37.5881143,57.3468625 44.3264,54.9770125 49.0608762,50.2388375 C53.0669714,46.2296125 54.9793524,39.3945625 54.9793524,32.1050625 C54.9793524,21.8082625 50.2433524,15.5206875 47.1484952,12.5149125 C39.4090667,4.7679125 30.4871619,3.8574875 21.4723048,3.8574875 C20.1968762,3.8574875 17.374781,4.1304625 16.8277333,4.4949375 C16.0993524,4.8594125 15.8281143,5.2238875 15.8281143,6.0443375 C15.7351619,8.6871625 15.7351619,16.4326375 15.7351619,21.8997625 L15.7351619,31.1031375 Z M8.27001905,23.3576625 C8.27001905,11.3284625 8.27001905,9.0516375 8.0856381,6.6817875 C7.90430476,4.2219625 7.17744762,2.9455375 4.5351619,2.3995875 C3.9896381,2.3080875 2.62430476,2.2181125 1.89592381,2.2181125 C1.44030476,2.2181125 0.984685714,1.9436125 0.984685714,1.6691125 C0.984685714,1.1231625 1.53173333,0.9416875 2.35154286,0.9416875 C6.08335238,0.9416875 11.822019,1.2146625 12.0932571,1.2146625 C12.7302095,1.2146625 17.4662095,0.9416875 22.5648762,0.9416875 C30.5770667,0.9416875 45.5104,0.1212375 55.1622095,9.8705625 C59.1683048,13.8813125 62.9016381,20.2603875 62.9016381,29.4637625 C62.9016381,39.1231125 58.7126857,46.6855875 54.2509714,51.2407625 C50.6989714,54.7955375 43.7793524,60.1726875 29.9401143,60.1726875 C26.4795429,60.1726875 22.0178286,59.9881625 18.558781,59.7167125 C15.0982095,59.5352375 12.2761143,59.2607375 12.0033524,59.2607375 C11.822019,59.2607375 10.6364952,59.2607375 8.90849524,59.3507125 C7.17744762,59.3507125 4.99078095,59.5352375 3.62544762,59.5352375 C2.8071619,59.5352375 2.35154286,59.3507125 2.35154286,58.8962625 C2.35154286,58.6232875 2.62430476,58.2588125 3.35268571,58.2588125 C4.08106667,58.2588125 4.71954286,58.1673125 5.4464,57.9843125 C6.99459048,57.7113375 7.5416381,55.7974625 7.8144,53.7936125 C8.35992381,50.4218375 8.27001905,44.2242375 8.27001905,36.8447625 L8.27001905,23.3576625 Z" id="Fill-29" fill="#000000" mask="url(#mask-2)"></path>
                    </g>
                    <path d="M167.487564,236.407013 C167.487564,239.177922 167.514534,241.583257 167.540006,242.08014 C167.566976,242.732207 167.619419,243.778199 167.829188,244.066183 C168.170812,244.563066 169.194186,245.110683 172.29128,245.110683 C174.732095,245.110683 176.988613,244.221366 178.537908,242.679982 C179.902907,241.347498 180.637099,238.837714 180.637099,236.433871 C180.637099,233.113853 179.192688,230.969644 178.11837,229.847552 C175.650584,227.258684 172.658376,226.893109 169.534312,226.893109 C169.011387,226.893109 168.038957,226.972193 167.829188,227.076643 C167.592448,227.179601 167.514534,227.310909 167.514534,227.598893 C167.487564,228.486718 167.487564,231.153177 167.487564,233.166078 L167.487564,236.407013 Z M165.28199,233.583878 C165.28199,229.507344 165.28199,228.774702 165.229547,227.937609 C165.177105,227.049784 165.046749,226.631984 164.180701,226.448451 C163.970932,226.396226 163.522925,226.369367 163.287684,226.369367 C163.104885,226.369367 163,226.317142 163,226.214184 C163,226.056017 163.131855,226.003792 163.419539,226.003792 C164.60024,226.003792 166.25442,226.082876 166.386275,226.082876 C166.700929,226.082876 168.353611,226.003792 169.929877,226.003792 C172.526521,226.003792 177.330237,225.769526 180.452802,228.983602 C181.765358,230.344436 183,232.51252 183,235.623638 C183,238.916797 181.635001,241.451948 180.165118,242.993332 C179.036859,244.170633 176.673959,246 172.211867,246 C171.08211,246 169.693138,245.920916 168.56338,245.843325 C167.409649,245.764241 166.51813,245.68665 166.386275,245.68665 C166.332334,245.68665 165.887324,245.68665 165.334432,245.712016 C164.811507,245.712016 164.207672,245.764241 163.813605,245.764241 C163.522925,245.764241 163.394067,245.712016 163.394067,245.555341 C163.394067,245.47775 163.446509,245.398666 163.65478,245.398666 C163.94546,245.3733 164.153731,245.346441 164.39047,245.294216 C164.914894,245.189766 165.046749,244.615291 165.150135,243.855791 C165.28199,242.759065 165.28199,240.69394 165.28199,238.184155 L165.28199,233.583878 Z" id="Fill-32" fill="#C8AB69"></path>
                    <path d="M211.357005,232.77017 C211.357005,228.703483 211.357005,227.971122 211.302874,227.137541 C211.248743,226.251861 211.032221,225.83507 210.138291,225.65198 C209.94806,225.599881 209.595438,225.599881 209.352623,225.573087 C209.162392,225.546294 209,225.520988 209,225.418279 C209,225.260494 209.134553,225.208395 209.434592,225.208395 C210.056322,225.208395 210.787859,225.208395 212.493749,225.287288 C212.68398,225.287288 218.076943,225.287288 218.698673,225.260494 C219.29411,225.235189 219.782833,225.181602 219.945225,225.104198 C220.10607,225.025305 220.160201,225 220.24217,225 C220.32414,225 220.350432,225.104198 220.350432,225.235189 C220.350432,225.418279 220.18804,225.730872 220.133909,226.460256 C220.10607,226.850253 220.081325,227.345936 220.025648,228.02471 C219.999356,228.285204 219.917386,228.466806 219.810671,228.466806 C219.646733,228.466806 219.592602,228.337303 219.592602,228.128907 C219.592602,227.789521 219.538471,227.476928 219.456502,227.268532 C219.266271,226.668651 218.698673,226.408157 217.506251,226.302471 C217.046913,226.251861 214.092924,226.226556 213.794432,226.226556 C213.687717,226.226556 213.633587,226.302471 213.633587,226.485561 L213.633587,233.682644 C213.633587,233.864245 213.659879,233.943138 213.794432,233.943138 C214.147055,233.943138 217.479959,233.943138 218.103235,233.891039 C218.834773,233.83894 219.185849,233.761536 219.456502,233.447455 C219.592602,233.292647 219.674571,233.18696 219.782833,233.18696 C219.863256,233.18696 219.917386,233.239059 219.917386,233.395356 C219.917386,233.551652 219.782833,233.995237 219.70241,234.855612 C219.620441,235.663888 219.620441,236.265258 219.592602,236.629949 C219.56631,236.890444 219.510633,237.019946 219.402371,237.019946 C219.239979,237.019946 219.213687,236.811551 219.213687,236.603156 C219.213687,236.367967 219.185849,236.107472 219.105426,235.872283 C218.995618,235.480798 218.670834,235.116106 217.696482,235.013397 C216.964944,234.934504 214.283155,234.882405 213.822271,234.882405 C213.687717,234.882405 213.633587,234.961298 213.633587,235.064007 L213.633587,237.359333 C213.633587,238.246502 213.605748,241.271212 213.633587,241.817505 C213.687717,242.887764 213.848563,243.460851 214.527516,243.721346 C214.986854,243.902947 215.718392,243.956535 216.774713,243.956535 C217.586674,243.956535 218.480603,243.929741 219.213687,243.721346 C220.081325,243.460851 220.37827,242.913069 220.59634,241.7922 C220.65047,241.504912 220.704601,241.400714 220.839155,241.400714 C221,241.400714 221,241.60911 221,241.7922 C221,242.000595 220.785024,243.774933 220.65047,244.321227 C220.46024,245 220.24217,245 219.185849,245 C217.183013,245 216.287537,244.947901 215.231215,244.921107 C214.147055,244.895802 212.902049,244.842215 211.844181,244.842215 C211.194613,244.842215 210.545044,244.947901 209.839799,244.921107 C209.541307,244.921107 209.406753,244.869009 209.406753,244.711224 C209.406753,244.635308 209.541307,244.583209 209.703699,244.556416 C209.974352,244.529622 210.138291,244.529622 210.326975,244.477523 C210.896121,244.346532 211.248743,243.98184 211.302874,242.027389 C211.329166,241.009229 211.357005,239.679964 211.357005,237.359333 L211.357005,232.77017 Z" id="Fill-34" fill="#C8AB69"></path>
                    <path d="M250.062274,237.837619 C250.062274,228.081337 250.114464,231.59471 250.089115,226.351653 C250.089115,225.296253 250.166655,225 250.376908,225 C250.585671,225 251.028545,225.594048 251.290989,225.864071 C251.681673,226.32388 255.573599,230.675092 259.598239,235.135856 C262.18391,237.999633 265.029042,241.296988 265.865583,242.188832 L265.57928,228.459368 C265.55393,226.70191 265.370518,226.106319 264.560818,225.891844 C264.089612,225.783835 263.672087,225.756062 263.436484,225.756062 C263.14869,225.756062 263.072641,225.674284 263.072641,225.567818 C263.072641,225.404262 263.279912,225.378031 263.593055,225.378031 C264.768089,225.378031 266.022154,225.459809 266.309948,225.459809 C266.597742,225.459809 267.459632,225.378031 268.530285,225.378031 C268.818079,225.378031 269,225.404262 269,225.567818 C269,225.674284 268.89711,225.728288 268.713697,225.756062 C268.503444,225.783835 268.346872,225.810066 268.03522,225.864071 C267.30306,226.027627 267.119648,226.431888 267.119648,228.295812 L267.067457,244.082072 C267.067457,245.86576 267.015267,246 266.831854,246 C266.623092,246 266.309948,245.703747 264.926152,244.270316 C264.638358,244.000294 260.876163,240.027112 258.108571,236.945775 C255.077043,233.566642 252.12753,230.161278 251.290989,229.189199 L251.629482,242.134827 C251.681673,244.352094 251.944117,245.055694 252.647944,245.270169 C253.1445,245.405952 253.720088,245.433725 253.9542,245.433725 C254.085422,245.433725 254.162962,245.48773 254.162962,245.594195 C254.162962,245.757752 254.007882,245.811756 253.694738,245.811756 C252.20507,245.811756 251.159767,245.729978 250.924164,245.729978 C250.690052,245.729978 249.59405,245.811756 248.416034,245.811756 C248.156572,245.811756 248,245.783982 248,245.594195 C248,245.48773 248.07754,245.433725 248.208762,245.433725 C248.416034,245.433725 248.88724,245.405952 249.279415,245.270169 C249.932543,245.080382 250.062274,244.29809 250.062274,241.838575 L250.062274,237.837619 Z" id="Fill-36" fill="#C8AB69"></path>
                    <path d="M304.814228,237.467378 C304.814228,239.961447 304.814228,242.012159 304.948942,243.103499 C305.028546,243.858244 305.189284,244.427639 305.994507,244.532918 C306.371094,244.584816 306.958937,244.636714 307.202341,244.636714 C307.361549,244.636714 307.415128,244.715302 307.415128,244.790925 C307.415128,244.921412 307.281945,245 306.986493,245 C305.512292,245 303.823773,244.921412 303.689059,244.921412 C303.554345,244.921412 301.864295,245 301.060603,245 C300.76362,245 300.631968,244.948102 300.631968,244.790925 C300.631968,244.715302 300.684016,244.636714 300.844755,244.636714 C301.086628,244.636714 301.408104,244.584816 301.649977,244.532918 C302.185772,244.427639 302.320486,243.858244 302.426114,243.103499 C302.560828,242.012159 302.560828,239.961447 302.560828,237.467378 L302.560828,226.479834 C301.248897,226.505042 299.906348,226.505042 298.594417,226.531732 C296.931923,226.558422 296.287438,226.740807 295.857271,227.363582 C295.561819,227.803974 295.482215,227.986358 295.402611,228.168743 C295.321477,228.376335 295.241873,228.428233 295.134714,228.428233 C295.053579,228.428233 295,228.351127 295,228.19395 C295,227.93446 295.534264,225.699881 295.589374,225.493772 C295.642954,225.336595 295.750113,225 295.857271,225 C296.045565,225 296.313462,225.25949 297.037551,225.311388 C297.816749,225.388493 298.834759,225.441874 299.156236,225.441874 L309.212337,225.441874 C310.071139,225.441874 310.688068,225.388493 311.115173,225.311388 C311.519316,225.25949 311.759658,225.180902 311.865286,225.180902 C312,225.180902 312,225.336595 312,225.493772 C312,226.272242 311.920396,228.064947 311.920396,228.351127 C311.920396,228.583926 311.839262,228.687722 311.733633,228.687722 C311.598919,228.687722 311.54534,228.609134 311.519316,228.245848 C311.519316,228.142052 311.49176,228.064947 311.49176,227.961151 C311.412157,227.181198 310.767672,226.58363 308.192796,226.531732 C307.067627,226.505042 305.939397,226.505042 304.814228,226.479834 L304.814228,237.467378 Z" id="Fill-38" fill="#C8AB69"></path>
                    <path d="M344.890029,236.402728 C345.021874,236.402728 345.021874,236.32414 344.994906,236.220344 L342.501835,229.206702 C342.36999,228.818209 342.238145,228.818209 342.109297,229.206702 L339.799011,236.220344 C339.745075,236.35083 339.799011,236.402728 339.87692,236.402728 L344.890029,236.402728 Z M339.589258,237.336892 C339.458911,237.336892 339.379504,237.41548 339.327066,237.545967 L337.752416,242.142645 C337.515694,242.792112 337.383849,243.414887 337.383849,243.883452 C337.383849,244.402432 337.882763,244.636714 338.329238,244.636714 L338.56596,244.636714 C338.828152,244.636714 338.90606,244.688612 338.90606,244.790925 C338.90606,244.948102 338.670837,245 338.434115,245 C337.804854,245 336.754588,244.921412 336.465428,244.921412 C336.177766,244.921412 334.733463,245 333.500412,245 C333.158813,245 333,244.948102 333,244.790925 C333,244.688612 333.131845,244.636714 333.370065,244.636714 C333.554349,244.636714 333.789572,244.610024 333.997828,244.584816 C335.206907,244.427639 335.731291,243.441578 336.203236,242.142645 L342.161735,226.011269 C342.476365,225.155694 342.581242,225 342.738557,225 C342.895872,225 343.000749,225.129004 343.315379,225.934164 C343.709416,226.920225 347.831073,237.64828 349.431193,241.596975 C350.376583,243.90866 351.137688,244.323843 351.687542,244.479537 C352.081579,244.610024 352.501086,244.636714 352.712338,244.636714 C352.869653,244.636714 353,244.661922 353,244.790925 C353,244.948102 352.764776,245 352.474118,245 C352.081579,245 350.165331,245 348.355457,244.948102 C347.856544,244.921412 347.567383,244.921412 347.567383,244.765718 C347.567383,244.661922 347.64679,244.610024 347.751667,244.584816 C347.908982,244.531435 348.066297,244.297153 347.908982,243.883452 L345.46835,237.492586 C345.415911,237.38879 345.361975,237.336892 345.233126,237.336892 L339.589258,237.336892 Z" id="Fill-40" fill="#C8AB69"></path>
                    <path d="M382.679688,237.331528 C382.679688,241.204874 382.789062,242.891095 383.282812,243.364922 C383.720312,243.787605 384.43125,243.971119 386.565625,243.971119 C388.017187,243.971119 389.221875,243.944043 389.876563,243.181408 C390.234375,242.758724 390.507812,242.101384 390.589062,241.600481 C390.617188,241.388387 390.671875,241.257521 390.835938,241.257521 C390.973437,241.257521 391,241.362816 391,241.653129 C391,241.941937 390.807813,243.522864 390.589062,244.287004 C390.398438,244.893201 390.317187,245 388.865625,245 C386.510937,245 384.185937,244.840554 381.53125,244.840554 C380.682813,244.840554 379.860937,244.920277 378.848437,244.920277 C378.545313,244.920277 378.410937,244.867629 378.410937,244.708183 C378.410937,244.631468 378.465625,244.551745 378.628125,244.551745 C378.875,244.551745 379.203125,244.499097 379.45,244.444946 C379.996875,244.339651 380.134375,243.760529 380.242188,242.99639 C380.379687,241.88929 380.379687,239.807461 380.379687,237.278881 L380.379687,232.641396 C380.379687,228.530385 380.379687,227.791817 380.325,226.949458 C380.270312,226.054452 380.051563,225.633273 379.148438,225.448255 C378.93125,225.394103 378.465625,225.368532 378.220312,225.368532 C378.109375,225.368532 378,225.315884 378,225.21059 C378,225.052647 378.1375,225 378.4375,225 C379.66875,225 381.39375,225.078219 381.53125,225.078219 C381.66875,225.078219 383.665625,225 384.485937,225 C384.7875,225 384.925,225.052647 384.925,225.21059 C384.925,225.315884 384.814063,225.368532 384.704687,225.368532 C384.514063,225.368532 384.13125,225.394103 383.801562,225.448255 C383.007812,225.580626 382.789062,226.027377 382.734375,226.949458 C382.679688,227.791817 382.679688,228.530385 382.679688,232.641396 L382.679688,237.331528 Z" id="Fill-42" fill="#C8AB69"></path>
                    <path d="M41.2133936,264.279586 L43.58441,264.279586 C44.3682171,264.279586 44.9259259,264.136095 45.2560293,263.849112 C45.583118,263.563609 45.7489233,263.159763 45.7489233,262.640533 C45.7489233,262.263314 45.6509475,261.940828 45.4580103,261.673077 C45.2650732,261.405325 45.0088286,261.227811 44.6922911,261.142012 C44.4872954,261.088757 44.1104651,261.06213 43.5602929,261.06213 L41.2133936,261.06213 L41.2133936,264.279586 Z M40,269 L40,260 L43.4593023,260 C44.0682601,260 44.5325151,260.028107 44.8550818,260.085799 C45.3057709,260.159763 45.6826012,260.300296 45.9870801,260.505917 C46.291559,260.713018 46.535745,261.002959 46.7211456,261.37574 C46.9065461,261.747041 47,262.156805 47,262.60355 C47,263.368343 46.7527993,264.016272 46.2568906,264.547337 C45.7594746,265.076923 44.8626184,265.341716 43.5663221,265.341716 L41.2133936,265.341716 L41.2133936,269 L40,269 Z" id="Fill-44" fill="#122343"></path>
                    <path d="M57.7755532,265.304734 L61.0363541,265.304734 L60.032666,262.810651 C59.7260274,262.054734 59.4984194,261.431953 59.3498419,260.945266 C59.2281349,261.522189 59.0558483,262.094675 58.8314015,262.664201 L57.7755532,265.304734 Z M55,269 L58.6938883,260 L60.0642782,260 L64,269 L62.5505796,269 L61.4299262,266.273669 L57.4088514,266.273669 L56.3530032,269 L55,269 Z" id="Fill-46" fill="#122343"></path>
                    <g id="Group-50" transform="translate(71.000000, 260.000000)">
                        <mask id="mask-4" fill="white">
                            <use xlink:href="#path-3"></use>
                        </mask>
                        <g id="Clip-49"></g>
                        <path d="M0.92145,6.76505714 L2.06145,6.66134286 C2.11545,7.13905714 2.23995,7.53191429 2.43795,7.83834286 C2.63445,8.14477143 2.94045,8.39305714 3.35595,8.58162857 C3.76995,8.7702 4.23795,8.86605714 4.75695,8.86605714 C5.21745,8.86605714 5.62395,8.79377143 5.97645,8.6492 C6.32895,8.5062 6.59145,8.30977143 6.76545,8.05991429 C6.93645,7.81005714 7.02195,7.53662857 7.02195,7.2412 C7.02195,6.94105714 6.93945,6.67862857 6.77295,6.45548571 C6.60795,6.23077143 6.33345,6.04377143 5.95245,5.89134286 C5.70645,5.79234286 5.16495,5.6352 4.32795,5.42462857 C3.48795,5.21405714 2.89995,5.01605714 2.56545,4.82905714 C2.13045,4.58862857 1.80495,4.2932 1.59045,3.93805714 C1.37745,3.58448571 1.26945,3.18691429 1.26945,2.74691429 C1.26945,2.26605714 1.39995,1.81505714 1.66245,1.39391429 C1.92345,0.974342857 2.30595,0.655342857 2.80845,0.440057143 C3.31095,0.221628571 3.86895,0.1132 4.48245,0.1132 C5.15895,0.1132 5.75595,0.227914286 6.27195,0.4542 C6.78945,0.683628571 7.18695,1.01991429 7.46445,1.46305714 C7.74345,1.9062 7.89195,2.40905714 7.91295,2.97005714 L6.75495,3.0612 C6.69345,2.4562 6.48195,2.00048571 6.12345,1.69091429 C5.76495,1.38291429 5.23395,1.22891429 4.53195,1.22891429 C3.80145,1.22891429 3.26895,1.3672 2.93595,1.64848571 C2.60145,1.92977143 2.43495,2.26762857 2.43495,2.66362857 C2.43495,3.0062 2.55195,3.28905714 2.78895,3.5122 C3.02145,3.7322 3.62895,3.96005714 4.60995,4.19262857 C5.59095,4.4252 6.26595,4.62948571 6.63045,4.80234286 C7.16145,5.05848571 7.55445,5.38377143 7.80795,5.77662857 C8.05995,6.17105714 8.18745,6.62362857 8.18745,7.13591429 C8.18745,7.64662857 8.04795,8.12434286 7.76895,8.57534286 C7.49145,9.02477143 7.09095,9.3752 6.57195,9.62505714 C6.04995,9.87491429 5.46345,10.0006286 4.81245,10.0006286 C3.98595,10.0006286 3.29445,9.87491429 2.73645,9.62191429 C2.17845,9.36891429 1.74045,8.9902 1.42245,8.4842 C1.10445,7.97662857 0.93795,7.40462857 0.92145,6.76505714" id="Fill-48" fill="#122343" mask="url(#mask-4)"></path>
                    </g>
                    <g id="Group-53" transform="translate(88.000000, 260.000000)">
                        <mask id="mask-6" fill="white">
                            <use xlink:href="#path-5"></use>
                        </mask>
                        <g id="Clip-52"></g>
                        <path d="M0.89505,6.76505714 L2.03505,6.66134286 C2.08905,7.13905714 2.21355,7.53191429 2.41155,7.83834286 C2.60805,8.14477143 2.91405,8.39305714 3.32955,8.58162857 C3.74355,8.7702 4.21155,8.86605714 4.73055,8.86605714 C5.19105,8.86605714 5.59755,8.79377143 5.95005,8.6492 C6.30255,8.5062 6.56505,8.30977143 6.73905,8.05991429 C6.91005,7.81005714 6.99555,7.53662857 6.99555,7.2412 C6.99555,6.94105714 6.91305,6.67862857 6.74655,6.45548571 C6.58155,6.23077143 6.30705,6.04377143 5.92605,5.89134286 C5.68005,5.79234286 5.13855,5.6352 4.30155,5.42462857 C3.46155,5.21405714 2.87355,5.01605714 2.53905,4.82905714 C2.10405,4.58862857 1.77855,4.2932 1.56405,3.93805714 C1.35105,3.58448571 1.24305,3.18691429 1.24305,2.74691429 C1.24305,2.26605714 1.37355,1.81505714 1.63605,1.39391429 C1.89705,0.974342857 2.27955,0.655342857 2.78205,0.440057143 C3.28455,0.221628571 3.84255,0.1132 4.45605,0.1132 C5.13255,0.1132 5.72955,0.227914286 6.24555,0.4542 C6.76305,0.683628571 7.16055,1.01991429 7.43805,1.46305714 C7.71705,1.9062 7.86555,2.40905714 7.88655,2.97005714 L6.72855,3.0612 C6.66705,2.4562 6.45555,2.00048571 6.09705,1.69091429 C5.73855,1.38291429 5.20755,1.22891429 4.50555,1.22891429 C3.77505,1.22891429 3.24255,1.3672 2.90955,1.64848571 C2.57505,1.92977143 2.40855,2.26762857 2.40855,2.66362857 C2.40855,3.0062 2.52555,3.28905714 2.76255,3.5122 C2.99505,3.7322 3.60255,3.96005714 4.58355,4.19262857 C5.56455,4.4252 6.23955,4.62948571 6.60405,4.80234286 C7.13505,5.05848571 7.52805,5.38377143 7.78155,5.77662857 C8.03355,6.17105714 8.16105,6.62362857 8.16105,7.13591429 C8.16105,7.64662857 8.02155,8.12434286 7.74255,8.57534286 C7.46505,9.02477143 7.06455,9.3752 6.54555,9.62505714 C6.02355,9.87491429 5.43705,10.0006286 4.78605,10.0006286 C3.95955,10.0006286 3.26805,9.87491429 2.71005,9.62191429 C2.15205,9.36891429 1.71405,8.9902 1.39605,8.4842 C1.07805,7.97662857 0.91155,7.40462857 0.89505,6.76505714" id="Fill-51" fill="#122343" mask="url(#mask-6)"></path>
                    </g>
                    <mask id="mask-8" fill="white">
                        <use xlink:href="#path-7"></use>
                    </mask>
                    <g id="Clip-55"></g>
                    <polygon id="Fill-54" fill="#122343" mask="url(#mask-8)" points="106.195 269 107.805 269 107.805 260 106.195 260"></polygon>
                    <path d="M118.283946,265.147713 C118.283946,266.311944 118.58869,267.231576 119.198178,267.900254 C119.807666,268.570521 120.573393,268.905654 121.493812,268.905654 C122.431248,268.905654 123.203163,268.567344 123.80801,267.890724 C124.414404,267.214104 124.716054,266.253177 124.716054,265.00953 C124.716054,264.223316 124.587659,263.535578 124.327776,262.949492 C124.06944,262.363405 123.690443,261.90756 123.192334,261.585133 C122.694225,261.262706 122.132692,261.100699 121.512375,261.100699 C120.632176,261.100699 119.872637,261.410419 119.236851,262.033037 C118.601066,262.655654 118.283946,263.692821 118.283946,265.147713 M117,265.128653 C117,263.52446 117.417669,262.269695 118.257649,261.361182 C119.096081,260.454257 120.180474,260 121.506188,260 C122.375559,260 123.158302,260.212834 123.857511,260.638501 C124.555174,261.065756 125.085768,261.659784 125.452389,262.422173 C125.817463,263.184562 126,264.050191 126,265.015883 C126,265.99587 125.808182,266.872618 125.422998,267.646125 C125.037814,268.42122 124.49175,269.005718 123.786353,269.404384 C123.080956,269.801461 122.316776,270 121.5,270 C120.61516,270 119.821588,269.780813 119.125473,269.340851 C118.42781,268.900889 117.898762,268.300508 117.539876,267.541296 C117.179443,266.780496 117,265.975222 117,265.128653" id="Fill-56" fill="#122343" mask="url(#mask-8)"></path>
                    <polygon id="Fill-57" fill="#122343" mask="url(#mask-8)" points="136 269 136 260 137.206091 260 141.871297 267.065089 141.871297 260 143 260 143 269 141.793909 269 137.127242 261.927515 137.127242 269"></polygon>
                    <path d="M154.775553,265.304734 L158.036354,265.304734 L157.032666,262.810651 C156.726027,262.054734 156.498419,261.431953 156.349842,260.945266 C156.228135,261.522189 156.055848,262.094675 155.831401,262.664201 L154.775553,265.304734 Z M152,269 L155.693888,260 L157.064278,260 L161,269 L159.55058,269 L158.429926,266.273669 L154.408851,266.273669 L153.353003,269 L152,269 Z" id="Fill-58" fill="#122343" mask="url(#mask-8)"></path>
                    <polygon id="Fill-59" fill="#122343" mask="url(#mask-8)" points="170.910618 269 170.910618 261.06213 168 261.06213 168 260 175 260 175 261.06213 172.07922 261.06213 172.07922 269"></polygon>
                    <polygon id="Fill-60" fill="#122343" mask="url(#mask-8)" points="185 269 185 260 191.782647 260 191.782647 261.06213 186.242458 261.06213 186.242458 263.818047 191.431183 263.818047 191.431183 264.87426 186.242458 264.87426 186.242458 267.93787 192 267.93787 192 269"></polygon>
                    <path d="M214.213394,264.279586 L216.58441,264.279586 C217.368217,264.279586 217.925926,264.136095 218.256029,263.849112 C218.583118,263.563609 218.748923,263.159763 218.748923,262.640533 C218.748923,262.263314 218.650947,261.940828 218.45801,261.673077 C218.265073,261.405325 218.008829,261.227811 217.692291,261.142012 C217.487295,261.088757 217.110465,261.06213 216.560293,261.06213 L214.213394,261.06213 L214.213394,264.279586 Z M213,269 L213,260 L216.459302,260 C217.06826,260 217.532515,260.028107 217.855082,260.085799 C218.305771,260.159763 218.682601,260.300296 218.98708,260.505917 C219.291559,260.713018 219.535745,261.002959 219.721146,261.37574 C219.906546,261.747041 220,262.156805 220,262.60355 C220,263.368343 219.752799,264.016272 219.256891,264.547337 C218.759475,265.076923 217.862618,265.341716 216.566322,265.341716 L214.213394,265.341716 L214.213394,269 L213,269 Z" id="Fill-61" fill="#122343" mask="url(#mask-8)"></path>
                    <path d="M231.202312,263.971893 L233.782957,263.971893 C234.333395,263.971893 234.761514,263.91568 235.071788,263.803254 C235.382062,263.690828 235.61626,263.510355 235.777363,263.263314 C235.938467,263.016272 236.019019,262.747041 236.019019,262.457101 C236.019019,262.031065 235.86239,261.680473 235.550625,261.406805 C235.238859,261.131657 234.748089,260.994083 234.075331,260.994083 L231.202312,260.994083 L231.202312,263.971893 Z M230,269 L230,260 L234.026105,260 C234.834607,260 235.449189,260.079882 235.869849,260.242604 C236.290509,260.403846 236.627634,260.689349 236.879731,261.099112 C237.131829,261.508876 237.257132,261.961538 237.257132,262.457101 C237.257132,263.094675 237.048294,263.633136 236.632109,264.069527 C236.214432,264.507396 235.571508,264.786982 234.700354,264.905325 C235.018087,265.056213 235.259743,265.207101 235.42383,265.35503 C235.77438,265.671598 236.10703,266.072485 236.421779,266.550296 L238,269 L236.488905,269 L235.288085,267.128698 C234.937535,266.588757 234.649636,266.174556 234.421406,265.887574 C234.194667,265.602071 233.990304,265.400888 233.8113,265.286982 C233.632295,265.171598 233.450308,265.091716 233.263845,265.047337 C233.126608,265.017751 232.905836,265.002959 232.595562,265.002959 L231.202312,265.002959 L231.202312,269 L230,269 Z" id="Fill-62" fill="#122343" mask="url(#mask-8)"></path>
                    <path d="M247.283946,265.147713 C247.283946,266.311944 247.58869,267.231576 248.198178,267.900254 C248.807666,268.570521 249.573393,268.905654 250.493812,268.905654 C251.431248,268.905654 252.203163,268.567344 252.80801,267.890724 C253.414404,267.214104 253.716054,266.253177 253.716054,265.00953 C253.716054,264.223316 253.587659,263.535578 253.327776,262.949492 C253.06944,262.363405 252.690443,261.90756 252.192334,261.585133 C251.694225,261.262706 251.132692,261.100699 250.512375,261.100699 C249.632176,261.100699 248.872637,261.410419 248.236851,262.033037 C247.601066,262.655654 247.283946,263.692821 247.283946,265.147713 M246,265.128653 C246,263.52446 246.417669,262.269695 247.257649,261.361182 C248.096081,260.454257 249.180474,260 250.506188,260 C251.375559,260 252.158302,260.212834 252.857511,260.638501 C253.555174,261.065756 254.085768,261.659784 254.452389,262.422173 C254.817463,263.184562 255,264.050191 255,265.015883 C255,265.99587 254.808182,266.872618 254.422998,267.646125 C254.037814,268.42122 253.49175,269.005718 252.786353,269.404384 C252.080956,269.801461 251.316776,270 250.5,270 C249.61516,270 248.821588,269.780813 248.125473,269.340851 C247.42781,268.900889 246.898762,268.300508 246.539876,267.541296 C246.179443,266.780496 246,265.975222 246,265.128653" id="Fill-63" fill="#122343" mask="url(#mask-8)"></path>
                    <path d="M267.387711,269 L264,260 L265.253324,260 L267.525692,266.538462 C267.708229,267.060651 267.860582,267.551775 267.98419,268.011834 C268.120733,267.52071 268.277398,267.029586 268.455623,266.538462 L270.818541,260 L272,260 L268.574919,269 L267.387711,269 Z" id="Fill-64" fill="#122343" mask="url(#mask-8)"></path>
                    <polygon id="Fill-65" fill="#122343" mask="url(#mask-8)" points="282 269 282 260 288.782647 260 288.782647 261.06213 283.242458 261.06213 283.242458 263.818047 288.431183 263.818047 288.431183 264.87426 283.242458 264.87426 283.242458 267.93787 289 267.93787 289 269"></polygon>
                    <polygon id="Fill-66" fill="#122343" mask="url(#mask-8)" points="298 269 298 260 299.206091 260 303.871297 267.065089 303.871297 260 305 260 305 269 303.793909 269 299.127242 261.927515 299.127242 269"></polygon>
                    <path d="M328.213394,264.279586 L330.58441,264.279586 C331.368217,264.279586 331.925926,264.136095 332.256029,263.849112 C332.583118,263.563609 332.748923,263.159763 332.748923,262.640533 C332.748923,262.263314 332.650947,261.940828 332.45801,261.673077 C332.265073,261.405325 332.008829,261.227811 331.692291,261.142012 C331.487295,261.088757 331.110465,261.06213 330.560293,261.06213 L328.213394,261.06213 L328.213394,264.279586 Z M327,269 L327,260 L330.459302,260 C331.06826,260 331.532515,260.028107 331.855082,260.085799 C332.305771,260.159763 332.682601,260.300296 332.98708,260.505917 C333.291559,260.713018 333.535745,261.002959 333.721146,261.37574 C333.906546,261.747041 334,262.156805 334,262.60355 C334,263.368343 333.752799,264.016272 333.256891,264.547337 C332.759475,265.076923 331.862618,265.341716 330.566322,265.341716 L328.213394,265.341716 L328.213394,269 L327,269 Z" id="Fill-67" fill="#122343" mask="url(#mask-8)"></path>
                    <path d="M345.202312,263.971893 L347.782957,263.971893 C348.333395,263.971893 348.761514,263.91568 349.071788,263.803254 C349.382062,263.690828 349.61626,263.510355 349.777363,263.263314 C349.938467,263.016272 350.019019,262.747041 350.019019,262.457101 C350.019019,262.031065 349.86239,261.680473 349.550625,261.406805 C349.238859,261.131657 348.748089,260.994083 348.075331,260.994083 L345.202312,260.994083 L345.202312,263.971893 Z M344,269 L344,260 L348.026105,260 C348.834607,260 349.449189,260.079882 349.869849,260.242604 C350.290509,260.403846 350.627634,260.689349 350.879731,261.099112 C351.131829,261.508876 351.257132,261.961538 351.257132,262.457101 C351.257132,263.094675 351.048294,263.633136 350.632109,264.069527 C350.214432,264.507396 349.571508,264.786982 348.700354,264.905325 C349.018087,265.056213 349.259743,265.207101 349.42383,265.35503 C349.77438,265.671598 350.10703,266.072485 350.421779,266.550296 L352,269 L350.488905,269 L349.288085,267.128698 C348.937535,266.588757 348.649636,266.174556 348.421406,265.887574 C348.194667,265.602071 347.990304,265.400888 347.8113,265.286982 C347.632295,265.171598 347.450308,265.091716 347.263845,265.047337 C347.126608,265.017751 346.905836,265.002959 346.595562,265.002959 L345.202312,265.002959 L345.202312,269 L344,269 Z" id="Fill-68" fill="#122343" mask="url(#mask-8)"></path>
                    <path d="M362.283946,265.147713 C362.283946,266.311944 362.58869,267.231576 363.198178,267.900254 C363.807666,268.570521 364.573393,268.905654 365.493812,268.905654 C366.431248,268.905654 367.203163,268.567344 367.80801,267.890724 C368.414404,267.214104 368.716054,266.253177 368.716054,265.00953 C368.716054,264.223316 368.587659,263.535578 368.327776,262.949492 C368.06944,262.363405 367.690443,261.90756 367.192334,261.585133 C366.694225,261.262706 366.132692,261.100699 365.512375,261.100699 C364.632176,261.100699 363.872637,261.410419 363.236851,262.033037 C362.601066,262.655654 362.283946,263.692821 362.283946,265.147713 M361,265.128653 C361,263.52446 361.417669,262.269695 362.257649,261.361182 C363.096081,260.454257 364.180474,260 365.506188,260 C366.375559,260 367.158302,260.212834 367.857511,260.638501 C368.555174,261.065756 369.085768,261.659784 369.452389,262.422173 C369.817463,263.184562 370,264.050191 370,265.015883 C370,265.99587 369.808182,266.872618 369.422998,267.646125 C369.037814,268.42122 368.49175,269.005718 367.786353,269.404384 C367.080956,269.801461 366.316776,270 365.5,270 C364.61516,270 363.821588,269.780813 363.125473,269.340851 C362.42781,268.900889 361.898762,268.300508 361.539876,267.541296 C361.179443,266.780496 361,265.975222 361,265.128653" id="Fill-69" fill="#122343" mask="url(#mask-8)"></path>
                    <polygon id="Fill-70" fill="#122343" mask="url(#mask-8)" points="380 269 380 260 386 260 386 261.06213 381.176901 261.06213 381.176901 263.849112 385.350877 263.849112 385.350877 264.911243 381.176901 264.911243 381.176901 269"></polygon>
                    <polygon id="Fill-71" fill="#122343" mask="url(#mask-8)" points="395 269 395 260 401.782647 260 401.782647 261.06213 396.242458 261.06213 396.242458 263.818047 401.431183 263.818047 401.431183 264.87426 396.242458 264.87426 396.242458 267.93787 402 267.93787 402 269"></polygon>
                    <path d="M412,266.727591 L413.098266,266.622695 C413.150289,267.105849 413.270231,267.503179 413.460983,267.813096 C413.650289,268.123013 413.945087,268.374126 414.345376,268.564844 C414.74422,268.755563 415.195087,268.852511 415.695087,268.852511 C416.138728,268.852511 416.530347,268.779402 416.869942,268.633185 C417.209538,268.488557 417.462428,268.289892 417.630058,268.03719 C417.794798,267.784488 417.877168,267.507947 417.877168,267.209154 C417.877168,266.905594 417.797688,266.640178 417.637283,266.414495 C417.478324,266.187222 417.213873,265.998093 416.846821,265.843929 C416.609827,265.743802 416.08815,265.58487 415.281792,265.371901 C414.472543,265.158932 413.906069,264.958678 413.583815,264.769549 C413.16474,264.526383 412.851156,264.227591 412.644509,263.868404 C412.439306,263.510807 412.33526,263.108709 412.33526,262.6637 C412.33526,262.177368 412.460983,261.721233 412.713873,261.295296 C412.965318,260.870947 413.333815,260.548315 413.817919,260.330579 C414.302023,260.109663 414.839595,260 415.430636,260 C416.08237,260 416.657514,260.11602 417.154624,260.344882 C417.653179,260.576923 418.036127,260.917038 418.303468,261.365226 C418.572254,261.813414 418.715318,262.321996 418.735549,262.889383 L417.619942,262.981564 C417.560694,262.369676 417.356936,261.908773 417.011561,261.595677 C416.666185,261.28417 416.154624,261.128417 415.478324,261.128417 C414.774566,261.128417 414.261561,261.268277 413.940751,261.552765 C413.618497,261.837254 413.458092,262.178957 413.458092,262.579466 C413.458092,262.925938 413.570809,263.212015 413.799133,263.437699 C414.023121,263.660203 414.608382,263.890655 415.553468,264.125874 C416.498555,264.361093 417.148844,264.567705 417.5,264.74253 C418.011561,265.001589 418.390173,265.330579 418.634393,265.727908 C418.877168,266.126828 419,266.584552 419,267.10267 C419,267.619199 418.865607,268.102352 418.596821,268.558487 C418.32948,269.013032 417.943642,269.367451 417.443642,269.620153 C416.940751,269.872854 416.375723,270 415.748555,270 C414.952312,270 414.286127,269.872854 413.748555,269.616974 C413.210983,269.361093 412.789017,268.978067 412.482659,268.466306 C412.176301,267.952956 412.015896,267.374444 412,266.727591" id="Fill-72" fill="#122343" mask="url(#mask-8)"></path>
                    <path d="M428,266.727591 L429.098266,266.622695 C429.150289,267.105849 429.270231,267.503179 429.460983,267.813096 C429.650289,268.123013 429.945087,268.374126 430.345376,268.564844 C430.74422,268.755563 431.195087,268.852511 431.695087,268.852511 C432.138728,268.852511 432.530347,268.779402 432.869942,268.633185 C433.209538,268.488557 433.462428,268.289892 433.630058,268.03719 C433.794798,267.784488 433.877168,267.507947 433.877168,267.209154 C433.877168,266.905594 433.797688,266.640178 433.637283,266.414495 C433.478324,266.187222 433.213873,265.998093 432.846821,265.843929 C432.609827,265.743802 432.08815,265.58487 431.281792,265.371901 C430.472543,265.158932 429.906069,264.958678 429.583815,264.769549 C429.16474,264.526383 428.851156,264.227591 428.644509,263.868404 C428.439306,263.510807 428.33526,263.108709 428.33526,262.6637 C428.33526,262.177368 428.460983,261.721233 428.713873,261.295296 C428.965318,260.870947 429.333815,260.548315 429.817919,260.330579 C430.302023,260.109663 430.839595,260 431.430636,260 C432.08237,260 432.657514,260.11602 433.154624,260.344882 C433.653179,260.576923 434.036127,260.917038 434.303468,261.365226 C434.572254,261.813414 434.715318,262.321996 434.735549,262.889383 L433.619942,262.981564 C433.560694,262.369676 433.356936,261.908773 433.011561,261.595677 C432.666185,261.28417 432.154624,261.128417 431.478324,261.128417 C430.774566,261.128417 430.261561,261.268277 429.940751,261.552765 C429.618497,261.837254 429.458092,262.178957 429.458092,262.579466 C429.458092,262.925938 429.570809,263.212015 429.799133,263.437699 C430.023121,263.660203 430.608382,263.890655 431.553468,264.125874 C432.498555,264.361093 433.148844,264.567705 433.5,264.74253 C434.011561,265.001589 434.390173,265.330579 434.634393,265.727908 C434.877168,266.126828 435,266.584552 435,267.10267 C435,267.619199 434.865607,268.102352 434.596821,268.558487 C434.32948,269.013032 433.943642,269.367451 433.443642,269.620153 C432.940751,269.872854 432.375723,270 431.748555,270 C430.952312,270 430.286127,269.872854 429.748555,269.616974 C429.210983,269.361093 428.789017,268.978067 428.482659,268.466306 C428.176301,267.952956 428.015896,267.374444 428,266.727591" id="Fill-73" fill="#122343" mask="url(#mask-8)"></path>
                    <polygon id="Fill-74" fill="#122343" mask="url(#mask-8)" points="445.195 269 446.805 269 446.805 260 445.195 260"></polygon>
                    <path d="M458.283946,265.147713 C458.283946,266.311944 458.58869,267.231576 459.198178,267.900254 C459.807666,268.570521 460.573393,268.905654 461.493812,268.905654 C462.431248,268.905654 463.203163,268.567344 463.80801,267.890724 C464.414404,267.214104 464.716054,266.253177 464.716054,265.00953 C464.716054,264.223316 464.587659,263.535578 464.327776,262.949492 C464.06944,262.363405 463.690443,261.90756 463.192334,261.585133 C462.694225,261.262706 462.132692,261.100699 461.512375,261.100699 C460.632176,261.100699 459.872637,261.410419 459.236851,262.033037 C458.601066,262.655654 458.283946,263.692821 458.283946,265.147713 M457,265.128653 C457,263.52446 457.417669,262.269695 458.257649,261.361182 C459.096081,260.454257 460.180474,260 461.506188,260 C462.375559,260 463.158302,260.212834 463.857511,260.638501 C464.555174,261.065756 465.085768,261.659784 465.452389,262.422173 C465.817463,263.184562 466,264.050191 466,265.015883 C466,265.99587 465.808182,266.872618 465.422998,267.646125 C465.037814,268.42122 464.49175,269.005718 463.786353,269.404384 C463.080956,269.801461 462.316776,270 461.5,270 C460.61516,270 459.821588,269.780813 459.125473,269.340851 C458.42781,268.900889 457.898762,268.300508 457.539876,267.541296 C457.179443,266.780496 457,265.975222 457,265.128653" id="Fill-75" fill="#122343" mask="url(#mask-8)"></path>
                    <polygon id="Fill-76" fill="#122343" mask="url(#mask-8)" points="475 269 475 260 476.206091 260 480.871297 267.065089 480.871297 260 482 260 482 269 480.793909 269 476.127242 261.927515 476.127242 269"></polygon>
                    <path d="M493.775553,265.304734 L497.036354,265.304734 L496.032666,262.810651 C495.726027,262.054734 495.498419,261.431953 495.349842,260.945266 C495.228135,261.522189 495.055848,262.094675 494.831401,262.664201 L493.775553,265.304734 Z M491,269 L494.693888,260 L496.064278,260 L500,269 L498.55058,269 L497.429926,266.273669 L493.408851,266.273669 L492.353003,269 L491,269 Z" id="Fill-77" fill="#122343" mask="url(#mask-8)"></path>
                    <polygon id="Fill-78" fill="#122343" mask="url(#mask-8)" points="509 269 509 260 510.270718 260 510.270718 267.93787 515 267.93787 515 269"></polygon>
                    <path d="M203,264.5 C203,265.328 202.3295,266 201.5,266 C200.6705,266 200,265.328 200,264.5 C200,263.672 200.6705,263 201.5,263 C202.3295,263 203,263.672 203,264.5" id="Fill-79" fill="#122343" mask="url(#mask-8)"></path>
                    <path d="M318,264.5 C318,265.328 317.3295,266 316.5,266 C315.6705,266 315,265.328 315,264.5 C315,263.672 315.6705,263 316.5,263 C317.3295,263 318,263.672 318,264.5" id="Fill-80" fill="#122343" mask="url(#mask-8)"></path>
                </g>
            </g>
        </g>
    </g>
</svg>