<?xml version="1.0" encoding="UTF-8"?>
<svg width="342px" height="261px" viewBox="0 0 342 261" version="1.1" xmlns="http://www.w3.org/2000/svg" xmlns:xlink="http://www.w3.org/1999/xlink">
    <!-- Generator: Sketch 56.2 (81672) - https://sketch.com -->
    <title>Seminars</title>
    <desc>Created with Sketch.</desc>
    <g id="Page-1" stroke="none" stroke-width="1" fill="none" fill-rule="evenodd">
        <g id="Landing_Page_2-Copy" transform="translate(-425.000000, -5099.000000)">
            <g id="Benifits" transform="translate(425.000000, 3798.000000)">
                <g id="Community_Support-Copy" transform="translate(0.000000, 1301.000000)">
                    <g id="Seminars">
                        <circle id="Oval-Copy-9" fill="#E35205" opacity="0.14" cx="172.5" cy="130.5" r="130.5"></circle>
                        <g id="undraw_teaching_f1cm" fill-rule="nonzero">
                            <rect id="Rectangle" fill="#E35205" opacity="0.1" x="102.1932" y="28.8" width="30.96" height="9.36" rx="2.6748"></rect>
                            <rect id="Rectangle" fill="#E35205" opacity="0.1" x="134.5932" y="38.16" width="30.96" height="9.36" rx="2.6748"></rect>
                            <rect id="Rectangle" fill="#E35205" opacity="0.1" x="134.5932" y="24.12" width="30.96" height="9.36" rx="2.6748"></rect>
                            <rect id="Rectangle" fill="#E35205" opacity="0.1" x="202.9932" y="28.8" width="30.96" height="9.36" rx="2.6748"></rect>
                            <rect id="Rectangle" fill="#E35205" opacity="0.1" x="235.3932" y="38.16" width="30.96" height="9.36" rx="2.6748"></rect>
                            <rect id="Rectangle" fill="#E35205" opacity="0.1" x="235.3932" y="24.12" width="30.96" height="9.36" rx="2.6748"></rect>
                            <rect id="Rectangle" fill="#E35205" opacity="0.1" x="69.7932" y="139.32" width="30.96" height="9.36" rx="2.6748"></rect>
                            <rect id="Rectangle" fill="#E35205" opacity="0.1" x="170.5932" y="139.32" width="30.96" height="9.36" rx="2.6748"></rect>
                            <ellipse id="Oval" fill="#E35205" opacity="0.1" cx="173.6532" cy="232.56" rx="157.86" ry="12.96"></ellipse>
                            <path d="M30.474,39.888 C45.36,46.3392 53.9136,59.688 53.9136,59.688 C53.9136,59.688 38.3292,62.568 23.4396,56.1204 C8.55,49.6728 0,36.3204 0,36.3204 C0,36.3204 15.5844,33.4368 30.474,39.888 Z" id="Path" fill="#E35205"></path>
                            <path d="M76.158,15.12 C80.7624,7.56 88.6032,3.96 88.6032,3.96 C88.6032,3.96 88.9632,12.5784 84.3732,20.1168 C79.7832,27.6552 71.9244,31.2516 71.9244,31.2516 C71.9244,31.2516 71.55,22.6368 76.158,15.12 Z" id="Path" fill="#E35205"></path>
                            <path d="M42.3108,23.2092 C45.6048,34.9668 54.684,42.7068 54.684,42.7068 C54.684,42.7068 58.4244,31.3776 55.1304,19.6164 C51.8364,7.8552 42.7536,0.1188 42.7536,0.1188 C42.7536,0.1188 39.0132,11.448 42.3108,23.2092 Z" id="Path" fill="#46455B"></path>
                            <rect id="Rectangle" fill="#3F3D56" x="42.7932" y="22.68" width="262.44" height="131.4" rx="2.5956"></rect>
                            <path d="M42.7932,146.16 L305.2332,146.16 L305.2332,151.4844 C305.2332,152.91791 304.07111,154.08 302.6376,154.08 L45.3888,154.08 C43.9552897,154.08 42.7932,152.91791 42.7932,151.4844 L42.7932,146.16 Z" id="Path" fill="#000000" opacity="0.1"></path>
                            <rect id="Rectangle" fill="#E35205" x="68.3532" y="136.44" width="19.44" height="9.72" rx="0.9"></rect>
                            <rect id="Rectangle" fill="#E35205" x="93.1932" y="144.72" width="13.32" height="1.44" rx="0.72"></rect>
                            <g id="b30eccf6-7cfe-48df-9caa-415a128bd568" transform="translate(230.760000, 53.280000)">
                                <path d="M5.3964,171.54 C4.4892,172.1088 3.4524,172.4292 2.5164,172.9296 C1.5804,173.43 0.6696,174.1824 0.4032,175.2192 C0.303797871,175.541028 0.320358095,175.887519 0.45,176.1984 C0.682904444,176.573855 1.03932758,176.856447 1.458,176.9976 C5.3009594,178.704323 9.67703494,178.753799 13.5576,177.1344 C14.2332599,176.809636 14.9309924,176.532949 15.6456,176.3064 C16.5259424,176.126866 17.4219405,176.035216 18.3204,176.0328 C19.264766,175.977626 20.2041981,175.85734 21.132,175.6728 C21.5984041,175.62088 22.0404106,175.437335 22.4064,175.1436 C22.7403345,174.758814 22.9410943,174.276485 22.9788,173.7684 C23.4048426,170.963711 22.7624652,168.101277 21.1788,165.7476 C20.9793037,165.417753 20.7117524,165.134246 20.394,164.916 C20.0065744,164.715729 19.5804538,164.601523 19.1448,164.5812 C17.3448,164.3616 15.4584,163.9584 13.6404,163.9152 C12.3372,163.8864 11.682,164.5056 10.7604,165.402 C8.856,167.3064 7.7436,170.0748 5.3964,171.54 Z" id="Path" fill="#323444"></path>
                                <path d="M31.9248,171.2736 C31.9248,173.0376 32.1372,174.906 33.2064,176.3136 C33.6953594,176.92226 34.2875855,177.440153 34.956,177.8436 C37.2168,179.2836 40.212,179.8128 42.5952,178.5924 C42.9801803,178.419603 43.3093181,178.142828 43.5456,177.7932 C43.9056,177.1668 43.7148,176.3856 43.5132,175.6944 L40.0644,163.7424 C37.836,164.0844 34.56,164.3256 32.58,165.456 C31.1436,166.2732 31.9248,169.6968 31.9248,171.2736 Z" id="Path" fill="#323444"></path>
                                <path d="M3.3732,97.6788 C3.1644,98.3376 2.4084,98.6436 1.9944,99.198 C1.5084,99.8496 1.5588,100.7532 1.7352,101.5452 C1.95310374,102.713065 2.50161906,103.793853 3.3156,104.6592 C4.15378946,105.528934 5.360984,105.93938 6.5556,105.7608 C7.7148,105.5412 8.7156,104.5152 8.7552,103.338 C8.73431562,102.802623 8.61978382,102.275045 8.4168,101.7792 L5.9616,94.68 C5.94135142,94.5784978 5.87839507,94.4906212 5.7888,94.4388 C5.6961496,94.4181975 5.59911166,94.4350174 5.5188,94.4856 C4.9392,94.7592 3.7764,95.0472 3.438,95.6484 C3.0996,96.2496 3.618,97.0272 3.3732,97.6788 Z" id="Path" fill="#FBB3B2"></path>
                                <path d="M2.2248,97.3224 C3.1212,97.182 3.906,96.6564 4.7448,96.3108 C5.5836,95.9652 6.6348,95.832 7.3404,96.408 C7.542,96.5736 7.7364,96.8004 7.9992,96.7968 C7.64171704,95.0364653 7.1011791,93.3183269 6.3864,91.6704 C6.36126192,91.591439 6.3121978,91.522246 6.246,91.4724 C6.1478873,91.4325751 6.0381127,91.4325751 5.94,91.4724 L3.5172,92.106 C2.6208,92.34 2.5164,92.268 2.5848,93.15 C2.6028,93.5424 2.8044,97.3224 2.2248,97.3224 Z" id="Path" fill="#323444"></path>
                                <path d="M1.9584,46.0584 C1.5984,46.6128 1.5984,47.304 1.5984,47.9556 C1.5984,51.1416 1.6308,54.3456 2.1024,57.4992 C2.214,58.2552 2.3544,59.0112 2.4264,59.7744 C2.50799828,60.8367903 2.52482943,61.9031637 2.4768,62.9676 L2.1168,76.8276 C2.0736,78.5232 1.9872,80.3448 0.9396,81.6768 C0.621943869,82.1233197 0.472719636,82.6679244 0.5184,83.214 C0.792,86.6916 1.368,90.1404 1.9404,93.5784 C3.80986681,92.7351539 5.97009944,92.8382133 7.7508,93.8556 C9.56714624,88.1444641 10.5717726,82.2063828 10.7352,76.2156 C10.818,73.2672 10.692,70.3008 11.1456,67.3884 C11.9052,62.4852 11.5956,57.456 11.0376,52.524 C10.8612,50.9616 10.4868,49.3524 9.486,48.1428 C8.53860192,47.0844342 7.27685818,46.3576698 5.886,46.0692 C4.554,45.72 3.3624,46.08 1.9584,46.0584 Z" id="Path" fill="#5B5583"></path>
                                <path d="M1.9584,46.0584 C1.5984,46.6128 1.5984,47.304 1.5984,47.9556 C1.5984,51.1416 1.6308,54.3456 2.1024,57.4992 C2.214,58.2552 2.3544,59.0112 2.4264,59.7744 C2.50799828,60.8367903 2.52482943,61.9031637 2.4768,62.9676 L2.1168,76.8276 C2.0736,78.5232 1.9872,80.3448 0.9396,81.6768 C0.621943869,82.1233197 0.472719636,82.6679244 0.5184,83.214 C0.792,86.6916 1.368,90.1404 1.9404,93.5784 C3.80986681,92.7351539 5.97009944,92.8382133 7.7508,93.8556 C9.56714624,88.1444641 10.5717726,82.2063828 10.7352,76.2156 C10.818,73.2672 10.692,70.3008 11.1456,67.3884 C11.9052,62.4852 11.5956,57.456 11.0376,52.524 C10.8612,50.9616 10.4868,49.3524 9.486,48.1428 C8.53860192,47.0844342 7.27685818,46.3576698 5.886,46.0692 C4.554,45.72 3.3624,46.08 1.9584,46.0584 Z" id="Path" fill="#000000" opacity="0.1"></path>
                                <path d="M6.3576,86.2524 C3.94316776,98.6253459 5.2614007,111.436766 10.1448,123.0588 C10.5667019,123.919141 10.8625368,124.835744 11.0232,125.7804 C11.2212,127.5444 10.4076,129.24 9.9432,130.9464 C8.8632,134.8272 9.486,138.96 10.1772,142.9308 C10.4652,144.5868 10.7616,146.2416 11.0664,147.8952 C11.3652,149.508 11.6532,151.2612 10.9044,152.7228 C11.5488,155.4084 11.9304,158.0688 12.5748,160.7544 C12.6431212,160.966884 12.6640119,161.191767 12.636,161.4132 C12.5061542,161.764636 12.277344,162.070966 11.9772,162.2952 C11.0000272,163.28593 10.6182057,164.718787 10.9728,166.0644 C12.618,164.8836 14.9112,165.2976 16.7904,166.0644 C18.6696,166.8312 20.52,167.8644 22.5504,167.8644 C22.2552,165.4812 21.9708,162.9792 22.8492,160.7436 C23.3604,159.4476 24.2604,158.2236 24.2352,156.8376 C24.21,155.5956 23.4504,154.4868 23.2668,153.2592 C23.1985644,152.49542 23.2275966,151.726066 23.3532,150.9696 C23.8356,146.5632 23.2884,142.1136 22.7412,137.7144 C22.6793309,136.846891 22.474996,135.995495 22.1364,135.1944 C21.8808,134.676 21.4992,134.1792 21.5064,133.5996 C21.5064,132.9264 22.05,132.3792 22.2516,131.7384 C22.6116,130.5576 21.9492,128.952 22.9464,128.2212 C25.5744,126.2916 24.5664,121.6836 24.5088,118.4256 C24.4632,115.6152 24.3432,112.8072 24.1488,110.0016 C25.8034277,114.654091 26.4799412,119.598032 26.136,124.524 C26.0208,126.1368 25.8084,127.8324 26.4384,129.3228 C26.9208,130.4676 27.8784,131.4108 28.1376,132.624 C28.2996,133.3728 28.1844,134.1468 28.2204,134.91 C28.2564,135.6732 28.5156,136.5048 29.1744,136.89 C29.2248,140.3604 29.5344,144.072 29.5884,147.5424 C29.5533748,149.316461 29.6981133,151.089508 30.0204,152.8344 C30.1819789,153.389429 30.2715132,153.962932 30.2868,154.5408 C30.2056,155.265362 30.0137706,155.973189 29.718,156.6396 C28.4441136,160.411447 29.1179796,164.5692 31.518,167.7456 C32.3676,166.2372 34.1388,165.438 35.8668,165.312 C37.5948,165.186 39.3012,165.6216 40.9752,166.0608 C40.7192575,163.957402 41.137763,161.827057 42.1704,159.9768 C42.4472431,159.559831 42.6596306,159.103501 42.8004,158.6232 C42.9948,157.7088 42.5412,156.798 42.2964,155.8944 C41.8968,154.4544 42.0372,152.9028 42.1308,151.398 C42.4449421,146.358219 42.2216842,141.299315 41.4648,136.3068 C41.3479269,135.323407 41.1171795,134.356926 40.7772,133.4268 C40.6476,133.0956 40.4892,132.7788 40.3812,132.444 C40.2113051,131.843444 40.1146042,131.224558 40.0932,130.6008 L39.6792,124.8408 C39.3876,120.8052 40.7124,116.82 41.6376,112.8816 C42.0516,111.1176 42.5016,109.3572 42.7788,107.5644 C43.1568,105.1236 43.218,102.6288 43.7724,100.2204 C44.2692,98.0604 45.1656,95.9544 45.3528,93.7404 C45.6408,90.3096 44.2152,86.994 42.8328,83.8476 C42.2568,82.5516 40.0788,82.6812 38.6784,82.4508 C28.746,80.82 18.2844,80.8092 8.9172,84.4848 C7.94847755,84.8861367 7.07603234,85.488627 6.3576,86.2524 Z" id="Path" fill="#3C354C"></path>
                                <path d="M13.518,22.356 L14.6196,26.64 C14.9190761,27.6225049 15.084965,28.6408444 15.1128,29.6676 C15.1241771,30.0421246 15.0412362,30.4135017 14.8716,30.7476 C14.6903057,31.0219553 14.4581192,31.2590299 14.1876,31.446 C13.4352,32.0184 12.9132,33.354 12.0528,33.75 C12.4956,34.5204 13.1076,34.02 13.9068,34.4052 C15.3144,35.0892 16.6032,36.072 18.1296,36.4104 C19.5696,36.7272 21.0816,36.4284 22.5108,36.0504 C24.5376,35.4996 26.5536,34.74 28.1844,33.4116 C29.8152,32.0832 30.744,30.9096 30.7368416,28.8108 C28.9368,29.0232 27.3348,27.2052 26.5392,25.5708 C26.2633495,24.9495237 26.0603968,24.2983839 25.9344,23.6304 L24.9696,19.386 C23.9184,19.6164 23.0616,20.3688 22.0572,20.7612 C21.0528,21.1536 19.8648,21.1896 18.7488,21.24 C16.7677861,21.330104 14.7977483,21.58539 12.8592,22.0032 C12.5928,22.0572 12.258,22.2264 12.3228,22.4856" id="Path" fill="#FBB3B2"></path>
                                <path d="M13.518,22.356 L14.6196,26.64 C14.9190761,27.6225049 15.084965,28.6408444 15.1128,29.6676 C15.1241771,30.0421246 15.0412362,30.4135017 14.8716,30.7476 C14.6903057,31.0219553 14.4581192,31.2590299 14.1876,31.446 C13.4352,32.0184 12.9132,33.354 12.0528,33.75 C12.4956,34.5204 13.1076,34.02 13.9068,34.4052 C15.3144,35.0892 16.6032,36.072 18.1296,36.4104 C19.5696,36.7272 21.0816,36.4284 22.5108,36.0504 C24.5376,35.4996 26.5536,34.74 28.1844,33.4116 C29.8152,32.0832 30.744,30.9096 30.7368416,28.8108 C28.9368,29.0232 27.3348,27.2052 26.5392,25.5708 C26.2633495,24.9495237 26.0603968,24.2983839 25.9344,23.6304 L24.9696,19.386 C23.9184,19.6164 23.0616,20.3688 22.0572,20.7612 C21.0528,21.1536 19.8648,21.1896 18.7488,21.24 C16.7677861,21.330104 14.7977483,21.58539 12.8592,22.0032 C12.5928,22.0572 12.258,22.2264 12.3228,22.4856" id="Path" fill="#000000" opacity="0.1"></path>
                                <circle id="Oval" fill="#FBB3B2" cx="18.2484" cy="15.1848" r="9.5328"></circle>
                                <path d="M20.8728,30.8988 C21.3825947,29.7977851 22.1185682,28.816487 23.0328,28.0188 C24.3756,26.8416 26.2116,25.8876 26.5284,24.1308 L29.4372,27.5184 C29.5952806,27.6754796 29.7180145,27.8644898 29.7972,28.0728 C29.8713977,28.4679842 29.7716956,28.8759755 29.5236,29.1924 C28.8036,30.3408 27.6696,31.1616 26.5968,31.9932 C24.1378804,33.9409074 21.7837868,36.0174126 19.5444,38.214 C19.4457221,38.3285902 19.3134691,38.4092016 19.1664,38.4444 C19.0272641,38.4482119 18.8903061,38.4092606 18.774,38.3328 C16.8418593,37.3183068 15.1319693,35.9278737 13.7448,34.2432 C13.6404,34.1172 13.5108,33.9732 13.3416,33.984 C13.2395806,34.0027343 13.1455271,34.0516421 13.0716,34.1244 C12.1032,34.9164 11.0448,35.8632 9.8028,35.7408 C11.412,34.5852 12.3228,32.6556 12.6612,30.7008 C12.7281167,30.0317552 12.8656835,29.3716759 13.0716,28.7316 C13.2882462,28.081284 13.8147895,27.5817429 14.4756,27.3996 C13.6908,28.5984 14.2272,30.2976 15.282,31.266 C16.306833,32.1358812 17.5355326,32.7316519 18.8532,32.9976 C20.0772,33.228 20.4372,31.842 20.8728,30.8988 Z" id="Path" fill="#323444"></path>
                                <path d="M8.4708,87.2316 C9.828,87.5664 11.1132,88.1352 12.4308,88.5564 C14.8322192,89.3084481 17.3595071,89.5740275 19.8648,89.3376 C20.6359081,89.3206831 21.3858149,89.0819628 22.0248,88.65 C22.194,88.5132 22.3488,88.3512 22.5288,88.2252 C22.8298905,88.0445007 23.1562955,87.9098132 23.4972,87.8256 C26.7984,86.7924 29.5632,84.564 32.2452,82.3824 C32.3316,82.3104 32.4288,82.2204 32.4216,82.1052 C32.4092174,82.0267605 32.3712468,81.9546163 32.3136,81.9 L30.9024,80.28 C27.2016,80.91 23.4108,80.6724 19.656,80.5788 C18.8851217,80.5445677 18.1127864,80.565019 17.3448,80.64 C16.6032,80.7264 15.8724,80.9136 15.1416,81.072 C12.366,81.6768 9.5292,81.9072 6.7176,82.3032 C6.52089714,82.3177105 6.33007739,82.3768031 6.1596,82.476 C6.04104246,82.567694 5.93984792,82.6798614 5.8608,82.8072 L4.8744,84.1932 C4.49152749,84.6594109 4.20958179,85.2000112 4.0464,85.7808 C3.816,86.8608 4.2984,87.2208 5.2164,87.0804 C6.30085965,86.9216566 7.4057307,86.9729891 8.4708,87.2316 L8.4708,87.2316 Z" id="Path" fill="#323444"></path>
                                <path d="M19.5048,36.5652 C18.4035205,35.4367206 17.1550666,34.4619336 15.7932,33.6672 C15.2429967,33.3177397 14.6326302,33.0735931 13.9932,32.9472 C13.3419585,32.8186414 12.6672031,32.9846945 12.15,33.4008 C11.8296,33.6852 11.628,34.0812 11.3184,34.38 C10.9287775,34.7073331 10.4820995,34.9599625 10.0008,35.1252 C8.36204097,35.8254165 6.8087468,36.71077 5.3712,37.764 C4.58758861,38.3121591 3.88160672,38.9636484 3.2724,39.7008 C1.6416,41.7888 1.3968,44.6292 1.44,47.2788 C1.4724,49.122 3.24,50.49 4.4568,51.8688 C5.59804791,53.2256074 6.63083146,54.6700599 7.5456,56.1888 C8.2008,57.2256 8.8848,58.3488 8.802,59.5836 C8.7336,60.5952 8.1432,61.5456 8.2368,62.5536 C8.2692,62.9136 8.3844,63.2448 8.4168,63.594 C8.4816,64.314 8.1972,65.034 8.1252,65.754 C8.028,66.7728 8.3592,67.7844 8.3772,68.8104 C8.36398558,69.5127855 8.27466374,70.2116685 8.1108,70.8948 C7.4196,74.1852 6.552,77.4936 6.7284,80.8524 L4.734,81.2124 C5.11716277,81.5879232 5.29857144,82.1234819 5.22249994,82.6545605 C5.14642844,83.1856391 4.82197243,83.648738 4.3488,83.9016 C7.4628,84.942 10.8288,84.4164 14.13,84.4128 C16.8624,84.4128 19.584,84.7728 22.3128,84.7224 C25.0416,84.672 27.8568,84.1788 30.1068,82.6344 C30.7188,82.2168 31.2804,81.7272 31.9248,81.3636 C32.7879477,80.9163052 33.7180849,80.6123388 34.6788,80.4636 C36.4583603,80.1242057 38.2672598,79.9626107 40.0788,79.9812 C40.9644,79.9812 41.9292,80.0172 42.6348,79.4844 C43.4124,78.894 43.6104,77.8248 43.7148,76.8564 C43.8192,75.834 43.884,74.808 43.902,73.782 C43.9321791,72.9830306 43.8900072,72.1829692 43.776,71.3916 C43.6679342,70.8129342 43.5273108,70.2408253 43.3548,69.678 L41.9976,64.8972 C41.436,62.9244 42.2172,60.7608 42.3828,58.716 C42.4224,58.2336 42.4296,57.672 42.0588,57.3624 C41.9256,57.2508 41.742,57.1752 41.6988,57.0024 C41.6595942,56.8365724 41.6908766,56.6619119 41.7852,56.52 C42.5052,55.08 43.5852,53.8092 44.5716,52.5096 C46.2283294,50.2299979 47.7663727,47.8664579 49.1796,45.4284 C48.7370354,40.3266371 46.5887124,35.522713 43.0812,31.7916 C42.3612,31.0104 41.5368,30.2616 40.5288,29.9088 C39.8700829,29.7076201 39.1869631,29.5974004 38.4984,29.5812 C35.676,29.3904 32.7384,29.2212 30.2796,27.8028 C30.1031407,27.6805688 29.903387,27.5960105 29.6928,27.5544 C29.1492,27.4932 28.7532,28.0296 28.4004,28.4544 C27.4932,29.5344 26.1576,30.1536 24.984,30.9492 C22.7952,32.436 21.0852,34.4808 19.5048,36.5652 Z" id="Path" fill="#5B5583"></path>
                                <path d="M49.4244,46.9008 C49.986,48.6792 49.932,50.58 50.1156,52.434 C50.2243371,53.5528251 50.420537,54.661415 50.7024,55.7496 C50.8310901,56.3477067 51.0625182,56.9189688 51.3864,57.438 C51.7104,57.9132 52.1748,58.2984 52.38,58.8348 C52.492167,59.1982021 52.5420707,59.5779564 52.5276,59.958 L52.5708,62.442 C52.6632145,63.7583234 52.4628113,65.078771 51.984,66.3084 L50.4324,71.028 C49.5936,73.584 48.7332,76.1796 47.2212,78.4044 C47.0081796,78.7809374 46.6854347,79.0835891 46.296,79.272 C45.9911151,79.3525902 45.6785925,79.4008563 45.3636,79.416 C44.231454,79.6179324 43.4021406,80.5952835 43.3872,81.7452 C43.0269472,81.2187843 42.5773689,80.7594591 42.0588,80.388 L38.9016,77.868 C37.8216,76.9896 36.6948,76.0968 35.3844,75.5892 C38.9852212,74.4646722 41.5847325,71.3232431 42.0156,67.5756 C42.0144502,67.0294982 42.1375567,66.4902915 42.3756,65.9988 C42.6384,65.574 43.1244,65.25 43.1604,64.7496 C43.2036,64.1196 42.4908,63.6444 42.4908,63.0144 C42.4908,62.5968 42.8004,62.2512 42.9372,61.8588 C43.0650605,61.3738869 43.0650605,60.8641131 42.9372,60.3792 L42.5016,57.96 C42.4759202,57.7176031 42.4025091,57.4826877 42.2856,57.2688 C42.1226087,57.0637484 41.9419137,56.8734164 41.7456,56.7 C40.9968,55.8612 41.328,54.54 41.7456,53.5068 C42.7045627,51.213399 43.940115,49.0457422 45.4248,47.052 C45.9532737,46.3824977 46.4424943,45.6829243 46.89,44.9568 C47.2716,44.2944 47.358,43.3764 47.7612,42.7968 C48.2796,44.1576 48.9816,45.5004 49.4244,46.9008 Z" id="Path" fill="#5B5583"></path>
                                <path d="M35.2728,75.7368 C35.1121138,75.8560587 34.9732671,76.0022132 34.8624,76.1688 C34.4382464,76.7012894 33.8732506,77.1041452 33.2316,77.3316 C33.5916,77.5908 33.9192,77.8464 34.2576,78.1092 C36.7613973,80.0428658 39.0540986,82.2354122 41.0976,84.6504 C41.3244,83.8404 42.6816,83.898 43.0128,83.124 C43.090797,82.9024624 43.1154643,82.6656565 43.0848,82.4328 C43.0160139,81.2201084 42.8425688,80.0156285 42.5664,78.8328 C42.4573946,78.2238291 42.2111723,77.6476688 41.8464,77.148 C41.3424,76.5396 40.5576,76.248 39.8088,75.996 C38.6748,75.6 36.4248,75.042 35.2728,75.7368 Z" id="Path" fill="#323444"></path>
                                <path d="M30.7728,78.5664 C29.6928,79.3656 28.746,80.3664 27.5328,80.9136 C26.676,81.3024 25.7004,81.4716 24.9516,82.0512 C25.3584,82.9476 26.4168,83.412 27.3996,83.376 C28.3832972,83.2793705 29.326154,82.9336977 30.1392,82.3716 C30.7836,81.9756 31.5396,81.5148 32.2416,81.792 C32.3496,82.3392 31.8816,82.854 31.8816,83.4084 C31.8816,83.9628 32.3424,84.366 32.796,84.6576 C34.956,86.0508 37.7352,85.9356 40.3092,85.7736 C40.4568615,85.7790875 40.6022617,85.7360996 40.7232,85.6512 C40.8359101,85.5196715 40.8916122,85.3486789 40.878,85.176 C40.9104,84.6072 40.9248,84.042 40.9284,83.4732 C41.0769598,82.5368733 40.6698962,81.5992234 39.8844,81.0684 C38.4875897,79.8676843 36.9809567,78.8009881 35.3844,77.8824 C33.8004,76.9644 32.1948,77.508 30.7728,78.5664 Z" id="Path" fill="#FBB3B2"></path>
                                <path d="M21.5964,11.1996 C19.998,11.3904 18.8352,12.6396 18.9972,13.9968 C19.1592,15.354 20.5848,16.29 22.1832,16.0956 C23.7816,15.9012 24.9444,14.6556 24.7824,13.302 C24.6204,11.9484 23.1948,11.0088 21.5964,11.1996 Z M22.14,15.7212 C20.7864,15.8832 19.5804,15.0876 19.44,13.9428 C19.2996,12.798 20.2896,11.7396 21.6396,11.5776 C22.9896,11.4156 24.1992,12.2112 24.3396,13.356 C24.48,14.5008 23.49,15.5592 22.14,15.7212 L22.14,15.7212 Z" id="Shape" fill="#3C354C"></path>
                                <path d="M13.806,12.1356 C12.2076,12.3264 11.0448,13.5756 11.2068,14.9292 C11.3688,16.2828 12.7944,17.2224 14.3928,17.0316 C15.9912,16.8408 17.154,15.5916 16.992,14.2344 C16.83,12.8772 15.4044,11.9448 13.806,12.1356 Z M14.3496,16.6536 C12.996,16.8156 11.79,16.02 11.6532,14.8788 C11.5164,13.7376 12.4992,12.6756 13.8528,12.51 C15.2064,12.3444 16.4124,13.1436 16.5492,14.2884 C16.686,15.4332 15.6996,16.4916 14.3496,16.6536 Z" id="Shape" fill="#3C354C"></path>
                                <polygon id="Path" fill="#3C354C" points="8.0208 12.8304 11.4948 13.572 11.1528 14.4864 7.8768 13.5252"></polygon>
                                <polygon id="Path" fill="#3C354C" points="27.3852 10.5048 24.1812 12.0492 24.732 12.8556 27.6876 11.1456"></polygon>
                                <polygon id="Path" fill="#3C354C" points="16.6716 13.3416 19.1088 13.05 18.9828 13.6548 16.8912 13.7952"></polygon>
                                <path d="M11.9448,12.5244 C12.1741267,12.0311615 12.2967987,11.4950851 12.3048,10.9512 C12.3133372,10.625665 12.3691197,10.3030967 12.4704,9.9936 C12.647362,9.60052358 12.9165853,9.25596716 13.2552,8.9892 C14.3784,8.0388 15.9876,7.5492 17.5752,7.4808 C19.3062933,7.40115886 21.0283174,7.77335427 22.572,8.5608 C23.0435387,8.78172844 23.4658932,9.09512775 23.814,9.4824 C24.318,10.098 24.426,10.8936 24.9336,11.502 C25.6381944,12.2528418 26.6841327,12.5805509 27.6912,12.366 C27.8676,11.7396 27.6372,11.0772 27.7272,10.4364 C27.8690508,9.8873189 28.0606431,9.35230663 28.2996,8.838 C28.8576,7.1928 28.044,5.2848 26.3664,4.302 C25.7796,3.942 25.0848,3.708 24.6456,3.222 C24.2064,2.736 24.102,2.232 23.7996,1.746 C22.9968,0.4608 20.9196,-0.1404 19.3392,0.4536 C18.8424,0.6408 18.4032,0.9252 17.8992,1.1268 C16.9632,1.512 15.8976,1.5804 14.868,1.71 C13.8531527,1.80382497 12.8606783,2.06410624 11.9304,2.4804 C11.0412,2.9196 10.296,3.6252 10.0908,4.4676 C9.9936,4.8564 10.0152,5.2596 9.918,5.6448 C9.4212,7.5996 6.2136,8.55 6.0336,10.5444 C5.9688,11.2644 6.3612,11.9556 6.8508,12.5424 C7.1892,12.942 7.9992,14.0112 8.5716,14.166 C9.144,14.3208 9.5796,13.7772 10.1268,13.59 C10.9908,13.32 11.5128,13.2624 11.9448,12.5244 Z" id="Path" fill="#CBCEDA"></path>
                            </g>
                            <path d="M283.3164,192.6 C283.3164,210.6864 294.6636,225.324 308.6856,225.324" id="Path" fill="#46455B"></path>
                            <path d="M308.6856,225.3276 C308.6856,207.036 321.3504,192.2364 336.9996,192.2364" id="Path" fill="#E35205"></path>
                            <path d="M292.5108,194.2416 C292.5108,211.4244 299.7468,225.3276 308.6856,225.3276" id="Path" fill="#E35205"></path>
                            <path d="M308.6856,225.3276 C308.6856,201.9564 323.3232,183.042 341.4096,183.042" id="Path" fill="#46455B"></path>
                            <ellipse id="Oval" fill="#E35205" opacity="0.1" cx="307.5876" cy="230.5116" rx="6.3072" ry="1.0656"></ellipse>
                            <path d="M303.3504,225.558 C303.3504,225.558 306.9504,225.4464 308.0304,224.676 C309.1104,223.9056 313.5636,222.9804 313.8336,224.2188 C314.1036,225.4572 319.2336,230.3784 315.1764,230.4108 C311.1192,230.4432 305.7372,229.7772 304.6572,229.1184 C303.5772,228.4596 303.3504,225.558 303.3504,225.558 Z" id="Path" fill="#A8A8A8"></path>
                            <path d="M315.252,229.9788 C311.1912,230.0112 305.8164,229.3452 304.7328,228.6864 C303.9084,228.186 303.5808,226.3824 303.4692,225.5544 L303.3504,225.5544 C303.3504,225.5544 303.5772,228.456 304.6608,229.1148 C305.7444,229.7736 311.1192,230.4396 315.18,230.4072 C316.3536,230.4072 316.7568,229.9788 316.7352,229.3632 C316.5732,229.7376 316.1448,229.9716 315.252,229.9788 Z" id="Path" fill="#000000" opacity="0.2"></path>
                            <path d="M8.0964,203.1696 C8.0964,217.5696 17.1216,229.2048 28.278,229.2048" id="Path" fill="#46455B"></path>
                            <path d="M28.278,229.2048 C28.278,214.6536 38.358,202.878 50.8032,202.878" id="Path" fill="#E35205"></path>
                            <path d="M15.408,204.48 C15.408,218.16 21.168,229.212 28.278,229.212" id="Path" fill="#E35205"></path>
                            <path d="M28.278,229.2048 C28.278,210.6108 39.924,195.5628 54.3132,195.5628" id="Path" fill="#46455B"></path>
                            <ellipse id="Oval" fill="#E35205" opacity="0.1" cx="27.4032" cy="233.3304" rx="5.0184" ry="1"></ellipse>
                            <path d="M24.0336,229.3884 C24.0336,229.3884 26.8956,229.2984 27.756,228.6684 C28.6164,228.0384 32.1624,227.3184 32.3748,228.3084 C32.5872,229.2984 36.6768,233.208 33.4548,233.2332 C30.2328,233.2584 25.9452,232.7292 25.0848,232.2072 C24.2244,231.6852 24.0336,229.3884 24.0336,229.3884 Z" id="Path" fill="#A8A8A8"></path>
                            <path d="M33.5016,232.92 C30.2616,232.9452 25.992,232.416 25.1316,231.8904 C24.4764,231.4944 24.2172,230.058 24.1272,229.3992 L24.0336,229.3992 C24.0336,229.3992 24.2136,231.7068 25.074,232.2324 C25.9344,232.758 30.2148,233.2836 33.444,233.2584 C34.3764,233.2584 34.7004,232.92 34.6824,232.4268 C34.5528,232.7148 34.1964,232.8984 33.5016,232.92 Z" id="Path" fill="#000000" opacity="0.2"></path>
                            <g id="Board_Drawing" transform="translate(63.360000, 29.160000)">
                                <g id="Group-6" transform="translate(62.280000, 0.000000)" fill="#E35205">
                                    <path d="M0.81488234,61.6640148 C5.13488234,59.0216148 8.56928234,55.0796148 12.3852823,51.7820148 C16.5252823,48.2072148 20.8704823,44.8772148 25.3452823,41.7236148 C34.0356823,35.6036148 43.1616823,30.1280148 52.2804823,24.6668148 C52.526088,24.5114427 52.6046734,24.189555 52.4582964,23.9384845 C52.3119194,23.6874141 51.9930884,23.5972248 51.7368823,23.7344148 C42.6180823,29.1956148 33.4884823,34.6604148 24.7980823,40.7912148 C20.6976823,43.6712148 16.6944823,46.7240148 12.8568823,49.9640148 C8.68088234,53.4920148 4.96208234,57.8840148 0.25688234,60.7316148 C-0.33711766,61.0916148 0.20648234,62.0276148 0.80048234,61.6640148 L0.81488234,61.6640148 Z" id="Path"></path>
                                    <path d="M66.2232823,7.89801476 C61.5432823,8.37321476 56.5032823,9.56481476 53.6232823,13.6580148 C51.1356823,17.1788148 51.1896823,23.3204148 53.5260823,26.9348148 C56.1792823,31.0424148 61.6008823,31.1900148 65.8128823,29.8616148 C70.0248823,28.5332148 74.3844823,26.2040148 74.3448823,21.1712148 C74.3232823,18.4712148 73.3476823,15.6596148 72.2712823,13.2116148 C71.3424823,11.0984148 69.6972823,9.25161476 67.2060823,9.48561476 C66.5184823,9.55041476 66.5112823,10.6304148 67.2060823,10.5656148 C70.5432823,10.2560148 71.6160823,14.2196148 72.4080823,16.7216148 C73.1280823,19.0580148 73.7940823,21.8228148 72.6636823,24.1448148 C71.5332823,26.4668148 68.8080823,27.6512148 66.4788823,28.5008148 C63.9588823,29.4152148 61.1904823,29.9732148 58.5588823,29.2208148 C53.3460823,27.7628148 51.9060823,21.1568148 53.4072823,16.4696148 C55.1352823,11.0696148 61.2552823,9.48201476 66.2412823,8.97801476 C66.9252823,8.90961476 66.9324823,7.82961476 66.2412823,7.89801476 L66.2232823,7.89801476 Z" id="Path"></path>
                                    <path d="M73.4232823,49.6580148 C68.7432823,50.1332148 63.7032823,51.3248148 60.8232823,55.4180148 C58.3356823,58.9388148 58.3896823,65.0804148 60.7260823,68.6948148 C63.3792823,72.8024148 68.8008823,72.9500148 73.0128823,71.6216148 C77.2248823,70.2932148 81.5844823,67.9640148 81.5448823,62.9312148 C81.5232823,60.2312148 80.5476823,57.4196148 79.4712823,54.9716148 C78.5424823,52.8584148 76.8972823,51.0116148 74.4060823,51.2456148 C73.7184823,51.3104148 73.7112823,52.3904148 74.4060823,52.3256148 C77.7432823,52.0160148 78.8160823,55.9796148 79.6080823,58.4816148 C80.3280823,60.8180148 80.9940823,63.5828148 79.8636823,65.9048148 C78.7332823,68.2268148 76.0080823,69.4112148 73.6788823,70.2608148 C71.1588823,71.1752148 68.3904823,71.7332148 65.7588823,70.9808148 C60.5460823,69.5228148 59.1060823,62.9168148 60.6072823,58.2296148 C62.3352823,52.8296148 68.4552823,51.2420148 73.4412823,50.7380148 C74.1252823,50.6696148 74.1324823,49.5896148 73.4412823,49.6580148 L73.4232823,49.6580148 Z" id="Path"></path>
                                    <path d="M59.1636823,18.4136148 L62.5728823,22.3016148 C62.710154,22.434092 62.9068243,22.484916 63.091093,22.435532 C63.2753616,22.386148 63.4202576,22.2437842 63.4728823,22.0604148 C64.1928823,20.1668148 64.0560823,18.2048148 64.2252823,16.2140148 C64.4118475,14.1563905 64.9284573,12.1422203 65.7552823,10.2488148 C67.4162049,6.40845423 70.2322753,3.18092054 73.8120823,1.01481476 C74.4060823,0.654814756 73.8624823,-0.281185244 73.2684823,0.0824147555 C69.7387172,2.20790426 66.9070523,5.31860638 65.1216823,9.03201476 C64.2477135,10.8390141 63.6413599,12.7635805 63.3216823,14.7452148 C62.9616823,17.0816148 63.2892823,19.5296148 62.4252823,21.7724148 L63.3288823,21.5312148 L59.9376823,17.6504148 C59.4768823,17.1284148 58.7172823,17.8952148 59.1744823,18.4136148 L59.1636823,18.4136148 Z" id="Path"></path>
                                    <path d="M2.55368234,65.8724148 C21.1224823,65.3060148 39.6960823,65.1860148 58.2744823,65.5124148 C58.9692823,65.5124148 58.9692823,64.4324148 58.2744823,64.4324148 C39.7008823,64.1012148 21.1272823,64.2212148 2.55368234,64.7924148 C1.85888234,64.8140148 1.85528234,65.8940148 2.55368234,65.8724148 Z" id="Path"></path>
                                    <path d="M62.1552823,55.2236148 C68.5030019,57.7149536 74.6089546,60.782993 80.3964823,64.3892148 C80.9868823,64.7492148 81.5304823,63.8240148 80.9400823,63.4568148 C75.0763162,59.8060626 68.8895097,56.7018138 62.4576823,54.1832148 C61.8132823,53.9276148 61.5324823,54.9716148 62.1732823,55.2236148 L62.1552823,55.2236148 Z" id="Path"></path>
                                    <path d="M73.6824823,50.3312148 C67.2455246,57.8351835 63.5167793,67.2844657 63.0948823,77.1620148 C63.0660823,77.8568148 64.1460823,77.8568148 64.1748823,77.1620148 C64.5838323,67.5680575 68.2004954,58.3888575 74.4456823,51.0944148 C74.8956823,50.5688148 74.1360823,49.8020148 73.6824823,50.3312148 Z" id="Path"></path>
                                </g>
                                <g id="Tooth" transform="translate(0.000000, 9.720000)">
                                    <path d="M2.9448576,26.5201344 C9.1957248,43.4818368 -0.9180864,63.6731712 6.2883648,87.6116736 C7.385472,91.2344256 14.7574656,92.466144 14.8981248,87.6116736 C15.011136,83.7079488 15.2566848,73.2540672 17.6356224,67.8233088 C19.9620288,62.5131648 16.831584,64.5152256 32.4273024,46.376064 C32.5407744,46.514304 32.6575872,46.6529472 32.7777408,46.7919936 C49.607424,66.2917824 46.279296,64.07424 48.6584064,69.505344 C51.0375168,74.936448 51.2828928,85.3898112 51.395904,89.293536 C51.5365632,94.1481792 58.9085568,92.916288 60.005664,89.293536 C62.798112,83.1335616 63.1183104,57.0969216 60.005664,49.4436096 C56.8930176,41.7902976 57.510432,26.4173184 60.005664,19.4878656 C62.500896,12.5584128 59.7863808,1.9832256 56.413152,1.9832256 C41.11344,7.9233984 48.3729408,6.1822656 47.941632,5.8764096 C45.9983232,3.2107968 43.016832,-0.248832 38.8658304,0.0290304 C35.2705536,0.2697408 25.5011328,5.453568 23.5611072,8.1096768 C19.2260736,8.6266944 24.5265408,9.4905216 19.8913536,5.8764096 C17.4992832,4.0110336 9.7825536,6.4499328 5.7839616,8.1096768 C1.7853696,9.7694208 -3.3060096,9.5586048 2.9448576,26.5201344 Z" id="Path" stroke="#E35205" stroke-width="1.1332224" stroke-linecap="round" stroke-linejoin="round"></path>
                                    <path d="M6.3683712,30.0791232 C11.1169152,42.9637824 3.4338816,65.3220288 8.9085312,83.5068096 C9.7419456,86.2588224 11.9553408,86.1420096 12.062304,82.4542848 C12.148704,79.488864 12.3346368,71.5476672 14.1417792,67.42224 C15.908832,63.3883968 18.320256,55.77984 32.7215808,44.2141632 C47.6074368,59.7554496 50.7351168,63.2968128 52.5417408,67.42224 C54.3483648,71.5476672 54.53568,79.488864 54.62208,82.4542848 C54.7290432,86.1420096 56.8729728,85.2062976 57.7063872,82.4542848 C59.82768,77.7748608 60.0709824,57.9963456 57.7063872,52.1824896 C55.341792,46.3686336 55.810944,27.6706368 57.7063872,22.4068032 C59.6018304,17.1429696 58.0635648,9.7448832 52.7314752,9.5001984 C47.3993856,9.2555136 38.5549632,11.7504 35.401536,11.9608704 C19.1706048,14.9859072 16.3791936,12.512448 12.06144,11.9608704 C7.7436864,11.4092928 1.62,17.1936 6.3683712,30.0791232 Z" id="Path" stroke="#E35205" stroke-width="1.1332224" stroke-linecap="round" stroke-linejoin="round"></path>
                                    <path d="M11.0351808,34.9095744 C11.0351808,34.9095744 5.9126976,79.4641536 11.0351808,92.7446976 C11.7129024,94.9819392 10.9487808,78.07968 11.0351808,75.0817728 C11.1043008,72.67104 11.0638656,69.710112 12.5330112,66.3553728 C13.9696704,63.0761472 18.8448768,34.9087104 32.9249664,34.9087104 C47.005056,34.9087104 51.6417984,55.53792 54.3376512,66.3562368 C57.033504,77.1745536 55.1511936,97.907616 55.8287424,95.6703744 C57.5532864,91.8661824 59.1230016,61.5131712 57.2007744,56.7867456 C55.2785472,52.06032 52.4529216,40.7201472 52.8519168,33.0353856 C53.250912,25.350624 56.2538304,20.4748992 52.8519168,19.687968 C49.4500032,18.9010368 39.6436032,21.5167104 37.0801152,21.6884736 C23.8851072,24.1474176 21.244032,17.0149248 15.8226048,19.687968 C10.4011776,22.3610112 11.0351808,34.9095744 11.0351808,34.9095744 Z" id="Path" stroke="#E35205" stroke-width="1.1332224" stroke-linecap="round" stroke-linejoin="round"></path>
                                    <g id="Group" transform="translate(10.264320, 21.997440)" fill="#E35205">
                                        <path d="M39.4232832,18.0814464 C40.56048,22.6663488 40.9169664,23.6110464 41.2934976,24.6824064 C42.3994176,27.8316864 43.4585088,31.4316288 44.3790144,35.4234816 C47.0086848,46.8265536 48.0128256,59.0912064 46.674144,71.747424 L46.6209216,72.248544 L45.6169536,72.1424448 L45.6700032,71.640288 C46.9962432,59.1034752 46.001088,46.9494144 43.395264,35.649504 C42.4833984,31.6953216 41.4355392,28.1313216 40.341024,25.016256 C39.3278976,22.305888 38.57328,19.6789824 37.541664,18.0586368 C36.510048,16.4382912 33.524064,14.520384 31.2951168,11.6548416 C29.0661696,8.7892992 23.5832256,13.8682368 23.0319936,9.5770944 C22.4807616,5.285952 22.2215616,3.2698944 22.2215616,3.2698944 C22.2502464,1.2999744 22.7377152,1.4166144 23.2158528,2.0257344 C23.6939904,2.6348544 23.3039808,4.8468672 23.4097344,6.3066816 C23.515488,7.766496 24.4318464,8.0232768 24.4318464,8.0232768 L25.5351744,6.5947392 C25.5351744,6.5947392 28.0926144,3.6744192 28.7534016,3.5214912 C29.4141888,3.3685632 27.5994432,6.1147008 27.5994432,6.1147008 L24.6445632,9.9401472 C24.6445632,9.9401472 30.3562944,7.5914496 31.2712704,9.02016 C32.1862464,10.4488704 34.5387456,8.8105536 35.0901504,7.078752 C35.6415552,5.3469504 34.390656,3.5214912 34.390656,3.5214912 C34.390656,3.5214912 34.6457088,0.624672 35.3146176,0.1197504 C35.9835264,-0.3851712 35.4379968,0.8688384 35.3146176,2.6324352 C35.1912384,4.396032 35.4252096,5.1172992 36.3543552,5.58144 C37.2835008,6.0455808 39.5896896,4.2591744 39.5896896,4.2591744 C39.5896896,4.2591744 41.9278464,1.4646528 42.5300544,1.6939584 C43.1322624,1.923264 41.9059008,3.5548416 40.4203392,4.8269952 C38.9347776,6.0991488 38.6353152,5.9204736 37.1905344,7.0120512 C35.7457536,8.1036288 33.156,10.4658048 33.3360576,11.6885376 C33.5161152,12.9112704 36.7747776,15.5215872 37.2057408,15.6857472 C37.636704,15.8499072 39.760416,14.8604544 39.3657408,13.2643008 C38.9710656,11.6681472 37.176192,9.7910208 37.611648,9.4549248 C38.047104,9.1188288 40.8272832,12.656736 40.8272832,12.656736 C40.8272832,12.656736 39.4635456,16.0704 39.4232832,18.0814464 Z" id="Path"></path>
                                        <path d="M6.16896,18.0933696 C5.1820992,22.3893504 4.8648384,23.2763328 4.5309888,24.2822016 C3.5489664,27.2382912 2.81664,30.6612864 1.825632,34.35264 C-1.0295424,44.9829504 0.3298752,68.745888 0.3298752,68.745888 C0.3298752,68.745888 -0.9032256,46.2535488 2.74752,34.548768 C3.8746944,30.9341376 4.4540928,27.502848 5.4248832,24.579072 C6.326208,22.0339008 6.9875136,19.5709824 7.9240896,18.0423936 C8.8606656,16.5138048 11.6149248,14.6764224 13.6480896,11.9669184 C15.6812544,9.2574144 20.8789056,13.9072896 21.3236928,9.8947008 C21.76848,5.882112 21.977568,3.9965184 21.977568,3.9965184 C21.9189888,2.1584448 21.46608,2.2756032 21.0299328,2.8515456 C20.5937856,3.427488 20.9932992,5.4850176 20.918304,6.8485824 C20.8433088,8.2121472 19.99296,8.4672 19.99296,8.4672 L18.940608,7.1523648 C18.940608,7.1523648 16.5072384,4.4696448 15.8874048,4.33728 C15.2675712,4.2049152 17.0059392,6.7378176 17.0059392,6.7378176 L19.82448,10.259136 C19.82448,10.259136 14.4576576,8.1603072 13.627008,9.5081472 C12.7963584,10.8559872 10.57536,9.36576 10.0331136,7.75872 C9.4908672,6.15168 10.6282368,4.4286912 10.6282368,4.4286912 C10.6282368,4.4286912 10.3434624,1.7302464 9.7111872,1.27008 C9.078912,0.8099136 9.6075072,1.970784 9.7517952,3.614112 C9.8960832,5.25744 9.688896,5.9342976 8.8295616,6.3821952 C7.9702272,6.8300928 5.789664,5.20128 5.789664,5.20128 C5.789664,5.20128 3.563136,2.6310528 3.0048192,2.854656 C2.4465024,3.0782592 3.6173952,4.5807552 5.0238144,5.7436992 C6.4302336,6.9066432 6.7070592,6.7347072 8.0726976,7.7298624 C9.438336,8.7250176 11.8926144,10.8867456 11.7445248,12.0305088 C11.5964352,13.174272 8.598528,15.6622464 8.1988416,15.8222592 C7.7991552,15.982272 5.8021056,15.0937344 6.1435584,13.5981504 C6.4850112,12.1025664 8.1307584,10.322208 7.7184576,10.0156608 C7.3061568,9.7091136 4.7703168,13.05504 4.7703168,13.05504 C4.7703168,13.05504 6.098112,16.2171072 6.16896,18.0933696 Z" id="Path"></path>
                                    </g>
                                </g>
                            </g>
                        </g>
                    </g>
                </g>
            </g>
        </g>
    </g>
</svg>