<?xml version="1.0" encoding="UTF-8"?>
<svg width="290px" height="262px" viewBox="0 0 290 262" version="1.1" xmlns="http://www.w3.org/2000/svg" xmlns:xlink="http://www.w3.org/1999/xlink">
    <!-- Generator: Sketch 55.2 (78181) - https://sketchapp.com -->
    <title>Online_Portal</title>
    <desc>Created with Sketch.</desc>
    <defs>
        <linearGradient x1="50%" y1="0%" x2="50%" y2="100%" id="linearGradient-1">
            <stop stop-color="#F38A0C" offset="0%"></stop>
            <stop stop-color="#E35205" offset="100%"></stop>
        </linearGradient>
        <linearGradient x1="50%" y1="0%" x2="50%" y2="100%" id="linearGradient-2">
            <stop stop-color="#F38A0C" offset="0%"></stop>
            <stop stop-color="#E35205" offset="100%"></stop>
        </linearGradient>
        <linearGradient x1="50%" y1="0%" x2="50%" y2="100%" id="linearGradient-3">
            <stop stop-color="#F38A0C" offset="0%"></stop>
            <stop stop-color="#E35205" offset="100%"></stop>
        </linearGradient>
        <linearGradient x1="50%" y1="0%" x2="50%" y2="100%" id="linearGradient-4">
            <stop stop-color="#F38A0C" offset="0%"></stop>
            <stop stop-color="#E35205" offset="100%"></stop>
        </linearGradient>
    </defs>
    <g id="Page-1" stroke="none" stroke-width="1" fill="none" fill-rule="evenodd">
        <g id="Landing_Page_2" transform="translate(-455.000000, -4061.000000)">
            <g id="Benifits" transform="translate(273.000000, 3896.000000)">
                <g id="Online" transform="translate(182.000000, 165.500000)">
                    <g id="Online_Portal">
                        <circle id="Oval" fill="#E35205" opacity="0.14" cx="159.5" cy="130.5" r="130.5"></circle>
                        <g id="undraw_online_page_cq94" transform="translate(0.000000, 31.000000)" fill-rule="nonzero">
                            <path d="M30,166.725 C30,178.046836 23.2842712,182 15,182 C6.71572876,182 0,178.046836 0,166.725 C0,155.403165 15,141 15,141 C15,141 30,155.403162 30,166.725 Z" id="Path" fill="#F2F2F2"></path>
                            <polygon id="Path" fill="#3F3D56" points="14.2321985 180.018772 14.390929 170.603588 21 158.955654 14.4158338 169.126458 14.4872475 164.893079 19.0421235 156.465924 14.5061512 163.772658 14.5061512 163.772947 14.6345759 156.158646 19.5120138 149.449702 14.6546797 154.961333 14.7347952 141 14.2306982 159.482333 14.2721062 158.720065 9.31335257 151.40755 14.1925909 160.183608 13.730502 168.687366 13.7169994 168.461605 8 160.766366 13.6995961 169.258851 13.6416849 170.322326 13.631483 170.338225 13.6362839 170.425523 12.4639585 192 14.0302597 192 14.2180958 180.856487 19.9035892 172.384526"></polygon>
                            <ellipse id="Oval" fill="url(#linearGradient-1)" cx="43.5" cy="193" rx="41.5" ry="7"></ellipse>
                            <ellipse id="Oval" fill="url(#linearGradient-2)" cx="257.5" cy="190.5" rx="20.5" ry="3.5"></ellipse>
                            <rect id="Rectangle" fill="#F9F9F9" x="42" y="46" width="238" height="129"></rect>
                            <rect id="Rectangle" fill="#717171" x="42" y="36" width="238" height="12"></rect>
                            <circle id="Oval" fill="#E35205" cx="47" cy="41" r="2"></circle>
                            <circle id="Oval" fill="#E35205" cx="53" cy="41" r="2"></circle>
                            <circle id="Oval" fill="#E35205" cx="59" cy="41" r="2"></circle>
                            <rect id="Rectangle" fill="#000000" opacity="0.1" x="42" y="47" width="238" height="1"></rect>
                            <rect id="Rectangle" fill="#E35205" opacity="0.3" x="55" y="67" width="47" height="50"></rect>
                            <rect id="Rectangle" fill="url(#linearGradient-3)" x="58" y="63" width="47" height="50"></rect>
                            <rect id="Rectangle" fill="#E35205" opacity="0.3" x="228" y="66" width="36" height="38"></rect>
                            <rect id="Rectangle" fill="url(#linearGradient-4)" x="230" y="63" width="36" height="38"></rect>
                            <rect id="Rectangle" fill="#E35205" opacity="0.3" x="228" y="120" width="36" height="38"></rect>
                            <rect id="Rectangle" fill="url(#linearGradient-4)" x="230" y="117" width="36" height="38"></rect>
                            <rect id="Rectangle" fill="#E35205" x="122" y="63" width="90" height="3"></rect>
                            <rect id="Rectangle" fill="#E35205" x="122" y="74" width="90" height="3"></rect>
                            <rect id="Rectangle" fill="#E35205" x="122" y="84" width="90" height="3"></rect>
                            <rect id="Rectangle" fill="#E35205" x="122" y="94" width="90" height="3"></rect>
                            <rect id="Rectangle" fill="#E35205" x="122" y="104" width="90" height="3"></rect>
                            <rect id="Rectangle" fill="#E35205" x="122" y="114" width="90" height="3"></rect>
                            <rect id="Rectangle" fill="#E35205" x="122" y="124" width="90" height="3"></rect>
                            <rect id="Rectangle" fill="#E35205" x="122" y="134" width="90" height="3"></rect>
                            <rect id="Rectangle" fill="#E35205" x="122" y="145" width="90" height="3"></rect>
                            <rect id="Rectangle" fill="#E35205" x="122" y="155" width="90" height="3"></rect>
                            <circle id="Oval" fill="#A0616A" cx="37" cy="84" r="6"></circle>
                            <path d="M32.2006169,87 C32.2006169,87 32.2006169,93.7500015 31.0864197,94.5 C29.9722225,95.2500005 40,96 40,96 L40,87.3749998 L32.2006169,87 Z" id="Path" fill="#A0616A"></path>
                            <path d="M21,123.655194 C21,123.655194 27.7419387,132 29.1612897,132 C30.5806406,132 32,126.310347 32,126.310347 L25.2580641,121 L21,123.655194 Z" id="Path" fill="#A0616A"></path>
                            <path d="M55,87.5221583 L56.0465111,79.6527107 C56.0465111,79.6527107 56.7441878,68.7853806 58.8372099,71.4085278 C60.930232,74.031675 59.534884,80.027446 59.534884,80.027446 C59.534884,80.027446 60.581395,88.6463643 59.534884,89.7705702 C58.4883729,90.8947762 55,87.5221583 55,87.5221583 Z" id="Path" fill="#A0616A"></path>
                            <path d="M48.9682963,128.825049 L28.983451,127 C28.983451,127 26.3928156,139.045315 27.1330034,143.790436 C27.8731912,148.535557 28.243272,162.040913 28.243272,162.040913 C28.243272,162.040913 28.983451,186.49655 30.0937195,187.956587 C31.2039881,189.416624 34.9048861,189.051615 36.0151576,189.781634 C37.125429,190.511652 38.9758737,188.321597 38.9758737,187.956587 C38.9758737,187.591578 36.7553366,187.591578 37.8656051,185.401513 C38.9758737,183.211449 34.9048861,177.006294 36.0151576,174.086228 C37.125429,171.166162 38.9758737,167.151049 37.8656051,165.691011 C36.7553366,164.230974 38.6057842,145.615489 38.6057842,145.615489 C38.6057842,145.615489 47.8580278,158.755829 47.8580278,164.595995 C47.8580278,170.436161 47.1178488,183.941496 46.7477593,185.401537 C46.3776698,186.861577 46.0075773,187.226583 46.7477593,188.321611 C47.4879412,189.416639 48.2281173,190.51167 47.8580278,190.876685 C47.4879383,191.2417 54.519642,190.876685 54.519642,188.686626 C54.519642,186.496567 54.1495524,186.49657 54.8897315,184.671521 C55.6299105,182.846471 56,160.945905 56,160.945905 L48.9682963,128.825049 Z" id="Path" fill="#2F2E41"></path>
                            <path d="M31.1707328,92 L30.0731695,94.1730636 C30.0731695,94.1730636 18.3658534,97.7948344 18,105.400541 L27.8780489,121.698511 C27.8780489,121.698511 28.6097557,122.785042 28.2439023,123.509398 C27.8780489,124.233754 27.5121954,123.871575 27.8780489,124.958105 C28.2439023,126.044636 28.2439023,125.682459 28.2439023,126.406812 C28.2439023,127.131166 27.146342,126.768989 28.2439023,127.131166 C29.3414626,127.493343 27.8780489,127.131166 31.9024397,128.217696 C35.9268305,129.304227 48,128.942053 48,128.942053 L45.8048764,107.935787 L48,103.589672 L45.0731695,94.8974229 C45.0731695,94.8974229 43.2439023,94.5352461 42.146342,95.2595997 C41.0487816,95.9839533 39.5853592,94.5352461 39.5853592,94.5352461 C39.5853592,94.5352461 37.7560977,92 31.1707328,92 Z" id="Path" fill="#575A89"></path>
                            <path d="M44,95.6059262 L45.80678,95.240967 C45.80678,95.240967 53.0339058,93.0512117 53.3952618,91.2264126 C53.7566178,89.4016136 55.5633978,87.2118583 55.5633978,87.2118583 C55.5633978,87.2118583 61.3450966,85.7520214 60.9837406,90.4964942 C60.6223846,95.240967 59.1769606,96.7008039 58.4542401,97.4307224 C57.7315195,98.1606408 49.7816989,104 48.3362749,104 C46.8908509,104 44,95.6059262 44,95.6059262 Z" id="Path" fill="#575A89"></path>
                            <path d="M19.3823515,104 L18.6857575,105.473683 L18.3374605,118.736843 C18.3374605,118.736843 16.2476785,120.210526 17.2925695,120.947368 C18.3374605,121.684209 20.7755395,125 21.4721362,125 C22.168733,125 26,123.157893 26,122.421045 C26,121.684198 25.3034032,115.052625 25.3034032,115.052625 L19.3823515,104 Z" id="Path" fill="#575A89"></path>
                            <path d="M32.7739851,188 C32.7739851,188 32.7739851,191.749616 32.4121126,192.499537 C32.0502402,193.249459 31.3264953,196.999068 33.49773,196.999068 C34.7416201,197.017512 35.9750969,196.761895 37.1164572,196.249147 C37.1164572,196.249147 37.1164572,193.99938 38.2020745,193.624413 C39.2876918,193.249447 41.8208018,190.249767 40.7351902,189.499843 C39.6495786,188.749918 37.4783382,188 37.4783382,188 L32.7739851,188 Z" id="Path" fill="#2F2E41"></path>
                            <path d="M48.0105795,190.243797 C48.0105795,190.243797 45.7367757,195.479342 48.0105795,195.853296 C50.2843833,196.227251 53.3161177,195.853296 53.6950845,195.105361 C54.0740512,194.357426 54.8319848,193.609496 55.5899184,193.983462 C56.347852,194.357429 62.7902936,189.869834 60.5165048,189.121899 C59.1639043,188.674723 57.7004675,188.674723 56.347867,189.121899 L54.0740662,188 L48.0105795,190.243797 Z" id="Path" fill="#2F2E41"></path>
                            <path d="M37.5061847,91.6501429 C37.6114935,91.6434644 37.714285,91.6146973 37.808046,91.5656644 C37.9590716,91.4424215 38.0593634,91.2665964 38.0893564,91.0724893 L38.8469044,88.3533599 C39.1343475,87.3216208 39.5960203,86.1164795 40.632025,85.8983214 C40.8492035,85.8836023 41.0615048,85.8263598 41.2571755,85.7297627 C41.4869754,85.5106992 41.6109591,85.2009312 41.5966573,84.8815821 L41.9212457,81.3670095 C42.0090014,80.416813 42.0922522,79.428775 41.7650916,78.5338327 C41.2825041,77.2137289 39.9593819,76.3445699 38.5919727,76.0946796 C37.2245634,75.8447892 35.8159028,76.1242752 34.4848734,76.5282859 C32.4658002,77.1411393 30.3749175,78.196029 29.4977476,80.1377549 C28.9899108,81.2619062 28.9586459,82.5437169 29.0265399,83.7781002 C29.0964459,85.0491157 29.2709924,86.3446961 29.8475298,87.4757768 C30.1680807,88.0604906 30.5402137,88.6146077 30.9593738,89.1313458 C31.5855097,89.9524386 32.3535429,91.5577633 33.3898292,91.8641291 C34.5581024,92.2095189 36.3224169,91.8059005 37.5061847,91.6501429 Z" id="Path" fill="#2F2E41"></path>
                            <path d="M241,169 C241,180.054675 247.708986,189 256,189" id="Path" fill="#2F2E41"></path>
                            <path d="M256,189 C256,177.945312 263.60352,169 273,169" id="Path" fill="#E35205"></path>
                            <path d="M246,170 C246,180.501953 250.472656,189 256,189" id="Path" fill="#E35205"></path>
                            <path d="M256,189 C256,174.628903 264.94531,163 276,163" id="Path" fill="#2F2E41"></path>
                            <path d="M253,189.143909 C253,189.143909 255.149961,189.078703 255.797905,188.624395 C256.445849,188.170087 259.105091,187.627609 259.265831,188.356226 C259.426572,189.084843 262.496825,191.980043 260.069528,191.999316 C257.64223,192.01859 254.429574,191.627028 253.782869,191.239146 C253.136164,190.851264 253,189.143909 253,189.143909 Z" id="Path" fill="#A8A8A8"></path>
                            <path d="M260.113341,191.733128 C257.685874,191.753365 254.472994,191.342463 253.826247,190.935427 C253.333717,190.625445 253.13745,189.513178 253.071781,189 C253.026303,189.00202 253,189.00289 253,189.00289 C253,189.00289 253.136182,190.794544 253.782927,191.201581 C254.429671,191.608617 257.642546,192.019519 260.070021,191.999282 C260.770736,191.993444 261.012775,191.735859 260.999485,191.354366 C260.90214,191.584856 260.634891,191.72879 260.113341,191.733128 Z" id="Path" fill="#000000" opacity="0.2"></path>
                        </g>
                    </g>
                </g>
            </g>
        </g>
    </g>
</svg>