<?xml version="1.0" encoding="UTF-8"?>
<svg width="276px" height="262px" viewBox="0 0 276 262" version="1.1" xmlns="http://www.w3.org/2000/svg" xmlns:xlink="http://www.w3.org/1999/xlink">
    <!-- Generator: Sketch 55.2 (78181) - https://sketchapp.com -->
    <title>Sale_Support</title>
    <desc>Created with Sketch.</desc>
    <defs>
        <linearGradient x1="50%" y1="100%" x2="50%" y2="0.00661988614%" id="linearGradient-1">
            <stop stop-color="#808080" stop-opacity="0.25" offset="0%"></stop>
            <stop stop-color="#808080" stop-opacity="0.12" offset="54%"></stop>
            <stop stop-color="#808080" stop-opacity="0.1" offset="100%"></stop>
        </linearGradient>
        <linearGradient x1="50%" y1="99.9933801%" x2="50%" y2="0%" id="linearGradient-2">
            <stop stop-color="#808080" stop-opacity="0.25" offset="0%"></stop>
            <stop stop-color="#808080" stop-opacity="0.12" offset="54%"></stop>
            <stop stop-color="#808080" stop-opacity="0.1" offset="100%"></stop>
        </linearGradient>
        <linearGradient x1="50%" y1="99.9933801%" x2="50%" y2="0%" id="linearGradient-3">
            <stop stop-color="#808080" stop-opacity="0.25" offset="0%"></stop>
            <stop stop-color="#808080" stop-opacity="0.12" offset="54%"></stop>
            <stop stop-color="#808080" stop-opacity="0.1" offset="100%"></stop>
        </linearGradient>
    </defs>
    <g id="Page-1" stroke="none" stroke-width="1" fill="none" fill-rule="evenodd">
        <g id="Landing_Page_2" transform="translate(-838.000000, -4061.000000)">
            <g id="Benifits" transform="translate(273.000000, 3896.000000)">
                <g id="Support" transform="translate(565.000000, 165.500000)">
                    <g id="Sale_Support">
                        <circle id="Oval-Copy-4" fill="#E35205" opacity="0.14" cx="138.5" cy="130.5" r="130.5"></circle>
                        <g id="undraw_connecting_teams3_1pgn" transform="translate(0.000000, 55.000000)" fill-rule="nonzero">
                            <g id="Group" opacity="0.5" transform="translate(15.529730, 15.042735)" fill="url(#linearGradient-1)">
                                <ellipse id="Oval" cx="39.1011152" cy="39.2088889" rx="38.8286515" ry="38.8692398"></ellipse>
                            </g>
                            <ellipse id="Oval" fill="#F5F5F5" cx="55.3513514" cy="54.9059829" rx="38.3189189" ry="38.3589744"></ellipse>
                            <path d="M77.1405405,57.6881389 C77.1405405,70.43863 67.8720048,76.7179487 55.839169,76.7179487 C43.8063332,76.7179487 33.5621622,70.4438152 33.5621622,57.6881389 C33.5621622,44.9324625 43.3185155,34.5982906 55.3513514,34.5982906 C67.3841872,34.5982906 77.1405405,44.9324625 77.1405405,57.6881389 Z" id="Path" fill="#333333"></path>
                            <path d="M55.8285634,93.2649573 C63.4044789,93.2776118 70.8164698,90.9998985 77.1405405,86.7157094 C75.7089043,78.6961771 70.2760282,78.2222222 70.2760282,78.2222222 L40.2955723,78.2222222 C40.2955723,78.2222222 35.1668534,78.6530903 33.5621622,86.0317063 C40.0787847,90.7467404 47.8571819,93.2735379 55.8285634,93.2649573 L55.8285634,93.2649573 Z" id="Path" fill="#E35205"></path>
                            <path d="M50.0918919,69.1965812 L60.6108108,69.1965812 L60.6108108,78.7746773 C60.6108108,80.2301167 60.0830723,81.6254344 59.14453,82.6512556 C58.2059877,83.6770769 56.9342243,84.2486347 55.6112197,84.2393162 L55.0224914,84.2393162 C52.2934553,84.2169625 50.0918919,81.7769134 50.0918919,78.7746773 L50.0918919,69.1965812 Z" id="Path" fill="#000000" opacity="0.1"></path>
                            <path d="M51.0142988,69.1965812 L59.6608437,69.1965812 C60.1854961,69.1965812 60.6108108,69.6621455 60.6108108,70.2364481 L60.6108108,78.7875868 C60.6108108,80.2334753 60.0860906,81.620144 59.1520825,82.6425416 C58.2180745,83.6649392 56.9512878,84.2393162 55.6304009,84.2393162 L55.0401301,84.2393162 C52.3021404,84.2198902 50.0918919,81.7847483 50.0920007,78.7875868 L50.0920007,70.2515918 C50.0842171,69.6830436 50.4950638,69.2130789 51.0142988,69.1965812 Z" id="Path" fill="#FDA57D"></path>
                            <path d="M50.0918919,73.0614889 C53.4821536,73.9188973 57.213951,73.9255259 60.6108108,73.0801732 L60.6108108,72.2051282 L50.0918919,72.2051282 L50.0918919,73.0614889 Z" id="Path" fill="#000000" opacity="0.1"></path>
                            <ellipse id="Oval" fill="#FDA57D" cx="55.3513514" cy="57.9145299" rx="17.2810811" ry="17.2991453"></ellipse>
                            <path d="M36.5675676,58.6666667 C36.5675676,58.6666667 46.9058245,57.3908173 54.7367628,47.1633609 C54.7367628,47.1633609 65.0750197,58.7699743 72.2778621,57.494125 C72.2778621,57.494125 76.4567264,53.0209041 72.2778621,48.5476833 C68.0989979,44.0744625 64.8622776,38.4338653 59.3309809,39.1776803 C53.7996842,39.9214954 47.0071303,40.241749 44.0844579,42.9070862 C41.1617856,45.5724233 36.5675676,58.6666667 36.5675676,58.6666667 Z" id="Path" fill="#000000" opacity="0.1"></path>
                            <path d="M36.5675676,58.6666667 C36.5675676,58.6666667 46.9058245,57.3908173 54.7367628,47.1633609 C54.7367628,47.1633609 65.0750197,58.7699743 72.2778621,57.494125 C72.2778621,57.494125 76.4567264,53.0209041 72.2778621,48.5476833 C68.0989979,44.0744625 64.8622776,38.4338653 59.3309809,39.1776803 C53.7996842,39.9214954 47.0071303,40.241749 44.0844579,42.9070862 C41.1617856,45.5724233 36.5675676,58.6666667 36.5675676,58.6666667 Z" id="Path" fill="#333333"></path>
                            <ellipse id="Oval" fill="#FDA57D" cx="38.0702703" cy="57.1623932" rx="1.5027027" ry="3.00854701"></ellipse>
                            <ellipse id="Oval" fill="#FDA57D" cx="72.6324324" cy="57.1623932" rx="1.5027027" ry="3.00854701"></ellipse>
                            <g id="Group" opacity="0.5" transform="translate(180.827027, 18.051282)" fill="url(#linearGradient-2)">
                                <ellipse id="Oval" cx="39.0240028" cy="38.8949708" rx="38.8286515" ry="38.8692398"></ellipse>
                            </g>
                            <ellipse id="Oval" fill="#F5F5F5" cx="219.145946" cy="56.4102564" rx="38.3189189" ry="38.3589744"></ellipse>
                            <path d="M219.630849,94.7692308 C227.204031,94.7818693 234.613347,92.5017114 240.935135,88.2129241 C239.509258,80.1847844 234.0731,79.7264957 234.0731,79.7264957 L204.087737,79.7264957 C204.087737,79.7264957 198.960869,80.1578263 197.356757,87.5443617 C203.877269,92.2619024 211.658682,94.7858681 219.630849,94.7692308 Z" id="Path" fill="#E35205"></path>
                            <ellipse id="Oval" fill="#72351C" cx="219.897297" cy="55.6581197" rx="18.0324324" ry="18.0512821"></ellipse>
                            <path d="M213.891084,72.2051282 L224.405405,72.2051282 L224.405405,81.7800769 C224.406623,83.2297587 223.884042,84.6205248 222.95275,85.6460793 C222.021457,86.6716338 220.757836,87.2478632 219.44018,87.2478632 L218.851709,87.2478632 C216.109493,87.2478632 213.886486,84.8021165 213.886486,81.785135 L213.886486,72.2051282 L213.891084,72.2051282 Z" id="Path" fill="#000000" opacity="0.1"></path>
                            <path d="M214.838154,70.7008547 L223.458335,70.7008547 C223.981388,70.7008547 224.405405,71.1675152 224.405405,71.74317 L224.405405,80.279024 C224.405405,81.728317 223.882285,83.1182506 222.951125,84.1430555 C222.019965,85.1678604 220.757041,85.7435897 219.440181,85.7435897 L218.85171,85.7435897 C217.534851,85.7435897 216.271927,85.1678604 215.340767,84.1430555 C214.409607,83.1182506 213.886486,81.728317 213.886486,80.279024 L213.886486,71.74317 C213.886486,71.1675152 214.310504,70.7008547 214.833557,70.7008547 L214.838154,70.7008547 Z" id="Path" fill="#FDA57D"></path>
                            <path d="M213.886486,76.070036 C217.276748,76.9274443 221.008546,76.9340729 224.405405,76.0887202 L224.405405,75.2136752 L213.886486,75.2136752 L213.886486,76.070036 Z" id="Path" fill="#000000" opacity="0.1"></path>
                            <ellipse id="Oval" fill="#FDA57D" cx="220.648649" cy="59.4188034" rx="17.2810811" ry="17.2991453"></ellipse>
                            <path d="M207.875676,44.5721582 C207.875676,44.5721582 214.953013,58.0175052 234.924324,50.214402 L230.276139,43.3860865 L222.035474,40.6153846 L207.875676,44.5721582 Z" id="Path" fill="#000000" opacity="0.1"></path>
                            <path d="M207.875676,44.5592453 C207.875676,44.5592453 214.953013,58.0260866 234.924324,50.2105091 L230.276139,43.3905158 L222.035474,40.6153846 L207.875676,44.5592453 Z" id="Path" fill="#72351C"></path>
                            <path d="M206.735465,43.6454787 C207.228551,42.1102151 208.080824,40.7162885 209.220727,39.5807302 C212.638626,36.1872245 218.229142,35.4680358 221.111834,31.5897436 C221.431668,32.1439297 221.502351,32.8085943 221.306281,33.4182298 C221.110211,34.0278653 220.665838,34.5251073 220.083815,34.7861382 C222.834031,34.7861382 226.02407,34.5250993 227.581996,32.2503318 C228.367852,34.0879562 228.029441,36.2163822 226.712949,37.7161666 C229.150519,37.8280405 231.757661,39.4901657 231.911333,41.9407349 C232.017315,43.5708962 230.999894,45.1371295 229.664529,46.0534293 C228.278435,46.9174795 226.73743,47.5002476 225.128527,47.7688278 C220.486544,48.7970014 203.709698,53.1068068 206.735465,43.6454787 Z" id="Path" fill="#72351C"></path>
                            <path d="M237.92973,60.1709402 L237.47094,60.1709402 L228.558817,67.7379054 C219.968374,63.8888424 213.666607,67.7379054 213.666607,67.7379054 L204.311514,60.4837081 L203.367568,60.5946902 C203.601183,69.6453831 211.401586,76.8326058 220.864883,76.7165631 C230.328181,76.6005205 237.933435,69.2243876 237.924456,60.1709402 L237.92973,60.1709402 Z M220.622281,70.6738878 C217.257823,70.6738878 214.536725,70.0231288 214.536725,69.2159859 C214.536725,68.4088429 217.263097,67.7580839 220.622281,67.7580839 C223.981466,67.7580839 226.707838,68.4088429 226.707838,69.2159859 C226.707838,70.0231288 223.981466,70.6738878 220.622281,70.6738878 L220.622281,70.6738878 Z" id="Shape" fill="#72351C"></path>
                            <ellipse id="Oval" fill="#FDA57D" cx="203.367568" cy="58.6666667" rx="1.5027027" ry="3.00854701"></ellipse>
                            <ellipse id="Oval" fill="#FDA57D" cx="237.92973" cy="58.6666667" rx="1.5027027" ry="3.00854701"></ellipse>
                            <g id="Group" opacity="0.5" transform="translate(99.681081, 81.230769)" fill="url(#linearGradient-3)">
                                <ellipse id="Oval" cx="39.0702703" cy="39.1059985" rx="38.8286515" ry="38.6151924"></ellipse>
                            </g>
                            <ellipse id="Oval" fill="#F5F5F5" cx="138" cy="119.589744" rx="38.3189189" ry="38.3589744"></ellipse>
                            <path d="M123.029767,121.846154 C123.029767,121.846154 118.634163,142.948233 116.210811,141.773057 C116.210811,141.773057 139.353301,161.245218 159.789189,141.773057 C159.789189,141.773057 156.190878,126.904522 150.992735,121.846154 L123.029767,121.846154 Z" id="Path" fill="#333333"></path>
                            <path d="M138.474647,157.948718 C146.051474,157.961386 153.464357,155.681224 159.789189,151.392428 C158.362625,143.364273 152.923851,142.905983 152.923851,142.905983 L122.945031,142.905983 C122.945031,142.905983 117.815695,143.337314 116.210811,150.723864 C122.72861,155.437165 130.505799,157.960928 138.474647,157.948718 Z" id="Path" fill="#E35205"></path>
                            <ellipse id="Oval" fill="#333333" cx="136.497297" cy="119.589744" rx="17.2810811" ry="17.2991453"></ellipse>
                            <path d="M132.745138,135.384615 L143.259459,135.384615 L143.259459,144.962785 C143.259459,147.976834 141.042056,150.421769 138.30343,150.42735 L137.705765,150.42735 C134.963547,150.42735 132.740541,147.980781 132.740541,144.962785 L132.740541,135.384615 L132.745138,135.384615 Z" id="Path" fill="#000000" opacity="0.1"></path>
                            <path d="M133.704737,133.880342 L142.313629,133.880342 C142.835997,133.880342 143.259459,134.347788 143.259459,134.924413 L143.259459,143.474645 C143.246815,146.489803 141.027623,148.925899 138.296146,148.923077 L137.699263,148.923077 C134.960636,148.923077 132.740541,146.472384 132.740541,143.449304 L132.740541,134.924413 C132.740541,134.347788 133.164003,133.880342 133.686371,133.880342 L133.704737,133.880342 Z" id="Path" fill="#BE7C5E"></path>
                            <path d="M132.740541,139.249523 C136.130802,140.106931 139.8626,140.11356 143.259459,139.268207 L143.259459,138.393162 L132.740541,138.393162 L132.740541,139.249523 Z" id="Path" fill="#000000" opacity="0.1"></path>
                            <ellipse id="Oval" fill="#BE7C5E" cx="136.497297" cy="122.598291" rx="17.2810811" ry="17.2991453"></ellipse>
                            <path d="M119.216216,117.333333 L153.778378,117.333333 C153.778378,117.333333 150.825387,102.917514 137.741535,103.837065 C124.657683,104.756616 119.216216,117.333333 119.216216,117.333333 Z" id="Path" fill="#333333"></path>
                            <ellipse id="Oval" fill="#BE7C5E" cx="120.718919" cy="123.350427" rx="1.5027027" ry="3.00854701"></ellipse>
                            <ellipse id="Oval" fill="#BE7C5E" cx="153.778378" cy="123.350427" rx="1.5027027" ry="3.00854701"></ellipse>
                            <path d="M120.718919,117.333333 L153.778378,117.333333 C153.778378,117.333333 150.953778,104.519271 138.438789,105.33665 C125.9238,106.154029 120.718919,117.333333 120.718919,117.333333 Z" id="Path" fill="#000000" opacity="0.1"></path>
                            <path d="M138,85.5063127 C157.634023,85.5063127 173.550543,101.439471 173.550543,121.094017 C173.550543,140.748564 157.634023,156.681722 138,156.681722 C118.365977,156.681722 102.449457,140.748564 102.449457,121.094017 C102.449457,101.439471 118.365977,85.5063127 138,85.5063127 L138,85.5063127 Z M138,76.7179487 C113.517366,76.7179487 93.6702703,96.5857913 93.6702703,121.094017 C93.6702703,145.602243 113.517366,165.470085 138,165.470085 C162.482634,165.470085 182.32973,145.602243 182.32973,121.094017 C182.301272,96.5976009 162.470836,76.7464363 138,76.7179487 L138,76.7179487 Z" id="Shape" fill="#CCCCCC"></path>
                            <rect id="Rectangle" fill="#CCCCCC" x="131.237838" y="67.6923077" width="10.5189189" height="10.5299145"></rect>
                            <polygon id="Rectangle" fill="#CCCCCC" transform="translate(161.683283, 78.266866) rotate(-59.000000) translate(-161.683283, -78.266866) " points="156.243683 73.0980229 167.120344 73.1006955 167.122883 83.4357096 156.246222 83.4330371"></polygon>
                            <polygon id="Rectangle" fill="#CCCCCC" transform="translate(179.821561, 95.905964) rotate(-29.000000) translate(-179.821561, -95.905964) " points="174.380499 90.7386099 185.260185 90.7411769 185.262623 101.073317 174.382937 101.07075"></polygon>
                            <polygon id="Rectangle" fill="#CCCCCC" transform="translate(180.065159, 145.512387) rotate(-58.000000) translate(-180.065159, -145.512387) " points="174.897597 140.071391 185.230001 140.073975 185.232721 150.953384 174.900318 150.9508"></polygon>
                            <polygon id="Rectangle" fill="#CCCCCC" transform="translate(95.799659, 95.907900) rotate(-61.000000) translate(-95.799659, -95.907900) " points="90.6323054 90.4668383 100.964446 90.4692768 100.967013 101.348963 90.6348723 101.346524"></polygon>
                            <polygon id="Rectangle" fill="#CCCCCC" transform="translate(95.564803, 145.514175) rotate(-32.000000) translate(-95.564803, -145.514175) " points="90.123806 140.346613 101.003215 140.349334 101.005799 150.681737 90.1263904 150.679017"></polygon>
                            <polygon id="Rectangle" fill="#CCCCCC" transform="translate(113.936291, 78.263747) rotate(-31.000000) translate(-113.936291, -78.263747) " points="108.767447 72.8241474 119.102462 72.8266862 119.105134 83.7033471 108.77012 83.7008083"></polygon>
                            <rect id="Rectangle" fill="#CCCCCC" x="131.237838" y="165.470085" width="10.5189189" height="10.5299145"></rect>
                            <polygon id="Rectangle" fill="#CCCCCC" transform="translate(161.683620, 163.563980) rotate(-31.000000) translate(-161.683620, -163.563980) " points="156.514776 158.12438 166.849791 158.126919 166.852463 169.00358 156.517449 169.001041"></polygon>
                            <polygon id="Rectangle" fill="#CCCCCC" transform="translate(116.284893, 163.554256) rotate(-58.840695) translate(-116.284893, -163.554256) " points="110.818151 158.359635 121.749075 158.362329 121.751634 168.748876 110.82071 168.746182"></polygon>
                            <rect id="Rectangle" fill="#CCCCCC" x="81.6486486" y="115.82906" width="12.0216216" height="9.02564103"></rect>
                            <rect id="Rectangle" fill="#CCCCCC" transform="translate(186.837838, 120.341880) rotate(-180.000000) translate(-186.837838, -120.341880) " x="180.827027" y="115.82906" width="12.0216216" height="9.02564103"></rect>
                            <path d="M220.648649,22.3268255 C240.282671,22.3268255 256.199191,38.2599835 256.199191,57.9145299 C256.199191,77.5690763 240.282671,93.5022343 220.648649,93.5022343 C201.014626,93.5022343 185.098106,77.5690763 185.098106,57.9145299 C185.098106,38.2599835 201.014626,22.3268255 220.648649,22.3268255 L220.648649,22.3268255 Z M220.648649,13.5384615 C196.166015,13.5384615 176.318919,33.4063041 176.318919,57.9145299 C176.318919,82.4227557 196.166015,102.290598 220.648649,102.290598 C245.131282,102.290598 264.978378,82.4227557 264.978378,57.9145299 C264.949921,33.4181137 245.119485,13.5669491 220.648649,13.5384615 L220.648649,13.5384615 Z" id="Shape" fill="#CCCCCC"></path>
                            <rect id="Rectangle" fill="#CCCCCC" x="213.886486" y="4.51282051" width="10.5189189" height="10.5299145"></rect>
                            <polygon id="Rectangle" fill="#CCCCCC" transform="translate(243.837858, 14.640830) rotate(-59.000000) translate(-243.837858, -14.640830) " points="238.398258 9.4719871 249.274919 9.47465967 249.277458 19.8096738 238.400797 19.8070012"></polygon>
                            <polygon id="Rectangle" fill="#CCCCCC" transform="translate(261.980237, 32.285281) rotate(-29.000000) translate(-261.980237, -32.285281) " points="256.539175 27.1179276 267.41886 27.1204946 267.421299 37.4526351 256.541613 37.4500681"></polygon>
                            <polygon id="Rectangle" fill="#CCCCCC" transform="translate(262.216889, 81.892973) rotate(-58.000000) translate(-262.216889, -81.892973) " points="257.049326 76.4519762 267.38173 76.4545606 267.384451 87.3339694 257.052047 87.331385"></polygon>
                            <polygon id="Rectangle" fill="#CCCCCC" transform="translate(177.961086, 32.284236) rotate(-61.000000) translate(-177.961086, -32.284236) " points="172.793732 26.8431741 183.125873 26.8456126 183.12844 37.7252985 172.796299 37.72286"></polygon>
                            <polygon id="Rectangle" fill="#CCCCCC" transform="translate(177.717213, 81.890980) rotate(-32.000000) translate(-177.717213, -81.890980) " points="172.276216 76.7234183 183.155625 76.7261389 183.158209 87.0585426 172.2788 87.0558221"></polygon>
                            <polygon id="Rectangle" fill="#CCCCCC" transform="translate(196.094224, 14.637749) rotate(-31.000000) translate(-196.094224, -14.637749) " points="190.925381 9.19814927 201.260395 9.20068809 201.263068 20.077349 190.928054 20.0748102"></polygon>
                            <rect id="Rectangle" fill="#CCCCCC" x="213.886486" y="100.786325" width="10.5189189" height="10.5299145"></rect>
                            <polygon id="Rectangle" fill="#CCCCCC" transform="translate(243.841554, 99.943116) rotate(-31.000000) translate(-243.841554, -99.943116) " points="238.67271 94.5035163 249.007724 94.5060552 249.010397 105.382716 238.675383 105.380177"></polygon>
                            <polygon id="Rectangle" fill="#CCCCCC" transform="translate(198.666805, 99.379929) rotate(-58.840695) translate(-198.666805, -99.379929) " points="193.200064 94.1853092 204.130988 94.188003 204.133547 104.574549 193.202623 104.571856"></polygon>
                            <rect id="Rectangle" fill="#CCCCCC" x="165.8" y="52.6495726" width="12.0216216" height="9.02564103"></rect>
                            <rect id="Rectangle" fill="#CCCCCC" transform="translate(269.486486, 57.162393) rotate(-180.000000) translate(-269.486486, -57.162393) " x="263.475676" y="52.6495726" width="12.0216216" height="9.02564103"></rect>
                            <path d="M55.3978304,19.3182785 C55.8148441,19.3182785 56.2335811,19.3182785 56.6540413,19.3182785 C76.0610582,19.980152 91.3548275,36.0772274 91.023337,55.4928235 C90.6918464,74.9084195 74.8574871,90.4740247 55.4391871,90.4730088 C55.0221733,90.4730088 54.6034363,90.4730088 54.1829761,90.4730088 C34.7759593,89.8111353 19.48219,73.7140599 19.8136805,54.2984638 C20.145171,34.8828678 35.9795304,19.3172626 55.3978304,19.3182785 L55.3978304,19.3182785 Z M55.3978304,10.5299145 L55.3978304,10.5299145 C31.1849454,10.5299145 11.441507,29.9390083 11.0282143,54.1485225 C10.6149217,78.3580366 29.6843584,98.4298965 53.8831398,99.2562032 C54.400099,99.2562032 54.9170583,99.2820513 55.4340175,99.2820513 C79.5945299,99.2119001 99.2591596,79.8260458 99.6743984,55.6688437 C100.089637,31.5116416 81.1028757,11.4613989 56.9590473,10.5609323 C56.442088,10.5609323 55.9251288,10.5350842 55.4081695,10.5350842 L55.3978304,10.5299145 Z" id="Shape" fill="#CCCCCC"></path>
                            <polygon id="Rectangle" fill="#CCCCCC" transform="translate(56.003829, 5.614717) rotate(-88.010000) translate(-56.003829, -5.614717) " points="50.5661976 0.446345888 61.4412599 0.446555978 61.4414595 10.7830887 50.5663971 10.7828786"></polygon>
                            <polygon id="Rectangle" fill="#CCCCCC" transform="translate(81.000127, 12.780776) rotate(-57.010000) translate(-81.000127, -12.780776) " points="75.5603891 7.61197678 86.4372389 7.61474154 86.4398653 17.9495762 75.5630155 17.9468114"></polygon>
                            <polygon id="Rectangle" fill="#CCCCCC" transform="translate(98.511558, 31.048808) rotate(-27.010000) translate(-98.511558, -31.048808) " points="93.0704646 25.881596 103.950325 25.8840454 103.952652 36.2160204 93.0727915 36.213571"></polygon>
                            <polygon id="Rectangle" fill="#CCCCCC" transform="translate(97.034842, 80.631915) rotate(-56.010000) translate(-97.034842, -80.631915) " points="91.8671459 75.1909736 102.199732 75.1936392 102.202538 86.072856 91.869952 86.0701904"></polygon>
                            <polygon id="Rectangle" fill="#CCCCCC" transform="translate(14.540191, 28.128598) rotate(-59.010000) translate(-14.540191, -28.128598) " points="9.37269854 22.6875771 19.705012 22.6901155 19.707684 33.5696194 9.37537062 33.567081"></polygon>
                            <polygon id="Rectangle" fill="#CCCCCC" transform="translate(13.594197, 78.212441) rotate(-29.886527) translate(-13.594197, -78.212441) " points="8.13441285 73.0272279 19.0514887 73.0298522 19.0539817 83.3976538 8.13690585 83.3950294"></polygon>
                            <polygon id="Rectangle" fill="#CCCCCC" transform="translate(33.282198, 11.131073) rotate(-29.010000) translate(-33.282198, -11.131073) " points="28.1133205 5.69161444 38.4485076 5.69405344 38.4510751 16.5705323 28.115888 16.5680933"></polygon>
                            <polygon id="Rectangle" fill="#CCCCCC" transform="translate(52.605699, 103.439808) rotate(-88.010000) translate(-52.605699, -103.439808) " points="47.168068 98.271437 58.0431303 98.2716471 58.0433299 108.60818 47.1682676 108.60797"></polygon>
                            <polygon id="Rectangle" fill="#CCCCCC" transform="translate(78.034153, 98.036601) rotate(-29.010000) translate(-78.034153, -98.036601) " points="72.8652758 92.5971418 83.2004629 92.5995808 83.2030304 103.47606 72.8678433 103.473621"></polygon>
                            <polygon id="Rectangle" fill="#CCCCCC" transform="translate(30.320406, 96.371463) rotate(-57.010000) translate(-30.320406, -96.371463) " points="24.8806676 91.2026631 35.7575174 91.2054278 35.7601438 101.540262 24.883294 101.537498"></polygon>
                            <polygon id="Rectangle" fill="#CCCCCC" transform="translate(6.428378, 53.138763) rotate(1.990000) translate(-6.428378, -53.138763) " points="0.171063644 48.5177525 12.6858716 48.5175109 12.6856931 57.7597735 0.170885097 57.7600151"></polygon>
                            <polygon id="Rectangle" fill="#CCCCCC" transform="translate(104.855786, 56.536726) rotate(-178.010000) translate(-104.855786, -56.536726) " points="98.598471 51.9157152 111.113279 51.9154735 111.1131 61.1577362 98.5982924 61.1579778"></polygon>
                        </g>
                    </g>
                </g>
            </g>
        </g>
    </g>
</svg>