<?xml version="1.0" encoding="UTF-8"?>
<svg width="261px" height="262px" viewBox="0 0 261 262" version="1.1" xmlns="http://www.w3.org/2000/svg" xmlns:xlink="http://www.w3.org/1999/xlink">
    <!-- Generator: Sketch 55.2 (78181) - https://sketchapp.com -->
    <title>24-hr_Order</title>
    <desc>Created with Sketch.</desc>
    <g id="Page-1" stroke="none" stroke-width="1" fill="none" fill-rule="evenodd">
        <g id="Landing_Page_2" transform="translate(-656.000000, -4613.000000)">
            <g id="Benifits" transform="translate(273.000000, 3896.000000)">
                <g id="24-Hour" transform="translate(383.000000, 717.500000)">
                    <g id="24-hr_Order">
                        <circle id="Oval-Copy-7" fill="#E35205" opacity="0.14" cx="130.5" cy="130.5" r="130.5"></circle>
                        <g id="undraw_deliveries_131a-copy" transform="translate(130.500000, 133.000000) scale(-1, 1) translate(-130.500000, -133.000000) translate(3.000000, 43.000000)" fill-rule="nonzero">
                            <ellipse id="Oval" fill="#E35205" opacity="0.138857887" cx="127.5" cy="174" rx="127.5" ry="6"></ellipse>
                            <path d="M235,164.488178 C234.052971,166.631582 231.576911,167.588299 229.469566,166.625066 C227.36222,165.661832 226.421598,163.143404 227.368627,161 C227.7122,161.232251 228.021479,161.513118 228.287135,161.834129 C228.683764,162.328541 228.946195,162.886649 229.408431,163.350728 C230.264314,164.203057 231.645059,164.564008 232.873713,164.588273 C233.583798,164.597747 234.29381,164.564323 235,164.488178 L235,164.488178 Z" id="Path" fill="#000000" opacity="0.1"></path>
                            <path d="M234.676311,173.639439 C231.03401,173.666102 226.208691,173.106188 225.238382,172.572937 C224.501181,172.162334 224.203969,170.682562 224.107812,170 L224,170 C224,170 224.203969,172.380966 225.165536,172.932881 C226.127103,173.484796 230.958251,174.020714 234.603465,173.999384 C235.655361,173.999384 236.019591,173.647438 235.999194,173.140849 C235.862244,173.442136 235.460134,173.634107 234.676311,173.639439 Z" id="Path" fill="#000000" opacity="0.2"></path>
                            <polygon id="Path" fill="#E35205" points="121 168.47541 84.187251 176 83.3505976 175.916393 51 172.655738 51 131.688525 90.6015936 125 119.326693 128.344262 119.33506 128.52541 119.337849 128.61459"></polygon>
                            <polygon id="Path" fill="#000000" opacity="0.1" points="121 168.550631 83.8444444 176 83 175.917229 83 134.338714 119.319556 129"></polygon>
                            <polygon id="Path" fill="#000000" opacity="0.05" points="120 129.053125 119.988737 129.0625 83.6640548 135 51 132.5 90.9853085 125 119.988737 128.75 119.997184 128.953125"></polygon>
                            <polygon id="Path" fill="#AA936B" points="161 169.47541 124.187251 177 123.350598 176.916393 91 173.655738 91 132.688525 130.601594 126 159.326693 129.344262 159.33506 129.52541 159.337849 129.61459"></polygon>
                            <polygon id="Path" fill="#000000" opacity="0.1" points="162 170.550631 124.844444 178 124 177.917229 124 136.338714 160.319556 131"></polygon>
                            <polygon id="Path" fill="#000000" opacity="0.05" points="159 130.053125 158.988737 130.0625 122.664055 136 90 133.5 129.985309 126 158.988737 129.75 158.997184 129.953125"></polygon>
                            <polygon id="Path" fill="#AA936B" points="135 130.47541 98.187251 138 97.3505976 137.916393 65 134.655738 65 93.6885246 104.601594 87 133.326693 90.3442623 133.33506 90.5254098 133.337849 90.6145902"></polygon>
                            <polygon id="Path" fill="#000000" opacity="0.1" points="136 130.550631 98.8444444 138 98 137.917229 98 96.3387144 134.319556 91"></polygon>
                            <polygon id="Path" fill="#000000" opacity="0.05" points="134 90.053125 133.988737 90.0625 97.6640548 96 65 93.5 104.985309 86 133.988737 89.75 133.997184 89.953125"></polygon>
                            <polygon id="Path" fill="#AA936B" points="157 132.014447 138.068397 136 137.636947 135.954774 121 134.227701 121 112.541771 141.366107 109 156.139847 110.772299 156.145344 110.868405 156.145344 110.913631"></polygon>
                            <polygon id="Path" fill="#AA936B" opacity="0.1" points="157 132.035317 138.423361 136 138 135.955011 138 113.839951 156.161368 111"></polygon>
                            <polygon id="Path" fill="#000000" opacity="0.05" points="156 111.025733 155.99437 111.031718 137.04152 114 120 112.749252 140.861365 109 155.99437 110.876122 156 110.977858"></polygon>
                            <polygon id="Path" fill="#AA936B" points="105 90.0168569 86.0683969 94 85.6369466 93.9575961 69 92.2303424 69 70.5421422 89.3661069 67 104.139847 68.7724846 104.145344 68.8686001 104.145344 68.913831"></polygon>
                            <polygon id="Path" fill="#41392A" opacity="0.1" points="105 91.0376828 86.4233608 95 86 94.9578178 86 72.84027 104.161368 70"></polygon>
                            <polygon id="Path" fill="#000000" opacity="0.05" points="104 69.0257331 103.99437 69.0317175 85.0415201 72 68 70.7492519 88.8613652 67 103.99437 68.8761221 104 68.9778576"></polygon>
                            <polygon id="Path" fill="#E35205" points="139 89.0168569 120.068397 93 119.636947 92.9575961 103 91.2303424 103 69.5421422 123.366107 66 138.139847 67.7724846 138.145344 67.8686001 138.145344 67.913831"></polygon>
                            <polygon id="Path" fill="#000000" opacity="0.1" points="139 89.0376828 120.423361 93 120 92.9578178 120 70.84027 138.161368 68"></polygon>
                            <polygon id="Path" fill="#000000" opacity="0.05" points="138 68.0257331 137.99437 68.0317175 119.04152 71 102 69.7492519 122.861365 66 137.99437 67.8761221 138 67.9778576"></polygon>
                            <polygon id="Path" fill="#AA936B" points="149 67.0168569 130.068397 71 129.636947 70.9575961 113 69.2303424 113 47.5421422 133.366107 44 148.139847 45.7724846 148.145344 45.8686001 148.145344 45.913831"></polygon>
                            <polygon id="Path" fill="#41392A" opacity="0.1" points="149 68.0376828 130.423361 72 130 71.9578178 130 49.84027 148.161368 47"></polygon>
                            <polygon id="Path" fill="#000000" opacity="0.05" points="148 46.0257331 147.99437 46.0317175 129.04152 49 112 47.7492519 132.861365 44 147.99437 45.8761221 148 45.9778576"></polygon>
                            <path d="M162.301623,23.7351938 C162.099906,25.5671432 160.729333,27.0439763 160.220895,28.8082845 C159.458238,31.4716571 160.773545,34.3323166 162.586238,36.4179205 C165.537036,39.7651572 169.67853,41.768623 174.086888,41.98141 C174.72804,42.037689 175.3738,41.9658892 175.988004,41.7700312 C176.534936,41.5429931 177.02775,41.1989249 177.433184,40.7610499 C178.792704,39.3659499 179.524965,37.4353571 179.815107,35.4878539 C180.105248,33.5403508 179.994718,31.559027 179.881425,29.5946135 C179.881273,29.188074 179.808227,28.7849904 179.665891,28.4052556 C179.480881,28.0441116 179.226159,27.7248695 178.91705,27.4667338 C177.936993,26.5481017 176.856873,25.7471446 175.697863,25.0795628 C175.200478,24.7977244 174.66717,24.5158861 174.349397,24.0283057 C174.13133,23.6400295 173.989601,23.2121024 173.932146,22.7684882 L173.575686,20.9196284 C173.512641,20.3865485 173.334258,19.874415 173.053432,19.4202483 C172.426174,18.5578229 171.22416,18.4394508 170.171361,18.397175 L166.30281,18.2421639 C165.100796,18.1942514 163.520217,17.8419534 162.345835,18.0843344 C161.240535,18.3069867 161.613574,19.3385152 161.812528,20.2742186 C162.100339,21.4059212 162.26437,22.5666559 162.301623,23.7351938 L162.301623,23.7351938 Z" id="Path" fill="#FFC0C6"></path>
                            <path d="M162.301623,23.7351938 C162.099906,25.5671432 160.729333,27.0439763 160.220895,28.8082845 C159.458238,31.4716571 160.773545,34.3323166 162.586238,36.4179205 C165.537036,39.7651572 169.67853,41.768623 174.086888,41.98141 C174.72804,42.037689 175.3738,41.9658892 175.988004,41.7700312 C176.534936,41.5429931 177.02775,41.1989249 177.433184,40.7610499 C178.792704,39.3659499 179.524965,37.4353571 179.815107,35.4878539 C180.105248,33.5403508 179.994718,31.559027 179.881425,29.5946135 C179.881273,29.188074 179.808227,28.7849904 179.665891,28.4052556 C179.480881,28.0441116 179.226159,27.7248695 178.91705,27.4667338 C177.936993,26.5481017 176.856873,25.7471446 175.697863,25.0795628 C175.200478,24.7977244 174.66717,24.5158861 174.349397,24.0283057 C174.13133,23.6400295 173.989601,23.2121024 173.932146,22.7684882 L173.575686,20.9196284 C173.512641,20.3865485 173.334258,19.874415 173.053432,19.4202483 C172.426174,18.5578229 171.22416,18.4394508 170.171361,18.397175 L166.30281,18.2421639 C165.100796,18.1942514 163.520217,17.8419534 162.345835,18.0843344 C161.240535,18.3069867 161.613574,19.3385152 161.812528,20.2742186 C162.100339,21.4059212 162.26437,22.5666559 162.301623,23.7351938 L162.301623,23.7351938 Z" id="Path" fill="#000000" opacity="0.1"></path>
                            <path d="M186.774813,106.943617 L185.157824,125.029409 C184.735883,129.773041 184.305775,134.536115 183.478225,139.218646 C183.206005,140.832259 182.857563,142.437539 182.460121,144.028934 C181.354906,148.447621 179.751529,152.766326 179.23431,157.296106 C179.217977,157.426639 179.204366,157.573836 179.190755,157.69326 C179.084589,158.693089 178.992034,159.704027 178.646314,160.637201 C178.374094,161.328749 177.990263,161.959197 177.709877,162.642413 C177.165436,164.008846 177.078325,165.519698 177.01027,167 C175.047993,165.869831 172.899049,165.116739 170.670259,164.778158 C169.581378,164.614297 168.39722,164.500428 167.675836,163.667237 C166.859175,162.761837 166.954452,161.375963 167.090562,160.159505 C167.518856,156.382374 167.945334,152.607094 168.369998,148.833666 C168.511561,147.209981 168.784716,145.601051 169.186659,144.023379 C169.333658,143.498469 169.510601,142.981891 169.690266,142.465312 C169.937987,141.754323 170.188429,141.043334 170.376261,140.312903 C170.636775,139.139347 170.816876,137.948708 170.915258,136.749624 C171.353532,132.950275 171.88164,129.159258 172.344414,125.362685 L172.368914,125.16272 C173.063076,119.40815 173.591183,113.625806 173.43874,107.829577 C173.416962,106.97139 173.381574,106.113204 173.32713,105.25224 C173.250908,104.005232 173.139298,103.344234 174.14379,102.563812 C175.262616,101.702848 176.735328,101.100173 178.014763,100.536381 C178.703481,100.230878 186.287538,97.4813487 186.453593,98.0868005 C186.805674,99.3728395 186.988755,100.700895 186.998033,102.036124 C187.013384,103.674922 186.93886,105.313313 186.774813,106.943617 L186.774813,106.943617 Z" id="Path" fill="#605D82"></path>
                            <path d="M184,138.258772 C183.724138,139.895671 183.371034,141.524119 182.968276,143.138479 C181.848276,147.620934 180.223448,152.001964 179.69931,156.597114 C179.682759,156.729531 179.668966,156.878853 179.655172,157 C176.228966,152.001964 173.343448,146.626398 170,141.574831 C170.251034,140.853581 170.504828,140.132332 170.695172,139.39136 C170.969468,138.194139 171.161203,136.978743 171.268966,135.754119 C171.713103,131.89994 172.248276,128.054213 172.717241,124.202852 L172.742069,124 C172.935645,124.817311 173.213039,125.611506 173.569655,126.369419 C175.815172,131.029369 181.150345,133.384701 183.76,137.844617 C183.846437,137.983608 183.926437,138.12166 184,138.258772 Z" id="Path" fill="#000000" opacity="0.1"></path>
                            <path d="M155.015563,97.3549876 C155.130627,101.035798 155.725591,104.686073 156.320555,108.322469 L157.546967,115.817331 C158.217704,119.925625 158.919313,124.11442 160.883816,127.792454 C162.354388,130.546122 164.470439,132.894512 166.387233,135.362265 C171.096429,141.430327 174.635341,148.306169 179.100378,154.551887 C180.399756,156.367309 182.254809,158.332628 184.469085,157.952333 C185.922818,157.705281 186.978037,156.506103 188.117449,155.584512 C189.464537,154.496369 191.086656,153.699693 192.147488,152.333963 C193.20832,150.968233 193.415996,148.703119 191.979102,147.731563 C191.487976,147.401233 190.890206,147.276319 190.334532,147.065353 C188.10903,146.23259 186.666523,144.078511 185.751625,141.902226 C184.836728,139.72594 184.278248,137.391429 183.057449,135.367816 C180.402563,130.973607 174.972114,128.652975 172.687676,124.058903 C171.407943,121.488443 171.28446,118.507153 171.189041,115.65633 L170.939268,108.353003 C170.911204,107.553551 170.891559,106.723565 171.219912,105.99351 C172.092713,104.050397 174.73076,103.86719 176.869263,103.620137 C179.294451,103.340054 181.643854,102.607207 183.792735,101.460506 C185.024759,100.802624 186.225913,99.9643099 186.879812,98.742925 C187.480389,97.6325751 187.561775,96.3251381 187.631936,95.0648909 L188.372835,81.8267442 C188.437382,80.6886356 188.493511,79.5088888 188.092191,78.4429529 C187.073456,75.7614579 183.649607,74.8842815 180.756173,75.0119717 C175.373434,75.250697 170.406046,77.5407936 165.320788,79.0897317 C164.060699,79.4728025 162.794998,79.8170109 161.495619,80.0751673 C160.373045,80.3000131 158.969828,80.2084093 157.892158,80.569273 C155.961331,81.2132759 156.009041,85.3937433 155.736817,87.1258891 C155.17513,90.5059625 154.933665,93.9305179 155.015563,97.3549876 L155.015563,97.3549876 Z" id="Path" fill="#605D82"></path>
                            <path d="M184.029646,159.543571 C184.485278,160.017449 184.633561,160.710252 184.752187,161.364258 C185.411193,164.993831 185.75405,168.676573 185.776686,172.368741 C185.74717,172.713215 185.813558,173.059216 185.968106,173.366377 C186.097368,173.548397 186.271357,173.69185 186.472267,173.782059 C187.790635,174.427751 189.319296,173.527107 190.419284,172.537784 C192.454801,170.706013 194.177577,168.245177 194.293507,165.465651 C194.323164,164.750679 194.244978,164.027392 194.366301,163.320733 C194.54424,162.273215 195.140067,161.361487 195.6631,160.446987 C196.558008,158.888205 197.281405,157.231916 197.81994,155.508687 C198.019448,154.860223 198.15425,154.045487 197.658177,153.593779 C197.484458,153.451872 197.285849,153.345566 197.073134,153.280632 L191.114865,151.008239 C190.597223,150.811483 189.313903,154.200675 189.1117,154.572017 C188.612931,155.478204 188.116857,155.990878 187.116623,156.20149 C186.116388,156.412102 184.881598,156.107269 183.927196,156.631028 C182.309566,157.515044 183.115685,158.598588 184.029646,159.543571 Z" id="Path" fill="#535070"></path>
                            <path d="M174.666194,162.087826 C174.557493,161.854633 174.405803,161.647696 174.220366,161.479627 C173.949385,161.29395 173.640793,161.181311 173.320748,161.151256 C172.206178,160.945668 170.884615,160.811464 170.112377,161.705203 C169.39056,162.541833 169.515285,163.903856 168.912886,164.846136 C168.721817,165.131676 168.461751,165.388661 168.297219,165.702754 C168.092707,166.183552 168.001558,166.7112 168.031845,167.238956 C168,168.692352 167.968155,170.151458 168.06369,171.601999 C168.140648,172.818396 168.329064,174.094758 169.037612,175.048459 C170.173413,176.57895 172.2221,176.798816 174.037258,176.895899 L175.510084,176.978706 C175.91506,177.029706 176.325474,176.988853 176.714881,176.858779 C177.202515,176.617496 177.578021,176.173258 177.755147,175.628104 C178.522078,173.577931 177.309319,171.370712 176.560964,169.314828 C175.698499,166.947706 175.852416,164.323599 174.666194,162.087826 Z" id="Path" fill="#535070"></path>
                            <path d="M161.350924,12.8183227 C161.330941,12.6183176 161.360907,12.4165674 161.438261,12.230314 C161.666465,11.8373923 162.263738,11.9555436 162.71451,12.0544609 C164.52605,12.499589 166.436197,12.0956765 168.304083,12.2000892 C170.17197,12.304502 172.273695,13.2139922 172.648399,15 C174.003535,14.0646679 175.171369,12.8949607 176.093988,11.5488833 C176.612376,10.7932646 177.063148,9.92773772 176.992715,9.02099528 C176.891291,7.713088 175.767178,6.73490524 174.738855,5.90509852 L171.639797,3.43216458 C171.231541,3.06694731 170.760394,2.77487399 170.248038,2.56938541 C169.532437,2.33033513 168.749221,2.44573871 167.994178,2.44573871 C165.740317,2.44573871 163.323052,1.44282661 161.314299,2.44573871 C160.469101,2.86613748 159.840838,3.58878373 159.232295,4.29219605 L156.462864,7.49052394 C156.253232,7.69440016 156.100073,7.94682319 156.017727,8.22416101 C155.938842,8.61433503 156.144507,8.99901364 156.217757,9.39193537 C156.347354,10.1063385 156.031814,10.8702003 156.274104,11.5571264 C156.676981,12.694676 158.096913,12.8567906 158.964649,13.5107442 C159.285825,13.7525422 159.792943,14.5796012 160.178917,14.5686104 C160.857892,14.5548719 161.331203,13.345882 161.350924,12.8183227 Z" id="Path" fill="#3F3D56"></path>
                            <circle id="Oval" fill="#FFC0C6" cx="166" cy="14" r="9"></circle>
                            <path d="M168.383678,33.4930307 C167.76612,31.7389507 166.077394,30.5821328 164.206231,30.6313797 C163.944658,30.6809215 163.67399,30.6466002 163.433361,30.533378 C163.296959,30.4299993 163.187633,30.2955421 163.114623,30.141371 C162.575957,29.1760484 162.141962,28.1567276 161.819924,27.1005169 C161.67889,26.6329085 161.484262,26.0812987 161.007565,25.9608966 C160.62395,25.8628948 160.231874,26.1092992 159.975191,26.4089045 C159.747675,26.7304047 159.500889,27.0380321 159.236169,27.3301209 C158.107892,28.3213386 156.133406,27.4169225 154.951535,28.3269387 C154.756907,28.4753413 154.596128,28.6657447 154.387397,28.8029472 C154.184319,28.9257947 153.965028,29.020031 153.735816,29.0829522 C151.441591,29.8238676 149.192548,30.6961455 147,31.6953987 C147.789794,36.4106827 148.596513,41.2155682 150.446888,45.6256468 C151.326944,47.7256842 152.322649,49.7837208 153.027822,51.9481594 C154.590487,56.7446448 154.658183,61.8771362 154.677928,66.920026 C154.677928,70.3696875 154.677928,73.8921502 153.549651,77.1570084 C153.295788,77.8962215 152.985512,78.6298346 152.914995,79.3970483 C152.844477,80.1642619 153.075774,81.0322774 153.71043,81.4914856 C154.077833,81.732049 154.49922,81.8791764 154.937432,81.9198932 C156.886531,82.1998982 158.849734,81.6902891 160.767806,81.2478812 C165.90993,80.0662602 171.15642,79.3886481 176.388807,78.7278363 L185.161164,77.6078164 C185.790483,77.5641294 186.40629,77.4056091 186.977691,77.1402081 C188.582666,76.2693926 188.734983,73.8725499 187.736457,72.3493227 C187.25976,71.6185097 186.585614,71.0192991 186.182255,70.2464853 C185.778896,69.4736715 185.747868,68.3872522 186.438938,67.8524426 C187.849285,66.7604232 187.426181,64.7359871 187.493878,62.9663556 C187.681924,58.0158675 187.656538,53.0691127 187.417719,48.1260913 C187.345917,47.1010209 187.328969,46.0728901 187.366947,45.0460365 C187.465671,43.3044054 187.900058,41.5991751 188.334445,39.9051449 L191,29.4889594 C190.303289,28.3969399 188.969101,27.7025276 187.708251,27.388922 C186.4474,27.0753164 185.130137,26.9829148 183.886211,26.5993079 C181.347586,25.815294 179.068466,23.8272586 176.408552,24.0120618 C176.206834,24.0156262 176.008408,24.0634355 175.827489,24.1520643 C175.229502,24.4908704 175.322585,25.3476856 175.285916,26.0308978 C175.201295,27.5457248 174.078659,28.8085473 172.843195,29.6961631 C171.607731,30.5837789 170.191743,31.2277904 169.055004,32.2386084 C168.655406,32.5376584 168.40962,32.9969285 168.383678,33.4930307 Z" id="Path" fill="#3F3D56"></path>
                            <path d="M133.731942,44.0036297 C133.142273,44.351173 132.515433,44.6438979 131.860943,44.8773581 C131.239161,45.1002741 130.574985,45.2770696 130.066254,45.6665321 C129.814374,45.8646498 129.602943,46.1014303 129.441646,46.3660272 C128.828218,47.3528062 128.855514,48.5639935 129.512887,49.5272347 C130.17026,50.4904759 131.353606,51.053227 132.601429,50.9960189 C133.418224,50.9575851 134.189799,50.6578015 134.938764,50.3631424 L141.218761,47.8854434 C142.281443,47.4677962 143.428913,46.980968 143.931991,46.0329343 C143.989641,45.9441754 144.011612,45.8400576 143.99417,45.7382752 C143.945531,45.6265972 143.852864,45.5352821 143.734152,45.4820499 C142.318966,44.647334 141.081097,43.5884635 140.07977,42.3561008 C139.822578,42.0383814 139.514513,41.2902035 139.141444,41.0980345 C137.813092,40.4292864 134.79745,43.3784399 133.731942,44.0036297 Z" id="Path" fill="#FFC0C6"></path>
                            <path d="M199.860977,42 L202.15623,44.5827547 C202.649471,45.1346254 203.142712,45.6864961 203.591113,46.2825164 C204.694565,47.7787797 205.579433,49.4200237 206.219864,51.1582938 C206.71871,52.4469118 207.133481,53.8210698 206.959726,55.1897091 C206.843289,55.8913828 206.650681,56.5787211 206.385212,57.2399086 C205.964724,58.5110215 205.442764,59.7473895 204.824216,60.9374421 C204.307687,61.8404367 203.724112,62.7046265 203.078254,63.5229562 C201.300459,65.8423347 199.355148,68.0324998 197.257448,70.0764205 C196.472746,70.8407614 196.136445,72.079711 195.802947,73.1117092 C195.172383,75.0184224 193.673042,76.5057138 192.224146,77.912984 C191.758131,78.3980517 191.242544,78.8344993 190.68557,79.2153988 C189.851409,79.7453655 188.875618,80.0182228 187.883064,79.9990552 C187.44997,80.0014957 187.021215,79.9140564 186.624738,79.7424353 C185.632651,79.278864 185.1282,78.1502884 185.024507,77.0741406 C184.932932,76.0962888 185.098952,75.1117062 185.506538,74.2154505 C186.823716,71.3429637 190.206341,70.0984953 192.59688,68.0013868 C193.998133,66.7734745 195.071493,65.2282366 196.13084,63.7023142 C196.84835,62.7485177 197.447656,61.713798 197.916037,60.6201165 C198.448513,59.2156056 198.241128,57.5544749 198.709147,56.1306486 C198.905322,55.5263502 199.269648,54.9827576 199.468626,54.3839779 C199.667604,53.7851982 199.734864,53.0760444 199.362131,52.5600453 C199.082845,52.2301853 198.725913,51.972529 198.322401,51.8095012 C196.795035,51.0479197 195.085505,50.0655899 194.794045,48.4016998 C194.677312,47.4802638 194.921865,46.5496793 195.477856,45.7996296 C196.03083,45.0591505 196.677871,44.3914712 197.403178,43.8128952 C198.067372,43.2223935 199.191178,42.5684268 199.860977,42 Z" id="Path" fill="#FFC0C6"></path>
                            <path d="M132.034969,47.3157703 C131.615178,46.4990282 131.087524,45.6655037 130.23628,45.2599297 C129.399012,44.9133568 128.449852,44.9133568 127.612584,45.2599297 C126.787682,45.6021213 126.014919,46.0499976 125.315392,46.5913312 L123.257248,48.0486006 C122.790705,48.3423787 122.377984,48.7081296 122.035772,49.1310636 C121.709378,49.6442017 121.493298,50.2148151 121.400254,50.8093008 C121.108733,52.1714701 120.8726,53.5727982 121.076665,54.9517498 C121.40317,57.1893994 122.802474,59.1249664 124.341709,60.8255801 C125.303731,61.8828696 126.49314,62.9513473 127.95658,62.9988974 C128.589182,63.0184768 129.291749,62.7779295 129.554119,62.2269082 C129.645598,62.0079768 129.694029,61.7746843 129.696965,61.538831 C129.854386,59.0550398 128.927347,56.629987 127.848716,54.3671638 C127.557195,53.7518101 127.242351,53.11408 127.265673,52.439988 C127.256727,52.32554 127.287475,52.2114657 127.353129,52.1155288 C127.44567,52.0224807 127.569648,51.9639952 127.702956,51.9505022 C129.180971,51.670796 131.728872,52.7728384 132.763774,51.1980925 C133.434274,50.1575854 132.513065,48.2415978 132.034969,47.3157703 Z" id="Path" fill="#FFC0C6"></path>
                            <path d="M161.346007,10.8183227 C161.328335,10.6181359 161.359223,10.4167032 161.436173,10.230314 C161.664407,9.83464456 162.26176,9.95554355 162.712593,10.0544609 C164.524376,10.499589 166.434779,10.0956765 168.302917,10.2000892 C170.171054,10.304502 172.270243,11.2139922 172.647815,13 C174.001812,12.0631618 175.169544,10.893713 176.093867,9.5488833 C176.612324,8.7905169 177.063157,7.92499002 176.992714,7.01824758 C176.891277,5.71034029 175.764195,4.73215754 174.738551,3.90509852 L171.639077,1.43216458 C171.231792,1.06699013 170.761514,0.774902647 170.24995,0.569385407 C169.531435,0.330335126 168.750931,0.44573871 167.995787,0.44573871 C165.741624,0.44573871 163.324034,-0.557173387 161.315012,0.44573871 C160.469701,0.866137479 159.841353,1.58878373 159.232729,2.29219605 L156.460109,5.49052394 C156.251667,5.69485442 156.099504,5.94719886 156.017729,6.22416101 C155.938834,6.61433503 156.144526,6.99901364 156.217786,7.39193537 C156.347401,8.10633851 156.031818,8.87020032 156.27414,9.55437871 C156.677072,10.694676 158.097195,10.8567906 158.965047,11.5107442 C159.286265,11.7525422 159.793452,12.5796012 160.179477,12.5686104 C160.847273,12.5548719 161.320647,11.345882 161.346007,10.8183227 Z" id="Path" fill="#3F3D56"></path>
                            <path d="M142.568875,35.8273041 C142.224844,36.0499356 141.922266,36.3304827 141.674658,36.6564141 C141.363036,37.1290338 141.298002,37.7366877 141.029737,38.2228109 C140.45527,39.2868804 139.108523,39.6676769 138.27121,40.5399978 C138.135464,40.6592417 138.040686,40.8179355 138.000235,40.9937127 C137.995082,41.2312546 138.074795,41.4628916 138.225144,41.6472783 L142.273513,47.9884844 C143.628388,48.1073145 144.91281,47.2647011 146.262266,47.3781299 C146.76357,47.4186401 147.281133,47.5914839 147.763468,47.4429463 C148.108206,47.2898873 148.431559,47.0928932 148.72543,46.8568978 C149.538355,46.3491692 150.600578,46.2897542 151.275306,45.6226852 C151.950034,44.9556162 152.006939,43.9752679 151.998809,43.0651374 C152.010964,42.2752311 151.930021,41.4866341 151.757641,40.7155423 C151.161496,38.2849266 149.294478,36.4106519 148.123865,34.255506 C147.552108,33.2049399 147.243196,32.5918846 146.037357,33.3129673 C144.831518,34.0340499 143.709681,34.9954934 142.568875,35.8273041 Z" id="Path" fill="#3F3D56"></path>
                            <path d="M193.012773,32.1677042 C193.780566,32.6658269 194.47302,33.2712341 195.069053,33.9654947 C195.689766,34.7660307 196.042505,35.7496243 196.641342,36.5692856 C197.240179,37.388947 198.00855,37.9791032 198.664809,38.711334 C199.662871,39.820609 200.338272,41.170318 201,42.5118305 C199.380091,44.6178087 197.614825,46.6080617 195.71711,48.4680363 C195.505432,48.7167688 195.226224,48.8989617 194.913192,48.9926196 C194.482114,49.0389082 194.056656,48.8653713 193.781144,48.530877 C193.485827,48.2248701 193.278011,47.8423615 192.996366,47.5226935 C192.332834,46.8389085 191.448369,46.4120373 190.499845,46.3177913 C189.559214,46.2262382 188.612617,46.2125305 187.669726,46.2768083 C187.462765,46.301326 187.253102,46.2662524 187.06542,46.1757167 C186.925794,46.0798937 186.812873,45.9501397 186.73729,45.7986725 C185.643524,43.9189158 185.985326,41.5582911 186.376347,39.4107783 L187.270501,34.4928102 C187.401,33.5538488 187.651893,32.635572 188.016996,31.7606057 C188.356064,31.0365715 189.110762,29.8070795 190.045932,30.0256558 C190.981102,30.2442322 192.222527,31.5994056 193.012773,32.1677042 Z" id="Path" fill="#3F3D56"></path>
                            <polygon id="Path" fill="#E35205" points="113 68.0168569 94.0683969 72 93.6369466 71.9575961 77 70.2303424 77 48.5421422 97.3661069 45 112.139847 46.7724846 112.145344 46.8686001 112.145344 46.913831"></polygon>
                            <polygon id="Path" fill="#000000" opacity="0.1" points="113 69.0376828 94.4233608 73 94 72.9578178 94 50.84027 112.161368 48"></polygon>
                            <polygon id="Path" fill="#000000" opacity="0.05" points="113 48.0257331 112.99437 48.0317175 94.0415201 51 77 49.7492519 97.8613652 46 112.99437 47.8761221 113 47.9778576"></polygon>
                            <polygon id="Path" fill="#AA936B" points="123 47.0144472 104.068397 51 103.636947 50.9547739 87 49.227701 87 27.5417714 107.366107 24 122.139847 25.772299 122.145344 25.8684045 122.145344 25.9136307"></polygon>
                            <polygon id="Path" fill="#41392A" opacity="0.1" points="123 48.0353166 104.423361 52 104 51.9550107 104 29.8399505 122.161368 27"></polygon>
                            <polygon id="Path" fill="#000000" opacity="0.05" points="122 26.0257331 121.99437 26.0317175 103.04152 29 86 27.7492519 106.861365 24 121.99437 25.8761221 122 25.9778576"></polygon>
                            <g id="snail" transform="translate(84.570584, 61.043539) scale(-1, 1) rotate(-4.000000) translate(-84.570584, -61.043539) translate(77.570584, 57.043539)" fill="#FFFFFF">
                                <path d="M12.731584,5.48780488 L9.75228695,5.48780488 C9.52311026,5.48780488 9.32258065,5.72062084 9.32258065,5.98669623 L9.32258065,7.18403548 C9.32258065,7.45011086 9.52311026,7.68292683 9.75228695,7.68292683 L12.731584,7.68292683 C12.9607607,7.68292683 13.1612903,7.45011086 13.1612903,7.18403548 L13.1612903,5.98669623 C13.1612903,5.72062084 12.9607607,5.48780488 12.731584,5.48780488 Z" id="Path"></path>
                                <path d="M13.1318467,4.46895345 C13.1318467,4.71382762 12.9257415,4.92809251 12.6901927,4.92809251 L9.62805802,4.92809251 C9.3925092,4.92809251 9.18640398,4.71382762 9.18640398,4.46895345 L9.18640398,3.30580119 C9.18640398,3.06092702 9.3925092,2.84666213 9.62805802,2.84666213 L10.5408097,2.84666213 C10.7469149,2.84666213 10.8941329,2.66300651 10.8941329,2.47935089 C10.8941329,2.29569527 10.7174713,2.14264892 10.5408097,2.14264892 L9.03918597,2.14264892 C8.77419355,2.14264892 8.56808833,2.35691381 8.56808833,2.63239724 L8.56808833,6.64221164 C8.56808833,7.16256924 8.09699069,7.68292683 7.65533665,7.68292683 L0.912751678,7.68292683 C0.47109764,7.68292683 0,7.16256924 0,6.64221164 L0,0.428529783 C0,0.183655621 0.176661615,0 0.412210435,0 L3.5626759,0 C3.79822472,0 3.97488634,0.183655621 3.97488634,0.428529783 L3.97488634,4.19347002 C3.97488634,4.40773491 4.15154795,4.56078127 4.32820957,4.53017199 C4.50487118,4.49956272 4.62264559,4.34651637 4.62264559,4.19347002 L4.62264559,0.428529783 C4.62264559,0.183655621 4.79930721,0 5.03485603,0 L12.2485386,0 C12.6901927,0 13.1612903,0.520357594 13.1612903,1.01010592 L13.1318467,4.46895345 Z" id="Path"></path>
                            </g>
                            <g id="snail-copy" transform="translate(110.347099, 81.904670) scale(-1, 1) rotate(-3.000000) translate(-110.347099, -81.904670) translate(103.347099, 77.904670)" fill="#FFFFFF">
                                <path d="M12.731584,5.48780488 L9.75228695,5.48780488 C9.52311026,5.48780488 9.32258065,5.72062084 9.32258065,5.98669623 L9.32258065,7.18403548 C9.32258065,7.45011086 9.52311026,7.68292683 9.75228695,7.68292683 L12.731584,7.68292683 C12.9607607,7.68292683 13.1612903,7.45011086 13.1612903,7.18403548 L13.1612903,5.98669623 C13.1612903,5.72062084 12.9607607,5.48780488 12.731584,5.48780488 Z" id="Path"></path>
                                <path d="M13.1318467,4.46895345 C13.1318467,4.71382762 12.9257415,4.92809251 12.6901927,4.92809251 L9.62805802,4.92809251 C9.3925092,4.92809251 9.18640398,4.71382762 9.18640398,4.46895345 L9.18640398,3.30580119 C9.18640398,3.06092702 9.3925092,2.84666213 9.62805802,2.84666213 L10.5408097,2.84666213 C10.7469149,2.84666213 10.8941329,2.66300651 10.8941329,2.47935089 C10.8941329,2.29569527 10.7174713,2.14264892 10.5408097,2.14264892 L9.03918597,2.14264892 C8.77419355,2.14264892 8.56808833,2.35691381 8.56808833,2.63239724 L8.56808833,6.64221164 C8.56808833,7.16256924 8.09699069,7.68292683 7.65533665,7.68292683 L0.912751678,7.68292683 C0.47109764,7.68292683 0,7.16256924 0,6.64221164 L0,0.428529783 C0,0.183655621 0.176661615,0 0.412210435,0 L3.5626759,0 C3.79822472,0 3.97488634,0.183655621 3.97488634,0.428529783 L3.97488634,4.19347002 C3.97488634,4.40773491 4.15154795,4.56078127 4.32820957,4.53017199 C4.50487118,4.49956272 4.62264559,4.34651637 4.62264559,4.19347002 L4.62264559,0.428529783 C4.62264559,0.183655621 4.79930721,0 5.03485603,0 L12.2485386,0 C12.6901927,0 13.1612903,0.520357594 13.1612903,1.01010592 L13.1318467,4.46895345 Z" id="Path"></path>
                            </g>
                            <g id="snail-copy-2" transform="translate(64.522512, 155.849926) scale(-1, 1) rotate(-2.000000) translate(-64.522512, -155.849926) translate(55.022512, 150.349926)" fill="#FFFFFF">
                                <path d="M17.482908,7.68292683 L13.2267694,7.68292683 C12.8993741,7.68292683 12.6129032,7.97394678 12.6129032,8.30654102 L12.6129032,9.80321508 C12.6129032,10.1358093 12.8993741,10.4268293 13.2267694,10.4268293 L17.482908,10.4268293 C17.8103033,10.4268293 18.0967742,10.1358093 18.0967742,9.80321508 L18.0967742,8.30654102 C18.0967742,7.97394678 17.8103033,7.68292683 17.482908,7.68292683 Z" id="Path"></path>
                                <path d="M18.0562892,6.06500826 C18.0562892,6.39733748 17.7728946,6.68812555 17.4490149,6.68812555 L13.2385798,6.68812555 C12.9147002,6.68812555 12.6313055,6.39733748 12.6313055,6.06500826 L12.6313055,4.48644447 C12.6313055,4.15411525 12.9147002,3.86332718 13.2385798,3.86332718 L14.4936133,3.86332718 C14.777008,3.86332718 14.9794328,3.61408026 14.9794328,3.36483335 C14.9794328,3.11558643 14.7365231,2.90788067 14.4936133,2.90788067 L12.4288807,2.90788067 C12.0645161,2.90788067 11.7811215,3.19866874 11.7811215,3.57253911 L11.7811215,9.01443008 C11.7811215,9.72062968 11.1333622,10.4268293 10.5260879,10.4268293 L1.25503356,10.4268293 C0.647759255,10.4268293 0,9.72062968 0,9.01443008 L0,0.581576134 C0,0.249246915 0.242909721,0 0.566789348,0 L4.89867937,0 C5.222559,0 5.46546872,0.249246915 5.46546872,0.581576134 L5.46546872,5.69113789 C5.46546872,5.98192595 5.70837844,6.18963172 5.95128816,6.14809056 C6.19419788,6.10654941 6.35613769,5.89884365 6.35613769,5.69113789 L6.35613769,0.581576134 C6.35613769,0.249246915 6.59904741,0 6.92292704,0 L16.8417406,0 C17.4490149,0 18.0967742,0.706199592 18.0967742,1.37085803 L18.0562892,6.06500826 Z" id="Path"></path>
                            </g>
                        </g>
                    </g>
                </g>
            </g>
        </g>
    </g>
</svg>