<?xml version="1.0" encoding="UTF-8"?>
<svg width="326px" height="261px" viewBox="0 0 326 261" version="1.1" xmlns="http://www.w3.org/2000/svg" xmlns:xlink="http://www.w3.org/1999/xlink">
    <!-- Generator: Sketch 56.3 (81716) - https://sketch.com -->
    <title>Icons_Capabilities</title>
    <desc>Created with Sketch.</desc>
    <defs>
        <linearGradient x1="49.9994739%" y1="100%" x2="49.9994739%" y2="0%" id="linearGradient-1">
            <stop stop-color="#808080" stop-opacity="0.25" offset="0%"></stop>
            <stop stop-color="#808080" stop-opacity="0.12" offset="54%"></stop>
            <stop stop-color="#808080" stop-opacity="0.1" offset="100%"></stop>
        </linearGradient>
        <linearGradient x1="50.9761138%" y1="100.268653%" x2="48.9850695%" y2="-0.806583791%" id="linearGradient-2">
            <stop stop-color="#808080" stop-opacity="0.25" offset="0%"></stop>
            <stop stop-color="#808080" stop-opacity="0.12" offset="54%"></stop>
            <stop stop-color="#808080" stop-opacity="0.1" offset="100%"></stop>
        </linearGradient>
    </defs>
    <g id="Page-1" stroke="none" stroke-width="1" fill="none" fill-rule="evenodd">
        <g id="Landing_Page_2-Copy" transform="translate(-793.000000, -4323.000000)">
            <g id="Benifits" transform="translate(265.000000, 4025.000000)">
                <g id="Community_Support-Copy-3" transform="translate(528.000000, 298.000000)">
                    <g id="Icons_Capabilities">
                        <circle id="Oval-Copy-9" fill="#E35205" opacity="0.14" cx="182.5" cy="130.5" r="130.5"></circle>
                        <g id="undraw_setup_analytics_8qkl" transform="translate(0.000000, 9.000000)">
                            <path d="M64.242,0.514 C64.242,0.514 63.111,4.927 71.016,17.401 C78.921,29.875 78.372,31.642 77.916,35.209 C77.46,38.776 77.487,40.729 72.894,45.109 C72.894,45.109 59.133,49.627 57.294,52.444 C55.455,55.261 60.333,65.503 60.333,65.503 C60.333,65.503 65.019,77.944 48.192,82.717 C48.192,82.717 35.025,82.735 31.374,85.636 C31.374,85.636 32.787,80.587 28.395,73.162 C24.003,65.737 30.054,58.498 30.054,58.498 C30.054,58.498 34.926,55.816 38.019,55.609 C41.112,55.402 42.093,53.986 40.104,50.431 C40.104,50.431 37.227,48.931 33.243,52.144 C29.259,55.357 26.283,57.646 22.812,57.376 C19.341,57.106 14.391,55.642 11.142,49.219 C7.893,42.796 6.183,33.715 3.75,29.569 C1.317,25.423 0,24.514 0,24.514 C0,24.514 3.075,26.848 13.692,18.925 C24.309,11.002 29.85,14.392 29.85,14.392 C29.85,14.392 38.382,16.684 39.75,31.729 C39.75,31.729 42.231,46.066 47.274,37.381 C47.274,37.381 45.567,32.491 42.156,25.291 C38.745,18.091 47.874,11.314 54.558,9.046 C61.242,6.778 64.242,0.514 64.242,0.514 Z" id="Path" fill="#E35205" fill-rule="nonzero"></path>
                            <path d="M9.297,27.691 L9.267,27.616 C11.367,26.74 21.054,31.987 28.8,36.544 L28.758,36.613 C17.832,30.187 10.92,27.019 9.297,27.691 Z" id="Path" fill="#444053" fill-rule="nonzero"></path>
                            <path d="M28.599,36.514 L28.683,36.469 C34.869,40.114 42.291,44.74 47.85,48.496 C48.378,48.853 48.927,49.207 49.488,49.54 L49.401,49.681 C48.84,49.345 48.288,48.991 47.757,48.631 C42.204,44.878 34.782,40.156 28.599,36.514 Z" id="Path" fill="#444053" fill-rule="nonzero"></path>
                            <path d="M49.239,49.591 L49.377,49.483 C60.528,56.176 76.215,54.583 76.353,54.583 L74.622,56.548 C74.484,56.557 60.468,56.329 49.239,49.591 Z" id="Path" fill="#444053" fill-rule="nonzero"></path>
                            <path d="M60.054,10.597 C60.054,10.597 56.403,20.764 59.178,27.928 C61.953,35.092 56.178,52.843 56.178,52.843 C56.178,52.843 54.261,60.31 51.177,62.176 C51.177,62.176 46.704,67.729 44.082,68.365 C41.46,69.001 35.43,74.635 35.589,77.752" id="Path" stroke="#444053" stroke-width="0.5"></path>
                            <path d="M64.992,11.314 C64.992,11.314 62.418,16.534 58.587,16.489" id="Path" stroke="#444053" stroke-width="0.5"></path>
                            <path d="M70.152,18.1 C70.152,18.1 68.595,25.279 58.95,27.286" id="Path" stroke="#444053" stroke-width="0.5"></path>
                            <path d="M74.169,28.798 C74.169,28.798 69.63,36.07 59.85,35.185" id="Path" stroke="#444053" stroke-width="0.5"></path>
                            <path d="M73.32,42.421 C73.32,42.421 64.779,48.016 58.32,44.944" id="Path" stroke="#444053" stroke-width="0.5"></path>
                            <path d="M54.018,11.314 C54.018,11.314 56.25,16.036 58.719,14.614" id="Path" stroke="#444053" stroke-width="0.5"></path>
                            <path d="M45.846,18.487 C45.846,18.487 48.846,24.823 58.233,23.71" id="Path" stroke="#444053" stroke-width="0.5"></path>
                            <path d="M44.94,28.015 C44.94,28.015 53.196,33.031 59.892,31.672" id="Path" stroke="#444053" stroke-width="0.5"></path>
                            <path d="M49.287,38.17 C49.287,38.17 55.821,43.381 58.887,42.184" id="Path" stroke="#444053" stroke-width="0.5"></path>
                            <path d="M47.757,42.055 C47.757,42.055 49.524,47.53 47.787,48.565" id="Path" stroke="#444053" stroke-width="0.5"></path>
                            <path d="M41.97,50.266 C41.97,50.266 45.339,46.921 44.4,46.306" id="Path" stroke="#444053" stroke-width="0.5"></path>
                            <path d="M35.781,22.48 C35.781,22.48 38.73,36.487 34.899,40.267" id="Path" stroke="#444053" stroke-width="0.5"></path>
                            <path d="M23.451,55.807 C23.451,55.807 36.798,47.236 37.962,42.172" id="Path" stroke="#444053" stroke-width="0.5"></path>
                            <path d="M15.72,49.765 C15.72,49.765 28.275,43.912 31.68,38.305" id="Path" stroke="#444053" stroke-width="0.5"></path>
                            <path d="M24.15,17.992 C24.15,17.992 30.225,28.126 26.43,35.218" id="Path" stroke="#444053" stroke-width="0.5"></path>
                            <path d="M11.625,40.561 C11.625,40.561 20.925,36.796 22.806,33.169" id="Path" stroke="#444053" stroke-width="0.5"></path>
                            <path d="M13.587,21.082 C13.587,21.082 16.698,26.818 15.249,29.311" id="Path" stroke="#444053" stroke-width="0.5"></path>
                            <path d="M45.819,55.018 C45.819,55.018 54.219,53.893 55.119,56.086" id="Path" stroke="#444053" stroke-width="0.5"></path>
                            <path d="M59.25,72.232 C59.25,72.232 58.797,63.046 53.55,59.494" id="Path" stroke="#444053" stroke-width="0.5"></path>
                            <path d="M36.216,58.714 C36.216,58.714 45.033,59.755 48.15,65.506" id="Path" stroke="#444053" stroke-width="0.5"></path>
                            <path d="M51.003,78.895 C51.003,78.895 52.365,72.166 45.924,67.408" id="Path" stroke="#444053" stroke-width="0.5"></path>
                            <path d="M29.865,66.844 C29.865,66.844 37.179,66.469 41.097,69.946" id="Path" stroke="#444053" stroke-width="0.5"></path>
                            <path d="M39.945,80.146 C39.945,80.146 39.261,74.806 37.353,73.795" id="Path" stroke="#444053" stroke-width="0.5"></path>
                            <ellipse id="Oval" fill="#E35205" fill-rule="nonzero" opacity="0.1" cx="192.852" cy="226.396" rx="30.033" ry="7.419"></ellipse>
                            <rect id="Rectangle" fill="url(#linearGradient-1)" fill-rule="nonzero" x="40.398" y="38.713" width="285.099" height="161.499" rx="3.747"></rect>
                            <rect id="Rectangle" fill="#FFFFFF" fill-rule="nonzero" x="40.851" y="40.984" width="284.226" height="158.691" rx="3.747"></rect>
                            <rect id="Rectangle" fill="#FFFFFF" fill-rule="nonzero" x="40.851" y="40.984" width="284.226" height="158.691" rx="3.747"></rect>
                            <rect id="Rectangle" fill="#5A5773" fill-rule="nonzero" opacity="0.04" x="40.851" y="40.984" width="284.226" height="158.691" rx="3.747"></rect>
                            <path d="M323.637,39.163 L42.297,39.163 C41.5000531,39.163 40.854,39.8090531 40.854,40.606 L40.854,46.714 L325.08,46.714 L325.08,40.606 C325.08,39.8090531 324.433947,39.163 323.637,39.163 L323.637,39.163 Z" id="Path" fill="#5A5773" fill-rule="nonzero"></path>
                            <g id="4856ee63-6c9d-47e3-9e79-3603b2312fc4" transform="translate(44.400000, 40.900000)" fill="#FFFFFF" fill-rule="nonzero">
                                <circle id="Oval" cx="2.127" cy="2.034" r="1.95"></circle>
                                <circle id="Oval" cx="7.377" cy="2.034" r="1.95"></circle>
                                <circle id="Oval" cx="12.627" cy="2.034" r="1.95"></circle>
                            </g>
                            <rect id="Rectangle" fill="#E35205" fill-rule="nonzero" opacity="0.1" x="59.877" y="81.841" width="237" height="91.2" rx="3.057"></rect>
                            <rect id="Rectangle" fill="#FFFFFF" fill-rule="nonzero" transform="translate(182.954654, 121.530478) rotate(1.460000) translate(-182.954654, -121.530478) " x="64.4546538" y="75.9304779" width="237" height="91.2" rx="3.057"></rect>
                            <path d="M101.106,92.278 L266.202,96.475" id="Path" stroke="#5A5773" stroke-width="0.5" fill="#F4F4F7" fill-rule="nonzero" opacity="0.2"></path>
                            <path d="M100.779,105.175 L265.875,109.372" id="Path" stroke="#5A5773" stroke-width="0.5" fill="#F4F4F7" fill-rule="nonzero" opacity="0.2"></path>
                            <path d="M100.452,118.069 L265.548,122.266" id="Path" stroke="#5A5773" stroke-width="0.5" fill="#F4F4F7" fill-rule="nonzero" opacity="0.2"></path>
                            <path d="M100.122,130.966 L265.221,135.163" id="Path" stroke="#5A5773" stroke-width="0.5" fill="#F4F4F7" fill-rule="nonzero" opacity="0.2"></path>
                            <path d="M115.128,127.846 L114.711,144.241" id="Path" stroke="#5A5773" stroke-width="0.5" opacity="0.2" stroke-dasharray="3.6"></path>
                            <path d="M99.795,143.863 L264.891,148.057" id="Path" stroke="#5A5773" stroke-width="0.5" fill="#F4F4F7" fill-rule="nonzero" opacity="0.2"></path>
                            <path d="M133.383,144.715 L134.004,120.274" id="Path" stroke="#5A5773" stroke-width="0.5" opacity="0.2" stroke-dasharray="3.6"></path>
                            <path d="M242.598,118.342 C239.655,118.597 236.781,116.947 235.02,115.213 C233.196,113.413 231.873,111.199 230.595,109.045 C230.19,108.364 229.77,107.662 229.347,106.984 C227.118,103.45 224.892,101.074 222.345,99.505 C221.411759,98.9302752 220.41121,98.4728234 219.366,98.143 C219.265709,98.3812071 219.122306,98.5988539 218.943,98.785 C218.557753,99.186189 218.029082,99.4181568 217.473,99.43 L217.374,99.43 C216.343551,99.402273 215.485579,98.6307337 215.349,97.609 C214.4042,97.653816 213.472091,97.8450956 212.586,98.176 C209.967,99.163 207.978,101.284 206.169,103.375 C203.979,105.901 201.867,108.55 199.899,111.253 C199.499,111.799 199.099,112.348 198.699,112.9 C196.563,115.882 194.355,118.963 191.499,121.372 C187.665,124.624 183.054,126.025 179.163,125.122 C174.495,124.039 171.156,119.914 168.771,116.44 C168.471,115.99 168.171,115.54 167.847,115.081 C165.621,111.781 163.32,108.37 159.924,106.381 C155.451,103.756 149.274,104.209 145.224,107.452 C143.25,109.033 141.768,111.181 140.331,113.257 C139.839,113.971 139.329,114.709 138.804,115.417 C136.104,119.044 133.383,121.012 130.449,121.438 C129.285566,121.567019 128.111434,121.567019 126.948,121.438 C126.174,121.384 125.373,121.324 124.59,121.345 C120.61648,121.514571 117.022389,123.753905 115.119,127.246 L114.705,144.514 L244.398,147.814 L245.124,119.245 C244.674418,119.489484 244.142023,119.531042 243.659949,119.359282 C243.177876,119.187522 242.791703,118.818683 242.598,118.345 L242.598,118.342 Z" id="Path" fill="#E35205" fill-rule="nonzero" opacity="0.2"></path>
                            <path d="M153.585,104.674 L152.556,145.204" id="Path" stroke="#5A5773" stroke-width="0.5" opacity="0.2" stroke-dasharray="3.6"></path>
                            <path d="M171.672,120.181 L171.024,145.672" id="Path" stroke="#5A5773" stroke-width="0.5" opacity="0.2" stroke-dasharray="3.6"></path>
                            <path d="M189.66,123.172 L189.078,146.131" id="Path" stroke="#5A5773" stroke-width="0.5" opacity="0.2" stroke-dasharray="3.6"></path>
                            <path d="M207.117,102.625 L206.001,146.56" id="Path" stroke="#5A5773" stroke-width="0.5" opacity="0.2" stroke-dasharray="3.6"></path>
                            <path d="M224.883,101.092 L223.716,147.013" id="Path" stroke="#5A5773" stroke-width="0.5" opacity="0.2" stroke-dasharray="3.6"></path>
                            <path d="M244.56,118.357 L243.816,147.523" id="Path" stroke="#5A5773" stroke-width="0.5" opacity="0.2" stroke-dasharray="3.6"></path>
                            <path d="M219.186,96.118 C218.783577,95.7314609 218.243864,95.5209725 217.686,95.533 C216.6647,95.5516665 215.804968,96.3025075 215.649,97.312 C215.630367,97.4310539 215.622336,97.5515263 215.625,97.672 C215.625,97.753 215.625,97.834 215.643,97.912 C215.706756,98.3820149 215.927751,98.8166033 216.27,99.145 C216.642433,99.5159627 217.142536,99.7305993 217.668,99.745 L217.767,99.745 C218.323694,99.7347357 218.853524,99.5038115 219.24,99.103 C219.418411,98.9161396 219.561699,98.6986665 219.663,98.461 C219.741289,98.2743678 219.791825,98.0772768 219.813,97.876 C219.820473,97.7851534 219.820473,97.6938466 219.813,97.603 C219.809864,97.0443017 219.584221,96.5098843 219.186,96.118 Z M219.081,98.278 C219.013906,98.4240844 218.92148,98.5571375 218.808,98.671 C218.417006,99.0746615 217.833176,99.2259075 217.295371,99.0628596 C216.757566,98.8998117 216.356014,98.449825 216.255,97.897 C216.238454,97.8190433 216.229412,97.7396809 216.228,97.66 C216.224818,97.5389637 216.236913,97.4180093 216.264,97.3 C216.415764,96.62645 217.007696,96.1434931 217.698,96.13 L217.767,96.13 C218.567507,96.1506321 219.210649,96.7964147 219.228,97.597 C219.228,97.627 219.228,97.66 219.228,97.69 C219.222686,97.8944047 219.172501,98.095142 219.081,98.278 L219.081,98.278 Z" id="Shape" fill="#E35205" fill-rule="nonzero"></path>
                            <circle id="Oval" fill="#E35205" fill-rule="nonzero" cx="244.578" cy="117.964" r="1.8"></circle>
                            <path d="M216.228,97.66 C216.229412,97.7396809 216.238454,97.8190433 216.255,97.897 C216.051,97.897 215.847,97.897 215.655,97.912 C214.709265,97.9571338 213.776217,98.1483986 212.889,98.479 C210.27,99.466 208.281,101.587 206.469,103.678 C204.279,106.201 202.167,108.853 200.196,111.553 C199.797,112.099 199.404,112.651 198.996,113.203 C196.857,116.185 194.649,119.263 191.796,121.675 C187.959,124.924 183.345,126.325 179.451,125.422 C174.789,124.342 171.45,120.214 169.05,116.74 C168.75,116.293 168.432,115.84 168.126,115.381 C165.897,112.081 163.593,108.67 160.197,106.681 C155.724,104.056 149.541,104.509 145.497,107.752 C143.55,109.33 142.05,111.478 140.613,113.554 C140.118,114.268 139.608,115.009 139.083,115.714 C136.383,119.341 133.659,121.309 130.725,121.735 C129.561482,121.862492 128.387518,121.862492 127.224,121.735 C126.43912,121.663465 125.651075,121.632424 124.863,121.642 C120.594175,121.819577 116.789309,124.386324 115.026,128.278 L114.474,128.038 C116.334887,123.936669 120.345229,121.2314 124.845,121.042 C125.654142,121.030129 126.463331,121.062176 127.269,121.138 C128.388714,121.2595 129.518286,121.2595 130.638,121.138 C133.407,120.739 136.011,118.846 138.6,115.354 C139.119,114.655 139.626,113.92 140.118,113.209 C141.579,111.109 143.091,108.916 145.131,107.278 C149.554585,103.817919 155.631111,103.375753 160.509,106.159 C164.025,108.22 166.368,111.688 168.636,115.045 C168.936,115.495 169.236,115.945 169.557,116.398 C171.882,119.782 175.122,123.799 179.595,124.834 C183.303,125.695 187.722,124.342 191.415,121.213 C194.202,118.852 196.395,115.813 198.51,112.849 C198.903,112.297 199.302,111.745 199.71,111.196 C201.693,108.496 203.814,105.82 206.01,103.279 C207.873,101.131 209.91,98.95 212.673,97.915 C213.629826,97.5614114 214.63588,97.358986 215.655,97.315 C215.856,97.315 216.063,97.297 216.255,97.315 C216.232164,97.4284965 216.223099,97.5443328 216.228,97.66 L216.228,97.66 Z" id="Path" fill="#E35205" fill-rule="nonzero"></path>
                            <path d="M244.683,118.246 C241.164,119.56 237.444,117.598 235.326,115.516 C233.502,113.716 232.179,111.499 230.901,109.345 C230.496,108.667 230.076,107.962 229.65,107.287 C227.421,103.75 225.195,101.374 222.645,99.805 C221.711383,99.2317471 220.710893,98.7753303 219.666,98.446 C219.474,98.383 219.279,98.329 219.066,98.278 C219.157076,98.0960538 219.207249,97.8963869 219.213,97.693 C219.411,97.744 219.606,97.801 219.813,97.861 C220.915523,98.2066151 221.97066,98.6883297 222.954,99.295 C225.588,100.912 227.874,103.348 230.154,106.966 C230.583,107.65 231.003,108.355 231.414,109.042 C232.674,111.16 233.976,113.353 235.743,115.087 C237.732,117.043 241.215,118.9 244.47,117.685 L244.683,118.246 Z" id="Path" fill="#E35205" fill-rule="nonzero"></path>
                            <rect id="Rectangle" fill="#E35205" fill-rule="nonzero" opacity="0.5" transform="translate(104.194590, 91.015525) rotate(1.460000) translate(-104.194590, -91.015525) " x="101.13459" y="89.6655254" width="6.12" height="2.7" rx="0.27"></rect>
                            <rect id="Rectangle" fill="#E35205" fill-rule="nonzero" transform="translate(103.863170, 103.908931) rotate(1.460000) translate(-103.863170, -103.908931) " x="100.80317" y="102.558931" width="6.12" height="2.7" rx="0.27"></rect>
                            <rect id="Rectangle" fill="#E35205" fill-rule="nonzero" opacity="0.5" transform="translate(103.534673, 116.808413) rotate(1.460000) translate(-103.534673, -116.808413) " x="100.474673" y="115.458413" width="6.12" height="2.7" rx="0.27"></rect>
                            <rect id="Rectangle" fill="#E35205" fill-rule="nonzero" opacity="0.5" transform="translate(103.206253, 129.701895) rotate(1.460000) translate(-103.206253, -129.701895) " x="100.146253" y="128.351895" width="6.12" height="2.7" rx="0.27"></rect>
                            <rect id="Rectangle" fill="#E35205" fill-rule="nonzero" opacity="0.5" transform="translate(102.877755, 142.598377) rotate(1.460000) translate(-102.877755, -142.598377) " x="99.8177555" y="141.248377" width="6.12" height="2.7" rx="0.27"></rect>
                            <rect id="Rectangle" fill="#E35205" fill-rule="nonzero" opacity="0.5" transform="translate(114.228070, 148.288691) rotate(1.460000) translate(-114.228070, -148.288691) " x="111.16807" y="146.938691" width="6.12" height="2.7" rx="0.27"></rect>
                            <rect id="Rectangle" fill="#E35205" fill-rule="nonzero" opacity="0.5" transform="translate(133.271581, 148.773757) rotate(1.460000) translate(-133.271581, -148.773757) " x="130.211581" y="147.423757" width="6.12" height="2.7" rx="0.27"></rect>
                            <rect id="Rectangle" fill="#E35205" fill-rule="nonzero" transform="translate(151.759890, 150.082120) rotate(1.718358) translate(-151.759890, -150.082120) " x="148.698513" y="148.731513" width="6.12275338" height="2.70121473" rx="0.27"></rect>
                            <rect id="Rectangle" fill="#E35205" fill-rule="nonzero" opacity="0.5" transform="translate(170.911978, 149.732503) rotate(1.460000) translate(-170.911978, -149.732503) " x="167.851978" y="148.382503" width="6.12" height="2.7" rx="0.27"></rect>
                            <rect id="Rectangle" fill="#E35205" fill-rule="nonzero" opacity="0.5" transform="translate(188.963423, 150.195277) rotate(1.460000) translate(-188.963423, -150.195277) " x="185.903423" y="148.845277" width="6.12" height="2.7" rx="0.27"></rect>
                            <rect id="Rectangle" fill="#E35205" fill-rule="nonzero" transform="translate(205.884998, 150.623319) rotate(1.460000) translate(-205.884998, -150.623319) " x="202.824998" y="149.273319" width="6.12" height="2.7" rx="0.27"></rect>
                            <rect id="Rectangle" fill="#E35205" fill-rule="nonzero" transform="translate(223.726664, 151.077744) rotate(1.460000) translate(-223.726664, -151.077744) " x="220.666664" y="149.727744" width="6.12" height="2.7" rx="0.27"></rect>
                            <rect id="Rectangle" fill="#E35205" fill-rule="nonzero" transform="translate(243.043230, 152.823010) rotate(1.718358) translate(-243.043230, -152.823010) " x="239.981853" y="151.472403" width="6.12275338" height="2.70121473" rx="0.417"></rect>
                            <path d="M294.261,179.646994 C295.677917,179.646898 296.897588,180.647715 297.174108,182.037387 C297.450627,183.427059 296.70698,184.818541 295.397953,185.360852 C294.088926,185.903163 292.579105,185.445261 291.791842,184.267183 C291.004579,183.089104 291.15914,181.518962 292.161,180.517 C292.717,179.958599 293.473,179.645399 294.261,179.646994 L294.261,179.646994 Z M294.261,179.184999 C292.871127,179.184999 291.618223,180.022564 291.086904,181.306872 C290.555585,182.59118 290.85057,184.069105 291.834218,185.051034 C292.817865,186.032963 294.296303,186.325365 295.57968,185.791801 C296.863058,185.258237 297.698428,184.003871 297.696005,182.614 C297.695205,181.703777 297.332857,180.83115 296.68867,180.188088 C296.044482,179.545026 295.171223,179.184204 294.261,179.184999 L294.261,179.184999 Z" id="Shape" fill="#E35205" fill-rule="nonzero"></path>
                            <path d="M293.34,183.628 L293.52,183.388 C293.695605,183.560312 293.930991,183.658121 294.177,183.661 C294.477,183.661 294.714,183.508 294.714,183.265 C294.714,183.022 294.495,182.827 293.889,182.827 L293.889,182.551 C294.429,182.551 294.633,182.371 294.633,182.137 C294.633,181.903 294.45,181.792 294.183,181.792 C293.972424,181.798563 293.77121,181.880539 293.616,182.023 L293.424,181.792 C293.638095,181.603106 293.912526,181.496738 294.198,181.492 C294.663,181.492 295.008,181.717 295.008,182.11 C295.008,182.386 294.807,182.569 294.513,182.668 L294.513,182.683 C294.825531,182.71597 295.068809,182.969384 295.089,183.283 C295.089,183.709 294.687,183.967 294.207,183.967 C293.883365,183.979883 293.569062,183.856989 293.34,183.628 L293.34,183.628 Z" id="Path" fill="#E35205" fill-rule="nonzero"></path>
                            <path d="M308.448,179.847991 C309.864917,179.847898 311.084588,180.848715 311.361108,182.238387 C311.637627,183.628059 310.89398,185.019541 309.584953,185.561852 C308.275926,186.104163 306.766105,185.646261 305.978842,184.468183 C305.191579,183.290104 305.34614,181.719962 306.348,180.718 C306.90381,180.159317 307.659934,179.846065 308.448,179.847991 L308.448,179.847991 Z M308.448,179.385999 C306.550902,179.385999 305.013,180.923902 305.013,182.821 C305.013,184.718098 306.550902,186.256 308.448,186.256 C310.345098,186.256 311.883001,184.718098 311.883001,182.821 C311.883797,181.909737 311.522152,181.035569 310.877792,180.391208 C310.233431,179.746848 309.359263,179.385203 308.448,179.385999 L308.448,179.385999 Z" id="Shape" fill="#5A5773" fill-rule="nonzero"></path>
                            <path d="M308.493,182.461 C308.493,182.314 308.493,182.128 308.514,181.981 L308.493,181.981 C308.409,182.11 308.313,182.239 308.229,182.368 L307.629,183.151 L309.252,183.151 L309.252,183.466 L307.209,183.466 L307.209,183.214 L308.427,181.612 L308.874,181.612 L308.874,184.162 L308.502,184.162 L308.493,182.461 Z" id="Path" fill="#5A5773" fill-rule="nonzero"></path>
                            <path d="M300.621,180.859 C300.743486,180.73894 300.939514,180.73894 301.062,180.859 L302.61,182.413 C302.668666,182.469545 302.701808,182.54752 302.701808,182.629 C302.701808,182.71048 302.668666,182.788455 302.61,182.845 L301.086,184.375 C301.029143,184.437554 300.948533,184.473218 300.864,184.473218 C300.779467,184.473218 300.698857,184.437554 300.642,184.375 C300.580437,184.318205 300.54542,184.23826 300.54542,184.1545 C300.54542,184.07074 300.580437,183.990795 300.642,183.934 L301.95,182.614 L300.621,181.3 C300.558446,181.243143 300.522782,181.162533 300.522782,181.078 C300.522782,180.993467 300.558446,180.912857 300.621,180.856 L300.621,180.859 Z" id="Path" fill="#5A5773" fill-rule="nonzero"></path>
                            <path d="M297.980995,182.614 C297.978573,183.980149 298.799975,185.213016 300.061669,185.73694 C301.323364,186.260864 302.776465,185.972495 303.74248,185.00648 C304.708495,184.040465 304.996864,182.587364 304.47294,181.325669 C303.949016,180.063975 302.716149,179.242573 301.35,179.244995 C299.490038,179.246654 297.982654,180.754038 297.980995,182.614 Z M298.499987,182.614 C298.497499,181.249504 299.459583,180.073415 300.797508,179.805437 C302.135433,179.537459 303.476256,180.252291 303.999465,181.512492 C304.522674,182.772694 304.082425,184.226988 302.948127,184.985424 C301.81383,185.74386 300.301666,185.595026 299.337,184.63 C298.799254,184.097223 298.497733,183.370979 298.499987,182.614 L298.499987,182.614 Z" id="Shape" fill="#5A5773" fill-rule="nonzero"></path>
                            <rect id="Rectangle" fill="#5A5773" fill-rule="nonzero" opacity="0.2" x="49.827" y="54.715" width="68.172" height="7.155" rx="1.158"></rect>
                            <path d="M212.157,225.142 C211.659,223.342 211.335,221.752 211.335,221.752 C211.335,221.752 211.356,219.772 210.411,218.317 L210.393,217.822 L210.393,217.822 L210.252,214.162 C210.478743,213.487963 210.762781,212.834577 211.101,212.209 C211.719,211.033 210.897,206.845 210.897,206.845 C210.897,206.845 208.224,200.998 208.674,197.206 C209.124,193.414 203.016,180.661 203.016,180.661 C203.001121,179.409395 203.129965,178.160218 203.4,176.938 C203.447429,176.680881 203.461545,176.418725 203.442,176.158 C203.442,176.125 203.442,176.098 203.442,176.062 C203.442,176.062 203.442,176.083 203.442,176.092 C203.265,173.611 201.12,169.027 201.12,169.027 L201.042,160.138 C201.042,160.138 202.095,154.852 199.776,147.904 C198.969,145.48 198.435,143.536 198.087,142.03 C198.048,141.862 198.009,141.697 197.976,141.541 C202.176,140.734 205.359,140.077 205.359,140.077 C205.359,140.077 202.524,129.952 200.805,128.227 C199.086,126.502 197.55,120.934 197.55,120.934 C197.55,120.934 196.413,113.749 197.718,111.586 C199.023,109.423 199.083,105.778 199.083,105.778 C199.083,105.778 202.161,103.354 202.518,102.319 C202.875,101.284 203.445,98.956 203.4,97.741 C203.355,96.526 202.914,95.458 203.022,94.813 C203.13,94.168 201.981,91.783 202.464,90.613 C202.586344,90.2540535 202.643246,89.8760568 202.632,89.497 C202.632,89.497 202.632,89.473 202.632,89.464 C202.632,89.455 202.632,89.464 202.632,89.449 C202.59766,88.443647 202.466045,87.4439818 202.239,86.464 C201.295089,85.7247065 200.205104,85.194029 199.041,84.907 L198.96,84.637 L198.75,83.914 C198.642,83.848 198.537,83.791 198.432,83.74 L198.414,83.479 L198.345,82.444 L198.75,80.104 C199.566,76.009 194.133,75.604 194.133,75.604 C193.781792,74.9937845 193.216087,74.5360872 192.546,74.32 C191.442,73.978 192.6,80.428 193.125,80.821 C193.518,81.121 194.781,83.107 195.39,84.085 L195.39,84.085 L195.486,84.244 C195.401353,84.3288823 195.322194,84.4190645 195.249,84.514 L195.51,85.915 L195.549,86.128 C195.209053,86.586455 194.937236,87.0916904 194.742,87.628 C194.742,87.628 195.774,88.678 195.624,89.899 C195.474,91.12 196.032,92.614 196.059,92.695 C195.999,92.629 195.273,91.903 194.586,92.113 C193.899,92.323 191.976,92.98 191.976,92.98 C191.976,92.98 190.533,93.28 190.677,93.607 C190.821,93.934 189.753,95.371 189.753,95.371 L185.709,91.822 C185.667,91.714 185.622,91.606 185.583,91.492 C185.400534,90.9703189 185.265978,90.4330984 185.181,89.887 C185.602132,89.7675874 186.014183,89.6182063 186.414,89.44 C186.818694,89.2841088 187.179882,89.0330268 187.467,88.708 C187.842,88.225 187.893,87.589 188.031,87.001 C188.295,85.855 188.931,84.817 189.354,83.719 C190.081265,81.8746578 190.272615,79.8623597 189.906,77.914 C189.820456,77.3114302 189.59324,76.7377349 189.243,76.24 C188.571,75.388 187.404,75.076 186.543,74.41 C185.682,73.744 185.091,72.697 184.092,72.208 C183.192,71.77 182.112,71.866 181.122,72.07 C179.175792,72.4615815 177.319924,73.213493 175.65,74.287 C175.095,74.644 174.486,75.058 173.826,74.965 C173.262,74.884 172.833,74.452 172.455,74.038 C172.455,74.02 172.455,74.002 172.47,73.984 L172.425,73.933 C172.047464,74.8661345 171.879506,75.8708076 171.933,76.876 C171.933,77.032 171.945,77.188 171.969,77.344 C171.969,77.398 171.969,77.452 171.984,77.506 C171.986999,77.55095 171.986999,77.59605 171.984,77.641 L171.984,77.641 C171.985928,77.7106159 171.97887,77.7801897 171.963,77.848 C171.888115,78.0515697 171.770474,78.2367272 171.618,78.391 C171.505476,78.5301405 171.405107,78.6786861 171.318,78.835 C171.318,78.781 171.348,78.727 171.366,78.676 C171.130404,79.0483275 171.006508,79.4804016 171.009,79.921 C170.999845,80.2417401 171.117313,80.5531933 171.336,80.788 C171.538727,80.9717947 171.758751,81.1355567 171.993,81.277 C171.931689,81.7091194 171.909599,82.1458997 171.927,82.582 C172.038507,85.225192 173.527853,87.6163439 175.851,88.882 L175.995,89.212 C176.544,90.505 176.979,92.02 176.868,93.439 C176.868,93.544 176.847,93.646 176.832,93.739 C176.784,93.793 176.739,93.85 176.697,93.907 L176.697,93.907 C176.697,93.907 170.256,94.207 168.687,92.902 C167.118,91.597 164.988,96.403 164.988,96.403 C164.988,96.403 162.696,96.94 162.219,96.511 C161.742,96.082 159.048,96.568 159.048,96.568 C157.90318,95.627517 156.443464,95.157748 154.965,95.254 C154.037998,94.6030088 153.022739,94.0878031 151.95,93.724 L151.95,93.724 L151.878,93.7 L151.878,93.7 C151.40672,93.5485544 150.907526,93.5044776 150.417,93.571 C150.417,93.571 147.15,91.075 146.172,89.704 C145.194,88.333 140.592,83.29 140.571,83.269 L140.55,83.014 L140.472,82.258 C140.342168,82.2824338 140.210896,82.2984671 140.079,82.306 C140.053,82.232 140.02,82.145 139.98,82.045 C139.698171,81.3187264 139.358062,80.6164368 138.963,79.945 C138.963,79.945 138.927,78.985 139.197,78.745 C139.467,78.505 138.936,74.995 138.936,74.995 C138.936,74.995 135.825,68.431 133.458,73.513 C133.458,73.513 128.748,76.924 132.951,80.521 C132.951,80.521 134.601,81.241 134.853,81.853 C135.018,82.252 135.612,83.353 136.011,84.091 L136.188,84.421 L136.143,84.46 L136.227,85.084 L136.26,85.327 C135.513,85.792 135.012,86.242 135.15,86.56 C135.396429,87.1047807 135.573803,87.6782249 135.678,88.267 C135.678,88.267 141.558,95.08 142.401,98.053 C142.401,98.053 157.791,106.417 162.765,106.867 L162.081,111.367 C162.081,111.367 161.919,114.067 162.021,115.015 C162.123,115.963 161.631,120.34 161.631,120.34 C161.631,120.34 161.031,126.763 160.329,127.684 C159.627,128.605 159.915,132.433 159.915,132.433 C159.812301,134.274993 159.551339,136.104739 159.135,137.902 C158.502,140.356 159.135,143.338 159.135,143.338 C159.135,143.338 156.849,149.185 162.702,145.057 C162.702,145.057 165.645,144.757 169.035,144.514 C169.035,144.625 169.035,144.736 169.035,144.853 C169.035,145.291 169.053,145.753 169.068,146.263 C169.149,149.563 169.305,154.096 169.584,157.522 C170.082,163.579 172.392,175.522 172.392,175.522 L172.623,181.555 C172.526928,182.126668 172.491732,182.706911 172.518,183.286 C172.557059,185.413909 173.201169,187.486714 174.375,189.262 L174.993,193.27 C174.993,193.27 176.193,195.877 176.259,197.47 C176.260396,197.599631 176.250357,197.729133 176.229,197.857 C176.195919,198.06123 176.185856,198.268526 176.199,198.475 C176.199,200.305 177.477,204.634 177.477,204.634 C177.477,204.634 177.714,209.038 178.377,209.269 C178.95,209.467 177.72,211.837 177.354,212.521 C177.354,212.479 177.333,212.437 177.324,212.395 L177.249,212.53 C177.125387,212.890651 177.069448,213.271031 177.084,213.652 C177.032325,214.269363 177.340576,214.861345 177.876,215.173 C179.16,215.893 179.859,216.505 178.803,216.802 C178.414085,216.882074 178.029572,216.982208 177.651,217.102 L177.591,216.958 C177.309243,217.096458 177.153669,217.405156 177.21,217.714 C177.192,218.035 177.318,218.503 177.66,219.193 C178.806,221.515 179.574,222.382 179.574,222.382 L180.078,222.304 C180.010333,222.500535 179.918638,222.687956 179.805,222.862 C179.623885,223.146476 179.376922,223.383149 179.085,223.552 C178.812762,223.729329 178.506015,223.846916 178.185,223.897 C177.460992,223.946812 176.792831,224.303819 176.349,224.878 C175.725,225.754 175.356,226.93 176.697,227.899 L181.479,229.345 C181.479,229.345 189.636,230.089 189.135,228.283 C188.634,226.477 188.313,224.893 188.313,224.893 C188.302024,223.778977 188.034069,222.68252 187.53,221.689 C187.441888,221.526646 187.341601,221.371201 187.23,221.224 L187.515,221.179 C187.515,221.179 187.956,217.132 188.715,216.337 C188.889,216.151 188.925,216.016 188.88,215.911 C188.952,215.689 188.742,215.569 188.472,215.506 C188.454,215.56 188.436,215.611 188.421,215.668 C188.166507,215.623808 187.908168,215.605715 187.65,215.614 C187.65,215.614 187.305,213.514 188.133,212.716 C188.267134,212.534312 188.318337,212.304442 188.274,212.083 C188.270344,211.79407 188.230021,211.506773 188.154,211.228 C188.154,211.228 188.136,211.261 188.124,211.279 C187.617,209.383 186.039,206.398 186.039,206.398 C186.039,206.398 185.901,204.484 186.399,203.698 C186.897,202.912 185.931,193.288 185.931,193.288 C185.931,193.288 185.949,188.617 185.271,186.469 C184.593,184.321 185.802,181.714 185.802,181.714 C185.802,181.714 185.802,181.663 185.781,181.576 C185.787342,181.565661 185.792381,181.554577 185.796,181.543 C185.796,181.543 185.757,181.243 185.691,180.811 C185.691,180.811 185.691,180.841 185.691,180.856 C185.511,179.626 185.172,177.4 184.947,176.374 C184.626,174.916 184.686,167.875 184.686,167.875 L185.76,164.827 L188.07,169.927 L190.578,176.74 C190.578,176.74 191.748,178.153 191.829,179.629 C191.829,179.701 191.829,179.773 191.829,179.845 C191.829,180.004 191.829,180.145 191.829,180.307 C191.823709,181.180303 192.096934,182.032557 192.609,182.74 C192.609,182.74 193.329,185.974 194.283,186.769 C195.237,187.564 195.303,189.169 195.303,189.169 C195.303,189.169 196.605,193.852 197.166,194.662 C197.637,195.346 197.736,197.269 197.766,197.857 L197.766,197.857 C197.766,197.965 197.766,198.028 197.766,198.028 C197.766,198.028 197.988,199.711 198.036,201.133 C198.036,201.307 198.036,201.478 198.036,201.637 C198.036,201.637 198.036,201.613 198.036,201.601 C198.049912,201.988304 198.018702,202.375912 197.943,202.756 C197.943,202.774 197.943,202.798 197.925,202.822 C197.925,202.741 197.925,202.66 197.925,202.582 C197.729008,203.555046 197.653441,204.548504 197.7,205.54 C197.736,207.241 198.072,209.242 199.146,210.385 C201.006,212.362 202.119,212.062 202.119,212.062 C202.119,212.062 201.36,214.651 200.319,215.203 C200.280048,215.223455 200.243773,215.248646 200.211,215.278 C200.211,215.23 200.187,215.179 200.178,215.131 C199.955617,215.399321 199.856517,215.748891 199.905,216.094 C199.872,217.222 200.652,219.019 201.357,219.832 C201.612719,220.065194 201.921756,220.232074 202.257,220.318 C202.205362,220.357423 202.151251,220.393497 202.095,220.426 C201.98004,220.495463 201.860802,220.557587 201.738,220.612 C201.569952,220.694574 201.389601,220.749288 201.204,220.774 C200.480517,220.822748 199.812873,221.180063 199.371,221.755 C198.747,222.628 198.375,223.804 199.716,224.773 L204.501,226.219 C204.501,226.219 212.658,226.948 212.157,225.142 Z" id="Path" fill="url(#linearGradient-2)" fill-rule="nonzero"></path>
                            <path d="M181.269,229.354 L176.64,227.914 C175.341,226.942 175.695,225.766 176.301,224.893 C176.720966,224.323436 177.368352,223.965238 178.074,223.912 C178.382512,223.862173 178.676385,223.745443 178.935,223.57 C179.220421,223.399976 179.460292,223.163194 179.634,222.88 C179.94638,222.338022 180.103134,221.720349 180.087,221.095 C180.087,221.095 185.046,219.433 186.474,220.849 C186.729286,221.105016 186.945593,221.397132 187.116,221.716 C187.606229,222.711637 187.867606,223.804299 187.881,224.914 C187.881,224.914 188.196,226.498 188.682,228.304 C189.168,230.11 181.269,229.354 181.269,229.354 Z" id="Path" fill="#2D293D" fill-rule="nonzero"></path>
                            <path d="M203.55,226.243 L198.918,224.791 C197.619,223.819 197.976,222.643 198.579,221.77 C198.9982,221.200017 199.646269,220.842537 200.352,220.792 C200.531838,220.767184 200.70625,220.712427 200.868,220.63 C200.988104,220.577145 201.104384,220.515997 201.216,220.447 C202.467,219.694 202.365,217.972 202.365,217.972 C202.365,217.972 207.324,216.31 208.755,217.726 C208.945934,217.917675 209.114972,218.129978 209.259,218.359 C210.177,219.814 210.159,221.8 210.159,221.8 C210.159,221.8 210.477,223.387 210.96,225.19 C211.443,226.993 203.55,226.243 203.55,226.243 Z" id="Path" fill="#2D293D" fill-rule="nonzero"></path>
                            <path d="M186.474,220.837 C186.729286,221.093016 186.945593,221.385132 187.116,221.704 L187.116,221.704 L179.634,222.865 C179.94638,222.323022 180.103134,221.705349 180.087,221.08 C180.087,221.08 185.046,219.421 186.474,220.837 Z" id="Path" fill="#000000" fill-rule="nonzero" opacity="0.1"></path>
                            <path d="M209.25,218.359 L209.304,219.766 C208.212,221.737 202.539,221.533 200.859,220.63 C200.979104,220.577145 201.095384,220.515997 201.207,220.447 C202.458,219.694 202.356,217.972 202.356,217.972 C202.356,217.972 207.315,216.31 208.746,217.726 C208.936934,217.917675 209.105972,218.129978 209.25,218.359 Z" id="Path" fill="#000000" fill-rule="nonzero" opacity="0.1"></path>
                            <path d="M209.91,212.26 C209.582549,212.885765 209.308573,213.538087 209.091,214.21 L209.286,219.256 C208.086,221.413 201.417,220.966 200.478,219.856 C199.539,218.746 198.468,215.776 199.47,215.224 C200.472,214.672 201.204,212.089 201.204,212.089 C201.204,212.089 200.127,212.389 198.324,210.409 C196.521,208.429 196.857,203.875 197.124,202.777 C197.391,201.679 196.938,198.049 196.938,198.049 C196.938,198.049 196.905,195.493 196.362,194.683 C195.819,193.873 194.562,189.187 194.562,189.187 C194.562,189.187 194.502,187.588 193.575,186.787 C192.648,185.986 191.949,182.755 191.949,182.755 C191.39472,181.960898 191.131887,180.99965 191.205,180.034 C191.334,178.429 189.99,176.752 189.99,176.752 L187.554,169.939 L185.31,164.839 L184.275,167.887 C184.275,167.887 184.227,174.925 184.539,176.383 C184.851,177.841 185.385,181.726 185.385,181.726 C185.385,181.726 184.203,184.33 184.863,186.478 C185.523,188.626 185.508,193.3 185.508,193.3 C185.508,193.3 186.456,202.924 185.973,203.71 C185.49,204.496 185.631,206.41 185.631,206.41 C185.631,206.41 188.466,211.93 187.665,212.728 C186.864,213.526 187.2,215.623 187.2,215.623 C187.2,215.623 189,215.554 188.25,216.352 C187.5,217.15 187.095,221.194 187.095,221.194 L179.406,222.394 C179.406,222.394 178.662,221.527 177.549,219.202 C176.436,216.877 177.66,217.087 178.677,216.802 C179.694,216.517 179.022,215.902 177.777,215.173 C176.532,214.444 177.177,212.701 177.177,212.701 C177.177,212.701 178.908,209.5 178.26,209.269 C177.612,209.038 177.378,204.634 177.378,204.634 C177.378,204.634 175.899,199.444 176.178,198.034 C176.457,196.624 174.978,193.282 174.978,193.282 L174.378,189.274 C171.9,185.383 172.65,181.714 172.65,181.714 L172.41,175.516 C172.41,175.516 170.16,163.576 169.671,157.516 C169.371,153.634 169.2,148.33 169.128,145.018 C169.086,143.158 169.071,141.928 169.071,141.928 L196.557,137.992 C196.557,137.992 196.578,139.267 197.214,142.072 C197.553,143.572 198.072,145.522 198.858,147.949 C201.108,154.897 200.097,160.183 200.097,160.183 L200.184,169.072 C200.184,169.072 202.839,174.919 202.407,176.983 C202.151927,178.206154 202.032206,179.45366 202.05,180.703 C202.05,180.703 207.978,193.462 207.549,197.254 C207.12,201.046 209.709,206.893 209.709,206.893 C209.709,206.893 210.504,211.084 209.91,212.26 Z" id="Path" fill="#575988" fill-rule="nonzero"></path>
                            <path d="M192.852,179.587 L201.21,178.144 C201.21,178.144 196.65,183.184 192.852,179.587 Z" id="Path" fill="#000000" fill-rule="nonzero" opacity="0.05"></path>
                            <path d="M199.68,169.984 C199.68,169.984 200.082,172.942 198.303,174.13 C198.303,174.13 201.543,173.494 199.68,169.984 Z" id="Path" fill="#000000" fill-rule="nonzero" opacity="0.1"></path>
                            <path d="M198.801,160.549 C198.801,160.549 192,166.6 189.429,166.219 C186.858,165.838 198.801,160.549 198.801,160.549 Z" id="Path" fill="#000000" fill-rule="nonzero" opacity="0.1"></path>
                            <path d="M182.55,182.701 C182.55,182.701 177.258,184.114 177.18,186.265 C177.102,188.416 182.55,182.701 182.55,182.701 Z" id="Path" fill="#000000" fill-rule="nonzero" opacity="0.1"></path>
                            <path d="M184.743,209.293 C184.743,209.293 177.261,210.988 179.436,211.864 C181.611,212.74 185.157,213.364017 185.157,213.364017 C185.157,213.364017 187.587,213.406 184.743,209.293 Z" id="Path" fill="#000000" fill-rule="nonzero" opacity="0.05"></path>
                            <g id="Group" opacity="0.05" transform="translate(168.900000, 141.700000)" fill="#000000" fill-rule="nonzero">
                                <path d="M9.072,71.742 C8.6808932,71.5150307 8.41304894,71.1237356 8.343,70.677 L8.271,70.815 C8.271,70.815 7.632,72.567 8.871,73.287 C9.015,73.368 9.147,73.449 9.276,73.53 C9.495,73.479 9.738,73.44 9.966,73.371 C10.992,73.077 10.317,72.462 9.072,71.742 Z" id="Path"></path>
                                <path d="M18.75,70.86 C18.951,70.659 18.924,70.17 18.774,69.543 C18.453,70.053 18.399,70.824 18.417,71.409 C18.4860977,71.2036552 18.5998214,71.0161646 18.75,70.86 L18.75,70.86 Z" id="Path"></path>
                                <path d="M16.38,39.114 C16.1311416,39.879763 15.9897925,40.676366 15.96,41.481 C16.083235,40.920103 16.2579761,40.3717774 16.482,39.843 C16.482,39.843 16.443,39.57 16.38,39.114 Z" id="Path"></path>
                                <path d="M33.507,35.106 C33.5494772,34.8745744 33.564581,34.638955 33.552,34.404 C33.474,34.887 33.426,35.331 33.393,35.721 C33.426,35.514 33.465,35.316 33.507,35.106 Z" id="Path"></path>
                                <path d="M17.073,61.839 C17.169,61.68 17.208,61.149 17.208,60.414 C16.9947486,60.9895441 16.8929386,61.6004038 16.908,62.214 C16.9478001,62.0828493 17.0031962,61.9569491 17.073,61.839 Z" id="Path"></path>
                                <path d="M19.119,73.824 C18.648,75.282 18.39,77.781 18.39,77.781 L10.701,78.981 C10.701,78.981 9.957,78.114 8.85,75.783 C8.754,75.579 8.673,75.396 8.61,75.228 C8.157,75.459 7.992,75.945 8.655,77.328 C9.768,79.653 10.509,80.52 10.509,80.52 L18.198,79.32 C18.198,79.32 18.618,75.273 19.356,74.475 C19.713,74.091 19.464,73.914 19.119,73.824 Z" id="Path"></path>
                                <path d="M8.472,62.745 C8.472,62.745 8.706,67.152 9.354,67.383 L9.354,67.383 C9.654,66.639 9.837,65.94 9.546,65.838 C8.898,65.607 8.664,61.2 8.664,61.2 C8.664,61.2 7.185,56.013 7.464,54.6 C7.743,53.187 6.264,49.848 6.264,49.848 L5.664,45.843 C3.213,41.97 3.966,38.295 3.966,38.295 L3.726,32.1 C3.726,32.1 1.476,20.16 0.987,14.1 C0.687,10.221 0.516,4.914 0.444,1.602 C0.444,1.002 0.42,0.474 0.411,0.027 L0.192,0.057 C0.192,0.057 0.192,1.287 0.246,3.147 C0.321,6.447 0.477,11.763 0.792,15.642 C1.281,21.702 3.531,33.642 3.531,33.642 L3.75,39.834 C3.75,39.834 2.997,43.509 5.448,47.382 L6.048,51.39 C6.048,51.39 7.521,54.723 7.248,56.139 C6.975,57.555 8.472,62.745 8.472,62.745 Z" id="Path"></path>
                                <path d="M31.773,76.434 C31.1087841,75.5515756 30.6505758,74.5316265 30.432,73.449 C29.67,74.19 30.684,76.917 31.575,77.979 C32.514,79.095 39.183,79.542 40.38,77.379 L40.332,76.161 C38.673,77.946 32.658,77.49 31.773,76.434 Z" id="Path"></path>
                                <path d="M41.202,68.844 C40.8745486,69.4697647 40.6005734,70.1220865 40.383,70.794 L40.416,71.694 C40.548,71.361 40.74,70.917 41.016,70.389 C41.1988625,69.8789773 41.2734475,69.3364476 41.235,68.796 C41.217,68.814 41.211,68.829 41.202,68.844 Z" id="Path"></path>
                                <path d="M31.926,70.209 C32.1493177,69.707937 32.3397217,69.1928441 32.496,68.667 C32.496,68.667 31.419,68.967 29.616,66.987 C28.305,65.547 28.116,62.742 28.233,60.9 C27.954,61.998 27.618,66.552 29.433,68.529 C30.6,69.822 31.467,70.143 31.926,70.209 Z" id="Path"></path>
                                <path d="M28.05,56.172 C28.2093627,57.4261288 28.3004969,58.6879869 28.323,59.952 C28.3465471,59.7499575 28.3826165,59.549572 28.431,59.352 C28.71,58.254 28.245,54.627 28.245,54.627 C28.245,54.627 28.212,52.068 27.669,51.258 C27.126,50.448 25.869,45.762 25.869,45.762 C25.869,45.762 25.809,44.166 24.882,43.362 C23.955,42.558 23.25,39.339 23.25,39.339 C22.6941246,38.5456459 22.4311329,37.5838173 22.506,36.618 C22.635,35.013 21.306,33.339 21.306,33.339 L18.849,26.514 L16.605,21.414 L15.57,24.474 C15.57,24.474 15.57,24.852 15.57,25.446 L16.41,22.971 L18.654,28.071 L21.093,34.887 C21.093,34.887 22.437,36.564 22.293,38.166 C22.2191826,39.1326542 22.4820478,40.0950803 23.037,40.89 C23.037,40.89 23.739,44.124 24.663,44.922 C25.587,45.72 25.653,47.322 25.653,47.322 C25.653,47.322 26.919,52.008 27.453,52.818 C27.987,53.628 28.05,56.172 28.05,56.172 Z" id="Path"></path>
                            </g>
                            <path d="M197.79,80.143 L197.4,82.495 L197.469,83.53 L197.517,84.295 L194.865,84.673 L194.544,84.133 L194.544,84.133 C193.944,83.155 192.729,81.166 192.348,80.866 C191.838,80.473 190.71,74.023 191.781,74.365 C192.434144,74.5899886 192.981155,75.0483238 193.317,75.652 C193.317,75.652 198.576,76.051 197.79,80.143 Z" id="Path" fill="#FFCDD3" fill-rule="nonzero"></path>
                            <path d="M197.517,84.295 L194.865,84.673 L194.544,84.133 L194.544,84.133 C195.251408,83.2614681 196.475606,83.0103506 197.469,83.533 L197.517,84.295 Z" id="Path" fill="#000000" fill-rule="nonzero" opacity="0.1"></path>
                            <path d="M198.24,85.534 L194.757,86.482 L194.661,85.963 L194.409,84.562 C194.409,84.562 195.729,82.654 197.793,83.962 L197.997,84.673 L198.24,85.534 Z" id="Path" fill="#DCE6F2" fill-rule="nonzero"></path>
                            <path d="M141.108,82.579 L137.436,84.739 C137.436,84.739 137.28,84.439 137.067,84.043 C136.683,83.308 136.107,82.201 135.945,81.805 C135.699,81.205 134.103,80.467 134.103,80.467 C130.032,76.867 134.586,73.462 134.586,73.462 C136.869,68.383 139.89,74.962 139.89,74.962 C139.89,74.962 140.406,78.463 140.145,78.712 C139.884,78.961 139.92,79.912 139.92,79.912 C140.306319,80.5835993 140.636444,81.2859923 140.907,82.012 C141.039,82.363 141.108,82.579 141.108,82.579 Z" id="Path" fill="#FFCDD3" fill-rule="nonzero"></path>
                            <path d="M141.108,82.579 L137.436,84.739 C137.436,84.739 137.28,84.439 137.067,84.043 C137.58,83.581 139.398,81.985 140.019,82.03 C140.318329,82.0583831 140.619671,82.0583831 140.919,82.03 C141.039,82.363 141.108,82.579 141.108,82.579 Z" id="Path" fill="#000000" fill-rule="nonzero" opacity="0.1"></path>
                            <path d="M141.534,83.701 L137.4,85.939 L137.28,85.039 L137.196,84.415 C137.196,84.415 139.56,82.228 140.283,82.279 C140.650264,82.3167169 141.021039,82.3015626 141.384,82.234 L141.462,82.993 L141.534,83.701 Z" id="Path" fill="#DCE6F2" fill-rule="nonzero"></path>
                            <path d="M188.166,96.028 C188.166,96.028 169.866,98.809 173.256,97.561 C175.617,96.691 176.511,95.134 176.643,93.439 C176.751,92.02 176.343,90.505 175.797,89.212 C175.317869,88.068754 174.723818,86.9771482 174.024,85.954 C174.024,85.954 187.779,77.683 185.25,84.814 C184.856039,85.8930727 184.630401,87.0263229 184.581,88.174 C184.537756,89.3134659 184.703488,90.4512215 185.07,91.531 C185.666836,93.2871826 186.738453,94.8437276 188.166,96.028 Z" id="Path" fill="#FFCDD3" fill-rule="nonzero"></path>
                            <path d="M185.25,84.814 C184.856039,85.8930727 184.630401,87.0263229 184.581,88.174 C183.3,89.338 181.845,89.32 179.982,89.392 C178.548,89.446 176.982,89.854 175.806,89.209 C175.326869,88.065754 174.732818,86.9741482 174.033,85.951 C174.033,85.951 187.779,77.683 185.25,84.814 Z" id="Path" fill="#000000" fill-rule="nonzero" opacity="0.1"></path>
                            <circle id="Oval" fill="#FFCDD3" fill-rule="nonzero" cx="179.448" cy="82.288" r="7.608"></circle>
                            <path d="M188.166,96.028 C188.166,96.028 169.866,98.809 173.256,97.561 C175.617,96.691 176.511,95.134 176.643,93.439 C177.522,92.413 179.343,91.639 180.498,91.201 C181.562583,90.7981239 182.725681,90.7342058 183.828,91.018 C184.261976,91.1289161 184.677379,91.3027588 185.061,91.534 C185.660827,93.2901483 186.735599,94.8457127 188.166,96.028 Z" id="Path" fill="#000000" fill-rule="nonzero" opacity="0.1"></path>
                            <path d="M198.24,85.534 L194.757,86.482 L194.661,85.963 C195.390772,84.8739785 196.724906,84.359281 197.997,84.676 L198.24,85.534 Z" id="Path" fill="#000000" fill-rule="nonzero" opacity="0.1"></path>
                            <path d="M141.534,83.701 L137.4,85.939 L137.28,85.039 C138.753,84.091 141.246,83.08 141.462,82.993 L141.534,83.701 Z" id="Path" fill="#000000" fill-rule="nonzero" opacity="0.1"></path>
                            <path d="M197.22,142.069 C190.146,143.467 180.069,145.321 178.443,144.892 C177.093,144.538 172.836,144.745 169.143,145.015 C169.101,143.155 169.086,141.925 169.086,141.925 L196.572,137.989 C196.572,137.989 196.584,139.264 197.22,142.069 Z" id="Path" fill="#000000" fill-rule="nonzero" opacity="0.1"></path>
                            <path d="M204.258,140.125 C204.258,140.125 180.969,145.051 178.422,144.382 C175.875,143.713 162.993,145.039 162.993,145.039 C157.329,149.158 159.537,143.317 159.537,143.317 C159.537,143.317 158.91,140.335 159.519,137.881 C159.919766,136.082883 160.170627,134.254609 160.269,132.415 C160.269,132.415 159.993,128.587 160.662,127.666 C161.331,126.745 161.913,120.325 161.913,120.325 C161.913,120.325 162.384,115.954 162.285,115 C162.186,114.046 162.336,111.352 162.336,111.352 L162.993,106.852 C158.193,106.396 143.271,98.014 143.271,98.014 C142.452,95.038 136.752,88.222 136.752,88.222 C136.651644,87.6341168 136.47935,87.0608114 136.239,86.515 C135.816,85.507 141.486,83.242 141.486,83.242 C141.486,83.242 145.968,88.315 146.916,89.686 C147.864,91.057 151.032,93.556 151.032,93.556 C151.506915,93.4922651 151.990107,93.537404 152.445,93.688 C152.470612,93.6925924 152.495727,93.6996244 152.52,93.709 L152.52,93.709 C153.56363,94.0767202 154.548771,94.593035 155.445,95.242 C157.737,95.026 159.396,96.562 159.396,96.562 C159.396,96.562 162,96.079 162.465,96.508 C162.93,96.937 165.147,96.406 165.147,96.406 C165.147,96.406 167.202,91.591 168.723,92.908 C170.244,94.225 176.478,93.922 176.478,93.922 C177.267,92.785 179.256,91.915 180.504,91.459 C181.568583,91.0561239 182.731681,90.9922058 183.834,91.276 C184.312037,91.3978012 184.765622,91.6007475 185.175,91.876 L189.099,95.434 C189.099,95.434 190.131,93.988 189.999,93.673 C189.867,93.358 191.256,93.049 191.256,93.049 C191.256,93.049 193.086,92.401 193.782,92.185 C194.478,91.969 195.15,92.701 195.207,92.767 C195.183,92.686 194.643,91.159 194.784,89.971 C194.925,88.783 193.929,87.7 193.929,87.7 C195.954,82.12 201.177,86.527 201.177,86.527 C201.177,86.527 201.867,89.506 201.399,90.676 C200.931,91.846 202.047,94.234 201.945,94.876 C201.843,95.518 202.266,96.592 202.314,97.804 C202.362,99.016 201.804,101.314 201.45,102.361 C201.096,103.408 198.15,105.814 198.15,105.814 C198.15,105.814 198.099,109.462 196.839,111.619 C195.579,113.776 196.686,120.967 196.686,120.967 C196.686,120.967 198.186,126.538 199.845,128.266 C201.504,129.994 204.258,140.125 204.258,140.125 Z" id="Path" fill="#656691" fill-rule="nonzero"></path>
                            <path d="M168.465,99.409 C168.465,99.409 167.682,97.327 167.034,97.162 C166.389778,96.9512946 165.760372,96.6977285 165.15,96.403 L165.531,95.599 C165.531,95.599 167.958,96.166 168.366,96.853 C168.774,97.54 168.465,99.409 168.465,99.409 Z" id="Path" fill="#000000" fill-rule="nonzero" opacity="0.1"></path>
                            <path d="M155.448,95.239 C155.343,95.884 149.682,96.676 149.682,96.676 L152.445,93.676 L152.445,93.676 L152.517,93.7 L152.517,93.7 C153.563066,94.0690588 154.550278,94.5874209 155.448,95.239 Z" id="Path" fill="#000000" fill-rule="nonzero" opacity="0.1"></path>
                            <circle id="Oval" fill="#575988" fill-rule="nonzero" cx="138.66" cy="87.106" r="1"></circle>
                            <circle id="Oval" fill="#575988" fill-rule="nonzero" cx="139.353" cy="88.102" r="1"></circle>
                            <circle id="Oval" fill="#575988" fill-rule="nonzero" cx="140.028" cy="89.02" r="1"></circle>
                            <circle id="Oval" fill="#575988" fill-rule="nonzero" cx="140.739" cy="90.016" r="1"></circle>
                            <circle id="Oval" fill="#575988" fill-rule="nonzero" cx="200.949" cy="87.643" r="1"></circle>
                            <circle id="Oval" fill="#575988" fill-rule="nonzero" cx="201.048" cy="88.582" r="1"></circle>
                            <circle id="Oval" fill="#575988" fill-rule="nonzero" cx="201.141" cy="89.521" r="1"></circle>
                            <path d="M169.163803,116.719 C169.101,116.644 184.2,134.275 194.964006,123.337 C194.976,123.337 177.405,126.412 169.163803,116.719 Z" id="Path" fill="#000000" fill-rule="nonzero" opacity="0.1"></path>
                            <path d="M161.25,126.49 C161.25,126.49 169.875,126.394 170.871,128.836 L170.97,131.416 C170.483122,131.713602 169.876745,131.737449 169.368,131.479 C168.468,131.041 163.17,128.596 161.382,129.94 L161.25,126.49 Z" id="Path" fill="#000000" fill-rule="nonzero" opacity="0.1"></path>
                            <path d="M161.415,126.484 C161.415,126.484 169.665,126.391 170.616,128.722 L170.712,131.179 C170.245593,131.462205 169.666115,131.484885 169.179,131.239 C168.33,130.825 163.251,128.491 161.541,129.775 L161.415,126.484 Z" id="Path" fill="#656691" fill-rule="nonzero"></path>
                            <path d="M165.237,107.614 C166.196918,109.616708 167.393454,111.497124 168.801,113.215 C170.333771,115.117575 172.166883,116.757141 174.228,118.069 C174.228,118.069 165.429,108.778 165.237,107.614 Z" id="Path" fill="#000000" fill-rule="nonzero" opacity="0.1"></path>
                            <path d="M162.033,97.696 C162.033,97.696 163.71,103.846 167.496,105.811 L162.033,97.696 Z" id="Path" fill="#000000" fill-rule="nonzero" opacity="0.1"></path>
                            <path d="M159.855,98.407 C159.813,98.293 158.766,103.363 164.925,105.907009 C164.925,105.91 162.321,105.136 159.855,98.407 Z" id="Path" fill="#000000" fill-rule="nonzero" opacity="0.1"></path>
                            <path d="M197.319,92.797 C197.223,92.797 200.382,94.645 201.252,95.524 C201.252,95.524 199.134,92.614 197.319,92.797 Z" id="Path" fill="#000000" fill-rule="nonzero" opacity="0.1"></path>
                            <path d="M177.66,89.26 C177.783,89.647 177.933,90.07 178.293,90.262 C178.519909,90.3634019 178.767898,90.4086779 179.016,90.394 C181.338,90.451 183.753,90.46 185.862,89.494 C186.257286,89.3366371 186.607639,89.0841766 186.882,88.759 C187.245,88.279 187.293,87.643 187.425,87.055 C187.68,85.909 188.283,84.871 188.703,83.773 C189.409785,81.9161303 189.592441,79.9006811 189.231,77.947 C189.149002,77.3464603 188.92816,76.7732981 188.586,76.273 C187.938,75.418 186.804,75.106 185.964,74.44 C185.124,73.774 184.56,72.724 183.591,72.235 C182.718,71.794 181.674,71.89 180.717,72.091 C178.832064,72.4878421 177.040715,73.2424692 175.44,74.314 C174.903,74.671 174.315,75.085 173.676,74.989 C173.115,74.908 172.695,74.455 172.32,74.032 C171.908091,75.0916227 171.756845,76.2347136 171.879,77.365 C171.907491,77.5307848 171.907491,77.7002152 171.879,77.866 C171.807273,78.067445 171.693795,78.2514632 171.546,78.406 C171,79.093 170.682,80.155 171.273,80.806 C171.531,81.088 171.915,81.232 172.173,81.52 C172.623,82.039 172.509,82.813 172.524,83.497 C172.508386,83.7350538 172.577458,83.9709603 172.719,84.163 C172.979481,84.3864981 173.337595,84.458121 173.664,84.352 C173.983699,84.2411316 174.322323,84.1952339 174.66,84.217 C175.024131,84.3193647 175.341931,84.5439438 175.56,84.853 C176.673,86.158 177.15,87.637 177.66,89.26 Z" id="Path" fill="#2D293D" fill-rule="nonzero"></path>
                            <g id="Group" opacity="0.1" transform="translate(170.700000, 73.900000)" fill="#000000" fill-rule="nonzero">
                                <path d="M16.413,14.256 C16.1396429,14.5802322 15.790242,14.8317185 15.396,14.988 C13.296,15.963 10.872,15.954 8.547,15.888 C8.29901998,15.9007337 8.05148191,15.8555401 7.824,15.756 C7.467,15.564 7.314,15.138 7.191,14.751 C6.681,13.131 6.204,11.649 5.091,10.329 C4.87157309,10.0219335 4.55416955,9.79869305 4.191,9.696 C3.85356572,9.67454051 3.51519545,9.71938476 3.195,9.828 C2.86814246,9.93485344 2.50924977,9.86443779 2.247,9.642 C2.10685239,9.44813238 2.03796852,9.21180772 2.052,8.973 C2.037,8.289 2.151,7.515 1.704,6.999 C1.452,6.699 1.068,6.567 0.804,6.282 C0.463319219,5.85146373 0.385070774,5.26920323 0.6,4.764 C0.219,5.424 0.075,6.264 0.57,6.804 C0.825,7.086 1.212,7.23 1.47,7.521 C1.92,8.037 1.806,8.811 1.821,9.495 C1.80538626,9.73305379 1.87445798,9.96896029 2.016,10.161 C2.2764808,10.3844981 2.63459538,10.456121 2.961,10.35 C3.28104703,10.2405951 3.61937751,10.1947371 3.957,10.215 C4.32113073,10.3173647 4.63893131,10.5419438 4.857,10.851 C5.982,12.171 6.456,13.65 6.957,15.273 C7.08,15.66 7.23,16.083 7.59,16.278 C7.81731819,16.3780748 8.06498416,16.4232918 8.313,16.41 C10.635,16.464 13.05,16.473 15.159,15.51 C15.5534948,15.352627 15.9036238,15.1013579 16.179,14.778 C16.3131909,14.5860582 16.4145703,14.3731614 16.479,14.148 C16.461,14.184 16.44,14.214 16.413,14.256 Z" id="Path"></path>
                                <path d="M1.197,3.747 C1.2957778,3.63260708 1.36937295,3.49870478 1.413,3.354 C1.4430011,3.18935552 1.4430011,3.02064448 1.413,2.856 C1.31202372,1.92759998 1.39666495,0.988388252 1.662,0.093 L1.617,0.042 C1.20520553,1.10165203 1.05396317,2.24471502 1.176,3.375 C1.19485763,3.49804547 1.20188972,3.62261395 1.197,3.747 Z" id="Path"></path>
                            </g>
                            <path d="M176.481,93.919 C176.481,93.919 186.024,94.819 186.825,93.352" id="Path" fill="#000000" fill-rule="nonzero" opacity="0.1"></path>
                            <path d="M194.79,89.278 C194.79,89.278 200.067,89.083 201.303,91.015" id="Path" fill="#000000" fill-rule="nonzero" opacity="0.1"></path>
                            <path d="M310.173,189.514 C310.173,189.514 311.952,191.839 309.351,195.352 C306.75,198.865 304.608,201.829 305.475,204.019 C305.475,204.019 309.399,197.497 312.591,197.404 C315.783,197.311 313.686,193.432 310.173,189.514 Z" id="Path" fill="#E35205" fill-rule="nonzero"></path>
                            <path d="M310.173,189.514 C310.329344,189.737736 310.451672,189.983404 310.536,190.243 C313.653,193.903 315.312,197.32 312.318,197.404 C309.528,197.485 306.18,202.474 305.379,203.731 C305.405627,203.83264 305.437673,203.932783 305.475,204.031 C305.475,204.031 309.399,197.509 312.591,197.416 C315.783,197.323 313.686,193.432 310.173,189.514 Z" id="Path" fill="#000000" fill-rule="nonzero" opacity="0.1"></path>
                            <path d="M313.482,192.475 C313.482,193.294 313.389,193.957 313.275,193.957 C313.161,193.957 313.071,193.294 313.071,192.475 C313.071,191.656 313.185,192.043 313.299,192.043 C313.413,192.043 313.482,191.656 313.482,192.475 Z" id="Path" fill="#FFD037" fill-rule="nonzero"></path>
                            <path d="M314.616,193.453 C313.896,193.843 313.269,194.08 313.215,193.981 C313.161,193.882 313.701,193.483 314.415,193.081 C315.129,192.679 314.85,192.973 314.907,193.081 C314.964,193.189 315.333,193.06 314.616,193.453 Z" id="Path" fill="#FFD037" fill-rule="nonzero"></path>
                            <path d="M300.777,189.514 C300.777,189.514 298.998,191.839 301.596,195.352 C304.194,198.865 306.342,201.829 305.475,204.019 C305.475,204.019 301.551,197.497 298.359,197.404 C295.167,197.311 297.264,193.432 300.777,189.514 Z" id="Path" fill="#E35205" fill-rule="nonzero"></path>
                            <path d="M300.777,189.514 C300.620656,189.737736 300.498328,189.983404 300.414,190.243 C297.297,193.903 295.638,197.32 298.632,197.404 C301.422,197.485 304.767,202.474 305.571,203.731 C305.544373,203.83264 305.512327,203.932783 305.475,204.031 C305.475,204.031 301.551,197.509 298.359,197.416 C295.167,197.323 297.264,193.432 300.777,189.514 Z" id="Path" fill="#000000" fill-rule="nonzero" opacity="0.1"></path>
                            <path d="M297.468,192.475 C297.468,193.294 297.561,193.957 297.675,193.957 C297.789,193.957 297.879,193.294 297.879,192.475 C297.879,191.656 297.765,192.043 297.651,192.043 C297.537,192.043 297.468,191.656 297.468,192.475 Z" id="Path" fill="#FFD037" fill-rule="nonzero"></path>
                            <path d="M296.334,193.453 C297.054,193.843 297.681,194.08 297.735,193.981 C297.789,193.882 297.249,193.483 296.535,193.081 C295.821,192.679 296.097,192.973 296.043,193.081 C295.989,193.189 295.614,193.06 296.334,193.453 Z" id="Path" fill="#FFD037" fill-rule="nonzero"></path>
                            <ellipse id="Oval" fill="#E35205" fill-rule="nonzero" opacity="0.1" cx="305.472" cy="218.959" rx="18.6" ry="2.853"></ellipse>
                            <path d="M315.048,200.881 L314.958,201.607 L314.835,202.633 L314.784,203.062 L314.658,204.088 L314.604,204.517 L314.478,205.54 L313.056,217.21 C312.927,218.251 311.226,219.064 309.174,219.064 L301.776,219.064 C299.721,219.064 298.023,218.251 297.897,217.21 L296.469,205.54 L296.346,204.517 L296.295,204.088 L296.166,203.062 L296.115,202.633 L295.989,201.607 L295.902,200.881 C295.83,200.281 296.751,199.795 297.912,199.795 L313.05,199.795 C314.199,199.795 315.123,200.29 315.048,200.881 Z" id="Path" fill="#65617D" fill-rule="nonzero"></path>
                            <polygon id="Path" fill="#9D9CB5" fill-rule="nonzero" points="314.958 201.607 314.832 202.633 296.112 202.633 295.989 201.607"></polygon>
                            <polygon id="Path" fill="#9D9CB5" fill-rule="nonzero" points="314.781 203.059 314.658 204.088 296.292 204.088 296.166 203.059"></polygon>
                            <polygon id="Path" fill="#9D9CB5" fill-rule="nonzero" points="314.601 204.514 314.478 205.54 296.469 205.54 296.343 204.514"></polygon>
                        </g>
                    </g>
                </g>
            </g>
        </g>
    </g>
</svg>