<?xml version="1.0" encoding="UTF-8"?>
<svg width="263px" height="262px" viewBox="0 0 263 262" version="1.1" xmlns="http://www.w3.org/2000/svg" xmlns:xlink="http://www.w3.org/1999/xlink">
    <!-- Generator: Sketch 55.2 (78181) - https://sketchapp.com -->
    <title>Dedicated_Phone</title>
    <desc>Created with Sketch.</desc>
    <defs>
        <linearGradient x1="50%" y1="0%" x2="50%" y2="100%" id="linearGradient-1">
            <stop stop-color="#F38A0C" offset="0%"></stop>
            <stop stop-color="#E35205" offset="100%"></stop>
        </linearGradient>
        <linearGradient x1="50.4587156%" y1="63.0927314%" x2="50.4587156%" y2="37.0927314%" id="linearGradient-2">
            <stop stop-color="#808080" stop-opacity="0.25" offset="0%"></stop>
            <stop stop-color="#808080" stop-opacity="0.12" offset="54%"></stop>
            <stop stop-color="#808080" stop-opacity="0.1" offset="100%"></stop>
        </linearGradient>
        <linearGradient x1="50.0034295%" y1="99.9870012%" x2="50.0034295%" y2="-0.000177370511%" id="linearGradient-3">
            <stop stop-color="#808080" stop-opacity="0.25" offset="0%"></stop>
            <stop stop-color="#808080" stop-opacity="0.12" offset="54%"></stop>
            <stop stop-color="#808080" stop-opacity="0.1" offset="100%"></stop>
        </linearGradient>
    </defs>
    <g id="Page-1" stroke="none" stroke-width="1" fill="none" fill-rule="evenodd">
        <g id="Landing_Page_2" transform="translate(-292.000000, -4613.000000)">
            <g id="Benifits" transform="translate(273.000000, 3896.000000)">
                <g id="Dedicated_Phone" transform="translate(0.000000, 717.500000)">
                    <g>
                        <circle id="Oval-Copy-6" fill="#E35205" opacity="0.14" cx="151.5" cy="130.5" r="130.5"></circle>
                        <g id="undraw_order_confirmed_1m3v" transform="translate(0.000000, 5.000000)" fill-rule="nonzero">
                            <ellipse id="Oval" fill="#E35205" opacity="0.143415179" cx="145.203234" cy="234.31805" rx="91.1008012" ry="12.3213317"></ellipse>
                            <rect id="Rectangle" fill="#3A3768" x="192.948961" y="87.1422592" width="2.65537092" height="21.8799524" rx="0.687"></rect>
                            <rect id="Rectangle" fill="#3A3768" x="104.707329" y="69.9996671" width="1.48952522" height="7.20342449" rx="0.687"></rect>
                            <rect id="Rectangle" fill="#3A3768" x="104.653383" y="83.1899643" width="1.67833828" height="12.5370749" rx="0.687"></rect>
                            <rect id="Rectangle" fill="#3A3768" x="104.680356" y="100.113817" width="1.5974184" height="12.6449465" rx="0.687"></rect>
                            <rect id="Rectangle" fill="#3A3768" x="105.549496" y="46.1960048" width="88.8320475" height="180.502117" rx="11.697"></rect>
                            <path d="M181.85095,50.8854221 L171.661039,50.8854221 L171.661039,52.1109631 C171.661039,53.6516176 171.048689,55.1291272 169.958782,56.2182534 C168.868876,57.3073796 167.390755,57.9188449 165.849792,57.9180499 L133.442878,57.9180499 C131.901916,57.9188449 130.423795,57.3073796 129.333888,56.2182534 C128.243982,55.1291272 127.631632,53.6516176 127.631632,52.1109631 L127.631632,50.8854221 L118.092077,50.8854221 C114.1957,50.8854221 111.037062,54.0434277 111.037062,57.939025 L111.037062,214.943115 C111.037062,216.813847 111.780356,218.607959 113.103428,219.930766 C114.4265,221.253573 116.220971,221.996718 118.092077,221.996718 L181.85095,221.996718 C185.747327,221.996718 188.905975,218.838713 188.905975,214.943115 L188.905975,57.9510107 C188.909147,56.0782031 188.167259,54.2810109 186.843842,52.9556104 C185.520425,51.6302098 183.724135,50.8854221 181.85095,50.8854221 Z" id="Path" fill="url(#linearGradient-1)"></path>
                            <rect id="Rectangle" fill="#E6E8EC" x="141.397003" y="51.5865874" width="12.4047181" height="2.51700357" rx="1.161"></rect>
                            <ellipse id="Oval" fill="#E6E8EC" cx="157.107448" cy="52.8450892" rx="1.42958457" ry="1.42929845"></ellipse>
                            <path d="M225.137092,38.2794293 C225.137092,38.2794293 199.902077,36.7572414 202.875134,54.436195 C202.875134,54.436195 202.275727,57.5614744 205.116914,58.9787872 C205.116914,58.9787872 205.161869,57.669346 207.70635,58.1158145 C208.612237,58.2659463 209.532519,58.3101914 210.448635,58.2476576 C211.684474,58.1664325 212.860434,57.6858368 213.799318,56.8782878 L213.799318,56.8782878 C213.799318,56.8782878 220.893294,53.9477765 223.650564,42.3575743 C223.650564,42.3575743 225.691543,39.828585 225.610623,39.1783591 L221.35184,40.9971938 C221.35184,40.9971938 222.808398,44.0685375 221.651543,46.6214982 C221.651543,46.6214982 221.51368,41.1080618 220.69549,41.2279191 C220.530653,41.2518906 218.48368,42.2916528 218.48368,42.2916528 C218.48368,42.2916528 220.986202,47.6402854 219.098071,51.5296552 C219.098071,51.5296552 219.814362,44.937503 217.701454,42.6781926 L214.704421,44.4281094 C214.704421,44.4281094 217.629525,49.9535315 215.64549,54.4631629 C215.64549,54.4631629 216.154985,47.547396 214.072047,44.8536029 L211.356736,46.9720809 C211.356736,46.9720809 214.105015,52.4165993 212.429674,56.1561474 C212.429674,56.1561474 212.21089,48.1077289 210.769318,47.499453 C210.769318,47.499453 208.392671,49.596956 208.03003,50.4539358 C208.03003,50.4539358 209.912166,54.4092271 208.743323,56.4947444 C208.743323,56.4947444 208.027033,51.1311296 207.439614,51.1011653 C207.439614,51.1011653 205.071958,54.6549346 204.826202,57.0940309 C204.826202,57.0940309 204.928101,53.4713436 206.867181,50.7655648 C206.867181,50.7655648 204.577448,51.1580975 203.240772,52.6413317 C203.240772,52.6413317 203.609407,50.130321 207.451602,49.908585 C207.451602,49.908585 209.408665,47.2117955 209.930148,47.0499881 C209.930148,47.0499881 206.111929,46.7293698 203.795223,47.7571463 C203.795223,47.7571463 205.833205,45.3869679 210.631454,46.4656837 L213.313798,44.2752913 C213.313798,44.2752913 208.284777,43.5891082 206.15089,44.3472057 C206.15089,44.3472057 208.60546,42.2497027 214.036083,43.7778835 L216.955193,42.0339596 C216.955193,42.0339596 212.666439,41.1110583 210.112967,41.434673 C210.112967,41.434673 212.810297,39.9814031 217.812344,41.5575268 L219.910267,40.6196433 C219.910267,40.6196433 216.769377,40.0023781 215.849288,39.9034958 C214.929199,39.8046136 214.881246,39.5529132 214.881246,39.5529132 C216.871128,39.2211639 218.914063,39.4483417 220.782404,40.209132 C220.782404,40.209132 225.212018,38.5580975 225.137092,38.2794293 Z" id="Path" fill="#E35205"></path>
                            <path d="M199.251721,30.4167895 C199.251721,30.4167895 187.862997,29.7306064 189.19368,37.7190963 C189.19368,37.7190963 188.926944,39.1304162 190.206677,39.7716528 C190.206677,39.7716528 190.227656,39.1723662 191.378516,39.3791201 C191.787292,39.4479024 192.20278,39.4680188 192.616291,39.4390488 C193.175326,39.4020985 193.706894,39.1831992 194.129792,38.8157907 L194.129792,38.8157907 C194.129792,38.8157907 197.336617,37.4913674 198.583383,32.2536029 C198.583383,32.2536029 199.503472,31.111962 199.467507,30.8183115 L197.543412,31.6393341 C197.543412,31.6393341 198.199763,33.0266825 197.684273,34.1803092 C197.684273,34.1803092 197.621335,31.6902735 197.2527,31.7472057 C197.177774,31.7472057 196.251691,32.2296314 196.251691,32.2296314 C196.251691,32.2296314 197.38457,34.6477527 196.530415,36.4036623 C196.530415,36.4036623 196.854095,33.4252081 195.898042,32.4034245 L194.543383,33.2064685 C194.543383,33.2064685 195.865074,35.702497 194.968961,37.7400713 C194.968961,37.7400713 195.199733,34.6147919 194.258665,33.3982402 L193.032878,34.3570987 C193.032878,34.3570987 194.27365,36.81717 193.518398,38.5071581 C193.518398,38.5071581 193.416499,34.8694887 192.766142,34.5938169 C192.766142,34.5938169 191.693205,35.5406897 191.528368,35.9302259 C191.528368,35.9302259 192.379525,37.7280856 191.852047,38.6599762 C191.852047,38.6599762 191.528368,36.2358621 191.252641,36.2238763 C191.252641,36.2238763 190.1827,37.8299643 190.07181,38.9206659 C190.125356,37.9037055 190.443544,36.9183442 190.994896,36.062069 C190.377471,36.1789977 189.807667,36.4737363 189.355519,36.9100595 C189.355519,36.9100595 189.523353,35.7744114 191.258635,35.6755291 C191.258635,35.6755291 192.157745,34.455981 192.379525,34.3810702 C192.379525,34.3810702 190.653234,34.2372414 189.60727,34.7016885 C189.60727,34.7016885 190.527359,33.631962 192.694214,34.1173841 L193.893027,33.1285612 C193.893027,33.1285612 191.618279,32.828918 190.656231,33.161522 C190.656231,33.161522 191.765134,32.2146492 194.219703,32.9038288 L195.538398,32.1157669 C195.538398,32.1157669 193.599318,31.6992628 192.44546,31.8490844 C192.44546,31.8490844 193.665252,31.1928656 195.925015,31.9030202 L196.86908,31.4805232 C196.86908,31.4805232 195.448487,31.2018549 195.031899,31.1569084 C194.615312,31.111962 194.594332,30.9980975 194.594332,30.9980975 C195.494034,30.8484591 196.417638,30.9522141 197.261691,31.2977408 C197.261691,31.2977408 199.287685,30.5426397 199.251721,30.4167895 Z" id="Path" fill="#E35205"></path>
                            <ellipse id="Oval" fill="#E35205" opacity="0.1" cx="259.294273" cy="232.025779" rx="8.0710089" ry="1.36337693"></ellipse>
                            <ellipse id="Oval" fill="#E35205" opacity="0.1" cx="27.5996736" cy="243.214459" rx="8.0710089" ry="1.36337693"></ellipse>
                            <ellipse id="Oval" fill="#E35205" opacity="0.1" cx="58.8197626" cy="250.528751" rx="8.0710089" ry="1.36337693"></ellipse>
                            <ellipse id="Oval" fill="#E35205" cx="241.626766" cy="246.636385" rx="12.0510682" ry="2.03757432"></ellipse>
                            <path d="M246.610831,243.304352 C247.160054,242.855334 247.560266,242.250435 247.758694,241.569417 C247.908546,240.883234 247.614837,240.071201 246.95549,239.804518 C246.21822,239.522854 245.43,240.035244 244.833591,240.55063 C244.237181,241.066017 243.550861,241.656314 242.768635,241.545446 C243.587538,240.804906 243.957359,239.68884 243.742671,238.605945 C243.707554,238.385226 243.613309,238.178134 243.469941,238.006659 C243.062344,237.56918 242.31908,237.754958 241.830564,238.102545 C240.272107,239.196243 239.837537,241.314721 239.828546,243.217455 C239.669703,242.531272 239.80457,241.815125 239.798576,241.119952 C239.792582,240.42478 239.603769,239.621736 239.007359,239.253175 C238.639396,239.055745 238.225947,238.958604 237.808546,238.97151 C237.10724,238.944542 236.328012,239.016457 235.848487,239.528847 C235.24908,240.16409 235.41092,241.23082 235.926409,241.925993 C236.441899,242.621165 237.230119,243.067634 237.955401,243.550059 C238.535597,243.89593 239.030375,244.368077 239.402967,244.931415 C239.447868,245.010148 239.484046,245.093543 239.510861,245.180119 L243.889525,245.180119 C244.876871,244.680063 245.792228,244.049117 246.610831,243.304352 L246.610831,243.304352 Z" id="Path" fill="#E35205"></path>
                            <path d="M59.2363501,217.02264 C59.2363501,217.02264 60.8847181,219.177075 58.4781009,222.416219 C56.0714837,225.655363 54.0874481,228.409084 54.8816617,230.437669 C54.8816617,230.437669 58.5140653,224.399857 61.4751335,224.315957 C64.4362018,224.232057 62.4881306,220.654316 59.2363501,217.02264 Z" id="Path" fill="#E35205"></path>
                            <path d="M59.2363501,217.02264 C59.3800757,217.231148 59.4931179,217.459206 59.5720178,217.699834 C62.4551632,221.085803 63.9926409,224.247039 61.2203858,224.324946 C58.6399407,224.399857 55.5440059,229.014364 54.8007418,230.179976 C54.8247181,230.269869 54.8546884,230.356766 54.8876558,230.446659 C54.8876558,230.446659 58.5200593,224.408847 61.4811276,224.324946 C64.4421958,224.241046 62.4881306,220.654316 59.2363501,217.02264 Z" id="Path" fill="#000000" opacity="0.1"></path>
                            <path d="M62.2963205,219.767372 C62.2963205,220.52547 62.2124036,221.139738 62.1075074,221.139738 C62.0026113,221.139738 61.9186944,220.52547 61.9186944,219.767372 C61.9186944,219.009275 62.0235905,219.36585 62.1284866,219.36585 C62.2333828,219.36585 62.2963205,219.009275 62.2963205,219.767372 Z" id="Path" fill="#FFD037"></path>
                            <path d="M63.3482789,220.672295 C62.6829377,221.034863 62.1015134,221.253603 62.0535608,221.160713 C62.0056083,221.067824 62.5001187,220.699263 63.1654599,220.336694 C63.8308012,219.974126 63.5700593,220.237812 63.6180119,220.336694 C63.6659644,220.435577 64.0136202,220.309727 63.3482789,220.672295 Z" id="Path" fill="#FFD037"></path>
                            <path d="M50.5419585,217.02264 C50.5419585,217.02264 48.8935905,219.177075 51.3002077,222.416219 C53.7068249,225.655363 55.6908605,228.409084 54.8966469,230.437669 C54.8966469,230.437669 51.2672404,224.399857 48.3031751,224.315957 C45.3391098,224.232057 47.284184,220.654316 50.5419585,217.02264 Z" id="Path" fill="#E35205"></path>
                            <path d="M50.5419585,217.02264 C50.3977808,217.231325 50.2837692,217.459303 50.2032938,217.699834 C47.3201484,221.085803 45.7856677,224.247039 48.5549258,224.324946 C51.138368,224.399857 54.2343027,229.014364 54.9775668,230.179976 C54.9530094,230.270604 54.9229841,230.359661 54.8876558,230.446659 C54.8876558,230.446659 51.2582493,224.408847 48.294184,224.324946 C45.3301187,224.241046 47.284184,220.654316 50.5419585,217.02264 Z" id="Path" fill="#000000" opacity="0.1"></path>
                            <path d="M47.4789911,219.767372 C47.4789911,220.52547 47.565905,221.139738 47.6708012,221.139738 C47.7756973,221.139738 47.8596142,220.52547 47.8596142,219.767372 C47.8596142,219.009275 47.7547181,219.36585 47.649822,219.36585 C47.5449258,219.36585 47.4789911,219.009275 47.4789911,219.767372 Z" id="Path" fill="#FFD037"></path>
                            <path d="M46.4300297,220.672295 C47.0953709,221.034863 47.6737982,221.253603 47.7247478,221.160713 C47.7756973,221.067824 47.2751929,220.699263 46.6098516,220.336694 C45.9445104,219.974126 46.2082493,220.237812 46.1572997,220.336694 C46.1063501,220.435577 45.7646884,220.309727 46.4300297,220.672295 Z" id="Path" fill="#FFD037"></path>
                            <path d="M48.0034718,230.164994 C48.0034718,230.164994 52.6069139,230.021165 53.9975371,229.035339 C55.3881602,228.049512 61.0795252,226.865922 61.4211869,228.451034 C61.7628487,230.036147 68.3413353,236.328656 63.1444807,236.370606 C57.9476261,236.412556 51.0664392,235.56157 49.6818101,234.719572 C48.297181,233.877574 48.0034718,230.164994 48.0034718,230.164994 Z" id="Path" fill="#A8A8A8"></path>
                            <path d="M63.2343917,235.819263 C58.0375371,235.861213 51.1563501,235.010226 49.7717211,234.168228 C48.7197626,233.523995 48.297181,231.219738 48.1563205,230.159001 L48.0034718,230.159001 C48.0034718,230.159001 48.3031751,233.868585 49.6788131,234.713579 C51.054451,235.558573 57.9446291,236.406564 63.1414837,236.364614 C64.64,236.364614 65.1584866,235.819263 65.1315134,235.028205 C64.9217211,235.513627 64.3492878,235.810273 63.2343917,235.819263 Z" id="Path" fill="#000000" opacity="0.2"></path>
                            <path d="M84.8849555,133.551011 C84.9726152,133.635624 85.1054305,133.65268 85.211632,133.592961 C85.101296,133.594626 84.9912892,133.5805 84.8849555,133.551011 L84.8849555,133.551011 Z" id="Path" fill="url(#linearGradient-2)"></path>
                            <path d="M120.798398,73.9219976 C120.166024,73.7362188 119.266914,73.4335791 118.178991,73.0530321 C119.307976,71.5788309 120.133113,69.8952773 120.606588,68.0999287 L120.51368,68.1358859 C120.54365,68.0250178 120.576617,67.9171463 120.606588,67.8062782 C118.526647,68.663258 116.221929,67.2069917 114.75638,65.3462069 C113.290831,63.4854221 112.292819,61.1691795 110.689407,59.4522235 C110.019881,58.7721653 109.299508,58.1440934 108.53454,57.5734602 C108.061009,57.2019025 107.548516,56.8153627 106.970089,56.7973841 C106.035015,56.7704162 105.300742,57.6963139 104.398635,57.9749822 C103.803803,58.1108863 103.183696,58.0881536 102.600415,57.9090606 C100.271721,57.3667063 98.0269436,56.3688942 95.6622849,56.111201 C94.3913072,55.9513042 93.1005099,56.0982365 91.8980119,56.5396908 C90.6991988,57.0011415 90.1597329,57.9150535 89.2006825,58.6371938 C88.1607122,59.4222592 86.0897626,59.4042806 84.8639763,59.5361237 C83.3779488,59.7067776 81.8815312,59.769867 80.3864095,59.7248989 C79.5266763,59.6471918 78.6605412,59.6794136 77.8089614,59.8207848 C76.028724,60.2163139 74.5991395,61.6486088 73.2654599,63.0269679 C72.8997931,63.3417121 72.6376166,63.7594396 72.5132047,64.225541 C72.4967504,64.3568709 72.4967504,64.4897403 72.5132047,64.6210702 C72.4994298,64.9793604 72.560679,65.3365759 72.6930267,65.6698216 C73.0959721,66.9086855 73.67103,68.0847966 74.4013353,69.1636623 C74.9467953,69.9547206 75.5791691,70.6978359 75.8998516,71.6327229 C76.0470853,72.093058 76.1248638,72.5727644 76.1306231,73.0560285 C76.1137817,73.5695222 76.0607022,74.0811866 75.9717804,74.5872057 C75.7362537,75.9824654 75.3493508,77.3479093 74.8179228,78.6593579 C74.5362018,79.3545303 74.2185163,80.0467063 74.1435905,80.8078002 C74.1346643,80.9594883 74.1346643,81.1115699 74.1435905,81.263258 C74.0536795,83.6094649 76.394362,85.3024495 76.8409199,87.6366706 C76.8763581,87.8296842 76.898389,88.024919 76.9068546,88.220975 C76.855905,89.6772414 76.0377151,91.100547 74.832908,91.6638763 C74.9378042,91.7058264 75.0456973,91.7417836 75.1535905,91.7807372 C75.0500495,91.8464576 74.9429959,91.9064757 74.832908,91.9605232 C75.0516914,92.0444233 75.2764688,92.1163377 75.5042433,92.1822592 C74.1261741,93.3892315 72.9689964,94.8270487 72.0846291,96.431201 C68.0506231,104.081094 40.5558457,119.087229 40.5558457,119.087229 C40.5558457,119.087229 40.7116914,119.174126 40.9634421,119.323948 C40.861543,119.386873 40.7536499,119.458787 40.6337685,119.539691 C38.2541246,121.145779 32.6676558,125.8322 37.7176558,131.741165 C37.7176558,131.741165 41.6587537,125.433674 44.4190208,122.751867 C44.5448961,122.63201 44.6647774,122.521141 44.7816617,122.416266 C44.9063857,122.607504 44.9455015,122.842152 44.8895549,123.063496 L62.9706528,112.764756 C62.9706528,112.764756 69.3962908,108.204185 71.1885163,107.173413 C71.805905,106.819834 73.3793472,105.837004 75.2614837,105.402521 L75.0516914,105.49541 C75.7272,105.306576 76.4242946,105.20586 77.125638,105.195767 C80.3264688,105.246706 83.7910386,107.622878 84.935905,117.034673 C86.4673887,129.637669 85.757092,131.908966 85.2655786,132.220595 C85.2046399,132.216003 85.1443613,132.204954 85.0857567,132.187634 C85.1003551,132.201363 85.1164385,132.213424 85.1337092,132.223591 C85.0666053,132.219296 85.0002266,132.207229 84.935905,132.187634 C85.0061206,132.254422 85.1062527,132.27945 85.1996439,132.253555 C85.267049,132.273248 85.3395724,132.26459 85.4004451,132.229584 L85.4004451,132.229584 L85.4004451,132.229584 C85.4693769,132.229584 85.5502967,132.229584 85.6432047,132.229584 C85.6432047,132.343448 85.6252226,132.463306 85.6162315,132.580166 C85.5922552,132.580166 85.4723739,132.649084 85.6162315,132.658074 L85.6162315,132.658074 C85.5802671,133.368228 85.5832641,134.15629 85.6162315,134.950345 C84.0248071,135.040238 82.4363798,135.136124 81.0427596,135.22302 L81.168635,134.554816 L81.2255786,134.255172 C82.4453709,134.15629 83.6052226,133.793722 83.740089,132.78692 C84.0397923,130.581546 81.0427596,129.403948 78.5102671,129.257122 C75.9777745,129.110297 60.7288724,130.14107 60.7288724,130.14107 C60.7288724,130.14107 58.4421365,133.137503 65.6919585,134.069394 C65.9077448,134.183258 66.1325223,134.309108 66.3602967,134.440951 C69.1984866,136.082996 73.0526706,139.103401 74.8958457,140.592628 L75.1535905,140.799382 L74.3264095,141.467586 C78.8219585,142.498359 83.1436795,159.859691 85.5323145,167.803234 C87.9209496,175.746778 93.1537685,175.453127 97.4874777,174.278526 C101.548457,173.172842 102.066944,161.220071 102.114896,159.718859 C102.114896,159.61698 102.114896,159.56604 102.114896,159.56604 L109.334748,168.5883 L109.883205,169.274483 C110.095994,169.385351 110.302789,169.490226 110.506588,169.589108 C115.976172,172.228966 122.01819,167.170987 120.297893,161.417836 C118.562611,155.604756 115.865282,147.013983 114.067062,143.382307 C112.568546,140.340927 110.617478,135.291938 109.436647,132.121712 C109.589667,132.058761 109.738786,131.986718 109.883205,131.905969 C109.883205,131.905969 109.856231,131.765137 109.808279,131.504447 L109.883205,131.465493 C109.883205,131.465493 108.144926,122.311391 108.049021,115.812128 C108.049021,115.698264 108.049021,115.5844 108.049021,115.470535 C108.049021,115.356671 108.049021,115.329703 108.049021,115.257788 C109.355727,114.958145 110.182908,114.838288 110.182908,114.838288 L110.206884,114.556623 L110.054036,114.589584 L110.779318,106.157622 C110.779318,106.157622 113.446677,100.407467 111.405697,98.010321 C110.784237,97.3066081 110.369365,96.444883 110.206884,95.5202854 C109.865223,93.3149108 110.206884,89.6442806 114.963175,86.5909156 C122.284926,81.8835196 125.126771,78.0570749 125.126771,78.0570749 C125.126771,78.0570749 125.281958,75.2464209 120.798398,73.9219976 Z M106.256795,79.7710345 L106.256795,75.8756718 C107.614451,75.8097503 109.002077,75.9685612 110.365727,75.8756718 C111.036397,75.8284314 111.700875,75.7160346 112.349763,75.5400713 L112.679436,75.7707967 C110.684291,77.3249927 108.531641,78.6657362 106.256795,79.7710345 Z M85.4993472,140.841332 C86.035816,141.218882 86.5752819,141.611415 87.1057567,142.003948 C87.4354303,143.924661 87.7261424,145.282045 87.7471217,145.374935 C87.1412476,143.79681 86.3886953,142.278965 85.4993472,140.841332 Z" id="Shape" fill="url(#linearGradient-3)"></path>
                            <path d="M97.235727,138.38126 L96.9120475,140.13717 L96.6632938,141.479572 L96.2107418,143.936647 L91.8230861,147.00799 C91.8230861,147.00799 91.4274777,146.669394 90.7741246,146.136029 C88.975905,144.655791 85.1966469,141.641379 82.4213947,140.023306 C81.707583,139.568429 80.9352813,139.212596 80.1256677,138.965565 L97.235727,138.38126 Z" id="Path" fill="#FFBDC6"></path>
                            <path d="M97.235727,138.38126 L96.9120475,140.13717 C95.9444191,140.189701 94.9739469,140.139479 94.0169139,139.987348 L83.7790504,140.134174 C83.2965282,140.104209 82.8439763,140.068252 82.4213947,140.023306 C81.707583,139.568429 80.9352813,139.212596 80.1256677,138.965565 L97.235727,138.38126 Z" id="Path" fill="#000000" opacity="0.1"></path>
                            <path d="M94.0169139,139.687705 C94.0169139,139.687705 99.1328487,140.56566 99.4325519,138.38126 C99.7322552,136.196861 96.7981602,135.016266 94.3136202,134.869441 C91.8290801,134.722616 76.9098516,135.747396 76.9098516,135.747396 C76.9098516,135.747396 74.278457,139.256219 83.7820475,139.84352 L94.0169139,139.687705 Z" id="Path" fill="#474463"></path>
                            <path d="M97.235727,138.38126 L96.9120475,140.13717 L96.6632938,141.479572 L96.2107418,143.936647 L91.8230861,147.00799 C91.8230861,147.00799 91.4274777,146.669394 90.7741246,146.136029 C88.975905,144.655791 85.1966469,141.641379 82.4213947,140.023306 C81.707583,139.568429 80.9352813,139.212596 80.1256677,138.965565 L97.235727,138.38126 Z" id="Path" fill="#000000" opacity="0.1"></path>
                            <path d="M97.235727,138.38126 L96.9120475,140.13717 C95.9444191,140.189701 94.9739469,140.139479 94.0169139,139.987348 L83.7790504,140.134174 C83.2965282,140.104209 82.8439763,140.068252 82.4213947,140.023306 C81.707583,139.568429 80.9352813,139.212596 80.1256677,138.965565 L97.235727,138.38126 Z" id="Path" fill="#000000" opacity="0.1"></path>
                            <path d="M94.0169139,139.681712 C94.0169139,139.681712 99.1358457,140.556671 99.4295549,138.363282 C99.7232641,136.169893 96.7951632,135.001284 94.3106231,134.854459 C91.8260831,134.707634 76.9068546,135.732414 76.9068546,135.732414 C76.9068546,135.732414 74.2754599,139.241237 83.7790504,139.825541 L94.0169139,139.681712 Z" id="Path" fill="#000000" opacity="0.1"></path>
                            <rect id="Rectangle" fill="#474463" x="78.4413353" y="67.6055172" width="26.7635015" height="31.7292271"></rect>
                            <rect id="Rectangle" fill="#000000" opacity="0.1" x="78.4413353" y="67.749346" width="26.7635015" height="31.7292271"></rect>
                            <path d="M47.0743917,121.921855 C46.6338279,122.032723 46.0703858,122.458216 45.4440059,123.075482 C42.7466766,125.745303 38.8835015,132.010844 38.8835015,132.010844 C33.9443917,126.128847 39.4109792,121.481379 41.7396736,119.884281 C42.3061128,119.497741 42.6867359,119.284994 42.6867359,119.284994 L47.0743917,121.921855 Z" id="Path" fill="#FFBDC6"></path>
                            <path d="M96.9420178,77.6195957 C96.9420178,77.6195957 98.2577151,86.8306302 102.792226,89.024019 C107.326736,91.2174078 96.9420178,95.3165279 96.9420178,95.3165279 L82.7570623,90.048799 C82.7570623,90.048799 90.8010979,87.4149346 89.1916914,79.6661593 L96.9420178,77.6195957 Z" id="Path" fill="#FFBDC6"></path>
                            <path d="M81.7320772,133.035624 L81.4113947,134.785541 L81.1506528,136.133936 L80.6981009,138.591011 L76.3104451,141.659358 C76.3104451,141.659358 75.9148368,141.323757 75.2614837,140.790392 C73.4632641,139.310155 69.6840059,136.295743 66.9057567,134.677669 C66.1922852,134.22217 65.4198958,133.866297 64.6100297,133.619929 L81.7320772,133.035624 Z" id="Path" fill="#FFBDC6"></path>
                            <path d="M81.7320772,133.035624 L81.4113947,134.785541 C80.4437663,134.838072 79.4732941,134.78785 78.5162611,134.635719 L68.2783976,134.782545 C67.7958754,134.75258 67.3403264,134.716623 66.9177448,134.671677 C66.2042733,134.216177 65.4318839,133.860304 64.6220178,133.613936 L81.7320772,133.035624 Z" id="Path" fill="#000000" opacity="0.1"></path>
                            <path d="M78.5162611,134.351058 C78.5162611,134.351058 83.6351929,135.226017 83.925905,133.035624 C84.2166172,130.845232 81.2945104,129.67063 78.8069733,129.523805 C76.3194362,129.37698 61.4062018,130.40176 61.4062018,130.40176 C61.4062018,130.40176 58.7718101,133.910583 68.2783976,134.497883 L78.5162611,134.351058 Z" id="Path" fill="#474463"></path>
                            <path d="M81.1506528,136.133936 L80.6981009,138.591011 L76.3104451,141.659358 C76.3104451,141.659358 75.9148368,141.323757 75.2614837,140.790392 L81.0637389,136.032057 L81.1506528,136.133936 Z" id="Path" fill="#000000" opacity="0.1"></path>
                            <path d="M110.128961,169.607087 C109.92816,169.508205 109.727359,169.406326 109.529555,169.307444 L108.990089,168.627253 L101.914095,159.655933 C101.914095,159.655933 101.914095,159.709869 101.914095,159.811748 C101.866142,161.309964 101.356647,173.181831 97.3825816,174.278526 C93.1417804,175.447134 88.0258457,175.740785 85.6941543,167.845184 C83.3624629,159.949584 79.1006825,142.696124 74.7250148,141.671344 L81.2345697,136.334697 C81.2345697,136.334697 85.5443027,141.374697 87.3005638,146.198954 C87.2346291,145.89931 84.2585757,131.995862 86.7011573,129.535791 L108.055015,129.535791 C108.055015,129.535791 111.351751,138.923615 113.611513,143.574078 C115.370772,147.18478 118.011157,155.721617 119.710475,161.49874 C121.394807,167.203948 115.481662,172.240951 110.128961,169.607087 Z" id="Path" fill="#474463"></path>
                            <path d="M109.520564,132.157669 C106.223828,134.108347 91.7511573,133.314293 87.042819,132.996671 L85.760089,132.903781 C85.6222255,132.903781 85.7810682,132.825874 85.7810682,132.825874 L85.9129377,131.498454 L89.4224629,122.58107 L108.213858,111.68604 C107.833234,112.833674 107.707359,114.589584 107.737329,116.60019 C107.824243,123.060499 109.520564,132.157669 109.520564,132.157669 Z" id="Path" fill="#000000" opacity="0.1"></path>
                            <path d="M109.520564,131.717194 C106.223828,133.667872 91.7511573,132.873817 87.042819,132.556195 L85.760089,132.466302 L85.5472997,132.448323 L85.7810682,132.388395 L86.9379228,132.088751 L89.4224629,122.146587 L108.213858,111.254554 C107.833234,112.402188 107.707359,114.158098 107.737329,116.168704 C107.824243,122.62302 109.520564,131.717194 109.520564,131.717194 Z" id="Path" fill="#F2F1F2"></path>
                            <path d="M107.725341,116.162711 C103.904125,117.043662 95.494451,119.629584 92.2636499,125.871153 C90.1087834,130.027206 88.2955786,131.810083 87.0308309,132.556195 L85.7481009,132.466302 C85.7564887,132.440729 85.7634919,132.414722 85.7690801,132.388395 L86.9259347,132.088751 L89.4104748,122.146587 L108.201869,111.254554 C107.824243,112.396195 107.695371,114.152105 107.725341,116.162711 Z" id="Path" fill="#000000" opacity="0.1"></path>
                            <path d="M42.6867359,119.290987 L47.0743917,121.921855 C46.6338279,122.032723 46.0703858,122.458216 45.4440059,123.075482 C45.078368,122.008751 42.7826409,120.519524 41.7396736,119.884281 C42.3061128,119.503734 42.6867359,119.290987 42.6867359,119.290987 Z" id="Path" fill="#000000" opacity="0.1"></path>
                            <path d="M84.9658754,132.637099 C84.8672473,132.688438 84.7469067,132.671594 84.6661721,132.595149 C84.763493,132.623667 84.8644628,132.6378 84.9658754,132.637099 L84.9658754,132.637099 Z" id="Path" fill="#000000" opacity="0.1"></path>
                            <path d="M94.8950445,88.4397146 C94.8950445,88.4397146 90.9449555,88.8771938 88.1667062,85.9526754 C88.1667062,85.9526754 76.4782789,89.3176694 72.5191988,96.9196195 C68.5601187,104.52157 41.6497626,119.437812 41.6497626,119.437812 C41.6497626,119.437812 46.3311276,122.06868 45.8905638,123.384114 L63.5880415,113.1483 C63.5880415,113.1483 69.8818101,108.617693 71.6290801,107.592913 C73.3763501,106.568133 83.0387834,100.281617 85.0857567,117.388252 C87.13273,134.494887 85.0857567,132.448323 85.0857567,132.448323 C85.0857567,132.448323 88.0108605,133.473103 92.2516617,125.283853 C96.4924629,117.094602 109.652433,115.194863 109.652433,115.194863 L110.383709,106.57113 C110.383709,106.57113 112.994125,100.853936 110.983116,98.480761 C110.37387,97.7781456 109.968613,96.9221982 109.811276,96.0057075 C109.478605,93.8153151 109.811276,90.1656599 114.468665,87.1332699 C121.63457,82.4528419 124.413397,78.653365 124.413397,78.653365 C124.413397,78.653365 124.559674,75.8726754 120.172018,74.5572414 C115.784362,73.2418074 97.9430267,66.0773365 97.9430267,66.0773365 L97.3436202,68.5643757 L111.420682,78.4975505 C111.420682,78.4975505 104.401632,84.1907729 98.8331454,84.052937 C98.8331454,84.052937 99.8671217,88.2928894 94.8950445,88.4397146 Z" id="Path" fill="#E35205"></path>
                            <path d="M97.604362,81.6288228 C97.2584685,80.4567772 96.9881799,79.2637418 96.7951632,78.0570749 L89.0448368,80.1036385 C89.3865283,81.5828884 89.3254688,83.1266618 88.8680119,84.5743163 C92.1076189,85.438801 95.5499439,84.2782082 97.604362,81.6288228 L97.604362,81.6288228 Z" id="Path" fill="#000000" opacity="0.1"></path>
                            <ellipse id="Oval" fill="#FFBDC6" cx="91.1667359" cy="76.0854221" rx="8.33474777" ry="8.33307967"></ellipse>
                            <path d="M95.5993472,57.1329845 C97.9130564,57.3936742 100.109881,58.3884899 102.387626,58.9308442 C102.956632,59.1087945 103.562682,59.1325766 104.143887,58.9997622 C105.028012,58.7240904 105.7473,57.8011891 106.664392,57.828157 C107.227834,57.828157 107.728338,58.229679 108.192878,58.5982402 C108.938578,59.1674319 109.639907,59.7924918 110.290801,60.4680143 C111.861246,62.1729845 112.835282,64.4682521 114.267864,66.323044 C115.700445,68.1778359 117.960208,69.6191201 119.995193,68.7681332 C118.610564,74.1617122 114.076053,78.2698216 109.169911,78.6054221 C107.212849,78.7372652 105.207834,78.3297503 103.313709,78.9050654 C102.841603,79.0970412 102.343712,79.2182074 101.836172,79.2646373 C100.745252,79.2646373 99.8671217,78.2638288 99.1867953,77.2899881 C97.5923739,75.0007134 96.3306231,72.3998098 94.5354006,70.3112961 C93.9359941,69.6221165 93.2436795,68.9658977 92.4045104,68.8400476 C91.5653412,68.7141974 90.7951039,69.1127229 90.0488427,69.4992628 C88.8170623,70.137503 87.5583086,70.7997146 86.6022552,71.896409 C85.6462018,72.9931034 85.0437982,74.6231629 85.4394065,76.091415 C85.6521958,76.8884661 86.1377151,77.60761 86.1467062,78.4406183 C86.1646884,79.768038 84.9898516,80.7418787 84.7590801,82.0363377 C84.7070335,82.5800359 84.6880173,83.1263898 84.7021365,83.67239 C84.6002374,85.4462782 83.4403858,86.8995482 82.2295846,88.0142212 C81.7560534,88.4487039 81.2345697,88.913151 81.0967062,89.584352 C81.0037982,90.0398098 81.0967062,90.5252319 81.0367656,90.9866825 C80.8599407,92.1373127 79.7120772,92.7216171 78.6960831,92.8744352 C77.5089856,93.0472313 76.2972988,92.9035532 75.1835608,92.457931 C76.6041543,91.7837337 77.4792878,89.8750059 77.1496142,88.1610464 C76.6970623,85.7878716 74.3114243,84.0858977 74.5152226,81.6677765 C74.6277916,80.9268675 74.8500074,80.2068302 75.1745697,79.5313199 C75.6947761,78.2274228 76.0725954,76.8711622 76.301454,75.4861356 C76.481276,74.4134126 76.5681899,73.2777646 76.2325223,72.2589774 C75.932819,71.3270868 75.3064392,70.5899643 74.7759644,69.8048989 C74.0561906,68.7358872 73.4883281,67.5721532 73.088635,66.3470155 C72.9425868,65.9853016 72.8870331,65.5934184 72.9267953,65.2053746 C73.0434742,64.7402923 73.2997029,64.3220433 73.6610682,64.0068014 C74.9647774,62.6374316 76.3583976,61.2111296 78.1056677,60.8215933 C78.9391285,60.6807229 79.7872375,60.6474901 80.6291691,60.7227111 C82.0933108,60.7701947 83.558954,60.7080952 85.0138279,60.5369322 C86.2126409,60.3960999 88.238635,60.4170749 89.2546291,59.6380024 C90.2016914,58.9098692 90.7351632,58.0019501 91.9010089,57.5404994 C93.0822922,57.105961 94.3517651,56.9660795 95.5993472,57.1329845 L95.5993472,57.1329845 Z" id="Path" fill="#000000" opacity="0.1"></path>
                            <path d="M100.23276,143.196528 C100.23276,143.196528 105.057982,152.701213 103.59543,155.622735" id="Path" fill="#000000" opacity="0.1"></path>
                            <path d="M108.981098,168.615268 L101.914095,159.655933 C101.914095,159.655933 101.914095,159.709869 101.914095,159.811748 C101.914095,159.811748 101.506499,156.911201 102.852166,157.885042 C105.801246,160.018502 110.518576,163.515339 110.620475,164.117622 C110.722374,164.719905 109.664421,167.12604 108.981098,168.615268 Z" id="Path" fill="#000000" opacity="0.1"></path>
                            <g id="Group" opacity="0.1" transform="translate(41.658754, 65.921522)" fill="#000000">
                                <path d="M57.3302374,18.131415 C57.3302374,18.131415 57.9296439,20.6004756 55.9995549,21.8350059 C58.9666172,21.3286088 59.0984866,19.0183591 58.9965875,18.0145541 C58.4456986,18.1028002 57.8880536,18.1419077 57.3302374,18.131415 L57.3302374,18.131415 Z" id="Path"></path>
                                <path d="M1.75925816,52.9289893 C1.75925816,52.9289893 28.6666172,38.0157432 32.6286944,30.4137931 C35.4608902,24.9572889 42.2881306,21.6851843 45.9145401,20.270868 C43.2711573,21.1697979 34.3639763,24.5587634 31.0192878,30.9980975 C27.0721958,38.6000476 0.149851632,53.5162901 0.149851632,53.5162901 L1.75925816,52.9289893 Z" id="Path"></path>
                                <path d="M62.5690504,16.968799 C67.1485163,15.5454935 71.524184,11.9917241 71.524184,11.9917241 L57.474095,2.04356718 L57.7947774,0.683186683 L56.4491098,0.143828775 L55.8646884,2.63086801 L69.9057864,12.5730321 C67.6554819,14.3418727 65.190317,15.8188633 62.5690504,16.968799 L62.5690504,16.968799 Z" id="Path"></path>
                                <path d="M62.6499703,50.6636861 C64.443397,50.0517776 66.2836539,49.5867948 68.1525223,49.2733413 L68.1764985,48.9916766 C66.2938918,49.4054571 64.4461851,49.9644669 62.6499703,50.6636861 L62.6499703,50.6636861 Z" id="Path"></path>
                                <path d="M45.632819,65.9814507 L45.5039466,65.9814507 C45.4051608,66.0318627 45.2853843,66.0150974 45.2042433,65.9395006 C45.3016,65.9678528 45.4025454,65.9819823 45.5039466,65.9814507 C45.9834718,65.7027824 46.7027596,63.5183829 45.2042433,50.8794293 C43.5918398,37.3954816 37.2471217,38.4472295 33.7765579,39.9993817 C37.3250445,39.0225446 42.2072107,39.8675386 43.5948368,51.4637337 C45.1083383,64.1026873 44.3860534,66.2870868 43.8945401,66.5657551 C44.5181596,66.5424338 45.1217719,66.3395358 45.632819,65.9814507 L45.632819,65.9814507 Z" id="Path"></path>
                                <path d="M43.8945401,66.5687515 C43.7931388,66.5692831 43.6921935,66.5551536 43.5948368,66.5268014 C43.6759778,66.6023982 43.7957543,66.6191636 43.8945401,66.5687515 L43.8945401,66.5687515 Z" id="Path"></path>
                            </g>
                            <path d="M95.5993472,56.8393341 C97.9130564,57.1030202 100.109881,58.0948395 102.387626,58.6371938 C102.956899,58.8141524 103.562946,58.8369004 104.143887,58.7031153 C105.028012,58.43044 105.7473,57.5045422 106.664392,57.5315101 C107.227834,57.5494887 107.728338,57.9330321 108.192878,58.3015933 C108.937866,58.871646 109.639133,59.4966499 110.290801,60.1713674 C111.861246,61.8763377 112.835282,64.1716052 114.267864,66.0263971 C115.700445,67.8811891 117.960208,69.3224732 119.995193,68.4714863 C118.610564,73.8650654 114.076053,77.9731748 109.169911,78.3087753 C107.212849,78.4436147 105.207834,78.0360999 103.313709,78.6084185 C102.842059,78.8018028 102.343954,78.9230212 101.836172,78.9679905 C100.745252,78.9679905 99.8671217,77.9671819 99.1867953,76.9933413 C97.5923739,74.7040666 96.3306231,72.1061593 94.5354006,70.0176457 C93.9359941,69.3254697 93.2436795,68.6692509 92.4045104,68.5434007 C91.5653412,68.4175505 90.7951039,68.8190725 90.0488427,69.2056124 C88.8170623,69.8438526 87.5583086,70.5030678 86.6022552,71.6027586 C85.6462018,72.7024495 85.0437982,74.3265161 85.4394065,75.7977646 C85.6521958,76.5948157 86.1377151,77.3139596 86.1467062,78.1469679 C86.1646884,79.4773841 84.9898516,80.4482283 84.7590801,81.7426873 C84.7069746,82.2863817 84.6879584,82.8327391 84.7021365,83.3787396 C84.6002374,85.1526278 83.4403858,86.6029013 82.2295846,87.7205707 C81.7560534,88.1520571 81.2345697,88.6195006 81.0967062,89.2877051 C81.0037982,89.7461593 81.0967062,90.228585 81.0367656,90.6930321 C80.8599407,91.8436623 79.7120772,92.4279667 78.6960831,92.5777883 C77.5090257,92.7534729 76.2965841,92.6097053 75.1835608,92.1612842 C76.6041543,91.4900832 77.4792878,89.5783591 77.1496142,87.867396 C76.6970623,85.4942212 74.3114243,83.7892509 74.5152226,81.374126 C74.6273549,80.6331172 74.8495904,79.9130163 75.1745697,79.2376694 C75.6944081,77.9326159 76.0722129,76.5754028 76.301454,75.1894887 C76.481276,74.1197622 76.5681899,72.9841141 76.2325223,71.9623306 C75.932819,71.0334364 75.3064392,70.2933175 74.7759644,69.5082521 C74.0567732,68.4399782 73.4889417,67.2773163 73.088635,66.053365 C72.9433823,65.6903895 72.887865,65.2977344 72.9267953,64.9087277 C73.0469555,64.4493577 73.302848,64.0368789 73.6610682,63.7251367 C74.9647774,62.3557669 76.3583976,60.9324614 78.1056677,60.5399287 C78.9394068,60.4015227 79.7873278,60.3693041 80.6291691,60.4440428 C82.0933028,60.4900019 83.5588329,60.4279071 85.0138279,60.258264 C86.2126409,60.1174316 88.238635,60.1354102 89.2546291,59.3593341 C90.2016914,58.6341974 90.7351632,57.7232818 91.9010089,57.2618312 C93.0815467,56.8243512 94.3505317,56.6793827 95.5993472,56.8393341 L95.5993472,56.8393341 Z" id="Path" fill="#474463"></path>
                            <g id="snail" transform="translate(129.000000, 113.000000)" fill="#FFFFFF">
                                <path d="M43.4,18.9 L33,18.9 C32.2,18.9 31.5,19.6 31.5,20.4 L31.5,24 C31.5,24.8 32.2,25.5 33,25.5 L43.4,25.5 C44.2,25.5 44.9,24.8 44.9,24 L44.9,20.4 C44.9,19.6 44.2,18.9 43.4,18.9 Z" id="Path"></path>
                                <path d="M44.9,15.1 C44.9,15.9 44.2,16.6 43.4,16.6 L33,16.6 C32.2,16.6 31.5,15.9 31.5,15.1 L31.5,11.3 C31.5,10.5 32.2,9.8 33,9.8 L36.1,9.8 C36.8,9.8 37.3,9.2 37.3,8.6 C37.3,8 36.7,7.5 36.1,7.5 L31,7.5 C30.1,7.5 29.4,8.2 29.4,9.1 L29.4,22.2 C29.4,23.9 27.8,25.6 26.3,25.6 L3.4,25.6 C1.9,25.6 0.3,23.9 0.3,22.2 L0.3,1.9 C0.3,1.1 0.9,0.5 1.7,0.5 L12.4,0.5 C13.2,0.5 13.8,1.1 13.8,1.9 L13.8,14.2 C13.8,14.9 14.4,15.4 15,15.3 C15.6,15.2 16,14.7 16,14.2 L16,1.9 C16,1.1 16.6,0.5 17.4,0.5 L41.9,0.5 C43.4,0.5 45,2.2 45,3.8 L44.9,15.1 Z" id="Path"></path>
                            </g>
                        </g>
                    </g>
                </g>
            </g>
        </g>
    </g>
</svg>