<?xml version="1.0" encoding="UTF-8"?>
<svg width="279px" height="262px" viewBox="0 0 279 262" version="1.1" xmlns="http://www.w3.org/2000/svg" xmlns:xlink="http://www.w3.org/1999/xlink">
    <!-- Generator: Sketch 56.2 (81672) - https://sketch.com -->
    <title>Free_Shipping</title>
    <desc>Created with Sketch.</desc>
    <g id="Page-1" stroke="none" stroke-width="1" fill="none" fill-rule="evenodd">
        <g id="Landing_Page_2-Copy" transform="translate(-1193.000000, -5114.000000)">
            <g id="Benifits" transform="translate(425.000000, 3798.000000)">
                <g id="Community_Support-Copy-2" transform="translate(768.000000, 1316.500000)">
                    <g id="Free_Shipping">
                        <circle id="Oval-Copy-9" fill="#E35205" opacity="0.14" cx="133.5" cy="130.5" r="130.5"></circle>
                        <g id="Dleiveries-Copy-2" transform="translate(0.000000, 59.500000)">
                            <g id="undraw_street_food_hm5i" transform="translate(0.000000, 0.500000)">
                                <g id="Group-2" transform="translate(239.188723, 54.922551)">
                                    <path d="M1.74563379,33.2690575 C6.81836106,34.1651622 13.6793852,34.4638638 15.1690975,33.8664606 C16.3056453,33.4103786 17.0954497,31.2295358 17.4165084,30.2113809 L17.5641954,30.2434994 C17.5641954,30.2434994 16.6684416,33.8247067 15.1787293,34.418898 C13.689017,35.0130893 6.83120341,34.7175996 1.75526555,33.8214948 C0.291237933,33.5645472 -0.126138362,32.9575085 0.0311803954,32.1866657 C0.146761523,32.6909253 0.657244837,33.0763468 1.74563379,33.2690575 Z" id="Path" fill="#000000" fill-rule="nonzero" opacity="0.2"></path>
                                    <path d="M29.9699031,55.6074401 C29.9699031,55.6074401 34.2110883,41.1958912 29.1736775,30.5903786 C27.0321417,26.1549347 26.3866139,21.1442166 27.3340112,16.3105153 C27.8010934,14.0191259 28.4770724,11.7753721 29.3534704,9.60739459" id="Path" stroke="#535461" stroke-width="1.2"></path>
                                    <path d="M26.2199376,2.90748571 C26.2199376,4.67400051 29.4305245,9.79368161 29.4305245,9.79368161 C29.4305245,9.79368161 32.6411114,4.67078867 32.6411114,2.90748571 C32.4842523,1.2589862 31.1002747,1.42108547e-13 29.4449721,1.42108547e-13 C27.7896695,1.42108547e-13 26.4056919,1.2589862 26.2488329,2.90748571 L26.2199376,2.90748571 Z" id="Path" fill="#E35205" fill-rule="nonzero"></path>
                                    <path d="M20.9353116,12.687554 C21.8984876,14.1714265 27.3564853,16.731267 27.3564853,16.731267 C27.3564853,16.731267 27.2569572,10.6929982 26.2969917,9.21233764 C25.7320837,8.13328346 24.6056227,7.4667695 23.3882622,7.491276 C22.1709016,7.51578249 21.0721556,8.22709173 20.5510979,9.32800731 C20.0300402,10.4289229 20.1763476,11.7299715 20.9288904,12.687554 L20.9353116,12.687554 Z" id="Path" fill="#E35205" fill-rule="nonzero"></path>
                                    <path d="M21.1664738,29.4052078 C22.742872,30.2017454 28.7530906,29.6525199 28.7530906,29.6525199 C28.7530906,29.6525199 25.6195578,24.4910848 24.0431597,23.6945472 C23.0119401,23.0571953 21.7098129,23.0551895 20.6766362,23.6893616 C19.6434596,24.3235336 19.055387,25.4857591 19.1562316,26.6941826 C19.2570762,27.9026061 20.0296443,28.9511952 21.1536315,29.4052078 L21.1664738,29.4052078 Z" id="Path" fill="#E35205" fill-rule="nonzero"></path>
                                    <path d="M24.1876361,42.0149117 C25.6067155,43.065185 31.6233553,43.5405381 31.6233553,43.5405381 C31.6233553,43.5405381 29.4080504,37.923021 27.988971,36.8727477 C26.571641,36.0242469 24.7420415,36.3899988 23.7595211,37.7182494 C22.7770007,39.0465 22.9621971,40.9037852 24.1876361,42.0116998 L24.1876361,42.0149117 Z" id="Path" fill="#E35205" fill-rule="nonzero"></path>
                                    <path d="M34.0634013,17.0749345 C32.7984301,18.3050711 26.8973714,19.5801736 26.8973714,19.5801736 C26.8973714,19.5801736 28.3421355,13.7185563 29.6071067,12.4884196 C30.3983186,11.5617551 31.6456243,11.1628868 32.8274306,11.4586119 C34.0092368,11.754337 34.9219356,12.6937064 35.1838583,13.8838984 C35.4457811,15.0740903 35.0118022,16.3100522 34.0634013,17.0749345 Z" id="Path" fill="#E35205" fill-rule="nonzero"></path>
                                    <path d="M37.4184646,31.8654811 C35.8420665,32.6620187 29.8318478,32.1127932 29.8318478,32.1127932 C29.8318478,32.1127932 32.9653806,26.9513581 34.5417788,26.1548206 C36.0881861,25.5301795 37.8551716,26.1939826 38.6083481,27.6825078 C39.3615246,29.1710329 38.8500826,30.9885977 37.431307,31.8654811 L37.4184646,31.8654811 Z" id="Path" fill="#E35205" fill-rule="nonzero"></path>
                                    <path d="M38.6994888,46.6881463 C37.2804094,47.7384196 31.2637696,48.2137727 31.2637696,48.2137727 C31.2637696,48.2137727 33.4790745,42.5962556 34.8981539,41.5459823 C36.3154839,40.6974815 38.1450834,41.0632335 39.1276038,42.391484 C40.1101242,43.7197346 39.9249277,45.5770198 38.6994888,46.6849345 L38.6994888,46.6881463 Z" id="Path" fill="#E35205" fill-rule="nonzero"></path>
                                    <path d="M39.2003403,54.2070757 C39.2003403,54.2070757 31.446773,52.6557545 29.3791551,50.5873263 C27.3115371,48.518898 18.0072563,44.8991486 16.9734474,47.4846839 C15.9396384,50.0702192 3.0170262,58.8610392 11.8044025,60.4123604 C20.5917788,61.9636816 32.480582,62.4807887 35.0618939,61.4465745 C37.6432057,60.4123604 39.2003403,54.2070757 39.2003403,54.2070757 Z" id="Path" fill="#A8A8A8" fill-rule="nonzero"></path>
                                    <path d="M11.8044025,59.4359595 C20.5917788,60.9872807 32.480582,61.5043878 35.0618939,60.4701736 C37.0299836,59.6832716 38.3976936,55.8997181 38.9370722,54.1364151 L39.1971298,54.1910165 C39.1971298,54.1910165 37.6464163,60.3963012 35.0618939,61.4305153 C32.4773714,62.4647294 20.5885682,61.9476224 11.8044025,60.3963012 C9.26803885,59.9498547 8.54244622,58.8963695 8.8153461,57.5666657 C9.02082366,58.4499231 9.9165774,59.114775 11.8044025,59.4359595 Z" id="Path" fill="#000000" fill-rule="nonzero" opacity="0.2"></path>
                                </g>
                                <polygon id="Path" fill="#F5F5F5" fill-rule="nonzero" points="248.939275 121.22467 233.570196 120.087677 31.5086997 120.087677 31.5086997 90.4776765 248.939275 90.4776765"></polygon>
                                <path d="M29.415397,14.7391572 L16.1428308,14.7391572 L16.1428308,6.9215262 C16.1428308,3.90597598 18.5864596,1.46138952 21.6008285,1.46138952 L23.9573993,1.46138952 C26.9717682,1.46138952 29.415397,3.90597598 29.415397,6.9215262 L29.415397,14.7391572 Z" id="Path" fill="#EDEDF4" fill-rule="nonzero"></path>
                                <path d="M257.097376,76.242779 L257.097376,121.41738 L242.277307,121.22467 C242.277307,120.903485 242.299781,120.582301 242.299781,120.280387 C242.299781,104.138324 229.21918,91.0525968 213.083441,91.0525968 C196.947701,91.0525968 183.8671,104.138324 183.8671,120.280387 C183.8671,120.344624 183.8671,120.408861 183.8671,120.469886 L169.075926,120.277175 L92.4135328,120.277175 C92.412586,119.20407 92.3525642,118.131832 92.2337399,117.06533 C92.17916,116.551435 92.1117376,116.047175 92.0250518,115.546128 C91.8186578,114.257861 91.5247432,112.985163 91.145351,111.736879 C90.9912428,111.222984 90.8242923,110.718724 90.6380783,110.217677 C90.159082,108.91344 89.5883086,107.644796 88.930046,106.421276 C88.6539356,105.904169 88.3585616,105.399909 88.0503452,104.902073 C87.2217338,103.563462 86.2865623,102.29388 85.2539241,101.105672 C84.7980207,100.581071 84.3260644,100.07467 83.8380552,99.5864692 C72.4321734,88.1944369 53.9590004,88.1944369 42.5531185,99.5864692 C42.0629689,100.076811 41.5910127,100.583212 41.1372497,101.105672 C40.1046115,102.29388 39.1694399,103.563462 38.3408285,104.902073 C38.0197699,105.399909 37.7372382,105.904169 37.4611277,106.421276 C36.8028652,107.644796 36.2320918,108.91344 35.7530955,110.217677 C35.5700921,110.718724 35.399931,111.222984 35.2458228,111.736879 C34.8669967,112.980959 34.5730865,114.249346 34.366122,115.53328 C34.2794361,116.034328 34.2120138,116.538588 34.1574338,117.052483 C34.0386096,118.118984 33.9785877,119.191223 33.977641,120.264328 L4.76130035,120.264328 L4.76130035,20.4401822 L210.813556,20.4401822 L231.255362,65.0302278 L256.660736,76.0532802 L257.097376,76.242779 Z" id="Path" fill="#E35205" fill-rule="nonzero"></path>
                                <g id="snail" transform="translate(37.600000, 39.200000)" fill="#FFFFFF" fill-rule="nonzero">
                                    <path d="M34.72,15.12 L26.4,15.12 C25.76,15.12 25.2,15.68 25.2,16.32 L25.2,19.2 C25.2,19.84 25.76,20.4 26.4,20.4 L34.72,20.4 C35.36,20.4 35.92,19.84 35.92,19.2 L35.92,16.32 C35.92,15.68 35.36,15.12 34.72,15.12 Z" id="Path"></path>
                                    <path d="M35.92,12.08 C35.92,12.72 35.36,13.28 34.72,13.28 L26.4,13.28 C25.76,13.28 25.2,12.72 25.2,12.08 L25.2,9.04 C25.2,8.4 25.76,7.84 26.4,7.84 L28.88,7.84 C29.44,7.84 29.84,7.36 29.84,6.88 C29.84,6.4 29.36,6 28.88,6 L24.8,6 C24.08,6 23.52,6.56 23.52,7.28 L23.52,17.76 C23.52,19.12 22.24,20.48 21.04,20.48 L2.72,20.48 C1.52,20.48 0.24,19.12 0.24,17.76 L0.24,1.52 C0.24,0.88 0.72,0.4 1.36,0.4 L9.92,0.4 C10.56,0.4 11.04,0.88 11.04,1.52 L11.04,11.36 C11.04,11.92 11.52,12.32 12,12.24 C12.48,12.16 12.8,11.76 12.8,11.36 L12.8,1.52 C12.8,0.88 13.28,0.4 13.92,0.4 L33.52,0.4 C34.72,0.4 36,1.76 36,3.04 L35.92,12.08 Z" id="Path"></path>
                                </g>
                                <path d="M9.31070196,10.9491788 L202.780667,10.9491788 C207.213563,10.9491788 210.807135,14.54416 210.807135,18.9787927 L210.807135,20.4401822 L4.75808976,20.4401822 L4.75808976,15.5003645 C4.75808976,14.2927586 5.23784073,13.13466 6.09171355,12.2810549 C6.94558637,11.4274499 8.10356946,10.9483277 9.31070196,10.9491788 Z" id="Path" fill="#F5F5F5" fill-rule="nonzero"></path>
                                <path d="M164.510472,10.94918 L117.45611,10.94918 L117.45611,9.17624146 C117.45611,6.8268825 118.389024,4.57374717 120.049621,2.91249952 C121.710218,1.25125188 123.96247,0.317972665 126.310909,0.317972665 L153.50458,0.317972665 L164.510472,10.94918 Z" id="Path" fill="#EDEDF4" fill-rule="nonzero"></path>
                                <rect id="Rectangle" fill="#000000" fill-rule="nonzero" opacity="0.1" x="0.584326812" y="105.470569" width="26.5611853" height="18.2207973" rx="6.6"></rect>
                                <polygon id="Path" fill="#000000" fill-rule="nonzero" opacity="0.1" points="168.873659 120.087677 146.865086 120.087677 146.865086 20.2506834 190.121323 20.2506834 190.121323 89.3374715"></polygon>
                                <rect id="Rectangle" fill="#F5F5F5" fill-rule="nonzero" x="0.20547756" y="106.231777" width="26.5611853" height="18.2207973" rx="6.6"></rect>
                                <rect id="Rectangle" fill="#000000" fill-rule="nonzero" opacity="0.1" x="249.1287" y="104.712574" width="14.4187457" height="21.2592027" rx="7.20937284"></rect>
                                <rect id="Rectangle" fill="#F5F5F5" fill-rule="nonzero" x="249.886398" y="105.091572" width="14.4187457" height="21.2592027" rx="7.20937284"></rect>
                                <rect id="Rectangle" fill="#F5F5F5" fill-rule="nonzero" x="153.125731" y="27.6539863" width="31.8747066" height="44.0343964" rx="9.6"></rect>
                                <rect id="Rectangle" fill="#1A2246" fill-rule="nonzero" x="178.929217" y="75.4815718" width="4.17376295" height="9.11200456"></rect>
                                <path d="M197.900575,33.9138724 L197.900575,65.357836 C197.900575,66.3370029 198.694036,67.1307745 199.672819,67.1307745 L219.016605,67.1307745 C219.658281,67.1304245 220.249647,66.7831127 220.562685,66.2227548 C220.875723,65.6623969 220.861531,64.9765312 220.525581,64.4296128 L201.181795,32.9856492 C200.766193,32.3106323 199.953148,31.9936794 199.190576,32.2094032 C198.428004,32.4251269 197.901277,33.1210873 197.900575,33.9138724 L197.900575,33.9138724 Z" id="Path" fill="#F5F5F5" fill-rule="nonzero"></path>
                                <polygon id="Path" fill="#FFFFFF" fill-rule="nonzero" points="163.370713 27.6539863 153.125731 36.762779 153.125731 41.5098861 167.733901 27.6539863"></polygon>
                                <polygon id="Path" fill="#FFFFFF" fill-rule="nonzero" points="153.125731 47.0085649 153.125731 52.5168793 177.41061 27.6539863 172.665362 27.6539863"></polygon>
                                <polygon id="Path" fill="#FFFFFF" fill-rule="nonzero" points="204.321749 38.0924829 197.900575 47.0085649 197.900575 50.42918 206.424684 41.5098861"></polygon>
                                <polygon id="Path" fill="#FFFFFF" fill-rule="nonzero" points="209.346318 47.0085649 197.900575 56.7886333 197.900575 59.5411845 211.911577 50.42918"></polygon>
                                <ellipse id="Oval" fill="#1A2246" fill-rule="nonzero" cx="63.1939816" cy="120.277175" rx="20.4899655" ry="20.4979954"></ellipse>
                                <ellipse id="Oval" fill="#FFFFFF" fill-rule="nonzero" cx="63.1939816" cy="120.277175" rx="11.3847411" ry="11.3892027"></ellipse>
                                <ellipse id="Oval" fill="#1A2246" fill-rule="nonzero" cx="63.004557" cy="120.087677" rx="3.03721519" ry="3.03840547"></ellipse>
                                <ellipse id="Oval" fill="#1A2246" fill-rule="nonzero" cx="213.08023" cy="120.277175" rx="20.4899655" ry="20.4979954"></ellipse>
                                <ellipse id="Oval" fill="#FFFFFF" fill-rule="nonzero" cx="213.08023" cy="120.277175" rx="11.3847411" ry="11.3892027"></ellipse>
                                <ellipse id="Oval" fill="#1A2246" fill-rule="nonzero" cx="213.269655" cy="120.087677" rx="3.03721519" ry="3.03840547"></ellipse>
                                <rect id="Rectangle" fill="#000000" fill-rule="nonzero" opacity="0.1" x="4.56866513" y="88.9584738" width="142.296421" height="1.51920273"></rect>
                                <polyline id="Path" fill="#000000" fill-rule="nonzero" opacity="0.1" points="254.43901 90.4776765 189.363625 90.4776765 190.121323 89.3374715 190.121323 88.9584738 254.43901 88.9584738"></polyline>
                                <polyline id="Path" fill="#000000" fill-rule="nonzero" opacity="0.1" points="254.43901 84.0250797 190.121323 84.0250797 190.121323 82.505877 254.43901 82.505877"></polyline>
                                <polyline id="Path" fill="#000000" fill-rule="nonzero" opacity="0.1" points="254.43901 77.5692711 190.121323 77.5692711 190.121323 76.0532802 254.002371 76.0532802"></polyline>
                                <path d="M49.8347296,94.2740774 C48.9411497,94.7351402 48.0720555,95.2422212 47.2309436,95.7932802 L4.56866513,95.7932802 L4.56866513,94.2740774 L49.8347296,94.2740774 Z" id="Path" fill="#000000" fill-rule="nonzero" opacity="0.1"></path>
                                <path d="M146.865086,94.2740774 L146.865086,95.7932802 L79.1602301,95.7932802 C78.3191183,95.2422212 77.4500241,94.7351402 76.5564442,94.2740774 L146.865086,94.2740774 Z" id="Path" fill="#000000" fill-rule="nonzero" opacity="0.1"></path>
                                <path d="M42.5531185,99.5896811 C42.0629689,100.080023 41.5910127,100.586424 41.1372497,101.108884 L4.56866513,101.108884 L4.56866513,99.5896811 L42.5531185,99.5896811 Z" id="Path" fill="#000000" fill-rule="nonzero" opacity="0.1"></path>
                                <path d="M146.865086,99.5896811 L146.865086,101.108884 L85.2539241,101.108884 C84.7980207,100.584282 84.3260644,100.077882 83.8380552,99.5896811 L146.865086,99.5896811 Z" id="Path" fill="#000000" fill-rule="nonzero" opacity="0.1"></path>
                                <path d="M38.3408285,104.902073 C38.0197699,105.399909 37.7372382,105.904169 37.4611277,106.421276 L4.56866513,106.421276 L4.56866513,104.902073 L38.3408285,104.902073 Z" id="Path" fill="#000000" fill-rule="nonzero" opacity="0.1"></path>
                                <path d="M146.865086,104.902073 L146.865086,106.421276 L88.930046,106.421276 C88.6539356,105.904169 88.3585616,105.399909 88.0503452,104.902073 L146.865086,104.902073 Z" id="Path" fill="#000000" fill-rule="nonzero" opacity="0.1"></path>
                                <path d="M35.7530955,110.217677 C35.5700921,110.718724 35.399931,111.222984 35.2458228,111.736879 L27.3349367,111.736879 L27.3349367,110.217677 L35.7530955,110.217677 Z" id="Path" fill="#000000" fill-rule="nonzero" opacity="0.1"></path>
                                <path d="M146.865086,110.217677 L146.865086,111.736879 L91.145351,111.736879 C90.9912428,111.222984 90.8242923,110.718724 90.6380783,110.217677 L146.865086,110.217677 Z" id="Path" fill="#000000" fill-rule="nonzero" opacity="0.1"></path>
                                <path d="M34.3629114,115.53328 C34.2762255,116.034328 34.2088032,116.538588 34.1542232,117.052483 L27.3349367,117.052483 L27.3349367,115.53328 L34.3629114,115.53328 Z" id="Path" fill="#000000" fill-rule="nonzero" opacity="0.1"></path>
                                <path d="M146.865086,115.53328 L146.865086,117.052483 L92.2337399,117.052483 C92.17916,116.538588 92.1117376,116.034328 92.0250518,115.53328 L146.865086,115.53328 Z" id="Path" fill="#000000" fill-rule="nonzero" opacity="0.1"></path>
                                <rect id="Rectangle" fill="#000000" fill-rule="nonzero" opacity="0.1" x="29.4218182" y="80.03918" width="93.3478136" height="1.14020501"></rect>
                                <g id="Group" opacity="0.1" transform="translate(3.210587, 83.507973)" fill="#000000" fill-rule="nonzero">
                                    <path d="M13.5101496,0.0867198178 L14.2903222,0.607038724 C14.218784,0.685771048 14.126377,0.7425735 14.0238435,0.770842825 L13.4812543,0.407904328 L13.5101496,0.0867198178 Z" id="Path"></path>
                                    <path d="M1.53787112,18.5644647 C2.25383199,19.1618679 7.69577675,19.2582232 10.9352589,19.2614351 C7.79530495,19.2614351 1.77866513,19.1907745 1.0273878,18.5644647 C0.7272425,18.3822983 0.379557961,18.2939451 0.0288952819,18.3107289 C0.722382048,18.2721868 1.28102417,18.3492711 1.53787112,18.5644647 Z" id="Path"></path>
                                </g>
                            </g>
                        </g>
                    </g>
                </g>
            </g>
        </g>
    </g>
</svg>