<?xml version="1.0" encoding="UTF-8"?>
<svg width="294px" height="262px" viewBox="0 0 294 262" version="1.1" xmlns="http://www.w3.org/2000/svg" xmlns:xlink="http://www.w3.org/1999/xlink">
    <!-- Generator: Sketch 55.2 (78181) - https://sketchapp.com -->
    <title>Pricing</title>
    <desc>Created with Sketch.</desc>
    <defs>
        <linearGradient x1="49.9959763%" y1="100.000857%" x2="49.9959763%" y2="0.0159995781%" id="linearGradient-1">
            <stop stop-color="#808080" stop-opacity="0.25" offset="0%"></stop>
            <stop stop-color="#808080" stop-opacity="0.12" offset="54%"></stop>
            <stop stop-color="#808080" stop-opacity="0.1" offset="100%"></stop>
        </linearGradient>
    </defs>
    <g id="Page-1" stroke="none" stroke-width="1" fill="none" fill-rule="evenodd">
        <g id="Landing_Page_2" transform="translate(-1001.000000, -4613.000000)">
            <g id="Benifits" transform="translate(273.000000, 3896.000000)">
                <g id="Save" transform="translate(728.000000, 717.500000)">
                    <g id="Pricing">
                        <circle id="Oval-Copy-8" fill="#E35205" opacity="0.14" cx="146.5" cy="130.5" r="130.5"></circle>
                        <g id="undraw_savings_hjfl" transform="translate(0.000000, 97.000000)">
                            <ellipse id="Oval" fill="#E35205" fill-rule="nonzero" opacity="0.1" cx="147" cy="121" rx="147" ry="18"></ellipse>
                            <path d="M251,130 C251,130 258.887514,120.375065 258.248937,110.825365 C257.9551,106.821681 259.023202,102.834587 261.293003,99.4622341 C262.385686,97.8706103 263.626416,96.3771031 265,95" id="Path" stroke="#535461" stroke-width="2"></path>
                            <path d="M265.166461,88.6780222 C264.652274,90.0454387 265.493444,95 265.493444,95 C265.493444,95 269.309909,92.0235459 269.8216,90.6534743 C270.153332,89.7689015 270.016233,88.763263 269.461947,88.015373 C268.907661,87.2674831 268.020397,86.8909641 267.134378,87.027647 C266.248359,87.1643299 265.498194,87.7934494 265.166461,88.6780222 L265.166461,88.6780222 Z" id="Path" fill="#E35205" fill-rule="nonzero"></path>
                            <path d="M258.058194,94.0697175 C258.325451,95.4615565 261.555025,99 261.555025,99 C261.555025,99 263.238499,94.4662893 262.971242,93.0718918 C262.702247,91.6793451 261.382123,90.7738339 260.022664,91.0493758 C258.663204,91.3249178 257.779208,92.6771708 258.048203,94.0697175 L258.058194,94.0697175 Z" id="Path" fill="#E35205" fill-rule="nonzero"></path>
                            <path d="M252.620345,107.453406 C253.525978,108.562707 258,110 258,110 C258,110 257.22972,105.013475 256.324087,103.904173 C255.419573,102.795953 253.857209,102.692086 252.834448,103.67218 C251.811688,104.652273 251.715831,106.345186 252.620345,107.453406 L252.620345,107.453406 Z" id="Path" fill="#E35205" fill-rule="nonzero"></path>
                            <path d="M251.421319,117.773143 C252.239068,118.93491 256.99994,121 256.99994,121 C256.99994,121 257.022344,116.323395 256.204594,115.171473 C255.387173,114.010565 253.653751,113.651866 252.332886,114.370297 C251.012021,115.088728 250.603898,116.612234 251.421319,117.773143 L251.421319,117.773143 Z" id="Path" fill="#E35205" fill-rule="nonzero"></path>
                            <path d="M266.344823,101.816732 C264.978942,102.343559 260,101.567051 260,101.567051 C260,101.567051 262.928789,97.71697 264.30532,97.1901431 C265.670659,96.6620052 267.234043,97.2717978 267.797236,98.552153 C268.360429,99.8325081 267.710162,101.298581 266.344823,101.826719 L266.344823,101.816732 Z" id="Path" fill="#E35205" fill-rule="nonzero"></path>
                            <path d="M264.678858,113.994975 C263.280674,114.117054 259,111.974444 259,111.974444 C259,111.974444 262.834876,109.131749 264.235593,109.00967 C265.634499,108.889273 266.867765,109.907113 266.990169,111.283078 C267.112573,112.659044 266.077764,113.872086 264.678858,113.992483 L264.678858,113.994975 Z" id="Path" fill="#E35205" fill-rule="nonzero"></path>
                            <path d="M261.064672,125.943225 C259.677649,126.295905 255,124.890188 255,124.890188 C255,124.890188 258.357782,121.435928 259.744805,121.083248 C261.130651,120.730296 262.549564,121.532115 262.914035,122.874161 C263.278506,124.216206 262.450518,125.590273 261.064672,125.943225 L261.064672,125.943225 Z" id="Path" fill="#E35205" fill-rule="nonzero"></path>
                            <path d="M265.166461,88.6780222 C264.652274,90.0454387 265.493444,95 265.493444,95 C265.493444,95 269.309909,92.0235459 269.8216,90.6534743 C270.153332,89.7689015 270.016233,88.763263 269.461947,88.015373 C268.907661,87.2674831 268.020397,86.8909641 267.134378,87.027647 C266.248359,87.1643299 265.498194,87.7934494 265.166461,88.6780222 L265.166461,88.6780222 Z" id="Path" fill="#000000" fill-rule="nonzero" opacity="0.25"></path>
                            <path d="M258.058194,94.0697175 C258.325451,95.4615565 261.555025,99 261.555025,99 C261.555025,99 263.238499,94.4662893 262.971242,93.0718918 C262.702247,91.6793451 261.382123,90.7738339 260.022664,91.0493758 C258.663204,91.3249178 257.779208,92.6771708 258.048203,94.0697175 L258.058194,94.0697175 Z" id="Path" fill="#000000" fill-rule="nonzero" opacity="0.25"></path>
                            <path d="M252.620345,107.453406 C253.525978,108.562707 258,110 258,110 C258,110 257.22972,105.013475 256.324087,103.904173 C255.419573,102.795953 253.857209,102.692086 252.834448,103.67218 C251.811688,104.652273 251.715831,106.345186 252.620345,107.453406 L252.620345,107.453406 Z" id="Path" fill="#000000" fill-rule="nonzero" opacity="0.25"></path>
                            <path d="M251.421319,117.773143 C252.239068,118.93491 256.99994,121 256.99994,121 C256.99994,121 257.022344,116.323395 256.204594,115.171473 C255.387173,114.010565 253.653751,113.651866 252.332886,114.370297 C251.012021,115.088728 250.603898,116.612234 251.421319,117.773143 L251.421319,117.773143 Z" id="Path" fill="#000000" fill-rule="nonzero" opacity="0.25"></path>
                            <path d="M266.344823,101.816732 C264.978942,102.343559 260,101.567051 260,101.567051 C260,101.567051 262.928789,97.71697 264.30532,97.1901431 C265.670659,96.6620052 267.234043,97.2717978 267.797236,98.552153 C268.360429,99.8325081 267.710162,101.298581 266.344823,101.826719 L266.344823,101.816732 Z" id="Path" fill="#000000" fill-rule="nonzero" opacity="0.25"></path>
                            <path d="M264.678858,113.994975 C263.280674,114.117054 259,111.974444 259,111.974444 C259,111.974444 262.834876,109.131749 264.235593,109.00967 C265.634499,108.889273 266.867765,109.907113 266.990169,111.283078 C267.112573,112.659044 266.077764,113.872086 264.678858,113.992483 L264.678858,113.994975 Z" id="Path" fill="#000000" fill-rule="nonzero" opacity="0.25"></path>
                            <path d="M261.064672,125.943225 C259.677649,126.295905 255,124.890188 255,124.890188 C255,124.890188 258.357782,121.435928 259.744805,121.083248 C261.130651,120.730296 262.549564,121.532115 262.914035,122.874161 C263.278506,124.216206 262.450518,125.590273 261.064672,125.943225 L261.064672,125.943225 Z" id="Path" fill="#000000" fill-rule="nonzero" opacity="0.25"></path>
                            <path d="M251,129 C251,129 262.041,123.170574 265.420304,114.043962 C266.811255,110.207253 269.412996,106.922757 272.835704,104.682591 C274.47131,103.633257 276.19996,102.735311 278,102" id="Path" stroke="#535461" stroke-width="2"></path>
                            <path d="M280.317663,96.7923478 C279.220544,97.8724236 278,103 278,103 C278,103 283.079659,101.869818 284.168549,100.792525 C284.872612,100.096361 285.157252,99.0718641 284.915246,98.1049523 C284.673241,97.1380405 283.941357,96.3756109 282.995289,96.1048634 C282.04922,95.8341159 281.032697,96.0961835 280.328634,96.7923478 L280.317663,96.7923478 Z" id="Path" fill="#E35205" fill-rule="nonzero"></path>
                            <path d="M272.039707,99.0108205 C271.73422,100.400248 273.291705,105 273.291705,105 C273.291705,105 276.632036,101.537987 276.937523,100.148559 C277.24384,98.7592264 276.394063,97.3782582 275.039494,97.0640803 C273.684925,96.7499024 272.338512,97.6214877 272.032195,99.0108205 L272.039707,99.0108205 Z" id="Path" fill="#E35205" fill-rule="nonzero"></path>
                            <path d="M262.127462,109.411763 C262.545096,110.791625 266.156254,114 266.156254,114 C266.156254,114 267.334132,109.208305 266.906495,107.828443 C266.635333,106.936145 265.928376,106.262517 265.051928,106.061309 C264.175481,105.8601 263.262696,106.161879 262.65741,106.852969 C262.052125,107.544058 261.846297,108.519465 262.117459,109.411763 L262.127462,109.411763 Z" id="Path" fill="#E35205" fill-rule="nonzero"></path>
                            <path d="M256.020966,117.901184 C256.210538,119.299164 259.241192,123 259.241192,123 C259.241192,123 261.174325,118.600174 260.987248,117.204735 C260.86516,116.301184 260.2793,115.53264 259.450356,115.188605 C258.621411,114.84457 257.675319,114.977313 256.968462,115.536829 C256.261605,116.096346 255.901373,116.997633 256.02346,117.901184 L256.020966,117.901184 Z" id="Path" fill="#E35205" fill-rule="nonzero"></path>
                            <path d="M276.397583,109.999145 C274.995778,109.964293 271,107.360353 271,107.360353 C271,107.360353 275.129644,104.965525 276.528924,105.000377 C277.929451,105.036123 279.035401,106.184114 278.999133,107.564486 C278.962864,108.944858 277.798111,110.034892 276.397583,109.999145 L276.397583,109.999145 Z" id="Path" fill="#E35205" fill-rule="nonzero"></path>
                            <path d="M269.515126,119.864694 C268.138563,119.41677 265,115.735784 265,115.735784 C265,115.735784 269.842879,114.659765 271.219442,115.110191 C272.109363,115.400745 272.769264,116.122329 272.950566,117.00313 C273.131868,117.883931 272.807027,118.790134 272.098408,119.380381 C271.389789,119.970629 270.405047,120.155248 269.515126,119.864694 L269.515126,119.864694 Z" id="Path" fill="#E35205" fill-rule="nonzero"></path>
                            <path d="M262.024683,128.96761 C260.633036,128.747972 257,125.6331 257,125.6331 C257,125.6331 261.447162,123.79862 262.851529,124.018258 C264.244677,124.238809 265.191799,125.525551 264.966984,126.892277 C264.74217,128.259003 263.430552,129.188161 262.037403,128.96761 L262.024683,128.96761 Z" id="Path" fill="#E35205" fill-rule="nonzero"></path>
                            <path d="M156,11 L149,11 C149.004587,10.4923167 149.038412,9.98523953 149.101327,9.48099573 C149.320869,7.68677117 149.996381,4.77578737 152.09047,3.41027134 C154.046643,2.13473117 156.593888,4.05862682 155.594692,6.09366913 L155.569361,6.14924246 C155.195014,6.88492745 155.183756,7.80056417 155.3076,8.63945678 C155.438987,9.44914281 155.67139,10.2414529 156,11 L156,11 Z" id="Path" fill="#E35205" fill-rule="nonzero"></path>
                            <path d="M156,11 L149,11 C149.004587,10.5761959 149.038412,10.1528976 149.101327,9.73196466 C151.076884,9.15063589 153.189093,8.91100744 155.293526,9.02946425 C155.429442,9.70583345 155.666573,10.3672519 156,11 L156,11 Z" id="Path" fill="#000000" fill-rule="nonzero" opacity="0.1"></path>
                            <path d="M159.847132,17.8471757 C158.131295,19.1978839 155.731782,19.2184661 153.276405,18.6395912 C148.248601,17.450968 143,13.7307318 143,13.7307318 C143.357345,13.3474072 143.741307,12.9880998 144.149212,12.6553108 C146.218858,10.9366955 150.962019,7.89824531 157.311949,9.40846567 C158.864887,9.75336214 160.232801,10.6377725 161.155957,11.8937687 C162.206742,13.380834 162.754746,15.5599765 159.847132,17.8471757 Z" id="Path" fill="#E35205" fill-rule="nonzero"></path>
                            <path d="M158,15.0507893 C158,15.0507893 154.214683,12.1438316 149,16" id="Path" fill="#000000" fill-rule="nonzero" opacity="0.1"></path>
                            <path d="M52,42.4901242 C52,42.4901242 39.6983777,33.0065008 39.0798455,41.6045251 C38.4613133,50.2025493 41.5566288,58.2713417 44.2112732,58.9787572 C46.8659176,59.6861727 52,42.4901242 52,42.4901242 Z" id="Path" fill="#E35205" fill-rule="nonzero"></path>
                            <path d="M52,42.4901242 C52,42.4901242 39.6983777,33.0065008 39.0798455,41.6045251 C38.4613133,50.2025493 41.5566288,58.2713417 44.2112732,58.9787572 C46.8659176,59.6861727 52,42.4901242 52,42.4901242 Z" id="Path" fill="#000000" fill-rule="nonzero" opacity="0.2"></path>
                            <path d="M44,45 C44,45 44.3235865,53.162259 47.0696183,51.8590412 C49.8156501,50.5558234 45.7812098,45.364901 44,45 Z" id="Path" fill="#000000" fill-rule="nonzero" opacity="0.1"></path>
                            <path d="M81.7203135,108.553062 C81.4281942,109.77448 80.9777226,110.952953 80.3802176,112.058869 C80.2274467,112.346799 80.0612748,112.642726 79.8790218,112.943986 C76.9549325,117.780135 70.1954887,119.787643 70.1954887,118.721238 C70.1954887,117.654832 69.528121,114.898174 67.8288794,115.697978 C66.1296378,116.497782 63.5405725,116.321825 63.5405725,116.321825 C58.8636378,115.967245 59.6542943,111.381702 61.2034452,107.49732 C61.7186699,106.220488 62.3075031,104.974279 62.9670114,103.764901 C63.5512932,102.698496 63.9881645,102 63.9881645,102 L81.8570033,104.844637 C81.8570033,104.844637 82.2563519,106.24696 81.7203135,108.553062 Z" id="Path" fill="#E35205" fill-rule="nonzero"></path>
                            <path d="M154,19 C149.107429,17.8082545 144,14.0782459 144,14.0782459 C144.347734,13.6939144 144.721368,13.3336632 145.118302,13 C145.863836,13.3920894 146.612823,13.8091144 147.36526,14.2510748 C149.72402,15.6191907 151.945758,17.2094367 154,19 Z" id="Path" fill="#000000" fill-rule="nonzero" opacity="0.1"></path>
                            <path d="M81.7236903,109 C76.8849537,108.603751 69.876944,107.515287 63,104.619242 C63.5831092,103.640848 64.0191037,103 64.0191037,103 L81.8520813,105.609865 C81.8520813,105.609865 82.2586529,106.884223 81.7236903,109 Z" id="Path" fill="#000000" fill-rule="nonzero" opacity="0.1"></path>
                            <path d="M155.648536,86.6874709 C155.648536,86.6874709 155.332587,92.3266034 152.157293,98.6993244 C149.712295,103.711278 145.940839,107.953967 141.254399,110.964504 C141.254399,110.964504 138.447713,113.25235 138.271308,106.919211 C138.271308,106.919211 137.041738,105.599807 128.616415,111.365602 C128.616415,111.365602 123.53226,114.479396 124.930336,101.488544 C124.930336,101.488544 124.930336,101.472712 124.930336,101.464795 C124.930336,101.456879 124.803957,101.546598 124.57226,101.686455 L124.556463,101.686455 C123.956159,102.055888 122.681828,102.813226 121.16527,103.575841 C118.387547,104.97441 114.788354,106.396727 113.003239,105.499532 C112.593282,108.787546 111.581072,111.971428 110.017515,114.89105 C108.248198,118.118312 105.45731,121.274326 101.086673,122.699282 C98.8396209,123.421405 96.3783242,122.819994 94.7150232,121.142386 L94.2147696,120.641012 C94.2147696,120.641012 90.3522858,123.27982 88.4223603,122.398458 C86.4924349,121.517096 84.910054,119.057727 87.5429673,114.482034 C87.5429673,114.482034 87.6825117,114.102046 87.8536511,113.545258 C88.2828159,112.133495 88.9068164,109.587046 87.8957777,109.204419 C87.8957777,109.204419 46.9961021,111.315465 41.5565032,74.899916 C36.1169042,38.484367 72.0982977,25.1161661 82.2771406,26.5226508 C82.2771406,26.5226508 109.309262,-7.60505181 146.696631,14.3841344 C184.084,36.3733206 155.648536,86.6874709 155.648536,86.6874709 Z" id="Path" fill="#E35205" fill-rule="nonzero"></path>
                            <path d="M82,27 C82,27 126.931,26.8279661 123.848333,84" id="Path" stroke="#000000" opacity="0.1"></path>
                            <path d="M80,112.362205 C79.8500792,112.637551 79.6870074,112.920546 79.5081545,113.208641 C76.6386177,117.833444 70.0052796,119.753222 70.0052796,118.73342 C70.0052796,117.713617 69.3503623,115.077428 67.6828221,115.84228 C66.0152819,116.607132 63.4745188,116.438864 63.4745188,116.438864 C58.884838,116.09978 59.6607439,111.71463 61.1809935,108 C65.4839837,110.093144 73.2667146,113.21119 80,112.362205 Z" id="Path" fill="#000000" fill-rule="nonzero" opacity="0.2"></path>
                            <path d="M110,114.281064 C108.22047,117.353105 105.413474,120.357325 101.017612,121.713746 C98.7575907,122.401137 96.2820883,121.828652 94.6091874,120.231731 L94.1060466,119.754472 C94.1060466,119.754472 90.2212699,122.266362 88.2802056,121.42739 C86.3391413,120.588419 84.7476275,118.247338 87.395737,113.891721 C87.395737,113.891721 87.5360868,113.530009 87.7082139,113 C91.1692931,114.157981 100.337048,116.622145 110,114.281064 Z" id="Path" fill="#000000" fill-rule="nonzero" opacity="0.2"></path>
                            <path d="M125,101 C141.220037,92.6571987 144,86 144,86" id="Path" fill="#000000" fill-rule="nonzero" opacity="0.1"></path>
                            <path d="M152,98 C149.596855,103.014563 145.889957,107.25946 141.28374,110.271563 C141.28374,110.271563 138.525098,112.560601 138.351713,106.224165 C138.351713,106.224165 137.14319,104.904074 128.86209,110.672871 C128.86209,110.672871 123.864964,113.788285 125.239109,100.790672 L129.379659,98.4488308 C138.302544,103.510059 147.266834,100.423687 152,98 Z" id="Path" fill="#000000" fill-rule="nonzero" opacity="0.2"></path>
                            <path d="M87,31.1326927 C87,31.1326927 95.7465876,17.5681228 102.347689,21.8279195 C108.94879,26.0877161 101.148892,42 101.148892,42 C101.148892,42 88.198797,41.7391429 87,31.1326927 Z" id="Path" fill="#E35205" fill-rule="nonzero"></path>
                            <path d="M87,31.1326927 C87,31.1326927 95.7465876,17.5681228 102.347689,21.8279195 C108.94879,26.0877161 101.148892,42 101.148892,42 C101.148892,42 88.198797,41.7391429 87,31.1326927 Z" id="Path" fill="#000000" fill-rule="nonzero" opacity="0.2"></path>
                            <path d="M102,28 C102,28 90.0350913,33.9357499 93.6966159,37.4062599 C97.3581404,40.8767699 102,28 102,28 Z" id="Path" fill="#000000" fill-rule="nonzero" opacity="0.1"></path>
                            <path d="M133,12.2478013 C130.040463,12.4947501 127.110188,13.0142955 124.24665,13.7997931 L124.166249,13.8230729 C120.109882,14.9482669 115.503674,16.8416968 112.336907,20 C112.336907,20 104.98928,16.8960166 103,17.4133471 C103,17.4133471 108.965246,10.1836524 125.00657,10 L125.045474,10 C125.045474,10 129.195211,10.3517848 133,12.2478013 Z" id="Path"></path>
                            <ellipse id="Oval" fill="#000000" fill-rule="nonzero" opacity="0.1" transform="translate(70.259634, 69.945965) rotate(-13.000000) translate(-70.259634, -69.945965) " cx="70.259634" cy="69.9459647" rx="16.4060256" ry="13.5775848"></ellipse>
                            <ellipse id="Oval" fill="#E35205" fill-rule="nonzero" transform="translate(70.259660, 69.420766) rotate(-13.000000) translate(-70.259660, -69.420766) " cx="70.2596598" cy="69.4207664" rx="16.4060256" ry="13.5775848"></ellipse>
                            <ellipse id="Oval" fill="#000000" fill-rule="nonzero" opacity="0.2" transform="translate(70.259660, 69.420766) rotate(-13.000000) translate(-70.259660, -69.420766) " cx="70.2596598" cy="69.4207664" rx="16.4060256" ry="13.5775848"></ellipse>
                            <path d="M63,69 C63,69 63.1534577,74.2562762 64.4521221,72.7179894 C65.7507866,71.1797027 64.5277058,68.9945745 63,69 Z" id="Path" fill="#000000" fill-rule="nonzero" opacity="0.1"></path>
                            <path d="M72,65.0000903 C72,65.0000903 72.1513361,70.256251 73.4514508,68.7179951 C74.7515655,67.1797391 73.5271189,64.9837837 72,65.0000903 Z" id="Path" fill="#000000" fill-rule="nonzero" opacity="0.1"></path>
                            <path d="M86,94.5850016 C86,94.5850016 89.6043956,98.6500994 94,93" id="Path" fill="#000000" fill-rule="nonzero" opacity="0.1"></path>
                            <path d="M102,17.4133471 C103.988217,16.8960166 111.331919,20 111.331919,20 C114.496995,16.8416968 119.108519,14.9482669 123.154943,13.8230729 L124,10 C107.951691,10.1836524 102,17.4133471 102,17.4133471 Z" id="Path" fill="#000000" fill-rule="nonzero" opacity="0.15"></path>
                            <path d="M124.821333,10 L124,14 C126.944226,13.1731154 129.95707,12.6261957 133,12.3662355 C129.088,10.3621511 124.821333,10 124.821333,10 Z" id="Path" fill="#000000" fill-rule="nonzero" opacity="0.3"></path>
                            <polygon id="Path" fill="#000000" fill-rule="nonzero" opacity="0.15" points="124.955752 10 124 14 124.091445 13.9756428 125 10"></polygon>
                            <g id="Group" opacity="0.1" transform="translate(41.000000, 26.000000)" fill="#FFFFFF" fill-rule="nonzero">
                                <path d="M48.5831135,89.4562192 C48.5831135,89.4562192 48.7229551,89.0774795 48.8944591,88.5225205 C49.3245383,87.1153973 49.9498681,84.5773151 48.9366755,84.1959452 C48.9366755,84.1959452 48.4670185,84.2196164 47.6174142,84.2169863 C47.5248954,85.1439217 47.3329454,86.0582978 47.0448549,86.9444384 C46.8733509,87.4993973 46.7335092,87.878137 46.7335092,87.878137 C44.0949868,92.4387945 45.6781003,94.8927123 47.6147757,95.7685479 L47.7176781,95.8053699 C46.939314,94.4771507 46.8759894,92.4072329 48.5831135,89.4562192 Z" id="Path"></path>
                                <path d="M2.49868074,50.0041644 C-2.95514512,13.708274 34.2664908,-1.04153425 44.4670185,0.370849315 L41.4591029,0.21830137 C31.2585752,-1.18356164 -4.80211082,12.1407123 0.65171504,48.4366027 C2.36675462,59.8487671 7.59630607,67.4630137 13.9577836,72.5418082 C8.44327177,67.4919452 4.04485488,60.2906301 2.49868074,50.0041644 Z" id="Path"></path>
                                <path d="M86.0474934,76.5054247 C86.0474934,76.5054247 86.0474934,76.4896438 86.0474934,76.4817534 C86.0474934,76.473863 85.9208443,76.5632877 85.6886544,76.7026849 L85.6728232,76.7026849 C85.3166227,76.9183562 84.7229551,77.2734247 83.9841689,77.683726 C83.7203166,83.6672877 85.2744063,84.9639452 86.4960422,85.0770411 C85.8759894,83.6804384 85.5514512,81.1160548 86.0474934,76.5054247 Z" id="Path"></path>
                                <path d="M99.4195251,81.9182466 C99.4195251,81.9182466 99.1029024,81.5842192 97.7044855,81.9971507 C98.0686016,84.6062466 99.0765172,84.8903014 99.7941953,84.7351233 C99.5481708,83.8161585 99.4222392,82.8693685 99.4195251,81.9182466 Z" id="Path"></path>
                            </g>
                            <path d="M88,109 C88,109 110.728942,107.477143 113,105" id="Path" fill="#000000" fill-rule="nonzero" opacity="0.1"></path>
                            <ellipse id="Oval" fill="#FBD56F" fill-rule="nonzero" cx="143" cy="102.5" rx="10" ry="10.5"></ellipse>
                            <ellipse id="Oval" fill="#000000" fill-rule="nonzero" opacity="0.1" cx="143" cy="102.5" rx="10" ry="10.5"></ellipse>
                            <circle id="Oval" fill="#FBD56F" fill-rule="nonzero" cx="144" cy="103" r="10"></circle>
                            <path d="M148.36119,111.848588 L147.34951,111.247138 C147.34951,111.247138 146.876014,113.359143 147.031258,114.866926 C147.061267,115.177261 147.267243,115.435414 147.548741,115.515494 C149.877415,116.133574 160.956725,118.769423 168.579249,115.055399 C168.804171,114.946206 168.957913,114.717119 168.982886,114.453948 C169.07862,113.528214 168.747431,111.61854 168.615473,111.247138 C168.338619,110.446128 148.36119,111.848588 148.36119,111.848588 Z" id="Path" fill="#FBD56F" fill-rule="nonzero"></path>
                            <path d="M148.36119,111.848588 L147.34951,111.247138 C147.34951,111.247138 146.876014,113.359143 147.031258,114.866926 C147.061267,115.177261 147.267243,115.435414 147.548741,115.515494 C149.877415,116.133574 160.956725,118.769423 168.579249,115.055399 C168.804171,114.946206 168.957913,114.717119 168.982886,114.453948 C169.07862,113.528214 168.747431,111.61854 168.615473,111.247138 C168.338619,110.446128 148.36119,111.848588 148.36119,111.848588 Z" id="Path" fill="#000000" fill-rule="nonzero" opacity="0.1"></path>
                            <ellipse id="Oval" fill="#FBD56F" fill-rule="nonzero" cx="158" cy="111.5" rx="11" ry="2.5"></ellipse>
                            <path d="M152.358654,108.848612 L151.349524,108.247145 C151.349524,108.247145 150.876009,110.35921 151.03126,111.867036 C151.06085,112.176988 151.267238,112.434549 151.548762,112.512852 C153.877524,113.133721 164.957255,115.769645 172.580068,112.055515 C172.804309,111.945419 172.957731,111.716812 172.98372,111.454047 C173.076871,110.528286 172.745669,108.618558 172.613706,108.247145 C172.326492,107.446112 152.358654,108.848612 152.358654,108.848612 Z" id="Path" fill="#FBD56F" fill-rule="nonzero"></path>
                            <path d="M152.358654,108.848612 L151.349524,108.247145 C151.349524,108.247145 150.876009,110.35921 151.03126,111.867036 C151.06085,112.176988 151.267238,112.434549 151.548762,112.512852 C153.877524,113.133721 164.957255,115.769645 172.580068,112.055515 C172.804309,111.945419 172.957731,111.716812 172.98372,111.454047 C173.076871,110.528286 172.745669,108.618558 172.613706,108.247145 C172.326492,107.446112 152.358654,108.848612 152.358654,108.848612 Z" id="Path" fill="#000000" fill-rule="nonzero" opacity="0.1"></path>
                            <ellipse id="Oval" fill="#FBD56F" fill-rule="nonzero" cx="162" cy="107.5" rx="11" ry="2.5"></ellipse>
                            <path d="M156.361081,103.848588 L155.349483,103.247138 C155.349483,103.247138 154.876023,105.359143 155.031256,106.866926 C155.061262,107.177261 155.267221,107.435414 155.548698,107.515494 C157.877186,108.133574 168.958201,110.769423 176.57753,107.055399 C176.802408,106.945614 176.956729,106.71711 176.983722,106.453948 C177.076862,105.528214 176.745699,103.61854 176.613751,103.247138 C176.33692,102.446128 156.361081,103.848588 156.361081,103.848588 Z" id="Path" fill="#FBD56F" fill-rule="nonzero"></path>
                            <path d="M156.361081,103.848588 L155.349483,103.247138 C155.349483,103.247138 154.876023,105.359143 155.031256,106.866926 C155.061262,107.177261 155.267221,107.435414 155.548698,107.515494 C157.877186,108.133574 168.958201,110.769423 176.57753,107.055399 C176.802408,106.945614 176.956729,106.71711 176.983722,106.453948 C177.076862,105.528214 176.745699,103.61854 176.613751,103.247138 C176.33692,102.446128 156.361081,103.848588 156.361081,103.848588 Z" id="Path" fill="#000000" fill-rule="nonzero" opacity="0.1"></path>
                            <ellipse id="Oval" fill="#FBD56F" fill-rule="nonzero" cx="166" cy="103.5" rx="11" ry="2.5"></ellipse>
                            <path d="M152.360487,98.8519318 L151.348732,98.2478489 C151.348732,98.2478489 150.877787,100.362139 151.030456,101.866804 C151.061177,102.176742 151.26687,102.434461 151.547978,102.515223 C153.876825,103.133161 164.956961,105.768404 172.577465,102.058005 C172.802718,101.948692 172.957225,101.720001 172.98372,101.456693 C173.076873,100.531171 172.74566,98.6219369 172.613692,98.2478489 C172.339405,97.4442524 152.360487,98.8519318 152.360487,98.8519318 Z" id="Path" fill="#FBD56F" fill-rule="nonzero"></path>
                            <path d="M152.360487,98.8519318 L151.348732,98.2478489 C151.348732,98.2478489 150.877787,100.362139 151.030456,101.866804 C151.061177,102.176742 151.26687,102.434461 151.547978,102.515223 C153.876825,103.133161 164.956961,105.768404 172.577465,102.058005 C172.802718,101.948692 172.957225,101.720001 172.98372,101.456693 C173.076873,100.531171 172.74566,98.6219369 172.613692,98.2478489 C172.339405,97.4442524 152.360487,98.8519318 152.360487,98.8519318 Z" id="Path" fill="#000000" fill-rule="nonzero" opacity="0.1"></path>
                            <ellipse id="Oval" fill="#FBD56F" fill-rule="nonzero" cx="162" cy="98.5" rx="11" ry="2.5"></ellipse>
                            <path d="M161.358654,94.8528904 L160.349524,94.24892 C160.349524,94.24892 159.876009,96.3628164 160.03126,97.8672014 C160.060551,98.177737 160.266837,98.4361609 160.548762,98.5154999 C162.877524,99.1333229 173.957255,101.768075 181.577481,98.0583664 C181.802046,97.9481851 181.956226,97.7200128 181.98372,97.4571665 C182.076871,96.5318173 181.745669,94.6201678 181.613706,94.24892 C181.336842,93.4427026 161.358654,94.8528904 161.358654,94.8528904 Z" id="Path" fill="#FBD56F" fill-rule="nonzero"></path>
                            <path d="M161.358654,94.8528904 L160.349524,94.24892 C160.349524,94.24892 159.876009,96.3628164 160.03126,97.8672014 C160.060551,98.177737 160.266837,98.4361609 160.548762,98.5154999 C162.877524,99.1333229 173.957255,101.768075 181.577481,98.0583664 C181.802046,97.9481851 181.956226,97.7200128 181.98372,97.4571665 C182.076871,96.5318173 181.745669,94.6201678 181.613706,94.24892 C181.336842,93.4427026 161.358654,94.8528904 161.358654,94.8528904 Z" id="Path" fill="#000000" fill-rule="nonzero" opacity="0.1"></path>
                            <ellipse id="Oval" fill="#FBD56F" fill-rule="nonzero" cx="171" cy="94.5" rx="11" ry="2.5"></ellipse>
                            <path d="M155.360487,91.8509733 L154.348732,91.2467779 C154.348732,91.2467779 153.877787,93.3614617 154.030456,94.866407 C154.061177,95.1764023 154.26687,95.4341699 154.547978,95.514947 C156.876825,96.1330001 167.956961,98.7687331 175.577465,95.0576432 C175.802718,94.9483097 175.957225,94.7195767 175.98372,94.4562194 C176.076873,93.5305255 175.74566,91.6181641 175.613692,91.2467779 C175.339405,90.4458033 155.360487,91.8509733 155.360487,91.8509733 Z" id="Path" fill="#FBD56F" fill-rule="nonzero"></path>
                            <path d="M155.360487,91.8509733 L154.348732,91.2467779 C154.348732,91.2467779 153.877787,93.3614617 154.030456,94.866407 C154.061177,95.1764023 154.26687,95.4341699 154.547978,95.514947 C156.876825,96.1330001 167.956961,98.7687331 175.577465,95.0576432 C175.802718,94.9483097 175.957225,94.7195767 175.98372,94.4562194 C176.076873,93.5305255 175.74566,91.6181641 175.613692,91.2467779 C175.339405,90.4458033 155.360487,91.8509733 155.360487,91.8509733 Z" id="Path" fill="#000000" fill-rule="nonzero" opacity="0.1"></path>
                            <ellipse id="Oval" fill="#FBD56F" fill-rule="nonzero" cx="165" cy="91.5" rx="11" ry="2.5"></ellipse>
                            <path d="M159.358654,86.8509733 L158.349524,86.2467779 C158.349524,86.2467779 157.876009,88.3614617 158.03126,89.866407 C158.060551,90.1770583 158.266837,90.4355784 158.548762,90.514947 C160.877524,91.1330001 171.957255,93.7687331 179.580068,90.0576432 C179.804653,89.9480034 179.958236,89.719171 179.98372,89.4562194 C180.076871,88.5305255 179.745669,86.6209356 179.613706,86.2467779 C179.339429,85.4458033 159.358654,86.8509733 159.358654,86.8509733 Z" id="Path" fill="#FBD56F" fill-rule="nonzero"></path>
                            <path d="M159.358654,86.8509733 L158.349524,86.2467779 C158.349524,86.2467779 157.876009,88.3614617 158.03126,89.866407 C158.060551,90.1770583 158.266837,90.4355784 158.548762,90.514947 C160.877524,91.1330001 171.957255,93.7687331 179.580068,90.0576432 C179.804653,89.9480034 179.958236,89.719171 179.98372,89.4562194 C180.076871,88.5305255 179.745669,86.6209356 179.613706,86.2467779 C179.339429,85.4458033 159.358654,86.8509733 159.358654,86.8509733 Z" id="Path" fill="#000000" fill-rule="nonzero" opacity="0.1"></path>
                            <ellipse id="Oval" fill="#FBD56F" fill-rule="nonzero" cx="169" cy="86.5" rx="11" ry="2.5"></ellipse>
                            <path d="M161.360487,80.8509733 L160.348732,80.2467779 C160.348732,80.2467779 159.877787,82.3614617 160.030456,83.866407 C160.061177,84.1764023 160.26687,84.4341699 160.547978,84.514947 C162.876825,85.1330001 173.956961,87.7687331 181.577465,84.0576432 C181.802718,83.9483097 181.957225,83.7195767 181.98372,83.4562194 C182.076873,82.5305255 181.74566,80.6209356 181.613692,80.2467779 C181.336818,79.4458033 161.360487,80.8509733 161.360487,80.8509733 Z" id="Path" fill="#FBD56F" fill-rule="nonzero"></path>
                            <path d="M161.360487,80.8509733 L160.348732,80.2467779 C160.348732,80.2467779 159.877787,82.3614617 160.030456,83.866407 C160.061177,84.1764023 160.26687,84.4341699 160.547978,84.514947 C162.876825,85.1330001 173.956961,87.7687331 181.577465,84.0576432 C181.802718,83.9483097 181.957225,83.7195767 181.98372,83.4562194 C182.076873,82.5305255 181.74566,80.6209356 181.613692,80.2467779 C181.336818,79.4458033 161.360487,80.8509733 161.360487,80.8509733 Z" id="Path" fill="#000000" fill-rule="nonzero" opacity="0.1"></path>
                            <ellipse id="Oval" fill="#FBD56F" fill-rule="nonzero" cx="171" cy="80.5" rx="11" ry="2.5"></ellipse>
                            <path d="M179.36119,113.850973 L178.34951,113.246778 C178.34951,113.246778 177.876014,115.361462 178.031258,116.866407 C178.061267,117.176729 178.267243,117.43487 178.548741,117.514947 C180.877415,118.133 191.956725,120.768733 199.579249,117.057643 C199.803877,116.946617 199.957264,116.717016 199.982886,116.453448 C200.07862,115.527754 199.747431,113.618164 199.615473,113.246778 C199.338619,112.445803 179.36119,113.850973 179.36119,113.850973 Z" id="Path" fill="#FBD56F" fill-rule="nonzero"></path>
                            <path d="M179.36119,113.850973 L178.34951,113.246778 C178.34951,113.246778 177.876014,115.361462 178.031258,116.866407 C178.061267,117.176729 178.267243,117.43487 178.548741,117.514947 C180.877415,118.133 191.956725,120.768733 199.579249,117.057643 C199.803877,116.946617 199.957264,116.717016 199.982886,116.453448 C200.07862,115.527754 199.747431,113.618164 199.615473,113.246778 C199.338619,112.445803 179.36119,113.850973 179.36119,113.850973 Z" id="Path" fill="#000000" fill-rule="nonzero" opacity="0.1"></path>
                            <ellipse id="Oval" fill="#FBD56F" fill-rule="nonzero" cx="189" cy="112.5" rx="11" ry="2.5"></ellipse>
                            <path d="M183.360487,108.850973 L182.348732,108.246778 C182.348732,108.246778 181.877787,110.361462 182.030456,111.866407 C182.061177,112.176402 182.26687,112.43417 182.547978,112.514947 C184.876825,113.133 195.956961,115.768733 203.577465,112.057643 C203.802718,111.94831 203.957225,111.719577 203.98372,111.456219 C204.076873,110.530526 203.74566,108.618164 203.613692,108.246778 C203.339405,107.445803 183.360487,108.850973 183.360487,108.850973 Z" id="Path" fill="#FBD56F" fill-rule="nonzero"></path>
                            <path d="M183.360487,108.850973 L182.348732,108.246778 C182.348732,108.246778 181.877787,110.361462 182.030456,111.866407 C182.061177,112.176402 182.26687,112.43417 182.547978,112.514947 C184.876825,113.133 195.956961,115.768733 203.577465,112.057643 C203.802718,111.94831 203.957225,111.719577 203.98372,111.456219 C204.076873,110.530526 203.74566,108.618164 203.613692,108.246778 C203.339405,107.445803 183.360487,108.850973 183.360487,108.850973 Z" id="Path" fill="#000000" fill-rule="nonzero" opacity="0.1"></path>
                            <ellipse id="Oval" fill="#FBD56F" fill-rule="nonzero" cx="193" cy="108.5" rx="11" ry="2.5"></ellipse>
                            <path d="M179.358654,103.842857 L178.349524,103.240718 C178.349524,103.240718 177.876009,105.355143 178.03126,106.864653 C178.06085,107.174951 178.267238,107.4328 178.548762,107.51119 C180.877524,108.132753 191.957255,110.771622 199.580068,107.053342 C199.804999,106.944025 199.958746,106.714675 199.98372,106.451203 C200.076871,105.524408 199.745669,103.612546 199.613706,103.240718 C199.339429,102.455439 179.358654,103.842857 179.358654,103.842857 Z" id="Path" fill="#FBD56F" fill-rule="nonzero"></path>
                            <path d="M179.358654,103.842857 L178.349524,103.240718 C178.349524,103.240718 177.876009,105.355143 178.03126,106.864653 C178.06085,107.174951 178.267238,107.4328 178.548762,107.51119 C180.877524,108.132753 191.957255,110.771622 199.580068,107.053342 C199.804999,106.944025 199.958746,106.714675 199.98372,106.451203 C200.076871,105.524408 199.745669,103.612546 199.613706,103.240718 C199.339429,102.455439 179.358654,103.842857 179.358654,103.842857 Z" id="Path" fill="#000000" fill-rule="nonzero" opacity="0.1"></path>
                            <ellipse id="Oval" fill="#FBD56F" fill-rule="nonzero" cx="189" cy="103.5" rx="11" ry="2.5"></ellipse>
                            <path d="M188.361235,99.8506659 L187.349522,99.2476754 C187.349522,99.2476754 186.876009,101.365089 187.031259,102.860061 C187.060551,103.171522 187.266836,103.430715 187.54876,103.51029 C189.87751,104.132732 200.957189,106.772553 208.579966,103.051795 C208.804896,102.942323 208.958643,102.71265 208.983616,102.448805 C209.076766,101.5207 208.748153,99.6061352 208.616191,99.2337816 C208.339328,98.4612869 188.361235,99.8506659 188.361235,99.8506659 Z" id="Path" fill="#FBD56F" fill-rule="nonzero"></path>
                            <path d="M188.361235,99.8506659 L187.349522,99.2476754 C187.349522,99.2476754 186.876009,101.365089 187.031259,102.860061 C187.060551,103.171522 187.266836,103.430715 187.54876,103.51029 C189.87751,104.132732 200.957189,106.772553 208.579966,103.051795 C208.804896,102.942323 208.958643,102.71265 208.983616,102.448805 C209.076766,101.5207 208.748153,99.6061352 208.616191,99.2337816 C208.339328,98.4612869 188.361235,99.8506659 188.361235,99.8506659 Z" id="Path" fill="#000000" fill-rule="nonzero" opacity="0.1"></path>
                            <ellipse id="Oval" fill="#FBD56F" fill-rule="nonzero" cx="198" cy="99.5" rx="11" ry="2.5"></ellipse>
                            <path d="M182.358654,96.8487823 L181.349524,96.2471944 C181.349524,96.2471944 180.876009,98.3596828 181.03126,99.867811 C181.06157,100.177493 181.267653,100.434726 181.548762,100.513756 C183.877524,101.13475 194.957255,103.768429 202.580068,100.056327 C202.804999,99.9471096 202.958746,99.7179701 202.98372,99.4547391 C203.076871,98.5287928 202.745669,96.6186819 202.613706,96.2471944 C202.339429,95.4460013 182.358654,96.8487823 182.358654,96.8487823 Z" id="Path" fill="#FBD56F" fill-rule="nonzero"></path>
                            <path d="M182.358654,96.8487823 L181.349524,96.2471944 C181.349524,96.2471944 180.876009,98.3596828 181.03126,99.867811 C181.06157,100.177493 181.267653,100.434726 181.548762,100.513756 C183.877524,101.13475 194.957255,103.768429 202.580068,100.056327 C202.804999,99.9471096 202.958746,99.7179701 202.98372,99.4547391 C203.076871,98.5287928 202.745669,96.6186819 202.613706,96.2471944 C202.339429,95.4460013 182.358654,96.8487823 182.358654,96.8487823 Z" id="Path" fill="#000000" fill-rule="nonzero" opacity="0.1"></path>
                            <ellipse id="Oval" fill="#FBD56F" fill-rule="nonzero" cx="192" cy="96.5" rx="11" ry="2.5"></ellipse>
                            <path d="M186.361241,91.848588 L185.349524,91.2471378 C185.349524,91.2471378 184.876009,93.3591428 185.03126,94.8669258 C185.061269,95.1772615 185.267253,95.435414 185.548762,95.5154943 C187.877524,96.1335744 198.957255,98.7694231 206.577481,95.0553987 C206.802385,94.9456137 206.956723,94.7171101 206.98372,94.4539485 C207.076871,93.528214 206.745669,91.6185403 206.613706,91.2471378 C206.339429,90.4461281 186.361241,91.848588 186.361241,91.848588 Z" id="Path" fill="#FBD56F" fill-rule="nonzero"></path>
                            <path d="M186.361241,91.848588 L185.349524,91.2471378 C185.349524,91.2471378 184.876009,93.3591428 185.03126,94.8669258 C185.061269,95.1772615 185.267253,95.435414 185.548762,95.5154943 C187.877524,96.1335744 198.957255,98.7694231 206.577481,95.0553987 C206.802385,94.9456137 206.956723,94.7171101 206.98372,94.4539485 C207.076871,93.528214 206.745669,91.6185403 206.613706,91.2471378 C206.339429,90.4461281 186.361241,91.848588 186.361241,91.848588 Z" id="Path" fill="#000000" fill-rule="nonzero" opacity="0.1"></path>
                            <ellipse id="Oval" fill="#FBD56F" fill-rule="nonzero" cx="196" cy="91.5" rx="11" ry="2.5"></ellipse>
                            <path d="M188.358654,85.848588 L187.349524,85.2471378 C187.349524,85.2471378 186.876009,87.3591428 187.03126,88.8669258 C187.061269,89.1772615 187.267253,89.435414 187.548762,89.5154943 C189.877524,90.1335744 200.957255,92.7694231 208.580068,89.0553987 C208.804999,88.9462063 208.958746,88.7171192 208.98372,88.4539485 C209.076871,87.528214 208.745669,85.6185403 208.613706,85.2471378 C208.339429,84.4461281 188.358654,85.848588 188.358654,85.848588 Z" id="Path" fill="#FBD56F" fill-rule="nonzero"></path>
                            <path d="M188.358654,85.848588 L187.349524,85.2471378 C187.349524,85.2471378 186.876009,87.3591428 187.03126,88.8669258 C187.061269,89.1772615 187.267253,89.435414 187.548762,89.5154943 C189.877524,90.1335744 200.957255,92.7694231 208.580068,89.0553987 C208.804999,88.9462063 208.958746,88.7171192 208.98372,88.4539485 C209.076871,87.528214 208.745669,85.6185403 208.613706,85.2471378 C208.339429,84.4461281 188.358654,85.848588 188.358654,85.848588 Z" id="Path" fill="#000000" fill-rule="nonzero" opacity="0.1"></path>
                            <ellipse id="Oval" fill="#FBD56F" fill-rule="nonzero" cx="198" cy="85.5" rx="11" ry="2.5"></ellipse>
                            <path d="M107.681102,10.6433514 C107.681102,5.02675236 112.042107,0.46457058 117.425264,0.46457058 C117.952929,0.465118601 118.479642,0.509639878 119,0.597677714 C117.958652,0.202099886 116.854679,-0.000396149533 115.741569,0 C110.361006,0 106,4.65875028 106,10.4058466 C106,14.7226936 108.461984,18.4235939 111.966873,20 C112.135502,19.8512332 112.34564,19.673757 112.594692,19.4780112 C109.523415,17.610316 107.656556,14.2536943 107.681102,10.6433514 L107.681102,10.6433514 Z" id="Path" fill="#FBD56F" fill-rule="nonzero"></path>
                            <path d="M107.681102,10.6433514 C107.681102,5.02675236 112.042107,0.46457058 117.425264,0.46457058 C117.952929,0.465118601 118.479642,0.509639878 119,0.597677714 C117.958652,0.202099886 116.854679,-0.000396149533 115.741569,0 C110.361006,0 106,4.65875028 106,10.4058466 C106,14.7226936 108.461984,18.4235939 111.966873,20 C112.135502,19.8512332 112.34564,19.673757 112.594692,19.4780112 C109.523415,17.610316 107.656556,14.2536943 107.681102,10.6433514 L107.681102,10.6433514 Z" id="Path" fill="#000000" fill-rule="nonzero" opacity="0.1"></path>
                            <path d="M125.35324,10.697144 C125.352562,11.818089 125.181118,12.9321929 124.844981,14 C125.424396,13.8581912 126.029225,13.7421658 126.651842,13.608092 C126.882939,12.7300404 127,11.8251201 127,10.9163031 C127,5.9194764 123.536213,1.77865926 119,1 C122.702668,2.42324474 125.35324,6.22372075 125.35324,10.697144 Z" id="Path" fill="#FBD56F" fill-rule="nonzero"></path>
                            <path d="M107.000249,10.1665522 C106.975063,13.7767878 108.86329,17.1332815 111.969586,19 C113.823581,17.5338459 117.911811,14.83894 124.475532,13.2788686 C124.822389,12.1984413 124.9993,11.0711699 125,9.93697652 C125,5.41068241 122.264898,1.56528903 118.444147,0.133049567 C117.918163,0.0450498065 117.385755,0.000547783845 116.852385,0 C111.408405,0.00782644515 107.000249,4.56020871 107.000249,10.1665522 Z" id="Path" fill="#FBD56F" fill-rule="nonzero"></path>
                            <path d="M253.699635,127.395044 C252.191907,127.342675 252.136553,126.761381 250.199175,125.758517 C249.102645,125.192933 247.442035,123.548551 246.203168,122.226237 L245.91322,121.914642 L246.440398,121.914642 C246.440398,121.914642 245.955394,117.691093 246.38768,116.677756 C246.819966,115.664418 246.495751,109.70746 246.495751,109.70746 C246.495751,109.70746 246.75934,105.164461 246.279608,104.109228 C245.799877,103.053996 246.440398,96.2957939 246.440398,96.2957939 C246.440398,96.2957939 246.872683,92.2817205 246.967575,84.096467 C247.062467,75.9112136 242.222976,75.6493693 242.222976,75.6493693 C242.222976,75.6493693 241.577183,75.5996188 240.596632,75.5053549 L240.301413,75.476552 C240.936662,74.1673304 241.308322,73.1670851 241.308322,73.1670851 C241.308322,73.1670851 240.499104,65.5107572 240.282961,64.1910618 C240.066819,62.8713664 238.777869,57.4223861 238.777869,57.4223861 C238.777869,57.4223861 237.863216,55.099827 237.322858,53.4633 C236.782501,51.826773 235.169337,49.9257832 235.169337,49.9257832 C235.169337,49.9257832 232.26986,44.2228139 231.452734,43.3796752 C231.078438,42.9895271 230.55126,42.4946414 230.095251,42.0704536 L229.858021,41.8557412 C229.981457,41.2611442 230.046779,40.6560919 230.053077,40.0490154 C230.053077,40.0490154 227.034985,37.0901746 226.818842,36.3517736 C226.602699,35.6133726 223.750667,32.8666257 223.750667,32.8666257 C223.750667,32.8666257 222.132231,29.9104033 220.302925,29.8580345 C219.436897,29.8083817 218.568161,29.8337895 217.706574,29.9339693 C218.083506,28.5514313 218.528971,27.1034322 218.926991,25.8596717 C218.971801,25.7208942 219.016611,25.5978274 219.058785,25.453813 C220.522513,24.4697734 221.671482,23.0894133 222.369461,21.4763978 C222.406364,21.3899891 222.44063,21.3035805 222.474897,21.2145534 L222.532886,21.2145534 C222.608851,21.2128917 222.684603,21.2058917 222.759573,21.1936059 C223.363191,21.0914866 223.874554,20.4080729 223.59515,19.8843843 C223.632158,19.9459167 223.699618,19.9829242 223.771754,19.9812667 C223.972082,19.9812667 224.217219,19.6853826 224.264665,19.4313936 C224.264665,19.3868801 224.277845,19.3423666 224.283117,19.297853 C224.288388,19.2533395 224.301568,19.1878784 224.309476,19.1328911 C224.317383,19.0779038 224.309476,19.0281534 224.309476,18.9757845 C224.309476,18.9234156 224.309476,18.8684283 224.309476,18.8160595 C224.309476,18.7636906 224.309476,18.7139402 224.309476,18.6641898 C224.309476,18.6144393 224.309476,18.5463598 224.309476,18.4887541 C224.309476,18.4311483 224.309476,18.3971086 224.309476,18.3499766 C224.309476,18.3028446 224.309476,18.2085806 224.29366,18.1378827 C224.29366,18.1090798 224.29366,18.0802769 224.29366,18.0514741 L224.29366,18.0514741 C224.262156,17.7630958 224.203919,17.4782223 224.119692,17.20048 C223.824472,16.2185638 223.199766,15.2445029 223.439632,14.2494945 L223.439632,14.2180732 L223.439632,14.2180732 C223.63996,13.4325402 224.314747,12.8826672 224.725946,12.1913982 C224.765484,12.1259371 224.799751,12.0578576 224.834017,11.989778 C224.834017,11.9766858 224.847197,11.9635936 224.852469,11.9531198 C224.878827,11.900751 224.899915,11.8483821 224.921002,11.7960132 L224.963176,11.693894 C224.981627,11.6493804 224.994807,11.6022484 225.010622,11.5551165 C225.026437,11.5079845 225.039617,11.4713263 225.05016,11.4268127 C225.060704,11.3822992 225.071247,11.3430226 225.081791,11.3011275 C225.092334,11.2592324 225.105514,11.2016266 225.116057,11.1492578 C225.126601,11.0968889 225.116057,11.0759414 225.134509,11.0392831 C225.15296,11.0026249 225.150324,10.9240716 225.155596,10.8664659 C225.160868,10.8088601 225.155596,10.8036233 225.155596,10.7722019 C225.155596,10.7407806 225.155596,10.6438982 225.155596,10.5784371 L225.155596,10.4998838 C225.155596,10.4291859 225.155596,10.3558695 225.155596,10.2851715 C225.155596,10.264224 225.155596,10.2432764 225.155596,10.2223289 C225.155596,10.146394 225.155596,10.0704592 225.134509,9.99452431 C225.134509,9.99452431 225.134509,9.97357676 225.134509,9.96310299 L225.134509,9.96310299 C225.043298,9.29940781 224.776833,8.67153055 224.362193,8.14328496 C223.406312,7.01169528 221.969578,6.39365122 220.484801,6.47533664 C220.080515,6.52109994 219.672793,6.52899002 219.26702,6.49890263 C218.589597,6.39940179 218.017609,5.97521399 217.479888,5.56149996 L212.967246,2.10777337 C212.463403,1.6746513 211.885905,1.33417006 211.261826,1.10229118 C210.623941,0.908526385 209.859533,0.973987465 209.387709,1.43745191 C208.541589,2.26487997 209.07931,3.68931307 208.741916,4.81262521 C208.446697,5.78668608 207.500413,6.44653377 206.522498,6.77383917 C205.544583,7.10114457 204.4955,7.17446098 203.48859,7.41273931 C203.190006,7.4601991 202.910173,7.58787115 202.679372,7.7819398 C202.419577,8.09677664 202.292947,8.49949745 202.326163,8.90525194 C202.31934,9.90033791 202.560197,10.8816746 203.02731,11.7619735 C203.217094,12.1180817 203.446416,12.4820454 203.649379,12.8486274 L203.699461,12.9402729 L203.765358,13.0659582 C203.799625,13.1366562 203.833892,13.2047357 203.865522,13.2728152 L203.905061,13.3618423 L203.965686,13.5110935 C203.965686,13.5425149 203.989409,13.5739362 203.999953,13.602739 C204.010496,13.6315419 204.036855,13.720569 204.055306,13.7781747 C204.161344,14.118075 204.171373,14.4803764 204.084301,14.825552 C203.928784,15.3937542 203.483318,15.8310342 203.087935,16.2735511 C202.767847,16.6211289 202.539609,17.0421942 202.423691,17.4989825 L202.423691,17.4989825 C202.40435,17.6063588 202.40435,17.7162932 202.423691,17.8236695 C202.423691,17.8367617 202.423691,17.8498539 202.423691,17.8629461 C202.429504,17.8868532 202.436543,17.9104499 202.444778,17.9336441 C202.450681,17.9506769 202.457725,17.9672976 202.465865,17.9833945 C202.47357,18.0022161 202.482371,18.0205762 202.492224,18.0383818 C202.512198,18.0669077 202.535172,18.0932405 202.560757,18.1169351 L202.600296,18.145738 C202.621779,18.1617894 202.644723,18.1758152 202.668829,18.1876331 L202.713639,18.2085806 L202.824346,18.2373835 L202.855977,18.2373835 C202.913893,18.241468 202.972029,18.241468 203.029945,18.2373835 L203.082663,18.2373835 C203.137525,18.2337941 203.192106,18.2267979 203.246088,18.216436 L203.306714,18.216436 C203.395802,18.1998099 203.483819,18.1779512 203.570303,18.1509749 C203.873107,18.0607913 204.167633,17.9451622 204.450689,17.8053404 C204.450689,17.8367617 204.450689,17.8708015 204.450689,17.9022228 C204.450689,17.9336441 204.450689,18.0148158 204.450689,18.0698032 C204.465628,19.1056588 204.662774,20.1309429 205.033221,21.0993419 C205.6107,22.6081485 206.579098,23.9386744 207.840442,24.9563088 C207.824627,25.0453359 207.808812,25.1369814 207.790361,25.2312453 C207.526772,26.4959534 206.986414,27.7658983 206.651657,27.669016 C206.323836,27.5954091 205.988745,27.5585208 205.652655,27.5590413 L205.360071,27.5590413 L205.360071,27.5590413 C205.055289,27.524635 204.747564,27.524635 204.442782,27.5590413 C204.306819,27.5690407 204.170267,27.5502998 204.042127,27.504054 C203.171768,27.2312865 202.246398,27.1799672 201.350884,27.3548028 C199.489947,27.734477 196.656366,28.4283645 195.878779,29.258411 C194.692629,30.5257375 192.979302,31.7406951 191.03138,37.0194766 C191.03138,37.0194766 190.061373,40.2401618 189.307508,40.6643496 C189.47355,40.5782246 189.644266,40.5012991 189.818871,40.4339266 C189.718589,40.6081985 189.580897,40.7583892 189.41558,40.873825 C189.688153,40.7355047 189.971027,40.618202 190.2617,40.5229536 C189.673897,43.963588 190.546376,53.8036976 190.546376,53.8036976 C190.546376,53.8036976 189.84523,55.5004488 190.759883,56.505931 C191.305512,57.1003176 191.600732,58.0298649 191.753613,58.6897126 L191.619183,58.8939512 L191.619183,58.8939512 C191.134179,59.6402075 190.485751,60.6142684 190.061373,61.1510492 C189.307508,62.1015441 189.521015,65.1127538 189.521015,65.1127538 C189.521015,65.1127538 189.360226,66.5371869 188.822505,67.0661124 C188.284784,67.595038 188.390219,69.5483966 188.390219,69.5483966 L187.011649,74.7041113 C187.011649,74.7041113 185.717428,75.8640816 185.717428,76.3930071 C185.717428,76.9219327 184.694703,78.3987346 184.694703,78.3987346 C184.694703,78.3987346 183.131621,80.9333876 184.694703,80.5641872 C185.2656,80.4001054 185.801558,80.1338998 186.276236,79.7786542 L186.276236,79.8179308 C186.276236,79.9095764 186.276236,80.0038403 186.276236,80.1007227 C186.231426,82.8605618 186.539825,86.7463316 188.585275,86.7463316 C191.748341,86.7463316 199.951227,90.4933238 199.951227,90.4933238 C201.619745,91.7606503 203.881338,91.3390809 203.881338,91.3390809 C203.881338,91.3390809 199.877422,95.2903117 199.993402,96.9294572 C200.109381,98.5686026 197.731809,101.257744 197.731809,101.257744 L190.404038,115.462798 C190.444958,116.452743 190.622336,117.432438 190.931216,118.374507 L190.82578,118.463534 C188.010651,121.019135 187.765514,126.075349 187.765514,126.075349 L187.119721,128.66237 L196.922591,132.940907 C196.922591,132.940907 209.635483,133.202751 211.844358,132.624075 C214.053232,132.045399 213.568229,129.612865 210.658208,129.138927 C207.748186,128.664989 207.049676,127.395044 206.079669,126.816368 C205.425968,126.423601 203.10375,123.891567 201.661919,122.286461 C201.640832,122.260277 201.619745,122.239329 201.598658,122.215763 L201.933416,120.382853 C202.579208,120.066021 203.549216,116.897705 203.549216,116.897705 C203.549216,116.897705 203.549216,115.630379 204.195008,115.261178 C204.840801,114.891978 206.18774,111.089998 206.18774,111.089998 C206.18774,111.089998 209.087218,106.285155 208.936972,105.651492 C208.786727,105.017828 211.045683,101.797143 211.045683,101.797143 C211.045683,101.797143 214.870358,98.0999013 214.706933,97.4400536 C214.543508,96.7802059 217.777743,93.3997957 217.777743,93.3997957 C218.945735,92.5149495 219.919026,91.4019589 220.637682,90.1293602 L221.570787,89.9774905 C225.801389,89.2888399 232.828668,88.0450794 233.614163,87.6968264 C234.692241,87.2228882 234.476099,89.3359719 234.046449,91.1296055 C233.616799,92.9232391 233.292584,101.53268 233.78286,102.650756 C234.273135,103.768831 234.046449,105.557228 234.046449,105.557228 L233.400656,115.219283 L233.830306,117.279998 C233.830306,117.279998 232.375295,118.439968 232.96837,119.126 C233.561445,119.812032 233.023724,122.770873 233.023724,122.770873 C233.073806,122.752544 233.134431,122.734215 233.200328,122.715886 C233.150246,122.831097 233.100165,122.951546 233.055354,123.074613 C232.219778,125.431211 232.699509,129.316981 232.699509,129.316981 L232.699509,132.38056 C232.699509,132.38056 247.621276,132.642404 250.905593,132.642404 C254.189911,132.642404 258.718368,131.058246 258.987228,129.790919 C259.256089,128.523593 255.207364,127.450031 253.699635,127.395044 Z M211.261826,72.4260657 L210.286547,72.5072374 C210.608702,72.4597302 210.933572,72.4326183 211.25919,72.4260657 L211.261826,72.4260657 Z M217.221571,31.8951833 C217.358637,31.2824676 217.524698,30.6278568 217.70921,29.9522984 L217.221571,31.8951833 Z M219.066693,73.9054861 C218.135071,74.2702227 217.098836,74.2702227 216.167215,73.9054861 L216.167215,73.9054861 C216.167215,73.9054861 216.219933,70.2108627 216.652219,68.6685997 C217.084504,67.1263366 217.674943,64.3376946 217.674943,64.3376946 C217.674943,64.3376946 218.159947,60.4833462 218.644951,58.739463 C219.129954,56.9955799 221.01725,47.2811556 221.984622,46.6474923 C222.951993,46.0138291 223.49235,47.124049 223.49235,47.124049 C223.49235,47.124049 223.637324,47.124049 223.879826,47.0952461 C223.927272,47.1947469 223.977354,47.3047216 224.035343,47.4173146 C225.184591,49.7241631 228.555892,54.4635453 228.555892,54.4635453 C229.556479,55.0765558 230.403729,55.9074537 231.033628,56.8934606 C231.950917,58.4226314 232.219778,62.0151355 232.219778,62.0151355 C232.219778,62.0151355 234.267863,69.988295 235.235234,71.0958965 C235.720238,71.6510065 235.498823,71.9809303 235.169337,72.1720767 C234.481023,72.5486863 233.897011,73.0883579 233.469189,73.7431426 C233.332123,73.9604734 233.184513,74.1987517 233.036903,74.4553592 C232.665243,74.3689505 232.335757,74.2799235 232.058989,74.1935148 C229.399377,73.3058626 220.516432,73.2718228 219.064057,73.9185783 L219.066693,73.9054861 Z" id="Shape" fill="url(#linearGradient-1)" fill-rule="nonzero"></path>
                            <path d="M232.134732,129.74166 L232.134732,132.741402 C232.134732,132.741402 246.808137,133 250.040047,133 C253.271958,133 257.722458,131.44841 257.987369,130.207137 C258.25228,128.965865 254.278619,127.931471 252.795119,127.879752 C251.311619,127.828032 251.258637,127.259116 249.35128,126.276442 C248.275742,125.723041 246.641243,124.111973 245.422654,122.816395 C244.482221,121.815619 243.788155,121.006206 243.788155,121.006206 C243.788155,121.006206 235.896464,120.851047 233.618232,122.09232 C233.088411,122.376778 232.730781,122.937936 232.484414,123.64391 C231.663191,125.945436 232.134732,129.74166 232.134732,129.74166 Z" id="Path" fill="#434175" fill-rule="nonzero"></path>
                            <path d="M232,124 C233.663595,123.359504 243.397625,123.114522 245,123.0732 C244.055078,121.930933 243.357699,121.007084 243.357699,121.007084 C243.357699,121.007084 235.428337,120.829988 233.13923,122.246753 C232.612203,122.559622 232.247543,123.200118 232,124 Z" id="Path" fill="#000000" fill-rule="nonzero" opacity="0.1"></path>
                            <path d="M190,75.0700803 L190.851735,75.5915111 L191.170806,75.7818334 L192.410172,76.5222651 C199.039464,80.4694963 217.115756,91.1744707 218.107249,91.0884347 C218.370944,91.0675774 219.146207,90.9502555 220.216809,90.7781833 L221.13183,90.6295756 C225.271842,89.9491084 232.151644,88.7211388 232.921633,88.3769945 C233.976413,87.9077067 233.765457,89.99343 233.343545,91.7662947 C232.921633,93.5391595 232.605199,102.038482 233.07985,103.133486 C233.554501,104.228491 233.343545,106.001356 233.343545,106.001356 L232.710677,115.543539 L233.132589,117.57712 C233.132589,117.57712 231.708636,118.724267 232.288765,119.402127 C232.868894,120.079987 232.341504,123 232.341504,123 C234.029152,122.374283 245.470878,122.165711 245.470878,122.165711 C245.470878,122.165711 244.996227,117.994264 245.418139,117.003546 C245.840051,116.012827 245.523617,110.120659 245.523617,110.120659 C245.523617,110.120659 245.787312,105.636354 245.312661,104.593493 C244.83801,103.550631 245.470878,96.8789238 245.470878,96.8789238 C245.470878,96.8789238 245.89279,92.9160496 245.998268,84.8364793 C246.103746,76.756909 241.357236,76.4935864 241.357236,76.4935864 C241.357236,76.4935864 240.724368,76.4440505 239.775066,76.3528001 C237.894921,76.1755136 234.764861,75.8313693 232.671123,75.3829388 C232.242287,75.2965932 231.818803,75.1860428 231.40275,75.0518302 C228.818539,74.1810408 220.116605,74.1471478 218.695289,74.7728647 C217.782851,75.1335147 216.765095,75.1335147 215.852657,74.7728647 L215.852657,74.7728647 L214.745138,73 L204.168332,73.8916467 L203.047628,73.9855042 L192.634313,74.8641151 L191.917063,74.9240797 L190,75.0700803 Z" id="Path" fill="#565387" fill-rule="nonzero"></path>
                            <path d="M232.58213,82.7407918 C235.668494,84.229204 238.614448,78.9516297 240,75.9748052 C238.111093,75.796615 234.966446,75.4507164 232.86295,75 C231.466801,77.295509 229.62293,81.3126498 232.58213,82.7407918 Z" id="Path" fill="#000000" fill-rule="nonzero" opacity="0.1"></path>
                            <path d="M223.000374,47.1825301 C223.064728,47.5463895 223.188225,47.8967168 223.365762,48.2190361 C224.472293,50.5273773 227.716734,55.2736229 227.716734,55.2736229 C228.681745,55.8897835 229.496957,56.7215876 230.100828,57.706239 C230.981906,59.2398449 231.241046,62.8358861 231.241046,62.8358861 C231.241046,62.8358861 233.210515,70.8185689 234.143422,71.9291111 C234.609875,72.4843822 234.402562,72.8149006 234.078636,73.0079235 C233.416678,73.3835766 232.855196,73.9192614 232.443459,74.5679708 C231.082971,76.7996317 228.913963,81.2206471 231.96664,82.738388 C236.11289,84.8008235 240,73.9915465 240,73.9915465 C240,73.9915465 239.222578,66.3235173 239.015266,65.0014433 C238.807953,63.6793694 237.566669,58.2324245 237.566669,58.2324245 C237.566669,58.2324245 236.685591,55.9055743 236.16731,54.2662025 C235.649029,52.6268308 234.094185,50.7230442 234.094185,50.7230442 C234.094185,50.7230442 231.295466,45.0143287 230.518044,44.1682013 C230.157839,43.7742233 229.652514,43.2797676 229.222341,42.8619922 C228.70406,42.3781132 228.2998,42 228.2998,42 C228.2998,42 222.948546,45.9159832 223.000374,47.1825301 Z" id="Path" fill="#EE8E9E" fill-rule="nonzero"></path>
                            <path d="M188,129.662493 L197.390724,133.940124 C197.390724,133.940124 209.565128,134.204176 211.680621,133.623263 C213.796114,133.04235 213.331737,130.613077 210.545478,130.137785 C207.759219,129.662493 207.088453,128.395046 206.1597,127.814133 C205.532792,127.423337 203.308945,124.891085 201.928715,123.285652 C201.263108,122.511982 200.793572,121.965396 200.793572,121.965396 C200.793572,121.965396 198.987664,117.054041 193.985297,118.163056 C193.070924,118.367229 192.228654,118.823834 191.5499,119.483313 C188.853937,122.03669 188.619169,127.093273 188.619169,127.093273 L188,129.662493 Z" id="Path" fill="#434175" fill-rule="nonzero"></path>
                            <path d="M191,75.9525012 L192.225464,76.6803748 C198.780391,80.5606585 216.653909,91.08407 217.63428,90.9994932 C217.895017,90.9789897 218.661584,90.8636576 219.720176,90.6945039 L220.624933,90.5484166 L220.658829,90.4894691 C221.185846,89.5886074 221.587489,88.6223 221.853004,87.6164188 C222.950707,83.5182856 217.540415,80.3812531 217.540415,80.3812531 L216.393172,79.5047293 C215.089488,77.3467379 205.702957,75.3066416 205.702957,75.3066416 L204.493138,74.5070058 L203.849117,74.0815586 L203.677031,73.9687895 L202.209082,73 L194.858907,73.512587 L192.673931,74.8914461 L192.444483,75.0375334 L191.633591,75.5501204 L191,75.9525012 Z" id="Path" fill="#000000" fill-rule="nonzero" opacity="0.1"></path>
                            <path d="M191,119.346192 C193.091723,125.769552 201.835943,123.67292 201.835943,123.67292 L202,122.857564 C201.294556,122.146553 200.796918,121.644236 200.796918,121.644236 C200.796918,121.644236 198.882923,117.130655 193.581158,118.14985 C192.614095,118.332641 191.721618,118.746295 191,119.346192 Z" id="Path" fill="#000000" fill-rule="nonzero" opacity="0.1"></path>
                            <path d="M189.256592,87.6345847 C192.367669,87.6345847 200.38001,91.3836575 200.38001,91.3836575 C202.014644,92.6509497 204.229309,92.2285189 204.229309,92.2285189 C204.229309,92.2285189 200.32728,96.188807 200.43274,97.8257261 C200.538201,99.4626452 198.220712,102.155641 198.220712,102.155641 L191.049416,116.357234 C191.576717,126.440128 201.909184,123.644164 201.909184,123.644164 L202.331025,121.267992 C202.963786,120.951169 203.912928,117.782938 203.912928,117.782938 C203.912928,117.782938 203.912928,116.515646 204.54569,116.146019 C205.178451,115.776392 206.496704,111.974515 206.496704,111.974515 C206.496704,111.974515 209.34413,107.169366 209.18594,106.53572 C209.02775,105.902074 211.242414,102.68368 211.242414,102.68368 C211.242414,102.68368 214.986253,98.9874106 214.828062,98.3273626 C214.669872,97.6673146 217.833679,94.2878687 217.833679,94.2878687 C218.97828,93.399011 219.930074,92.2859838 220.631012,91.0166708 C221.169148,90.0868635 221.579742,89.0886943 221.851714,88.0490949 C222.74549,84.6485275 219.362853,81.8974473 218.010325,80.9575389 C217.683398,80.7278422 217.483024,80.6063934 217.483024,80.6063934 L216.322961,79.7034477 C215.724474,78.6922541 213.422805,77.7048223 211.113226,76.931246 C209.441681,76.3741655 207.754317,75.9253328 206.675986,75.6560332 C205.943038,75.4870609 205.505378,75.3761729 205.505378,75.3761729 L204.282039,74.5524329 L203.852289,74.264652 L203.459449,74.0006328 L201.961914,73 L198.655735,73.2349771 L194.529604,73.5280384 L192.322848,74.9590225 L191.268246,75.6401921 L187.147387,78.2803842 C187.147387,78.2803842 187.039291,79.2968581 187.005016,80.656557 C187.005016,80.7621647 187.005016,80.8677724 187.005016,80.9786605 C186.954922,83.7508622 187.250211,87.6345847 189.256592,87.6345847 Z" id="Path" fill="#565387" fill-rule="nonzero"></path>
                            <path d="M205,29.0299281 L206.114058,32.9145091 C206.114058,32.9145091 208.076923,39.5959885 208.289125,40.0621383 C208.501326,40.528288 213.647215,45.2415796 213.859416,45.3451685 C214.071618,45.4487573 216.872679,47 216.872679,47 C216.872679,47 217.095491,38.4539217 216.872679,35.9703796 C216.854046,35.4240223 216.900332,34.8773975 217.01061,34.3414452 C217.34748,32.3939753 218.204244,29.5375133 218.915119,27.3362508 C219.509284,25.4949593 220,24.1120485 220,24.1120485 C220,24.1120485 207.588859,23.5941043 208.013263,24.7853759 C208.172414,25.2359873 208.122016,25.9870063 207.965517,26.7432047 C207.700265,27.9836809 207.169761,29.2319263 206.846154,29.1335169 C206.523112,29.0629658 206.193095,29.0273584 205.862069,29.0273384 C205.416446,29.0143898 205,29.0299281 205,29.0299281 Z" id="Path" fill="#EE8E9E" fill-rule="nonzero"></path>
                            <path d="M208,25.8426044 C211.105763,28.4727212 215.544795,28.7225731 218.918228,26.4571394 C219.51069,24.549129 220,23.1161086 220,23.1161086 C220,23.1161086 207.624421,22.5793968 208.047609,23.8138339 C208.206304,24.2807731 208.15605,25.0590052 208,25.8426044 Z" id="Path" fill="#000000" fill-rule="nonzero" opacity="0.1"></path>
                            <path d="M222.993492,19.0756467 C222.994006,20.0222516 222.842093,20.9628637 222.543492,21.8619461 C222.468375,22.0940111 222.381561,22.32219 222.283376,22.5456213 C220.849772,25.9133093 217.490819,28.0736969 213.805943,27.9980769 C210.121067,27.922457 206.855086,25.6261143 205.563156,22.2024937 C205.205801,21.2554652 205.015735,20.2544206 205.001306,19.2433407 C205.001306,19.1891626 205.001306,19.1324047 205.001306,19.0782266 C204.946025,15.853397 206.648973,12.8497886 209.455906,11.221338 C212.262839,9.59288735 215.737161,9.59288735 218.544094,11.221338 C221.351027,12.8497886 223.053975,15.853397 222.998694,19.0782266 L222.993492,19.0756467 Z" id="Path" fill="#EE8E9E" fill-rule="nonzero"></path>
                            <path d="M205,29.0069148 L206.113074,32.8964706 C206.113074,32.8964706 208.074205,39.5865066 208.286219,40.0532533 C208.498233,40.52 213.639576,45.2393277 213.85159,45.3430492 C214.063604,45.4467707 216.862191,47 216.862191,47 C216.862191,47 217.084806,38.4429772 216.862191,35.9562545 C216.843574,35.4091976 216.889819,34.8618727 217,34.3252341 L216.279152,37.2009124 L216.332155,42.957455 L216.756184,43.2686194 L215.80212,44.6688595 L215.80212,43.6316447 C215.80212,43.6316447 212.409894,40.4162785 211.879859,39.0678992 C211.349823,37.7195198 209.441696,35.2768788 209.441696,35.2768788 C209.441696,35.2768788 207.268551,31.7036735 207.215548,31.0813445 C207.175795,30.5964466 206.261484,29.4736615 205.861307,29.0069148 C205.416078,28.9913565 205,29.0069148 205,29.0069148 Z" id="Path" fill="#000000" fill-rule="nonzero" opacity="0.1"></path>
                            <path d="M223.000362,46.9995746 C223.062546,47.3507681 223.181879,47.6889007 223.353429,48 C224.450191,47.8851553 228.178681,47.1756699 229,42.8319864 C228.499196,42.3649511 228.108568,42 228.108568,42 C228.108568,42 222.950282,45.7771161 223.000362,46.9995746 Z" id="Path" fill="#000000" fill-rule="nonzero" opacity="0.1"></path>
                            <path d="M187,81 C188.044951,80.2441361 189.058553,79.2160555 189.656788,78.9306244 C190.544996,78.5077635 191.903432,77.1334655 191.903432,77.1334655 C191.903432,77.1334655 192.248266,76.8956062 192.775966,76.5837463 C193.745158,76.0075983 195.336096,75.1750908 196.553464,75.0720185 C197.642825,74.9795177 201.255743,74.7443013 204.129358,74.5645854 L207.849383,74.3320119 C207.849383,74.3320119 211.245473,73.1162868 212.708405,73.909151 C213.756146,74.4401519 214.860536,74.8480496 216,75.1248761 C216,75.1248761 216,75.0085894 216,74.8103733 L216,74.8103733 L214.902802,73.0132144 L203.314296,74.0122233 L201.827853,73 L194.463562,73.5285761 L192.277002,74.9610175 L190.390866,75.1248761 L191.234664,75.6534523 L187.151518,78.296333 C187.151518,78.296333 187.023511,79.4777007 187,81 Z" id="Path" fill="#000000" fill-rule="nonzero" opacity="0.1"></path>
                            <path d="M184.686723,80.9613219 C185.244708,80.7949912 185.76741,80.5280589 186.228924,80.1737536 L186.228924,80.1737536 C187.281621,79.4255636 188.294842,78.4043501 188.897511,78.1234507 C189.792303,77.7034142 191.160809,76.3382958 191.160809,76.3382958 C191.160809,76.3382958 193.950456,74.4481318 195.84531,74.2906182 C196.371659,74.2486145 197.440146,74.1724829 198.740227,74.0884756 C200.040307,74.0044683 201.635143,73.9020845 203.03523,73.8259529 L205.266948,73.6868158 L207.211805,73.5660553 C207.211805,73.5660553 210.63307,72.3584505 212.106846,73.1460189 C213.162354,73.673473 214.274931,74.0786462 215.422841,74.3536236 C215.422841,74.3536236 215.475476,70.6783048 215.896555,69.1556727 C216.317634,67.6330406 216.896617,64.8529244 216.896617,64.8529244 C216.896617,64.8529244 217.370331,61.0200919 217.844044,59.2874416 C218.317758,57.5547913 220.157346,47.8939531 221.104773,47.2638985 C222.0522,46.6338438 222.578549,47.7364395 222.578549,47.7364395 C222.578549,47.7364395 228.89473,47.6314304 229,40.7034543 C229,40.7034543 226.052449,37.7631993 225.841909,37.0281355 C225.63137,36.2930717 222.841723,33.5628349 222.841723,33.5628349 C222.841723,33.5628349 221.262678,30.6225798 219.473093,30.5700752 C218.627631,30.5215047 217.779516,30.5478603 216.938725,30.6488321 L215.422841,36.8181173 L215.475476,42.6461229 L215.896555,42.9611502 L214.949128,44.3787732 L214.949128,43.3286821 C214.949128,43.3286821 211.580498,40.0733997 211.054149,38.7082813 C210.527801,37.3431628 208.632946,34.8701983 208.632946,34.8701983 C208.632946,34.8701983 206.474917,31.2526344 206.422283,30.6225798 C206.369648,29.9925251 204.895872,28.3045037 204.895872,28.3045037 C204.598609,28.2700273 204.298343,28.2700273 204.00108,28.3045037 C203.867917,28.3144534 203.734169,28.2956496 203.60895,28.2493739 C202.758571,27.9775874 201.85269,27.9269837 200.977208,28.1023611 C199.158674,28.4777687 196.390081,29.1682036 195.632139,29.9925251 C194.474172,31.2526344 192.789857,32.4602392 190.895003,37.7106947 L201.103531,41.3860136 L200.214002,43.0451575 L192.089814,58.4499939 C192.089814,58.4499939 191.82664,58.888407 191.455564,59.4607066 L191.455564,59.4607066 C190.98185,60.2036461 190.347601,61.1723551 189.931785,61.7052763 C189.194897,62.6503583 189.405437,65.643118 189.405437,65.643118 C189.405437,65.643118 189.247532,67.0607409 188.721184,67.5857865 C188.194835,68.110832 188.300105,70.0535006 188.300105,70.0535006 L186.931599,75.1464424 C186.931599,75.1464424 185.668363,76.3015426 185.668363,76.8265882 C185.668363,77.3516337 184.668301,78.8217613 184.668301,78.8217613 C184.668301,78.8217613 183.152417,81.3393547 184.686723,80.9613219 Z" id="Path" fill="#434175" fill-rule="nonzero"></path>
                            <path d="M239,85 C239,85 235.929626,86.0907989 235.098016,87.652802 C234.266405,89.2148052 239,85 239,85 Z" id="Path" fill="#000000" fill-rule="nonzero" opacity="0.1"></path>
                            <path d="M237,82 C236.901526,82.1634173 232.75085,86.7690606 233.011806,87.880298 C233.272762,88.9915355 237,82 237,82 Z" id="Path" fill="#000000" fill-rule="nonzero" opacity="0.1"></path>
                            <path d="M213,85 C213,85 208.421528,87.65437 208.021278,88.8227722 C207.621028,89.9911744 213,85 213,85 Z" id="Path" fill="#000000" fill-rule="nonzero" opacity="0.1"></path>
                            <path d="M213,88 C213,88 208.629568,89.5648148 208.043416,89.9560185 C207.457264,90.3472222 213,88 213,88 Z" id="Path" fill="#000000" fill-rule="nonzero" opacity="0.1"></path>
                            <path d="M210,92.2802145 C210,92.2802145 208.176342,93.6766351 207.168594,92.5794475 C206.160847,91.4822599 210,92.2802145 210,92.2802145 Z" id="Path" fill="#000000" fill-rule="nonzero" opacity="0.1"></path>
                            <path d="M218,53 C217.890107,53.1586702 211.021817,65.0589325 209.208588,65.9580634 C207.39536,66.8571944 218,53 218,53 Z" id="Path" fill="#000000" fill-rule="nonzero" opacity="0.1"></path>
                            <path d="M218,58 C218,58.2602476 211.208563,71.842569 210.095213,71.9987175 C208.981863,72.1548661 218,58 218,58 Z" id="Path" fill="#000000" fill-rule="nonzero" opacity="0.1"></path>
                            <path d="M193,67 C193,67 190.238554,73.6105347 189.155541,73.9861034 C188.072529,74.3616721 193,67 193,67 Z" id="Path" fill="#000000" fill-rule="nonzero" opacity="0.1"></path>
                            <path d="M193,64 C193,64 191.833179,66 191.123315,66 C190.413451,66 193,64 193,64 Z" id="Path" fill="#000000" fill-rule="nonzero" opacity="0.1"></path>
                            <path d="M222.993492,19.4050887 C222.994006,20.3857762 222.842093,21.3602551 222.543492,22.2917089 C222.468375,22.5321295 222.381561,22.768524 222.283376,23 C221.823125,22.9271663 221.389739,22.7307821 221.027019,22.4306944 C220.640819,22.1618537 220.318171,21.8074865 220.0828,21.3936493 C219.905349,20.9527486 219.751648,20.5021464 219.622395,20.0438871 C219.199701,18.9906509 218.25505,18.2552336 217.1539,18.1221464 C217.453033,18.6567057 216.977021,19.3649968 216.391762,19.4585447 C215.806502,19.5520925 215.236849,19.191265 214.831069,18.744908 C214.425289,18.298551 214.136561,17.7559733 213.735983,17.3096163 C213.335405,16.8632593 212.763151,16.5077774 212.17529,16.5959796 C211.655059,16.6761635 211.257083,17.0824286 210.82269,17.3844546 C210.388297,17.6864806 209.782228,17.8896131 209.366043,17.5662048 C209.131939,17.3871274 209.017489,17.0824286 208.793789,16.8873145 C208.218934,16.3928471 207.324137,16.9033512 206.900149,17.5421496 C206.247259,18.5310843 205.859687,19.1297907 205.001306,19.5761477 C205.001306,19.520019 205.001306,19.4612175 205.001306,19.4050887 C204.946025,16.0641489 206.648973,12.9523954 209.455906,11.2653123 C212.262839,9.57822923 215.737161,9.57822923 218.544094,11.2653123 C221.351027,12.9523954 223.053975,16.0641489 222.998694,19.4050887 L222.993492,19.4050887 Z" id="Path" fill="#000000" fill-rule="nonzero" opacity="0.1"></path>
                            <path d="M206.939186,16.6603736 C207.361604,16.0333518 208.253088,15.5343469 208.825815,16.0202888 C209.048686,16.2083954 209.162713,16.5062307 209.39595,16.6838869 C209.810594,17.0000105 210.417011,16.8014535 210.847204,16.5062307 C211.277397,16.2110079 211.679083,15.8138941 212.194796,15.7355164 C212.777889,15.6440757 213.345433,15.9967755 213.749711,16.4330782 C214.153989,16.8693809 214.439056,17.3997369 214.840743,17.8360396 C215.242429,18.2723423 215.809973,18.6198169 216.395657,18.5309889 C216.981341,18.4421608 217.452999,17.7472115 217.154974,17.2246933 C218.251507,17.354606 219.19196,18.0736805 219.611738,19.1031463 C219.741681,19.5507056 219.89479,19.9910953 220.070438,20.4225048 C220.305992,20.82635 220.628329,21.1718408 221.013753,21.4335776 C221.488002,21.7862774 222.065912,22.0815002 222.646413,21.9796091 C223.226914,21.8777181 223.719304,21.1958318 223.449786,20.6733136 C223.633784,20.958086 224.032878,20.5609721 224.092483,20.2265605 C224.224362,19.4922683 224.183531,18.7370269 223.973273,18.0215336 C223.688206,17.0496497 223.086972,16.0882162 223.317618,15.1006567 C223.501616,14.3168794 224.162455,13.7603975 224.564141,13.0680609 C225.27681,11.840143 225.082446,10.1942106 224.22206,9.06557128 C223.30908,7.94888249 221.9235,7.33679322 220.490265,7.41702629 C220.10129,7.46049164 219.709154,7.46748853 219.318896,7.43792702 C218.668424,7.34126115 218.116429,6.9154088 217.598124,6.51045718 L213.252138,3.0984132 C212.769638,2.66854665 212.213842,2.33041079 211.611704,2.10040339 C211.000104,1.90968424 210.264111,1.97499902 209.797637,2.43220246 C208.983898,3.25255607 209.499611,4.66335527 209.173079,5.77370649 C208.890603,6.73514001 207.980978,7.38828779 207.040255,7.71224909 C206.099532,8.03621038 205.091429,8.10936293 204.122199,8.34449613 C203.834795,8.39261292 203.565932,8.5191022 203.344742,8.71025889 C203.09403,9.02354366 202.972472,9.42205242 203.005252,9.8232227 C202.998527,10.8058772 203.229819,11.7753357 203.679048,12.6474337 C204.181804,13.6219302 204.97481,14.6225526 204.697517,15.6858771 C204.547209,16.2475842 204.117016,16.6786618 203.738653,17.1175771 C202.919732,18.0685602 202.642439,19.4689091 204.186987,18.9829671 C205.682296,18.5127007 206.099532,17.903967 206.939186,16.6603736 Z" id="Path" fill="#434175" fill-rule="nonzero"></path>
                            <g id="Group" opacity="0.1" transform="translate(202.000000, 9.000000)" fill="#000000" fill-rule="nonzero">
                                <path d="M21.8954651,10.097551 C21.8312791,10.4371429 21.422093,10.8404082 21.2295349,10.5512245 C21.4969767,11.0818367 20.9995349,11.7689796 20.4004651,11.8777551 C19.8013953,11.9865306 19.2076744,11.6787755 18.7155814,11.3232653 C18.3185039,11.0564097 17.9867684,10.704659 17.7447674,10.2938776 C17.5201163,9.87734694 17.447907,9.3944898 17.2713953,8.95408163 C16.8358613,7.90933671 15.8650963,7.1797201 14.7333721,7.04653061 C15.0436047,7.57714286 14.5515116,8.28285714 13.9497674,8.37306122 C13.3480233,8.46326531 12.7623256,8.1077551 12.3451163,7.66469388 C11.927907,7.22163265 11.6310465,6.68571429 11.219186,6.24 C10.8073256,5.79428571 10.2189535,5.44408163 9.61453488,5.53163265 C9.07965116,5.61387755 8.67046512,6.0144898 8.22383721,6.31428571 C7.7772093,6.61408163 7.15406977,6.81836735 6.72616279,6.49734694 C6.48546512,6.31693878 6.37046512,6.0144898 6.14046512,5.82346939 C5.54674419,5.33 4.62674419,5.83673469 4.19081395,6.47081633 C3.32697674,7.73367347 2.89639535,8.35714286 1.36127907,8.83734694 C0.858488372,8.99387755 0.542906977,8.95938776 0.371744186,8.80816327 C0.0374418605,9.57489796 0.189883721,10.2487755 1.36127907,9.88265306 C2.89639535,9.40244898 3.32697674,8.78163265 4.19081395,7.51877551 C4.62674419,6.88204082 5.54674419,6.37530612 6.14046512,6.86877551 C6.37046512,7.05979592 6.48546512,7.3622449 6.72616279,7.54265306 C7.15674419,7.86367347 7.77988372,7.66204082 8.22383721,7.3622449 C8.6677907,7.06244898 9.08232558,6.65918367 9.61453488,6.57959184 C10.2162791,6.48673469 10.8019767,6.84489796 11.219186,7.28795918 C11.6363953,7.73102041 11.9305814,8.26959184 12.3451163,8.71265306 C12.7596512,9.15571429 13.3453488,9.50857143 13.9497674,9.41836735 C14.554186,9.32816327 15.0436047,8.62244898 14.7333721,8.09183673 C15.8659789,8.22285129 16.8377331,8.95321132 17.2713953,9.99938776 C17.4042885,10.4542634 17.5623182,10.9015385 17.7447674,11.3391837 C17.9870886,11.7490026 18.3188012,12.0998226 18.7155814,12.3659184 C19.2076744,12.7240816 19.8013953,13.0238776 20.4004651,12.9204082 C20.9995349,12.8169388 21.5076744,12.1244898 21.2295349,11.5938776 C21.422093,11.8830612 21.8312791,11.4797959 21.8954651,11.1402041 C21.9782891,10.6823476 21.9945006,10.215075 21.9436047,9.75265306 C21.9346899,9.86761905 21.9186434,9.98258503 21.8954651,10.097551 Z" id="Path"></path>
                                <path d="M1.87209302,5.52367347 C1.87209302,5.5077551 1.87209302,5.49714286 1.88546512,5.48122449 C2.17697674,4.40408163 1.3505814,3.38795918 0.834418605,2.39836735 C0.470832758,1.70004719 0.245677918,0.939012943 0.171162791,0.156530612 C0.151167134,0.295404484 0.140446093,0.43543758 0.139069767,0.575714286 C0.133418386,1.57344304 0.372035406,2.55761651 0.834418605,3.44367347 C1.19813953,4.12020408 1.69290698,4.81 1.87209302,5.52367347 Z" id="Path"></path>
                                <path d="M22.3795349,2.82816327 C21.965,3.53122449 21.2830233,4.09897959 21.0931395,4.8922449 C21.016872,5.22672734 21.016872,5.5738849 21.0931395,5.90836735 C21.2910465,5.13102041 21.9596512,4.56857143 22.3688372,3.87346939 C22.7575959,3.19481421 22.9027938,2.40540936 22.7806977,1.63428571 C22.727688,2.05460315 22.5913478,2.46035751 22.3795349,2.82816327 Z" id="Path"></path>
                            </g>
                            <path d="M192,59.5976953 L192,59.5976953 C192.070028,59.8909462 192.124239,60.1877276 192.1624,60.4867628 C192.1624,60.4867628 196.368831,70.3063139 196.90129,70.8875252 C197.06369,71.0679926 197.681343,71.9490983 198.458734,73.0876354 L199.350604,74.3986782 C200.947983,76.7872176 202.755683,79.4862672 202.755683,79.4862672 L206.706533,82.925764 C206.706533,82.925764 215.276469,83.6078247 218,80.837119 C217.669875,80.6062268 217.46754,80.4841459 217.46754,80.4841459 L216.296129,79.5765009 C215.691788,78.5600447 213.367602,77.5674738 211.035429,76.7898716 C208.878968,76.8057952 207.113864,76.9809547 207.113864,76.9809547 L206.554782,75.508022 L205.969076,73.971395 L202.979316,66.1635249 C202.979316,66.1635249 201.057137,56.2935491 200.418186,55.8131872 C199.779234,55.3328254 199.941634,53.849277 199.941634,53.849277 C199.941634,53.849277 201.110383,49.6560633 200.684415,49.0721981 C200.258448,48.4883329 201.376613,44.1916158 201.376613,44.1916158 C201.266988,43.7711551 201.094682,43.3694762 200.865452,43 L192.646938,58.5732773 C192.646938,58.5732773 192.367397,59.019138 192,59.5976953 Z" id="Path" fill="#000000" fill-rule="nonzero" opacity="0.1"></path>
                            <path d="M200.859372,44.4710687 C200.859372,44.4710687 199.75793,48.7356439 200.177527,49.3151415 C200.597124,49.8946391 199.443233,54.0564852 199.443233,54.0564852 C199.443233,54.0564852 199.288506,55.5315699 199.915279,56.0057043 C200.542052,56.4798386 202.438105,66.2786156 202.438105,66.2786156 L206.500326,77.0256613 C206.500326,77.0256613 219.214108,75.7613029 217.905491,79.7651043 C216.596874,83.7689056 206.104331,82.9260001 206.104331,82.9260001 L202.223061,79.5016963 C202.223061,79.5016963 196.978101,71.5467752 196.453605,70.9672777 C195.929109,70.3877801 191.785591,60.6443188 191.785591,60.6443188 C191.785591,60.6443188 191.575793,58.6950998 190.68415,57.6941494 C189.792507,56.6931991 190.474351,54.9994858 190.474351,54.9994858 C190.474351,54.9994858 189.37291,42.2610757 190.526801,40.7333094 C191.680692,39.2055431 199.653031,39.8877698 200.859372,44.4710687 Z" id="Path" fill="#EE8E9E" fill-rule="nonzero"></path>
                            <path d="M194.919707,36.7156138 L191.657165,38.6898834 C191.657165,38.6898834 190.725009,41.8591058 190,42.2747415 C190,42.2747415 196.525085,38.637929 201.442203,47 C201.442203,47 201.286844,45.911554 201.960067,45.3920093 C202.63329,44.8724647 202.477931,42.6384227 202.477931,42.6384227 C202.657063,42.2854325 202.812762,41.920958 202.944009,41.547379 C203.410086,40.4043808 200.986483,33.8581183 194.919707,36.7156138 Z" id="Path" fill="#000000" fill-rule="nonzero" opacity="0.1"></path>
                            <path d="M194.918978,35.7156138 L191.656919,37.6898834 C191.656919,37.6898834 190.724902,40.8591058 190,41.2747415 C190,41.2747415 196.524119,37.637929 201.440508,46 C201.440508,46 201.285172,44.911554 201.958295,44.3920093 C202.631419,43.8724647 202.476083,41.6384227 202.476083,41.6384227 C202.655188,41.2854325 202.810863,40.920958 202.942091,40.547379 C203.418455,39.4043808 200.9745,32.8581183 194.918978,35.7156138 Z" id="Path" fill="#434175" fill-rule="nonzero"></path>
                            <ellipse id="Oval" fill="#FBD56F" fill-rule="nonzero" cx="165" cy="117.5" rx="10" ry="10.5"></ellipse>
                            <ellipse id="Oval" fill="#000000" fill-rule="nonzero" opacity="0.1" cx="165" cy="117.5" rx="10" ry="10.5"></ellipse>
                            <circle id="Oval" fill="#FBD56F" fill-rule="nonzero" cx="167" cy="118" r="10"></circle>
                            <ellipse id="Oval" fill="#E35205" fill-rule="nonzero" cx="24" cy="121" rx="12" ry="2"></ellipse>
                            <path d="M28.8413033,117.970099 C29.3474715,117.453549 29.815677,116.853235 29.9624658,116.104935 C30.1092545,115.356636 29.8207387,114.479898 29.180436,114.209058 C28.4616772,113.904712 27.6923016,114.454768 27.1102083,115.010408 C26.5281149,115.566048 25.8625038,116.197077 25.1007208,116.079806 C25.8978739,115.283026 26.2572519,114.082969 26.0472552,112.91908 C26.0171756,112.683675 25.9296997,112.461706 25.7941711,112.276883 C25.3968291,111.8078 24.6730087,111.997666 24.1946798,112.380193 C22.6761754,113.558484 22.253525,115.834096 22.2459324,117.88075 C22.0915512,117.140827 22.220624,116.372983 22.2180932,115.613515 C22.2155623,114.854047 22.0257493,114.016399 21.458841,113.608743 C21.0974728,113.395388 20.6916653,113.290441 20.282,113.304398 C19.5986731,113.276476 18.8394208,113.351865 18.3737462,113.90192 C17.7941836,114.588792 17.9435032,115.73637 18.4471405,116.490254 C18.9507778,117.244137 19.7125609,117.71322 20.4237271,118.235354 C20.9891683,118.607841 21.4717353,119.115428 21.8359362,119.720784 C21.8793393,119.809565 21.9141204,119.903157 21.9397007,120 L26.2193523,120 C27.1722931,119.45688 28.0542714,118.774057 28.8413033,117.970099 L28.8413033,117.970099 Z" id="Path" fill="#E35205" fill-rule="nonzero"></path>
                            <path d="M112,7.15903801 L121.681702,2 L125.25617,5.4837083 L126.106383,7.97362296 L127,12.1578743 L126.213617,13.9906905 L120.022128,15.1908456 C120.022128,15.1908456 116.723404,14.9871994 116.212766,15.2587277 C115.702128,15.530256 113.618723,16 113.618723,16 L112,11.761443 L112,7.15903801 Z" id="Path" fill="#FBD56F" fill-rule="nonzero"></path>
                        </g>
                    </g>
                </g>
            </g>
        </g>
    </g>
</svg>