<?xml version="1.0" encoding="UTF-8"?>
<svg width="225px" height="152px" viewBox="0 0 225 152" version="1.1" xmlns="http://www.w3.org/2000/svg" xmlns:xlink="http://www.w3.org/1999/xlink">
    <!-- Generator: Sketch 51.2 (57519) - http://www.bohemiancoding.com/sketch -->
    <title>Free</title>
    <desc>Created with Sketch.</desc>
    <defs></defs>
    <g id="Page-1" stroke="none" stroke-width="1" fill="none" fill-rule="evenodd">
        <g id="banner5" transform="translate(-866.000000, -43.000000)">
            <g id="Group" transform="translate(865.000000, 43.000000)">
                <g id="Free">
                    <g transform="translate(0.000000, 54.000000)" id="Free-Copy">
                        <text font-family="DINAlternate-Bold, DIN Alternate" font-size="99.144" font-weight="bold" fill="#FFFFFF">
                            <tspan x="0" y="93">FREE</tspan>
                        </text>
                        <path d="M15.9038086,36.2857148 L15.9038086,55.602082 L45.2403633,55.602082 L45.2403633,66.5904727 L15.9038086,66.5904727 L15.9038086,96.75 L3.70516406,96.75 L3.70516406,24.6679922 L50.2750195,24.6679922 L50.2750195,36.2857148 L15.9038086,36.2857148 Z M69.1549805,55.6020866 L84.5618775,55.6021796 C88.3674045,55.5408001 91.1679378,54.4567227 93.0313713,52.3533151 C94.8671948,50.3971097 95.7812813,47.9995059 95.7813966,45.1340817 C95.7207309,41.6761333 94.6421004,39.2381329 92.5275465,37.7178817 C90.8696092,36.3856106 88.4186656,35.704793 85.1548945,35.704793 L69.1549805,35.704793 L69.1549805,55.6020866 Z M94.0461533,65.0665178 L110.597957,96.75 L96.1575119,96.75 L81.5860548,66.5904727 L69.1549805,66.5904727 L69.1549805,96.75 L56.9563359,96.75 L56.9563359,24.6679922 L85.2517148,24.6679922 C91.2928515,24.6679922 96.2560345,26.2722534 100.092335,29.4751867 C104.760762,33.1360397 107.198661,38.364913 107.398936,45.1310259 C107.2695,54.741609 102.790763,61.4261809 94.0461601,65.066515 Z M129.619266,36.2857148 L129.619266,54.9243398 L158.95582,54.9243398 L158.95582,65.9127305 L129.619266,65.9127305 L129.619266,85.1322773 L163.990477,85.1322773 L163.990477,96.75 L117.420621,96.75 L117.420621,24.6679922 L163.990477,24.6679922 L163.990477,36.2857148 L129.619266,36.2857148 Z M184.758434,36.2857148 L184.758434,54.9243398 L214.094988,54.9243398 L214.094988,65.9127305 L184.758434,65.9127305 L184.758434,85.1322773 L219.129645,85.1322773 L219.129645,96.75 L172.559789,96.75 L172.559789,24.6679922 L219.129645,24.6679922 L219.129645,36.2857148 L184.758434,36.2857148 Z" stroke="#FFFFFF" stroke-width="1.5"></path>
                    </g>
                    <path d="M41.8285,23.472 L41.8285,0 L49.8565,0 C51.0805061,0 52.2144948,0.0899991 53.2585,0.27 C54.3025052,0.4500009 55.2144961,0.76799772 55.9945,1.224 C56.7745039,1.68000228 57.3864978,2.27999628 57.8305,3.024 C58.2745022,3.76800372 58.4965,4.70399436 58.4965,5.832 C58.4965,6.36000264 58.4245007,6.88799736 58.2805,7.416 C58.1364993,7.94400264 57.9325013,8.43599772 57.6685,8.892 C57.4044987,9.34800228 57.0865019,9.7559982 56.7145,10.116 C56.3424981,10.4760018 55.9165024,10.7399992 55.4365,10.908 L55.4365,11.052 C56.036503,11.1960007 56.5884975,11.4179985 57.0925,11.718 C57.5965025,12.0180015 58.0404981,12.3959977 58.4245,12.852 C58.8085019,13.3080023 59.1084989,13.8419969 59.3245,14.454 C59.5405011,15.0660031 59.6485,15.767996 59.6485,16.56 C59.6485,17.760006 59.4145023,18.7919957 58.9465,19.656 C58.4784977,20.5200043 57.8305041,21.2339972 57.0025,21.798 C56.1744959,22.3620028 55.2085055,22.7819986 54.1045,23.058 C53.0004945,23.3340014 51.8125064,23.472 50.5405,23.472 L41.8285,23.472 Z M47.1205,9.396 L49.6045,9.396 C50.9005065,9.396 51.8424971,9.14400252 52.4305,8.64 C53.0185029,8.13599748 53.3125,7.4640042 53.3125,6.624 C53.3125,5.71199544 53.012503,5.06400192 52.4125,4.68 C51.812497,4.29599808 50.8885062,4.104 49.6405,4.104 L47.1205,4.104 L47.1205,9.396 Z M47.1205,19.368 L50.1085,19.368 C53.0125145,19.368 54.4645,18.3120106 54.4645,16.2 C54.4645,15.1679948 54.1045036,14.4300022 53.3845,13.986 C52.6644964,13.5419978 51.5725073,13.32 50.1085,13.32 L47.1205,13.32 L47.1205,19.368 Z M68.5405,23.904 C66.5964903,23.904 65.1865044,23.2680064 64.3105,21.996 C63.4344956,20.7239936 62.9965,18.9600113 62.9965,16.704 L62.9965,5.616 L68.2885,5.616 L68.2885,16.02 C68.2885,17.3160065 68.4684982,18.2039976 68.8285,18.684 C69.1885018,19.1640024 69.7524962,19.404 70.5205,19.404 C71.1925034,19.404 71.7564977,19.2480016 72.2125,18.936 C72.6685023,18.6239984 73.1604974,18.1200035 73.6885,17.424 L73.6885,5.616 L78.9805,5.616 L78.9805,23.472 L74.6605,23.472 L74.2645,20.988 L74.1565,20.988 C73.3884962,21.9000046 72.5665044,22.6139974 71.6905,23.13 C70.8144956,23.6460026 69.7645061,23.904 68.5405,23.904 Z M85.6045,30.456 C85.0524972,30.456 84.5845019,30.4260003 84.2005,30.366 C83.8164981,30.3059997 83.4445018,30.2160006 83.0845,30.096 L84.0205,26.064 C84.1885008,26.1120002 84.3804989,26.1599998 84.5965,26.208 C84.8125011,26.2560002 85.016499,26.28 85.2085,26.28 C86.0965044,26.28 86.7804976,26.0640022 87.2605,25.632 C87.7405024,25.1999978 88.1004988,24.6360035 88.3405,23.94 L88.5925,23.004 L81.7165,5.616 L87.0445,5.616 L89.6005,13.284 C89.8645013,14.1000041 90.1044989,14.9279958 90.3205,15.768 C90.5365011,16.6080042 90.7644988,17.4719956 91.0045,18.36 L91.1485,18.36 C91.340501,17.5199958 91.538499,16.6740043 91.7425,15.822 C91.946501,14.9699957 92.1564989,14.1240042 92.3725,13.284 L94.5325,5.616 L99.6085,5.616 L93.4165,23.652 C92.9844978,24.7800056 92.5345023,25.7699957 92.0665,26.622 C91.5984977,27.4740043 91.0585031,28.1819972 90.4465,28.746 C89.8344969,29.3100028 89.1385039,29.7359986 88.3585,30.024 C87.5784961,30.3120014 86.6605053,30.456 85.6045,30.456 Z M115.9885,23.904 C114.116491,23.904 112.532506,23.6100029 111.2365,23.022 C109.940494,22.4339971 108.872504,21.6480049 108.0325,20.664 L110.4805,17.316 C111.176503,17.9880034 111.938496,18.5399978 112.7665,18.972 C113.594504,19.4040022 114.500495,19.62 115.4845,19.62 C116.612506,19.62 117.512497,19.3860023 118.1845,18.918 C118.856503,18.4499977 119.1925,17.7840043 119.1925,16.92 C119.1925,16.4159975 119.102501,15.960002 118.9225,15.552 C118.742499,15.143998 118.424502,14.8020014 117.9685,14.526 C117.512498,14.2499986 116.888504,14.0340008 116.0965,13.878 C115.304496,13.7219992 114.284506,13.644 113.0365,13.644 L113.0365,9.9 C114.068505,9.9 114.926497,9.82800072 115.6105,9.684 C116.294503,9.53999928 116.846498,9.33000138 117.2665,9.054 C117.686502,8.77799862 117.986499,8.45400186 118.1665,8.082 C118.346501,7.70999814 118.4365,7.29600228 118.4365,6.84 C118.4365,6.04799604 118.196502,5.43000222 117.7165,4.986 C117.236498,4.54199778 116.540505,4.32 115.6285,4.32 C114.812496,4.32 114.074503,4.4999982 113.4145,4.86 C112.754497,5.2200018 112.064504,5.71199688 111.3445,6.336 L108.6805,3.096 C109.736505,2.18399544 110.846494,1.47000258 112.0105,0.954 C113.174506,0.43799742 114.464493,0.18 115.8805,0.18 C117.056506,0.18 118.130495,0.31799862 119.1025,0.594 C120.074505,0.87000138 120.902497,1.2779973 121.5865,1.818 C122.270503,2.3580027 122.804498,3.01199616 123.1885,3.78 C123.572502,4.54800384 123.7645,5.43599496 123.7645,6.444 C123.7645,7.644006 123.434503,8.65799586 122.7745,9.486 C122.114497,10.3140041 121.172506,10.9919974 119.9485,11.52 L119.9485,11.664 C121.268507,12.0480019 122.354496,12.7019954 123.2065,13.626 C124.058504,14.5500046 124.4845,15.7559926 124.4845,17.244 C124.4845,18.3000053 124.256502,19.2419959 123.8005,20.07 C123.344498,20.8980041 122.732504,21.5939972 121.9645,22.158 C121.196496,22.7220028 120.296505,23.1539985 119.2645,23.454 C118.232495,23.7540015 117.140506,23.904 115.9885,23.904 Z M142.1605,31.068 C141.104495,31.068 140.126505,30.9780009 139.2265,30.798 C138.326495,30.6179991 137.534503,30.3480018 136.8505,29.988 C136.166497,29.6279982 135.632502,29.1600029 135.2485,28.584 C134.864498,28.0079971 134.6725,27.324004 134.6725,26.532 C134.6725,25.0919928 135.524491,23.8920048 137.2285,22.932 L137.2285,22.788 C136.748498,22.4759984 136.352502,22.0800024 136.0405,21.6 C135.728498,21.1199976 135.5725,20.5080037 135.5725,19.764 C135.5725,19.1159968 135.764498,18.4980029 136.1485,17.91 C136.532502,17.3219971 137.012497,16.824002 137.5885,16.416 L137.5885,16.272 C136.964497,15.8399978 136.406502,15.222004 135.9145,14.418 C135.422498,13.613996 135.1765,12.6840053 135.1765,11.628 C135.1765,10.5479946 135.380498,9.60600402 135.7885,8.802 C136.196502,7.99799598 136.742497,7.3260027 137.4265,6.786 C138.110503,6.2459973 138.896496,5.84400132 139.7845,5.58 C140.672504,5.31599868 141.596495,5.184 142.5565,5.184 C143.612505,5.184 144.536496,5.32799856 145.3285,5.616 L151.8445,5.616 L151.8445,9.468 L149.0005,9.468 C149.168501,9.73200132 149.306499,10.067998 149.4145,10.476 C149.522501,10.884002 149.5765,11.3279976 149.5765,11.808 C149.5765,12.8400052 149.396502,13.7339962 149.0365,14.49 C148.676498,15.2460038 148.178503,15.8699975 147.5425,16.362 C146.906497,16.8540025 146.162504,17.2199988 145.3105,17.46 C144.458496,17.7000012 143.540505,17.82 142.5565,17.82 C141.860497,17.82 141.140504,17.7000012 140.3965,17.46 C140.156499,17.652001 139.9885,17.843999 139.8925,18.036 C139.7965,18.228001 139.7485,18.4799984 139.7485,18.792 C139.7485,19.2480023 139.946498,19.5839989 140.3425,19.8 C140.738502,20.0160011 141.440495,20.124 142.4485,20.124 L145.3285,20.124 C147.536511,20.124 149.222494,20.4779965 150.3865,21.186 C151.550506,21.8940035 152.1325,23.051992 152.1325,24.66 C152.1325,25.5960047 151.898502,26.4539961 151.4305,27.234 C150.962498,28.0140039 150.296504,28.6859972 149.4325,29.25 C148.568496,29.8140028 147.524506,30.2579984 146.3005,30.582 C145.076494,30.9060016 143.696508,31.068 142.1605,31.068 Z M142.5565,14.616 C143.252503,14.616 143.834498,14.3700025 144.3025,13.878 C144.770502,13.3859975 145.0045,12.636005 145.0045,11.628 C145.0045,10.6919953 144.770502,9.97800246 144.3025,9.486 C143.834498,8.99399754 143.252503,8.748 142.5565,8.748 C141.860497,8.748 141.278502,8.9879976 140.8105,9.468 C140.342498,9.9480024 140.1085,10.6679952 140.1085,11.628 C140.1085,12.636005 140.342498,13.3859975 140.8105,13.878 C141.278502,14.3700025 141.860497,14.616 142.5565,14.616 Z M142.9885,27.756 C144.188506,27.756 145.172496,27.5460021 145.9405,27.126 C146.708504,26.7059979 147.0925,26.1840031 147.0925,25.56 C147.0925,25.0079972 146.858502,24.636001 146.3905,24.444 C145.922498,24.251999 145.244504,24.156 144.3565,24.156 L142.5205,24.156 C141.896497,24.156 141.392502,24.1380002 141.0085,24.102 C140.624498,24.0659998 140.288501,24.0120004 140.0005,23.94 C139.352497,24.5160029 139.0285,25.103997 139.0285,25.704 C139.0285,26.3760034 139.388496,26.8859983 140.1085,27.234 C140.828504,27.5820017 141.788494,27.756 142.9885,27.756 Z M163.0045,23.904 C161.732494,23.904 160.544506,23.6940021 159.4405,23.274 C158.336494,22.8539979 157.376504,22.242004 156.5605,21.438 C155.744496,20.633996 155.108502,19.6560058 154.6525,18.504 C154.196498,17.3519942 153.9685,16.0320074 153.9685,14.544 C153.9685,13.1039928 154.208498,11.8020058 154.6885,10.638 C155.168502,9.47399418 155.798496,8.49000402 156.5785,7.686 C157.358504,6.88199598 158.252495,6.26400216 159.2605,5.832 C160.268505,5.39999784 161.312495,5.184 162.3925,5.184 C163.664506,5.184 164.774495,5.39999784 165.7225,5.832 C166.670505,6.26400216 167.462497,6.86399616 168.0985,7.632 C168.734503,8.40000384 169.208498,9.30599478 169.5205,10.35 C169.832502,11.3940052 169.9885,12.5279939 169.9885,13.752 C169.9885,14.2320024 169.9645,14.6879978 169.9165,15.12 C169.8685,15.5520022 169.8205,15.8759989 169.7725,16.092 L159.0805,16.092 C159.320501,17.3880065 159.854496,18.3419969 160.6825,18.954 C161.510504,19.5660031 162.524494,19.872 163.7245,19.872 C164.996506,19.872 166.280494,19.476004 167.5765,18.684 L169.3405,21.888 C168.428495,22.5120031 167.414506,23.0039982 166.2985,23.364 C165.182494,23.7240018 164.084505,23.904 163.0045,23.904 Z M159.0445,12.6 L165.4885,12.6 C165.4885,11.591995 165.260502,10.7760031 164.8045,10.152 C164.348498,9.52799688 163.580505,9.216 162.5005,9.216 C161.660496,9.216 160.922503,9.49199724 160.2865,10.044 C159.650497,10.5960028 159.236501,11.4479942 159.0445,12.6 Z M180.5365,23.904 C179.432494,23.904 178.490504,23.7360017 177.7105,23.4 C176.930496,23.0639983 176.294502,22.596003 175.8025,21.996 C175.310498,21.395997 174.950501,20.6700043 174.7225,19.818 C174.494499,18.9659957 174.3805,18.0240052 174.3805,16.992 L174.3805,9.756 L171.9325,9.756 L171.9325,5.832 L174.6685,5.616 L175.2805,0.864 L179.6725,0.864 L179.6725,5.616 L183.9565,5.616 L183.9565,9.756 L179.6725,9.756 L179.6725,16.92 C179.6725,17.928005 179.882498,18.6539978 180.3025,19.098 C180.722502,19.5420022 181.280497,19.764 181.9765,19.764 C182.264501,19.764 182.558499,19.7280004 182.8585,19.656 C183.158502,19.5839996 183.428499,19.5000005 183.6685,19.404 L184.4965,23.256 C184.016498,23.4000007 183.452503,23.5439993 182.8045,23.688 C182.156497,23.8320007 181.400504,23.904 180.5365,23.904 Z M1,59.472 L1,55.188 L5.968,55.188 L5.968,41.976 L1.684,41.976 L1.684,38.7 C2.93200624,38.4599988 3.98799568,38.1720017 4.852,37.836 C5.71600432,37.4999983 6.55599592,37.0920024 7.372,36.612 L11.26,36.612 L11.26,55.188 L15.544,55.188 L15.544,59.472 L1,59.472 Z M29.548,59.472 L25.192,36 L30.628,36 L32.248,46.98 C32.3920007,48.2040061 32.5479992,49.4339938 32.716,50.67 C32.8840008,51.9060062 33.0399993,53.1479938 33.184,54.396 L33.328,54.396 C33.5680012,53.1479938 33.8019989,51.9060062 34.03,50.67 C34.2580011,49.4339938 34.4919988,48.2040061 34.732,46.98 L37.252,36 L41.752,36 L44.272,46.98 C44.5120012,48.180006 44.7459989,49.3979938 44.974,50.634 C45.2020011,51.8700062 45.4359988,53.1239936 45.676,54.396 L45.82,54.396 C45.9880008,53.1239936 46.1499992,51.8760061 46.306,50.652 C46.4620008,49.4279939 46.6239992,48.2040061 46.792,46.98 L48.412,36 L53.488,36 L49.312,59.472 L42.652,59.472 L40.348,48.816 C40.155999,47.9039954 39.9820008,46.9860046 39.826,46.062 C39.6699992,45.1379954 39.5320006,44.2440043 39.412,43.38 L39.268,43.38 C39.1239993,44.2440043 38.9740008,45.1379954 38.818,46.062 C38.6619992,46.9860046 38.488001,47.9039954 38.296,48.816 L36.1,59.472 L29.548,59.472 Z M60.796,59.904 C59.9799959,59.904 59.2420033,59.7660014 58.582,59.49 C57.9219967,59.2139986 57.3640023,58.8300025 56.908,58.338 C56.4519977,57.8459975 56.0980013,57.2760032 55.846,56.628 C55.5939987,55.9799968 55.468,55.2720038 55.468,54.504 C55.468,52.6319906 56.2599921,51.1680053 57.844,50.112 C59.4280079,49.0559947 61.9839824,48.3480018 65.512,47.988 C65.4639998,47.195996 65.2300021,46.5660023 64.81,46.098 C64.3899979,45.6299977 63.6880049,45.396 62.704,45.396 C61.9359962,45.396 61.1740038,45.5399986 60.418,45.828 C59.6619962,46.1160014 58.8520043,46.5119975 57.988,47.016 L56.08,43.524 C57.2320058,42.8279965 58.4379937,42.2640022 59.698,41.832 C60.9580063,41.3999978 62.2959929,41.184 63.712,41.184 C66.0160115,41.184 67.7739939,41.8379935 68.986,43.146 C70.1980061,44.4540065 70.804,46.4879862 70.804,49.248 L70.804,59.472 L66.484,59.472 L66.124,57.636 L65.98,57.636 C65.2119962,58.3080034 64.4080042,58.8539979 63.568,59.274 C62.7279958,59.6940021 61.804005,59.904 60.796,59.904 Z M62.596,55.8 C63.196003,55.8 63.7119978,55.6680013 64.144,55.404 C64.5760022,55.1399987 65.0319976,54.7680024 65.512,54.288 L65.512,51.156 C63.6399906,51.4200013 62.3440036,51.8039975 61.624,52.308 C60.9039964,52.8120025 60.544,53.4119965 60.544,54.108 C60.544,54.6840029 60.7299981,55.1099986 61.102,55.386 C61.4740019,55.6620014 61.9719969,55.8 62.596,55.8 Z M80.128,59.904 C79.2159954,59.904 78.4480031,59.7600014 77.824,59.472 C77.1999969,59.1839986 76.7020019,58.7820026 76.33,58.266 C75.9579981,57.7499974 75.6880008,57.1260037 75.52,56.394 C75.3519992,55.6619963 75.268,54.8400046 75.268,53.928 L75.268,34.236 L80.56,34.236 L80.56,54.144 C80.56,54.6960028 80.661999,55.0799989 80.866,55.296 C81.070001,55.5120011 81.2799989,55.62 81.496,55.62 L81.802,55.62 C81.8860004,55.62 81.9999993,55.5960002 82.144,55.548 L82.792,59.472 C82.5039986,59.5920006 82.1380022,59.6939996 81.694,59.778 C81.2499978,59.8620004 80.728003,59.904 80.128,59.904 Z M92.44,59.904 C91.3359945,59.904 90.3940039,59.7360017 89.614,59.4 C88.8339961,59.0639983 88.1980025,58.596003 87.706,57.996 C87.2139975,57.395997 86.8540011,56.6700043 86.626,55.818 C86.3979989,54.9659957 86.284,54.0240052 86.284,52.992 L86.284,45.756 L83.836,45.756 L83.836,41.832 L86.572,41.616 L87.184,36.864 L91.576,36.864 L91.576,41.616 L95.86,41.616 L95.86,45.756 L91.576,45.756 L91.576,52.92 C91.576,53.928005 91.7859979,54.6539978 92.206,55.098 C92.6260021,55.5420022 93.1839965,55.764 93.88,55.764 C94.1680014,55.764 94.4619985,55.7280004 94.762,55.656 C95.0620015,55.5839996 95.3319988,55.5000005 95.572,55.404 L96.4,59.256 C95.9199976,59.4000007 95.3560032,59.5439993 94.708,59.688 C94.0599968,59.8320007 93.3040043,59.904 92.44,59.904 Z M107.344,59.904 C106.071994,59.904 104.884006,59.6940021 103.78,59.274 C102.675994,58.8539979 101.716004,58.242004 100.9,57.438 C100.083996,56.633996 99.4480023,55.6560058 98.992,54.504 C98.5359977,53.3519942 98.308,52.0320074 98.308,50.544 C98.308,49.1039928 98.5479976,47.8020058 99.028,46.638 C99.5080024,45.4739942 100.137996,44.490004 100.918,43.686 C101.698004,42.881996 102.591995,42.2640022 103.6,41.832 C104.608005,41.3999978 105.651995,41.184 106.732,41.184 C108.004006,41.184 109.113995,41.3999978 110.062,41.832 C111.010005,42.2640022 111.801997,42.8639962 112.438,43.632 C113.074003,44.4000038 113.547998,45.3059948 113.86,46.35 C114.172002,47.3940052 114.328,48.5279939 114.328,49.752 C114.328,50.2320024 114.304,50.6879978 114.256,51.12 C114.208,51.5520022 114.16,51.8759989 114.112,52.092 L103.42,52.092 C103.660001,53.3880065 104.193996,54.3419969 105.022,54.954 C105.850004,55.5660031 106.863994,55.872 108.064,55.872 C109.336006,55.872 110.619994,55.476004 111.916,54.684 L113.68,57.888 C112.767995,58.5120031 111.754006,59.0039982 110.638,59.364 C109.521994,59.7240018 108.424005,59.904 107.344,59.904 Z M103.384,48.6 L109.828,48.6 C109.828,47.591995 109.600002,46.7760031 109.144,46.152 C108.687998,45.5279969 107.920005,45.216 106.84,45.216 C105.999996,45.216 105.262003,45.4919972 104.626,46.044 C103.989997,46.5960028 103.576001,47.4479942 103.384,48.6 Z M118,59.472 L118,41.616 L122.32,41.616 L122.68,44.748 L122.824,44.748 C123.472003,43.5239939 124.251995,42.6240029 125.164,42.048 C126.076005,41.4719971 126.987995,41.184 127.9,41.184 C128.404003,41.184 128.817998,41.2139997 129.142,41.274 C129.466002,41.3340003 129.759999,41.4239994 130.024,41.544 L129.16,46.116 C128.823998,46.0199995 128.512001,45.9480002 128.224,45.9 C127.935999,45.8519998 127.600002,45.828 127.216,45.828 C126.543997,45.828 125.842004,46.0679976 125.11,46.548 C124.377996,47.0280024 123.772002,47.8799939 123.292,49.104 L123.292,59.472 L118,59.472 Z M141.688,59.904 C140.895996,59.904 140.098004,59.706002 139.294,59.31 C138.489996,58.913998 137.740003,58.3320038 137.044,57.564 L136.9,57.564 L136.468,59.472 L132.328,59.472 L132.328,34.236 L137.62,34.236 L137.62,40.428 L137.476,43.164 C138.172003,42.5399969 138.921996,42.0540017 139.726,41.706 C140.530004,41.3579983 141.351996,41.184 142.192,41.184 C143.272005,41.184 144.243996,41.3999978 145.108,41.832 C145.972004,42.2640022 146.709997,42.8699961 147.322,43.65 C147.934003,44.4300039 148.401998,45.3779944 148.726,46.494 C149.050002,47.6100056 149.212,48.8519932 149.212,50.22 C149.212,51.7560077 149.002002,53.123994 148.582,54.324 C148.161998,55.524006 147.598004,56.5379959 146.89,57.366 C146.181996,58.1940041 145.378005,58.8239978 144.478,59.256 C143.577996,59.6880022 142.648005,59.904 141.688,59.904 Z M140.464,55.584 C141.376005,55.584 142.155997,55.1700041 142.804,54.342 C143.452003,53.5139959 143.776,52.1760092 143.776,50.328 C143.776,47.1119839 142.74401,45.504 140.68,45.504 C139.623995,45.504 138.604005,46.0439946 137.62,47.124 L137.62,54.432 C138.100002,54.8640022 138.579998,55.1639992 139.06,55.332 C139.540002,55.5000008 140.007998,55.584 140.464,55.584 Z M160.948,59.904 C159.675994,59.904 158.488006,59.6940021 157.384,59.274 C156.279994,58.8539979 155.320004,58.242004 154.504,57.438 C153.687996,56.633996 153.052002,55.6560058 152.596,54.504 C152.139998,53.3519942 151.912,52.0320074 151.912,50.544 C151.912,49.1039928 152.151998,47.8020058 152.632,46.638 C153.112002,45.4739942 153.741996,44.490004 154.522,43.686 C155.302004,42.881996 156.195995,42.2640022 157.204,41.832 C158.212005,41.3999978 159.255995,41.184 160.336,41.184 C161.608006,41.184 162.717995,41.3999978 163.666,41.832 C164.614005,42.2640022 165.405997,42.8639962 166.042,43.632 C166.678003,44.4000038 167.151998,45.3059948 167.464,46.35 C167.776002,47.3940052 167.932,48.5279939 167.932,49.752 C167.932,50.2320024 167.908,50.6879978 167.86,51.12 C167.812,51.5520022 167.764,51.8759989 167.716,52.092 L157.024,52.092 C157.264001,53.3880065 157.797996,54.3419969 158.626,54.954 C159.454004,55.5660031 160.467994,55.872 161.668,55.872 C162.940006,55.872 164.223994,55.476004 165.52,54.684 L167.284,57.888 C166.371995,58.5120031 165.358006,59.0039982 164.242,59.364 C163.125994,59.7240018 162.028005,59.904 160.948,59.904 Z M156.988,48.6 L163.432,48.6 C163.432,47.591995 163.204002,46.7760031 162.748,46.152 C162.291998,45.5279969 161.524005,45.216 160.444,45.216 C159.603996,45.216 158.866003,45.4919972 158.23,46.044 C157.593997,46.5960028 157.180001,47.4479942 156.988,48.6 Z M171.604,59.472 L171.604,41.616 L175.924,41.616 L176.284,44.748 L176.428,44.748 C177.076003,43.5239939 177.855995,42.6240029 178.768,42.048 C179.680005,41.4719971 180.591995,41.184 181.504,41.184 C182.008003,41.184 182.421998,41.2139997 182.746,41.274 C183.070002,41.3340003 183.363999,41.4239994 183.628,41.544 L182.764,46.116 C182.427998,46.0199995 182.116001,45.9480002 181.828,45.9 C181.539999,45.8519998 181.204002,45.828 180.82,45.828 C180.147997,45.828 179.446004,46.0679976 178.714,46.548 C177.981996,47.0280024 177.376002,47.8799939 176.896,49.104 L176.896,59.472 L171.604,59.472 Z M185.932,59.472 L185.932,41.616 L190.252,41.616 L190.612,44.748 L190.756,44.748 C191.404003,43.5239939 192.183995,42.6240029 193.096,42.048 C194.008005,41.4719971 194.919995,41.184 195.832,41.184 C196.336003,41.184 196.749998,41.2139997 197.074,41.274 C197.398002,41.3340003 197.691999,41.4239994 197.956,41.544 L197.092,46.116 C196.755998,46.0199995 196.444001,45.9480002 196.156,45.9 C195.867999,45.8519998 195.532002,45.828 195.148,45.828 C194.475997,45.828 193.774004,46.0679976 193.042,46.548 C192.309996,47.0280024 191.704002,47.8799939 191.224,49.104 L191.224,59.472 L185.932,59.472 Z M202.24,66.456 C201.687997,66.456 201.220002,66.4260003 200.836,66.366 C200.451998,66.3059997 200.080002,66.2160006 199.72,66.096 L200.656,62.064 C200.824001,62.1120002 201.015999,62.1599998 201.232,62.208 C201.448001,62.2560002 201.651999,62.28 201.844,62.28 C202.732004,62.28 203.415998,62.0640022 203.896,61.632 C204.376002,61.1999978 204.735999,60.6360035 204.976,59.94 L205.228,59.004 L198.352,41.616 L203.68,41.616 L206.236,49.284 C206.500001,50.1000041 206.739999,50.9279958 206.956,51.768 C207.172001,52.6080042 207.399999,53.4719956 207.64,54.36 L207.784,54.36 C207.976001,53.5199958 208.173999,52.6740043 208.378,51.822 C208.582001,50.9699957 208.791999,50.1240042 209.008,49.284 L211.168,41.616 L216.244,41.616 L210.052,59.652 C209.619998,60.7800056 209.170002,61.7699957 208.702,62.622 C208.233998,63.4740043 207.694003,64.1819972 207.082,64.746 C206.469997,65.3100028 205.774004,65.7359986 204.994,66.024 C204.213996,66.3120014 203.296005,66.456 202.24,66.456 Z M221.1805,42.9075 C220.647497,42.9075 220.143752,42.810001 219.66925,42.615 C219.194748,42.419999 218.782002,42.1470018 218.431,41.796 C218.079998,41.4449982 217.803751,41.0290024 217.60225,40.548 C217.400749,40.0669976 217.3,39.5405029 217.3,38.9685 C217.3,38.3964971 217.400749,37.8700024 217.60225,37.389 C217.803751,36.9079976 218.079998,36.4920018 218.431,36.141 C218.782002,35.7899982 219.194748,35.517001 219.66925,35.322 C220.143752,35.126999 220.647497,35.0295 221.1805,35.0295 C221.713503,35.0295 222.213998,35.126999 222.682,35.322 C223.150002,35.517001 223.559498,35.7899982 223.9105,36.141 C224.261502,36.4920018 224.537749,36.9079976 224.73925,37.389 C224.940751,37.8700024 225.0415,38.3964971 225.0415,38.9685 C225.0415,39.5405029 224.940751,40.0669976 224.73925,40.548 C224.537749,41.0290024 224.261502,41.4449982 223.9105,41.796 C223.559498,42.1470018 223.150002,42.419999 222.682,42.615 C222.213998,42.810001 221.713503,42.9075 221.1805,42.9075 Z M221.1805,41.952 C221.999504,41.952 222.668997,41.6822527 223.189,41.14275 C223.709003,40.6032473 223.969,39.8785045 223.969,38.9685 C223.969,38.0584954 223.709003,37.3337527 223.189,36.79425 C222.668997,36.2547473 221.999504,35.985 221.1805,35.985 C220.764498,35.985 220.387502,36.0564993 220.0495,36.1995 C219.711498,36.3425007 219.415751,36.5439987 219.16225,36.804 C218.908749,37.0640013 218.713751,37.3759982 218.57725,37.74 C218.440749,38.1040018 218.3725,38.5134977 218.3725,38.9685 C218.3725,39.4235023 218.440749,39.8329982 218.57725,40.197 C218.713751,40.5610018 218.908749,40.8729987 219.16225,41.133 C219.415751,41.3930013 219.711498,41.5944993 220.0495,41.7375 C220.387502,41.8805007 220.764498,41.952 221.1805,41.952 Z M219.601,40.86 L219.601,37.0185 L221.3365,37.0185 C221.791502,37.0185 222.168499,37.122499 222.4675,37.3305 C222.766501,37.538501 222.916,37.8634978 222.916,38.3055 C222.916,38.7865024 222.688502,39.1374989 222.2335,39.3585 L223.033,40.86 L221.863,40.86 L221.278,39.69 L220.7125,39.69 L220.7125,40.86 L219.601,40.86 Z M220.7125,38.91 L221.122,38.91 C221.317001,38.91 221.46325,38.8547506 221.56075,38.74425 C221.65825,38.6337494 221.707,38.5070007 221.707,38.364 C221.707,38.2209993 221.65825,38.1007505 221.56075,38.00325 C221.46325,37.9057495 221.317001,37.857 221.122,37.857 L220.7125,37.857 L220.7125,38.91 Z" id="Buy-3-get-1-Walterbe" fill="#FFFFFF"></path>
                </g>
            </g>
        </g>
    </g>
</svg>