<?xml version="1.0" encoding="utf-8"?>
<!-- Generator: Adobe Illustrator 20.1.0, SVG Export Plug-In . SVG Version: 6.00 Build 0)  -->
<svg version="1.1" id="Layer_1" xmlns="http://www.w3.org/2000/svg" xmlns:xlink="http://www.w3.org/1999/xlink" x="0px" y="0px"
	 viewBox="0 0 462.4 59.1" style="enable-background:new 0 0 462.4 59.1;" xml:space="preserve">
<style type="text/css">
	.st0{fill:#FFFFFF;}
</style>
<g>
	<g>
		<path class="st0" d="M140.4,3v15.6v1.6c0,9.2-5.6,10.5-13.7,10.5c-2.3,0-4.6,0-6.8,0c-8.7,0-14.7-0.3-14.7-10.8V3h8.3v14.4
			c0.2,5.2,0.5,6.5,6,6.6l3.7,0l3.5,0c4.7,0,5.2-1.3,5.3-5.4v-1V3H140.4z"/>
		<path class="st0" d="M155.8,23.5h18.9v6.8h-27.2V3h8.3V23.5z"/>
		<path class="st0" d="M191.9,30.4h-8.3V9.8h-12.2V3h32.7v6.8h-12.2V30.4z"/>
		<path class="st0" d="M220.6,16.7V9.6h13.2h0.7c0.8,0,1.6,0,2.4,0.2c1.6,0.5,1.6,1.6,1.6,3c0,3.1-0.3,3.8-4.2,3.8h-1.1H220.6z
			 M212.3,30.4h8.3v-7h13.9c3.5,0,3.6,1.4,3.6,4.4v2.6h8.5v-5.3c0-3.8-2.1-4.8-5.6-5.3c1.7-0.6,3.7-0.9,4.8-2.6
			c1-1.6,1.2-3.8,1.2-5.6c0-6.6-2.7-8.7-9.2-8.7h-25.5V30.4z"/>
		<path class="st0" d="M279.8,19.8h-11.7l5.9-10.9L279.8,19.8z M282.9,25.4l2.6,5h9.2L279.7,3h-11.2l-15.3,27.4h9.3l2.7-5H282.9z"/>
		<path class="st0" d="M309.5,23.7v-14h14.2c5.7,0,5.7,2.1,5.7,6.8v0.2c0,4.8-0.4,6.9-5.9,6.9H309.5z M301.2,30.4h27.2
			c4.8,0,8.3-2.3,9.1-7.1c0.3-2.1,0.3-4.3,0.3-6.5v-1.6c0-9.9-2.7-12.3-12.5-12.3h-24.1V30.4z"/>
		<path class="st0" d="M344.3,3h30.5v6.2h-22.2v4.7h20.7v5.4h-20.7v4.9h22.2v6.2h-30.5V3z"/>
		<path class="st0" d="M420.2,30.4h-13.2L390.4,9.8v20.6h-7.8V3h13.2l16.5,20.6V3h7.8V30.4z"/>
		<path class="st0" d="M447,30.4h-8.3V9.8h-12.2V3h32.7v6.8H447V30.4z"/>
	</g>
	<g>
		<g>
			<path class="st0" d="M3.1,6.6c0,0,0,36.3,0,39.7c0,3.4,3.1,6.7,6.1,6.7c6.5,0,40.8,0,43.9,0c3.1,0,6.2-3.4,6.2-6.7
				c0-8.2,0-25.4,0-27.1c0-1.7,1.4-3.3,2.9-3.3c2.1,0,7.5,0,11.7,0c3.8,0,3.8,6,0.1,6c-3.2,0-5.4,0-7.3,0c-1.5,0-3,1.7-3,3.4
				c0,0.8,0,4.2,0,5.4c0,2.5,0.8,3.4,3,3.4c1.8,0,22.7,0,24.1,0c2.3,0,3.1-0.8,3.1-3.4c0-6.2,0-17.2,0-20.6c0-3.3-3.1-6.7-6.2-6.7
				c-6.5,0-48,0-49.5,0c-1.5,0-3,1.7-3,3.3c0,3.3,0,19.2,0,23c0,4.6-5.5,4.6-5.5,0c0-5.6,0-19.6,0-23c0-1.7-1.6-3.3-3.1-3.3
				c-6.9,0-18.6,0-20.5,0C4.6,3.3,3.1,4.9,3.1,6.6z"/>
			<path class="st0" d="M90.8,53c2.3,0,3.1-0.8,3.1-3.4v-8.2c0-2.5-0.8-3.4-3.1-3.4H66.7c-2.3,0-3,0.8-3,3.4v8.2
				c0,2.5,0.8,3.4,3,3.4H90.8z"/>
		</g>
		<path class="st0" d="M97.1,4.2c0.5,0,1,0.2,1,0.8c0,0.4-0.2,0.7-0.5,0.8c0.5,0.2,0.5,0.5,0.5,1c0,0.2,0,0.4,0.1,0.5h-0.4
			c-0.1-0.1-0.1-0.2-0.1-0.3c0-0.7,0.1-1-0.8-1h-0.7v1.4h-0.4V4.2H97.1z M96.3,5.7H97c0.4,0,0.8-0.1,0.8-0.6c0-0.5-0.4-0.6-0.7-0.6
			h-0.8V5.7z M99.5,5.8c0,1.5-1.1,2.8-2.5,2.8c-1.4,0-2.5-1.2-2.5-2.8C94.5,4.3,95.6,3,97,3C98.4,3,99.5,4.3,99.5,5.8z M94.8,5.8
			c0,1.3,1,2.5,2.2,2.5c1.2,0,2.2-1.1,2.2-2.5c0-1.3-1-2.5-2.2-2.5C95.8,3.3,94.8,4.4,94.8,5.8z"/>
	</g>
	<g>
		<path class="st0" d="M106.1,38h13.9c4,0,7.8,1.2,7.8,4.3c0,2.8-3.2,4.4-9,4.4h-10.1v6.3h-2.7V38z M108.8,45.3h10.4
			c4.5,0,5.8-1.2,5.8-2.9c0-2.3-2.2-2.9-5.3-2.9h-10.9V45.3z"/>
		<path class="st0" d="M135.3,38h14.1c4.4,0,8.4,0.9,8.4,4.1c0,1.6-1.7,3.2-5.1,3.6v0c3.7,0.3,4.4,1.7,4.6,4.2
			c0.1,0.9,0.3,2.8,0.9,3.1h-2.9c-0.5-0.3-0.7-1.4-0.7-3.1c-0.1-2.7-1.8-3.5-6.3-3.5h-10.4v6.6h-2.7V38z M137.9,45h11.3
			c2.9,0,5.6-0.6,5.6-2.9c0-2.2-2.9-2.6-5.3-2.6h-11.6V45z"/>
		<path class="st0" d="M178.3,37.7c7.4,0,14.1,2.6,14.1,7.9c0,5.3-6.7,7.9-14.1,7.9c-7.4,0-14.1-2.6-14.1-7.9
			C164.3,40.3,171,37.7,178.3,37.7z M178.3,52c5.7,0,11.2-1.9,11.2-6.5c0-4.5-5.5-6.5-11.2-6.5c-5.7,0-11.2,1.9-11.2,6.5
			C167.2,50.1,172.6,52,178.3,52z"/>
		<path class="st0" d="M199.8,38h12.6c7.5,0,11.4,2.8,11.4,7.5c0,4.2-3.8,7.5-11,7.5h-13V38z M202.5,51.6h9.8c4.6,0,8.7-1.5,8.7-6.1
			c0-4-2.7-6.1-8.7-6.1h-9.8V51.6z"/>
		<path class="st0" d="M254.9,47.3c0,2.7-1.3,6.2-11.6,6.2c-10.3,0-11.6-3.5-11.6-6.2V38h2.7v9.2c0,3.9,4.4,4.8,8.9,4.8
			c4.5,0,8.9-0.8,8.9-4.8V38h2.7V47.3z"/>
		<path class="st0" d="M289,47.4c-0.6,3.4-5.4,6.1-12.8,6.1c-8.4,0-13.8-3.1-13.8-7.9c0-3.4,3.7-7.9,13.8-7.9
			c5.6,0,11.8,1.5,12.6,5.5h-2.7c-0.8-2.9-5.2-4-9.9-4c-6.4,0-10.9,2.1-10.9,6.5c0,3.4,3,6.5,10.9,6.5c6.2,0,9.2-1.8,10.1-4.7H289z"
			/>
		<path class="st0" d="M304.2,39.5h-10.1V38h23v1.4h-10.1v13.6h-2.7V39.5z"/>
		<path class="st0" d="M340.5,42.3c-0.4-2.6-4-3.2-8.1-3.2c-4.2,0-7.3,0.9-7.3,2.7c0,2,3.2,2.4,9.5,3c4.7,0.5,9.4,1.1,9.4,4
			c0,3.7-5.8,4.7-10.8,4.7c-6.6,0-11.3-1.3-11.7-5.3h2.7c0.5,3.2,4.1,3.9,9.1,3.9c3.9,0,7.9-0.6,7.9-3c0-2.3-4.7-2.6-9.4-3
			c-6.2-0.6-9.5-1.6-9.5-4c0-3.3,5.2-4.4,10.2-4.4c5.3,0,10.6,1.1,10.8,4.7H340.5z"/>
		<path class="st0" d="M351.9,50.8h3.1v2.4c0,1.7-1.5,2.6-3.4,2.9v-0.8c1.4-0.4,1.6-1.1,1.6-2.1h-1.3V50.8z"/>
		<path class="st0" d="M378.5,38h2.7v15h-2.7V38z"/>
		<path class="st0" d="M389.9,38h3.2l18.1,12.9h0.1V38h2.7v15h-3.1l-18.2-12.9h-0.1v12.9h-2.7V38z"/>
		<path class="st0" d="M448,47.4c-0.6,3.4-5.4,6.1-12.8,6.1c-8.4,0-13.8-3.1-13.8-7.9c0-3.4,3.7-7.9,13.8-7.9
			c5.7,0,11.8,1.5,12.6,5.5h-2.7c-0.8-2.9-5.2-4-9.9-4c-6.4,0-10.9,2.1-10.9,6.5c0,3.4,3,6.5,10.9,6.5c6.2,0,9.2-1.8,10.1-4.7H448z"
			/>
		<path class="st0" d="M456.6,53.1h3.1v-2.3h-3.1V53.1z"/>
	</g>
</g>
</svg>
