<?xml version="1.0" encoding="utf-8"?>
<!-- Generator: Adobe Illustrator 20.1.0, SVG Export Plug-In . SVG Version: 6.00 Build 0)  -->
<svg version="1.1" id="Layer_1" xmlns="http://www.w3.org/2000/svg" xmlns:xlink="http://www.w3.org/1999/xlink" x="0px" y="0px"
	 viewBox="0 0 468 174.3" style="enable-background:new 0 0 468 174.3;" xml:space="preserve">
<style type="text/css">
	.st0{fill:url(#SVGID_1_);}
	.st1{fill:#FFFFFF;}
</style>
<image style="display:none;overflow:visible;" width="701" height="300" xlink:href="75FC39BB9D5A606C.png"  transform="matrix(0.6545 0 0 0.6545 6.0608 5.0915)">
</image>
<g>
	<radialGradient id="SVGID_1_" cx="379.7049" cy="87.1686" r="84.6522" gradientUnits="userSpaceOnUse">
		<stop  offset="0.65" style="stop-color:#00AFDB"/>
		<stop  offset="0.9396" style="stop-color:#00AFDB;stop-opacity:0"/>
	</radialGradient>
	<path class="st0" d="M379.7,3c-47,0-85.1,37.7-85.1,84.2c0,46.5,38.1,84.2,85.1,84.2c47,0,85.1-37.7,85.1-84.2
		C464.8,40.7,426.7,3,379.7,3z M379.6,133.3c-25.5,0-46.2-20.7-46.2-46.2c0-25.5,20.7-46.2,46.2-46.2c25.5,0,46.2,20.7,46.2,46.2
		C425.8,112.6,405.1,133.3,379.6,133.3z"/>
	<g>
		<g>
			<path class="st1" d="M143.9,34c-17.9,29.8-35.8,59.6-53.7,89.4C73,93.9,55.8,64.3,38.5,34.7c-4.1-7.1-15.1-0.7-11,6.4
				c19,32.7,38.1,65.3,57.1,98c2.4,4.2,8.5,4.1,11,0c19.7-32.9,39.5-65.8,59.2-98.7C159.1,33.4,148.1,27,143.9,34z"/>
			<path class="st1" d="M192.9,34c-2.4-4.2-8.5-4.1-11,0c-19.7,32.9-39.5,65.8-59.2,98.7c-4.2,7,6.8,13.4,11,6.4
				c17.9-29.8,35.8-59.6,53.6-89.4c17.2,29.6,34.5,59.1,51.7,88.7c4.1,7.1,15.1,0.7,11-6.4C231,99.3,211.9,66.7,192.9,34z"/>
			<path class="st1" d="M318,128.9c-13.7,0-27.4,0-41.1,0c0-30.6,0-61.1,0-91.7c0-8.1-12.6-8.1-12.6,0c0,32.7,0,65.3,0,98
				c0,3.4,2.9,6.3,6.3,6.3c15.8,0,31.6,0,47.4,0C326.1,141.5,326.1,128.9,318,128.9z"/>
			<path class="st1" d="M194.2,93.5H180c-2.5,0-4.6,2.1-4.6,4.6c0,2.5,2.1,4.6,4.6,4.6h14.2c2.5,0,4.6-2.1,4.6-4.6
				C198.8,95.6,196.8,93.5,194.2,93.5z"/>
			<path class="st1" d="M451,45.3L451,45.3c0.5-0.2,1-0.6,1-1.2c0-0.5-0.2-0.8-0.5-1c-0.3-0.2-0.7-0.4-1.6-0.4
				c-0.8,0-1.3,0.1-1.8,0.1v4.6h1.1v-1.8h0.5c0.6,0,0.9,0.2,1,0.7c0.1,0.6,0.2,1,0.4,1.1h1.1c-0.1-0.2-0.2-0.4-0.3-1.1
				C451.6,45.8,451.4,45.4,451,45.3z M449.7,44.9h-0.5v-1.3c0.1,0,0.3-0.1,0.6-0.1c0.7,0,1,0.3,1,0.7
				C450.8,44.7,450.3,44.9,449.7,44.9z"/>
			<path class="st1" d="M449.9,40.5L449.9,40.5c-2.7,0-4.8,2-4.8,4.6c0,2.6,2.1,4.6,4.8,4.6c2.6,0,4.7-2.1,4.7-4.6
				C454.6,42.5,452.5,40.5,449.9,40.5z M449.9,48.8c-2.1,0-3.6-1.6-3.6-3.7c0-2,1.5-3.7,3.5-3.7h0c2,0,3.5,1.7,3.5,3.7
				C453.4,47.2,451.9,48.8,449.9,48.8z"/>
			<path class="st1" d="M379.6,31.8c-30.5,0-55.3,24.8-55.3,55.3c0,30.5,24.8,55.3,55.3,55.3c30.5,0,55.3-24.8,55.3-55.3
				C434.8,56.6,410,31.8,379.6,31.8z M379.6,130.6c-24,0-43.6-19.5-43.6-43.6c0-24,19.5-43.6,43.6-43.6c24,0,43.6,19.5,43.6,43.6
				C423.1,111.1,403.6,130.6,379.6,130.6z"/>
		</g>
	</g>
</g>
</svg>
